G75*
%MOIN*%
%OFA0B0*%
%FSLAX24Y24*%
%IPPOS*%
%LPD*%
%AMOC8*
5,1,8,0,0,1.08239X$1,22.5*
%
%ADD10C,0.0040*%
%ADD11C,0.0080*%
%ADD12C,0.0050*%
%ADD13R,0.0001X0.0539*%
%ADD14R,0.0001X0.0550*%
%ADD15R,0.0001X0.0556*%
%ADD16R,0.0001X0.0555*%
%ADD17R,0.0001X0.0561*%
%ADD18R,0.0001X0.0560*%
%ADD19R,0.0001X0.0564*%
%ADD20R,0.0001X0.0564*%
%ADD21R,0.0001X0.0568*%
%ADD22R,0.0001X0.0567*%
%ADD23R,0.0001X0.0570*%
%ADD24R,0.0001X0.0574*%
%ADD25R,0.0001X0.0576*%
%ADD26R,0.0001X0.0576*%
%ADD27R,0.0001X0.0578*%
%ADD28R,0.0001X0.0581*%
%ADD29R,0.0001X0.0580*%
%ADD30R,0.0001X0.0583*%
%ADD31R,0.0001X0.0582*%
%ADD32R,0.0001X0.0585*%
%ADD33R,0.0001X0.0586*%
%ADD34R,0.0001X0.0588*%
%ADD35R,0.0001X0.0590*%
%ADD36R,0.0001X0.0591*%
%ADD37R,0.0001X0.0593*%
%ADD38R,0.0001X0.0594*%
%ADD39R,0.0001X0.0596*%
%ADD40R,0.0001X0.0595*%
%ADD41R,0.0001X0.0597*%
%ADD42R,0.0001X0.0598*%
%ADD43R,0.0001X0.0598*%
%ADD44R,0.0001X0.0599*%
%ADD45R,0.0001X0.0601*%
%ADD46R,0.0001X0.0600*%
%ADD47R,0.0001X0.0601*%
%ADD48R,0.0001X0.0602*%
%ADD49R,0.0001X0.0602*%
%ADD50R,0.0001X0.0603*%
%ADD51R,0.0001X0.0604*%
%ADD52R,0.0001X0.0604*%
%ADD53R,0.0001X0.0605*%
%ADD54R,0.0001X0.0606*%
%ADD55R,0.0001X0.0606*%
%ADD56R,0.0001X0.0607*%
%ADD57R,0.0001X0.0607*%
%ADD58R,0.0001X0.0609*%
%ADD59R,0.0001X0.0608*%
%ADD60R,0.0001X0.0609*%
%ADD61R,0.0001X0.0610*%
%ADD62R,0.0001X0.0610*%
%ADD63R,0.0001X0.0610*%
%ADD64R,0.0001X0.0611*%
%ADD65R,0.0001X0.0611*%
%ADD66R,0.0001X0.0611*%
%ADD67R,0.0001X0.0612*%
%ADD68R,0.0001X0.0612*%
%ADD69R,0.0001X0.0613*%
%ADD70R,0.0001X0.0613*%
%ADD71R,0.0001X0.0611*%
%ADD72R,0.0001X0.0606*%
%ADD73R,0.0001X0.0610*%
%ADD74R,0.0001X0.0604*%
%ADD75R,0.0001X0.0603*%
%ADD76R,0.0001X0.0608*%
%ADD77R,0.0001X0.0602*%
%ADD78R,0.0001X0.0599*%
%ADD79R,0.0001X0.0606*%
%ADD80R,0.0001X0.0598*%
%ADD81R,0.0001X0.0604*%
%ADD82R,0.0001X0.0596*%
%ADD83R,0.0001X0.0594*%
%ADD84R,0.0001X0.0602*%
%ADD85R,0.0001X0.0594*%
%ADD86R,0.0001X0.0592*%
%ADD87R,0.0001X0.0600*%
%ADD88R,0.0001X0.0590*%
%ADD89R,0.0001X0.0589*%
%ADD90R,0.0001X0.0598*%
%ADD91R,0.0001X0.0587*%
%ADD92R,0.0001X0.0586*%
%ADD93R,0.0001X0.0595*%
%ADD94R,0.0001X0.0582*%
%ADD95R,0.0001X0.0579*%
%ADD96R,0.0001X0.0591*%
%ADD97R,0.0001X0.0577*%
%ADD98R,0.0001X0.0590*%
%ADD99R,0.0001X0.0574*%
%ADD100R,0.0001X0.0571*%
%ADD101R,0.0001X0.0569*%
%ADD102R,0.0001X0.0584*%
%ADD103R,0.0001X0.0566*%
%ADD104R,0.0001X0.0562*%
%ADD105R,0.0001X0.0581*%
%ADD106R,0.0001X0.0557*%
%ADD107R,0.0001X0.0552*%
%ADD108R,0.0001X0.0576*%
%ADD109R,0.0001X0.0544*%
%ADD110R,0.0001X0.0413*%
%ADD111R,0.0001X0.0570*%
%ADD112R,0.0001X0.0412*%
%ADD113R,0.0001X0.0412*%
%ADD114R,0.0001X0.0564*%
%ADD115R,0.0001X0.0555*%
%ADD116R,0.0001X0.0411*%
%ADD117R,0.0001X0.0411*%
%ADD118R,0.0001X0.0540*%
%ADD119R,0.0001X0.0383*%
%ADD120R,0.0001X0.0410*%
%ADD121R,0.0001X0.0410*%
%ADD122R,0.0001X0.0383*%
%ADD123R,0.0001X0.0382*%
%ADD124R,0.0001X0.0410*%
%ADD125R,0.0001X0.0409*%
%ADD126R,0.0001X0.0382*%
%ADD127R,0.0001X0.0409*%
%ADD128R,0.0001X0.0382*%
%ADD129R,0.0001X0.0408*%
%ADD130R,0.0001X0.0408*%
%ADD131R,0.0001X0.0381*%
%ADD132R,0.0001X0.0381*%
%ADD133R,0.0001X0.0407*%
%ADD134R,0.0001X0.0407*%
%ADD135R,0.0001X0.0380*%
%ADD136R,0.0001X0.0380*%
%ADD137R,0.0001X0.0406*%
%ADD138R,0.0001X0.0406*%
%ADD139R,0.0001X0.0379*%
%ADD140R,0.0001X0.0406*%
%ADD141R,0.0001X0.0406*%
%ADD142R,0.0001X0.0379*%
%ADD143R,0.0001X0.0405*%
%ADD144R,0.0001X0.0378*%
%ADD145R,0.0001X0.0404*%
%ADD146R,0.0001X0.0378*%
%ADD147R,0.0001X0.0404*%
%ADD148R,0.0001X0.0378*%
%ADD149R,0.0001X0.0403*%
%ADD150R,0.0001X0.0403*%
%ADD151R,0.0001X0.0377*%
%ADD152R,0.0001X0.0377*%
%ADD153R,0.0001X0.0402*%
%ADD154R,0.0001X0.0402*%
%ADD155R,0.0001X0.0376*%
%ADD156R,0.0001X0.0376*%
%ADD157R,0.0001X0.0402*%
%ADD158R,0.0001X0.0402*%
%ADD159R,0.0001X0.0375*%
%ADD160R,0.0001X0.0401*%
%ADD161R,0.0001X0.0375*%
%ADD162R,0.0001X0.0400*%
%ADD163R,0.0001X0.0400*%
%ADD164R,0.0001X0.0374*%
%ADD165R,0.0001X0.0399*%
%ADD166R,0.0001X0.0374*%
%ADD167R,0.0001X0.0399*%
%ADD168R,0.0001X0.0374*%
%ADD169R,0.0001X0.0398*%
%ADD170R,0.0001X0.0398*%
%ADD171R,0.0001X0.0374*%
%ADD172R,0.0001X0.0373*%
%ADD173R,0.0001X0.0398*%
%ADD174R,0.0001X0.0398*%
%ADD175R,0.0001X0.0372*%
%ADD176R,0.0001X0.0397*%
%ADD177R,0.0001X0.0372*%
%ADD178R,0.0001X0.0396*%
%ADD179R,0.0001X0.0371*%
%ADD180R,0.0001X0.0396*%
%ADD181R,0.0001X0.0371*%
%ADD182R,0.0001X0.0395*%
%ADD183R,0.0001X0.0370*%
%ADD184R,0.0001X0.0395*%
%ADD185R,0.0001X0.0370*%
%ADD186R,0.0001X0.0394*%
%ADD187R,0.0001X0.0394*%
%ADD188R,0.0001X0.0370*%
%ADD189R,0.0001X0.0394*%
%ADD190R,0.0001X0.0394*%
%ADD191R,0.0001X0.0370*%
%ADD192R,0.0001X0.0369*%
%ADD193R,0.0001X0.0393*%
%ADD194R,0.0001X0.0393*%
%ADD195R,0.0001X0.0369*%
%ADD196R,0.0001X0.0392*%
%ADD197R,0.0001X0.0368*%
%ADD198R,0.0001X0.0391*%
%ADD199R,0.0001X0.0367*%
%ADD200R,0.0001X0.0391*%
%ADD201R,0.0001X0.0367*%
%ADD202R,0.0001X0.0390*%
%ADD203R,0.0001X0.0390*%
%ADD204R,0.0001X0.0366*%
%ADD205R,0.0001X0.0366*%
%ADD206R,0.0001X0.0390*%
%ADD207R,0.0001X0.0390*%
%ADD208R,0.0001X0.0366*%
%ADD209R,0.0001X0.0366*%
%ADD210R,0.0001X0.0389*%
%ADD211R,0.0001X0.0389*%
%ADD212R,0.0001X0.0388*%
%ADD213R,0.0001X0.0365*%
%ADD214R,0.0001X0.0388*%
%ADD215R,0.0001X0.0365*%
%ADD216R,0.0001X0.0387*%
%ADD217R,0.0001X0.0364*%
%ADD218R,0.0001X0.0386*%
%ADD219R,0.0001X0.0364*%
%ADD220R,0.0001X0.0386*%
%ADD221R,0.0001X0.0363*%
%ADD222R,0.0001X0.0386*%
%ADD223R,0.0001X0.0386*%
%ADD224R,0.0001X0.0362*%
%ADD225R,0.0001X0.0362*%
%ADD226R,0.0001X0.0385*%
%ADD227R,0.0001X0.0385*%
%ADD228R,0.0001X0.0362*%
%ADD229R,0.0001X0.0384*%
%ADD230R,0.0001X0.0362*%
%ADD231R,0.0001X0.0384*%
%ADD232R,0.0001X0.0361*%
%ADD233R,0.0001X0.0361*%
%ADD234R,0.0001X0.0382*%
%ADD235R,0.0001X0.0360*%
%ADD236R,0.0001X0.0360*%
%ADD237R,0.0001X0.0359*%
%ADD238R,0.0001X0.0359*%
%ADD239R,0.0001X0.0358*%
%ADD240R,0.0001X0.0358*%
%ADD241R,0.0001X0.0379*%
%ADD242R,0.0001X0.0358*%
%ADD243R,0.0001X0.0357*%
%ADD244R,0.0001X0.0357*%
%ADD245R,0.0001X0.0378*%
%ADD246R,0.0001X0.0356*%
%ADD247R,0.0001X0.0356*%
%ADD248R,0.0001X0.0355*%
%ADD249R,0.0001X0.0376*%
%ADD250R,0.0001X0.0376*%
%ADD251R,0.0001X0.0355*%
%ADD252R,0.0001X0.0354*%
%ADD253R,0.0001X0.0354*%
%ADD254R,0.0001X0.0354*%
%ADD255R,0.0001X0.0353*%
%ADD256R,0.0001X0.0353*%
%ADD257R,0.0001X0.0373*%
%ADD258R,0.0001X0.0373*%
%ADD259R,0.0001X0.0352*%
%ADD260R,0.0001X0.0352*%
%ADD261R,0.0001X0.0351*%
%ADD262R,0.0001X0.0351*%
%ADD263R,0.0001X0.0350*%
%ADD264R,0.0001X0.0350*%
%ADD265R,0.0001X0.0370*%
%ADD266R,0.0001X0.0350*%
%ADD267R,0.0001X0.0350*%
%ADD268R,0.0001X0.0349*%
%ADD269R,0.0001X0.0368*%
%ADD270R,0.0001X0.0348*%
%ADD271R,0.0001X0.0348*%
%ADD272R,0.0001X0.0347*%
%ADD273R,0.0001X0.0347*%
%ADD274R,0.0001X0.0346*%
%ADD275R,0.0001X0.0346*%
%ADD276R,0.0001X0.0346*%
%ADD277R,0.0001X0.0346*%
%ADD278R,0.0001X0.0345*%
%ADD279R,0.0001X0.0363*%
%ADD280R,0.0001X0.0345*%
%ADD281R,0.0001X0.0344*%
%ADD282R,0.0001X0.0343*%
%ADD283R,0.0001X0.0343*%
%ADD284R,0.0001X0.0342*%
%ADD285R,0.0001X0.0342*%
%ADD286R,0.0001X0.0342*%
%ADD287R,0.0001X0.0342*%
%ADD288R,0.0001X0.0359*%
%ADD289R,0.0001X0.0359*%
%ADD290R,0.0001X0.0341*%
%ADD291R,0.0001X0.0358*%
%ADD292R,0.0001X0.0341*%
%ADD293R,0.0001X0.0340*%
%ADD294R,0.0001X0.0340*%
%ADD295R,0.0001X0.0339*%
%ADD296R,0.0001X0.0356*%
%ADD297R,0.0001X0.0338*%
%ADD298R,0.0001X0.0356*%
%ADD299R,0.0001X0.0338*%
%ADD300R,0.0001X0.0338*%
%ADD301R,0.0001X0.0338*%
%ADD302R,0.0001X0.0337*%
%ADD303R,0.0001X0.0337*%
%ADD304R,0.0001X0.0354*%
%ADD305R,0.0001X0.0353*%
%ADD306R,0.0001X0.0336*%
%ADD307R,0.0001X0.0353*%
%ADD308R,0.0001X0.0336*%
%ADD309R,0.0001X0.0335*%
%ADD310R,0.0001X0.0335*%
%ADD311R,0.0001X0.0334*%
%ADD312R,0.0001X0.0334*%
%ADD313R,0.0001X0.0334*%
%ADD314R,0.0001X0.0350*%
%ADD315R,0.0001X0.0350*%
%ADD316R,0.0001X0.0333*%
%ADD317R,0.0001X0.0333*%
%ADD318R,0.0001X0.0349*%
%ADD319R,0.0001X0.0332*%
%ADD320R,0.0001X0.0332*%
%ADD321R,0.0001X0.0331*%
%ADD322R,0.0001X0.0331*%
%ADD323R,0.0001X0.0330*%
%ADD324R,0.0001X0.0330*%
%ADD325R,0.0001X0.0330*%
%ADD326R,0.0001X0.0329*%
%ADD327R,0.0001X0.0329*%
%ADD328R,0.0001X0.0328*%
%ADD329R,0.0001X0.0328*%
%ADD330R,0.0001X0.0327*%
%ADD331R,0.0001X0.0327*%
%ADD332R,0.0001X0.0326*%
%ADD333R,0.0001X0.0326*%
%ADD334R,0.0001X0.0326*%
%ADD335R,0.0001X0.0326*%
%ADD336R,0.0001X0.0339*%
%ADD337R,0.0001X0.0325*%
%ADD338R,0.0001X0.0324*%
%ADD339R,0.0001X0.0324*%
%ADD340R,0.0001X0.0323*%
%ADD341R,0.0001X0.0323*%
%ADD342R,0.0001X0.0322*%
%ADD343R,0.0001X0.0322*%
%ADD344R,0.0001X0.0336*%
%ADD345R,0.0001X0.0336*%
%ADD346R,0.0001X0.0322*%
%ADD347R,0.0001X0.0334*%
%ADD348R,0.0001X0.0322*%
%ADD349R,0.0001X0.0321*%
%ADD350R,0.0001X0.0321*%
%ADD351R,0.0001X0.0320*%
%ADD352R,0.0001X0.0333*%
%ADD353R,0.0001X0.0333*%
%ADD354R,0.0001X0.0319*%
%ADD355R,0.0001X0.0319*%
%ADD356R,0.0001X0.0318*%
%ADD357R,0.0001X0.0318*%
%ADD358R,0.0001X0.0318*%
%ADD359R,0.0001X0.0318*%
%ADD360R,0.0001X0.0330*%
%ADD361R,0.0001X0.0330*%
%ADD362R,0.0001X0.0317*%
%ADD363R,0.0001X0.0317*%
%ADD364R,0.0001X0.0316*%
%ADD365R,0.0001X0.0316*%
%ADD366R,0.0001X0.0315*%
%ADD367R,0.0001X0.0314*%
%ADD368R,0.0001X0.0314*%
%ADD369R,0.0001X0.0314*%
%ADD370R,0.0001X0.0314*%
%ADD371R,0.0001X0.0325*%
%ADD372R,0.0001X0.0313*%
%ADD373R,0.0001X0.0313*%
%ADD374R,0.0001X0.0312*%
%ADD375R,0.0001X0.0312*%
%ADD376R,0.0001X0.0311*%
%ADD377R,0.0001X0.0311*%
%ADD378R,0.0001X0.0310*%
%ADD379R,0.0001X0.0310*%
%ADD380R,0.0001X0.0310*%
%ADD381R,0.0001X0.0320*%
%ADD382R,0.0001X0.0309*%
%ADD383R,0.0001X0.0309*%
%ADD384R,0.0001X0.0319*%
%ADD385R,0.0001X0.0319*%
%ADD386R,0.0001X0.0308*%
%ADD387R,0.0001X0.0308*%
%ADD388R,0.0001X0.0307*%
%ADD389R,0.0001X0.0307*%
%ADD390R,0.0001X0.0306*%
%ADD391R,0.0001X0.0316*%
%ADD392R,0.0001X0.0306*%
%ADD393R,0.0001X0.0316*%
%ADD394R,0.0001X0.0306*%
%ADD395R,0.0001X0.0315*%
%ADD396R,0.0001X0.0305*%
%ADD397R,0.0001X0.0305*%
%ADD398R,0.0001X0.0304*%
%ADD399R,0.0001X0.0304*%
%ADD400R,0.0001X0.0313*%
%ADD401R,0.0001X0.0303*%
%ADD402R,0.0001X0.0313*%
%ADD403R,0.0001X0.0303*%
%ADD404R,0.0001X0.0302*%
%ADD405R,0.0001X0.0302*%
%ADD406R,0.0001X0.0302*%
%ADD407R,0.0001X0.0310*%
%ADD408R,0.0001X0.0302*%
%ADD409R,0.0001X0.0301*%
%ADD410R,0.0001X0.0310*%
%ADD411R,0.0001X0.0300*%
%ADD412R,0.0001X0.0300*%
%ADD413R,0.0001X0.0299*%
%ADD414R,0.0001X0.0299*%
%ADD415R,0.0001X0.0298*%
%ADD416R,0.0001X0.0298*%
%ADD417R,0.0001X0.0298*%
%ADD418R,0.0001X0.0306*%
%ADD419R,0.0001X0.0298*%
%ADD420R,0.0001X0.0297*%
%ADD421R,0.0001X0.0297*%
%ADD422R,0.0001X0.0296*%
%ADD423R,0.0001X0.0295*%
%ADD424R,0.0001X0.0295*%
%ADD425R,0.0001X0.0294*%
%ADD426R,0.0001X0.0294*%
%ADD427R,0.0001X0.0294*%
%ADD428R,0.0001X0.0294*%
%ADD429R,0.0001X0.0301*%
%ADD430R,0.0001X0.0293*%
%ADD431R,0.0001X0.0299*%
%ADD432R,0.0001X0.0293*%
%ADD433R,0.0001X0.0299*%
%ADD434R,0.0001X0.0292*%
%ADD435R,0.0001X0.0292*%
%ADD436R,0.0001X0.0291*%
%ADD437R,0.0001X0.0290*%
%ADD438R,0.0001X0.0290*%
%ADD439R,0.0001X0.0290*%
%ADD440R,0.0001X0.0296*%
%ADD441R,0.0001X0.0290*%
%ADD442R,0.0001X0.0289*%
%ADD443R,0.0001X0.0289*%
%ADD444R,0.0001X0.0288*%
%ADD445R,0.0001X0.0288*%
%ADD446R,0.0001X0.0287*%
%ADD447R,0.0001X0.0293*%
%ADD448R,0.0001X0.0293*%
%ADD449R,0.0001X0.0287*%
%ADD450R,0.0001X0.0286*%
%ADD451R,0.0001X0.0291*%
%ADD452R,0.0001X0.0286*%
%ADD453R,0.0001X0.0286*%
%ADD454R,0.0001X0.0285*%
%ADD455R,0.0001X0.0285*%
%ADD456R,0.0001X0.0290*%
%ADD457R,0.0001X0.0290*%
%ADD458R,0.0001X0.0284*%
%ADD459R,0.0001X0.0284*%
%ADD460R,0.0001X0.0283*%
%ADD461R,0.0001X0.0283*%
%ADD462R,0.0001X0.0282*%
%ADD463R,0.0001X0.0286*%
%ADD464R,0.0001X0.0282*%
%ADD465R,0.0001X0.0282*%
%ADD466R,0.0001X0.0281*%
%ADD467R,0.0001X0.0281*%
%ADD468R,0.0001X0.0280*%
%ADD469R,0.0001X0.0280*%
%ADD470R,0.0001X0.0279*%
%ADD471R,0.0001X0.0279*%
%ADD472R,0.0001X0.0278*%
%ADD473R,0.0001X0.0282*%
%ADD474R,0.0001X0.0278*%
%ADD475R,0.0001X0.0278*%
%ADD476R,0.0001X0.0278*%
%ADD477R,0.0001X0.0277*%
%ADD478R,0.0001X0.0276*%
%ADD479R,0.0001X0.0279*%
%ADD480R,0.0001X0.0276*%
%ADD481R,0.0001X0.0275*%
%ADD482R,0.0001X0.0275*%
%ADD483R,0.0001X0.0274*%
%ADD484R,0.0001X0.0274*%
%ADD485R,0.0001X0.0277*%
%ADD486R,0.0001X0.0274*%
%ADD487R,0.0001X0.0276*%
%ADD488R,0.0001X0.0276*%
%ADD489R,0.0001X0.0274*%
%ADD490R,0.0001X0.0273*%
%ADD491R,0.0001X0.0273*%
%ADD492R,0.0001X0.0272*%
%ADD493R,0.0001X0.0271*%
%ADD494R,0.0001X0.0271*%
%ADD495R,0.0001X0.0273*%
%ADD496R,0.0001X0.0273*%
%ADD497R,0.0001X0.0270*%
%ADD498R,0.0001X0.0270*%
%ADD499R,0.0001X0.0272*%
%ADD500R,0.0001X0.0270*%
%ADD501R,0.0001X0.0270*%
%ADD502R,0.0001X0.0269*%
%ADD503R,0.0001X0.0269*%
%ADD504R,0.0001X0.0270*%
%ADD505R,0.0001X0.0268*%
%ADD506R,0.0001X0.0268*%
%ADD507R,0.0001X0.0267*%
%ADD508R,0.0001X0.0266*%
%ADD509R,0.0001X0.0266*%
%ADD510R,0.0001X0.0267*%
%ADD511R,0.0001X0.0266*%
%ADD512R,0.0001X0.0266*%
%ADD513R,0.0001X0.0265*%
%ADD514R,0.0001X0.0265*%
%ADD515R,0.0001X0.0264*%
%ADD516R,0.0001X0.0264*%
%ADD517R,0.0001X0.0263*%
%ADD518R,0.0001X0.0263*%
%ADD519R,0.0001X0.0262*%
%ADD520R,0.0001X0.0262*%
%ADD521R,0.0001X0.0262*%
%ADD522R,0.0001X0.0262*%
%ADD523R,0.0001X0.0261*%
%ADD524R,0.0001X0.0261*%
%ADD525R,0.0001X0.0260*%
%ADD526R,0.0001X0.0260*%
%ADD527R,0.0001X0.0259*%
%ADD528R,0.0001X0.0259*%
%ADD529R,0.0001X0.0259*%
%ADD530R,0.0001X0.0258*%
%ADD531R,0.0001X0.0258*%
%ADD532R,0.0001X0.0259*%
%ADD533R,0.0001X0.0258*%
%ADD534R,0.0001X0.0258*%
%ADD535R,0.0001X0.0257*%
%ADD536R,0.0001X0.0256*%
%ADD537R,0.0001X0.0257*%
%ADD538R,0.0001X0.0256*%
%ADD539R,0.0001X0.0255*%
%ADD540R,0.0001X0.0255*%
%ADD541R,0.0001X0.0256*%
%ADD542R,0.0001X0.0256*%
%ADD543R,0.0001X0.0254*%
%ADD544R,0.0001X0.0254*%
%ADD545R,0.0001X0.0254*%
%ADD546R,0.0001X0.0254*%
%ADD547R,0.0001X0.0253*%
%ADD548R,0.0001X0.0253*%
%ADD549R,0.0001X0.0252*%
%ADD550R,0.0001X0.0251*%
%ADD551R,0.0001X0.0251*%
%ADD552R,0.0001X0.0253*%
%ADD553R,0.0001X0.0250*%
%ADD554R,0.0001X0.0250*%
%ADD555R,0.0001X0.0252*%
%ADD556R,0.0001X0.0250*%
%ADD557R,0.0001X0.0250*%
%ADD558R,0.0001X0.0249*%
%ADD559R,0.0001X0.0249*%
%ADD560R,0.0001X0.0248*%
%ADD561R,0.0001X0.0247*%
%ADD562R,0.0001X0.0247*%
%ADD563R,0.0001X0.0250*%
%ADD564R,0.0001X0.0246*%
%ADD565R,0.0001X0.0246*%
%ADD566R,0.0001X0.0250*%
%ADD567R,0.0001X0.0246*%
%ADD568R,0.0001X0.0246*%
%ADD569R,0.0001X0.0245*%
%ADD570R,0.0001X0.0245*%
%ADD571R,0.0001X0.0244*%
%ADD572R,0.0001X0.0243*%
%ADD573R,0.0001X0.0243*%
%ADD574R,0.0001X0.0242*%
%ADD575R,0.0001X0.0242*%
%ADD576R,0.0001X0.0242*%
%ADD577R,0.0001X0.0242*%
%ADD578R,0.0001X0.0241*%
%ADD579R,0.0001X0.0241*%
%ADD580R,0.0001X0.0240*%
%ADD581R,0.0001X0.0240*%
%ADD582R,0.0001X0.0244*%
%ADD583R,0.0001X0.0239*%
%ADD584R,0.0001X0.0238*%
%ADD585R,0.0001X0.0238*%
%ADD586R,0.0001X0.0238*%
%ADD587R,0.0001X0.0238*%
%ADD588R,0.0001X0.0237*%
%ADD589R,0.0001X0.0237*%
%ADD590R,0.0001X0.0415*%
%ADD591R,0.0001X0.0415*%
%ADD592R,0.0001X0.1389*%
%ADD593R,0.0001X0.1389*%
%ADD594R,0.0001X0.0514*%
%ADD595R,0.0001X0.0489*%
%ADD596R,0.0001X0.0514*%
%ADD597R,0.0001X0.0489*%
%ADD598R,0.0001X0.1388*%
%ADD599R,0.0001X0.1388*%
%ADD600R,0.0001X0.1387*%
%ADD601R,0.0001X0.1387*%
%ADD602R,0.0001X0.1386*%
%ADD603R,0.0001X0.1386*%
%ADD604R,0.0001X0.1386*%
%ADD605R,0.0001X0.1385*%
%ADD606R,0.0001X0.1384*%
%ADD607R,0.0001X0.1384*%
%ADD608R,0.0001X0.1383*%
%ADD609R,0.0001X0.1383*%
%ADD610R,0.0001X0.1382*%
%ADD611R,0.0001X0.1382*%
%ADD612R,0.0001X0.1382*%
%ADD613R,0.0001X0.1381*%
%ADD614R,0.0001X0.1381*%
%ADD615R,0.0001X0.1380*%
%ADD616R,0.0001X0.1379*%
%ADD617R,0.0001X0.1379*%
%ADD618R,0.0001X0.1378*%
%ADD619R,0.0001X0.1378*%
%ADD620R,0.0001X0.1378*%
%ADD621R,0.0001X0.1376*%
%ADD622R,0.0001X0.1376*%
%ADD623R,0.0001X0.1374*%
%ADD624R,0.0001X0.1374*%
%ADD625R,0.0001X0.1373*%
%ADD626R,0.0001X0.1373*%
%ADD627R,0.0001X0.1371*%
%ADD628R,0.0001X0.1371*%
%ADD629R,0.0001X0.1370*%
%ADD630R,0.0001X0.1370*%
%ADD631R,0.0001X0.1369*%
%ADD632R,0.0001X0.1368*%
%ADD633R,0.0001X0.1368*%
%ADD634R,0.0001X0.1367*%
%ADD635R,0.0001X0.1366*%
%ADD636R,0.0001X0.1366*%
%ADD637R,0.0001X0.1365*%
%ADD638R,0.0001X0.1364*%
%ADD639R,0.0001X0.1363*%
%ADD640R,0.0001X0.1363*%
%ADD641R,0.0001X0.1362*%
%ADD642R,0.0001X0.1362*%
%ADD643R,0.0001X0.1362*%
%ADD644R,0.0001X0.1361*%
%ADD645R,0.0001X0.1360*%
%ADD646R,0.0001X0.1359*%
%ADD647R,0.0001X0.1358*%
%ADD648R,0.0001X0.1358*%
%ADD649R,0.0001X0.1358*%
%ADD650R,0.0001X0.1357*%
%ADD651R,0.0001X0.1357*%
%ADD652R,0.0001X0.1356*%
%ADD653R,0.0001X0.1355*%
%ADD654R,0.0001X0.1354*%
%ADD655R,0.0001X0.1354*%
%ADD656R,0.0001X0.1354*%
%ADD657R,0.0001X0.1353*%
%ADD658R,0.0001X0.1352*%
%ADD659R,0.0001X0.1351*%
%ADD660R,0.0001X0.1350*%
%ADD661R,0.0001X0.1348*%
%ADD662R,0.0001X0.1346*%
%ADD663R,0.0001X0.1344*%
%ADD664R,0.0001X0.1342*%
%ADD665R,0.0001X0.1341*%
%ADD666R,0.0001X0.1339*%
%ADD667R,0.0001X0.1338*%
%ADD668R,0.0001X0.1336*%
%ADD669R,0.0001X0.1334*%
%ADD670R,0.0001X0.1333*%
%ADD671R,0.0001X0.1331*%
%ADD672R,0.0001X0.1330*%
%ADD673R,0.0001X0.1328*%
%ADD674R,0.0001X0.1326*%
%ADD675R,0.0001X0.1325*%
%ADD676R,0.0001X0.1323*%
%ADD677R,0.0001X0.1322*%
%ADD678R,0.0001X0.1320*%
%ADD679R,0.0001X0.1318*%
%ADD680R,0.0001X0.1317*%
%ADD681R,0.0001X0.1315*%
%ADD682R,0.0001X0.1314*%
%ADD683R,0.0001X0.1312*%
%ADD684R,0.0001X0.1310*%
%ADD685R,0.0001X0.1309*%
%ADD686R,0.0001X0.1307*%
%ADD687R,0.0001X0.1306*%
%ADD688R,0.0001X0.1304*%
%ADD689R,0.0001X0.1302*%
%ADD690R,0.0001X0.1301*%
%ADD691R,0.0001X0.1299*%
%ADD692R,0.0001X0.1298*%
%ADD693R,0.0001X0.1296*%
%ADD694R,0.0001X0.1294*%
%ADD695R,0.0001X0.1292*%
%ADD696R,0.0001X0.1290*%
%ADD697R,0.0001X0.1289*%
%ADD698R,0.0001X0.1287*%
%ADD699R,0.0001X0.1286*%
%ADD700R,0.0001X0.1284*%
%ADD701R,0.0001X0.1282*%
%ADD702R,0.0001X0.1281*%
%ADD703R,0.0001X0.1279*%
%ADD704R,0.0001X0.1278*%
%ADD705R,0.0001X0.1276*%
%ADD706R,0.0001X0.1274*%
%ADD707R,0.0001X0.1273*%
%ADD708R,0.0001X0.1271*%
%ADD709R,0.0001X0.1270*%
%ADD710R,0.0001X0.1268*%
%ADD711R,0.0001X0.1266*%
%ADD712R,0.0001X0.1264*%
%ADD713R,0.0001X0.1262*%
%ADD714R,0.0001X0.1261*%
%ADD715R,0.0001X0.1259*%
%ADD716R,0.0001X0.1258*%
%ADD717R,0.0001X0.1256*%
%ADD718R,0.0001X0.1254*%
%ADD719R,0.0001X0.1253*%
%ADD720R,0.0001X0.1251*%
%ADD721R,0.0001X0.1250*%
%ADD722R,0.0001X0.1248*%
%ADD723R,0.0001X0.1246*%
%ADD724R,0.0001X0.1245*%
%ADD725R,0.0001X0.1243*%
%ADD726R,0.0001X0.1242*%
%ADD727R,0.0001X0.1240*%
%ADD728R,0.0001X0.1238*%
%ADD729R,0.0001X0.1237*%
%ADD730R,0.0001X0.1235*%
%ADD731R,0.0001X0.1234*%
%ADD732R,0.0001X0.1232*%
%ADD733R,0.0001X0.1230*%
%ADD734R,0.0001X0.1229*%
%ADD735R,0.0001X0.1227*%
%ADD736R,0.0001X0.1226*%
%ADD737R,0.0001X0.1224*%
%ADD738R,0.0001X0.1222*%
%ADD739R,0.0001X0.1221*%
%ADD740R,0.0001X0.1219*%
%ADD741R,0.0001X0.1218*%
%ADD742R,0.0001X0.1216*%
%ADD743R,0.0001X0.1214*%
%ADD744R,0.0001X0.1212*%
%ADD745R,0.0001X0.1210*%
%ADD746R,0.0001X0.1209*%
%ADD747R,0.0001X0.1207*%
%ADD748R,0.0001X0.1206*%
%ADD749R,0.0001X0.1204*%
%ADD750R,0.0001X0.1202*%
%ADD751R,0.0001X0.1201*%
%ADD752R,0.0001X0.1199*%
%ADD753R,0.0001X0.1198*%
%ADD754R,0.0001X0.1196*%
%ADD755R,0.0001X0.1194*%
%ADD756R,0.0001X0.1193*%
%ADD757R,0.0001X0.1191*%
%ADD758R,0.0001X0.1190*%
%ADD759R,0.0001X0.1188*%
%ADD760R,0.0001X0.1186*%
%ADD761R,0.0001X0.1184*%
%ADD762R,0.0001X0.1182*%
%ADD763R,0.0001X0.1181*%
%ADD764R,0.0001X0.1179*%
%ADD765R,0.0001X0.1178*%
%ADD766R,0.0001X0.1176*%
%ADD767R,0.0001X0.1174*%
%ADD768R,0.0001X0.1173*%
%ADD769R,0.0001X0.1171*%
%ADD770R,0.0001X0.1170*%
%ADD771R,0.0001X0.1168*%
%ADD772R,0.0001X0.1166*%
%ADD773R,0.0001X0.1165*%
%ADD774R,0.0001X0.1163*%
%ADD775R,0.0001X0.1162*%
%ADD776R,0.0001X0.1160*%
%ADD777R,0.0001X0.1158*%
%ADD778R,0.0001X0.1157*%
%ADD779R,0.0001X0.1155*%
%ADD780R,0.0001X0.1154*%
%ADD781R,0.0001X0.1152*%
%ADD782R,0.0001X0.1150*%
%ADD783R,0.0001X0.1149*%
%ADD784R,0.0001X0.1147*%
%ADD785R,0.0001X0.1146*%
%ADD786R,0.0001X0.1144*%
%ADD787R,0.0001X0.1142*%
%ADD788R,0.0001X0.1141*%
%ADD789R,0.0001X0.1139*%
%ADD790R,0.0001X0.1138*%
%ADD791R,0.0001X0.1136*%
%ADD792R,0.0001X0.1134*%
%ADD793R,0.0001X0.1132*%
%ADD794R,0.0001X0.1130*%
%ADD795R,0.0001X0.1129*%
%ADD796R,0.0001X0.1127*%
%ADD797R,0.0001X0.1126*%
%ADD798R,0.0001X0.1124*%
%ADD799R,0.0001X0.1122*%
%ADD800R,0.0001X0.1121*%
%ADD801R,0.0001X0.1119*%
%ADD802R,0.0001X0.1118*%
%ADD803R,0.0001X0.1116*%
%ADD804R,0.0001X0.1114*%
%ADD805R,0.0001X0.1113*%
%ADD806R,0.0001X0.1111*%
%ADD807R,0.0001X0.1110*%
%ADD808R,0.0001X0.1107*%
%ADD809R,0.0001X0.1106*%
%ADD810R,0.0001X0.1104*%
%ADD811R,0.0001X0.1102*%
%ADD812R,0.0001X0.1101*%
%ADD813R,0.0001X0.1099*%
%ADD814R,0.0001X0.1098*%
%ADD815R,0.0001X0.1096*%
%ADD816R,0.0001X0.1094*%
%ADD817R,0.0001X0.1093*%
%ADD818R,0.0001X0.1091*%
%ADD819R,0.0001X0.1090*%
%ADD820R,0.0001X0.1088*%
%ADD821R,0.0001X0.1086*%
%ADD822R,0.0001X0.1085*%
%ADD823R,0.0001X0.1083*%
%ADD824R,0.0001X0.1082*%
%ADD825R,0.0001X0.1080*%
%ADD826R,0.0001X0.1078*%
%ADD827R,0.0001X0.1077*%
%ADD828R,0.0001X0.1075*%
%ADD829R,0.0001X0.1074*%
%ADD830R,0.0001X0.1072*%
%ADD831R,0.0001X0.1070*%
%ADD832R,0.0001X0.1069*%
%ADD833R,0.0001X0.1067*%
%ADD834R,0.0001X0.1066*%
%ADD835R,0.0001X0.1064*%
%ADD836R,0.0001X0.1062*%
%ADD837R,0.0001X0.1061*%
%ADD838R,0.0001X0.1059*%
%ADD839R,0.0001X0.1058*%
%ADD840R,0.0001X0.1056*%
%ADD841R,0.0001X0.1054*%
%ADD842R,0.0001X0.1052*%
%ADD843R,0.0001X0.1050*%
%ADD844R,0.0001X0.1049*%
%ADD845R,0.0001X0.1047*%
%ADD846R,0.0001X0.1046*%
%ADD847R,0.0001X0.1044*%
%ADD848R,0.0001X0.1042*%
%ADD849R,0.0001X0.1041*%
%ADD850R,0.0001X0.1039*%
%ADD851R,0.0001X0.1038*%
%ADD852R,0.0001X0.1036*%
%ADD853R,0.0001X0.1034*%
%ADD854R,0.0001X0.1033*%
%ADD855R,0.0001X0.1031*%
%ADD856R,0.0001X0.1030*%
%ADD857R,0.0001X0.1027*%
%ADD858R,0.0001X0.1026*%
%ADD859R,0.0001X0.1024*%
%ADD860R,0.0001X0.1022*%
%ADD861R,0.0001X0.1021*%
%ADD862R,0.0001X0.1019*%
%ADD863R,0.0001X0.1018*%
%ADD864R,0.0001X0.1016*%
%ADD865R,0.0001X0.1014*%
%ADD866R,0.0001X0.1013*%
%ADD867R,0.0001X0.1011*%
%ADD868R,0.0001X0.1010*%
%ADD869R,0.0001X0.1008*%
%ADD870R,0.0001X0.1006*%
%ADD871R,0.0001X0.1005*%
%ADD872R,0.0001X0.1003*%
%ADD873R,0.0001X0.1002*%
%ADD874R,0.0001X0.1000*%
%ADD875R,0.0001X0.0998*%
%ADD876R,0.0001X0.0997*%
%ADD877R,0.0001X0.0995*%
%ADD878R,0.0001X0.0994*%
%ADD879R,0.0001X0.0992*%
%ADD880R,0.0001X0.0990*%
%ADD881R,0.0001X0.0989*%
%ADD882R,0.0001X0.0987*%
%ADD883R,0.0001X0.0986*%
%ADD884R,0.0001X0.0984*%
%ADD885R,0.0001X0.0982*%
%ADD886R,0.0001X0.0981*%
%ADD887R,0.0001X0.0979*%
%ADD888R,0.0001X0.0978*%
%ADD889R,0.0001X0.0976*%
%ADD890R,0.0001X0.0974*%
%ADD891R,0.0001X0.0972*%
%ADD892R,0.0001X0.0970*%
%ADD893R,0.0001X0.0969*%
%ADD894R,0.0001X0.0967*%
%ADD895R,0.0001X0.0966*%
%ADD896R,0.0001X0.0964*%
%ADD897R,0.0001X0.0962*%
%ADD898R,0.0001X0.0961*%
%ADD899R,0.0001X0.0959*%
%ADD900R,0.0001X0.0958*%
%ADD901R,0.0001X0.0956*%
%ADD902R,0.0001X0.0954*%
%ADD903R,0.0001X0.0953*%
%ADD904R,0.0001X0.0951*%
%ADD905R,0.0001X0.0950*%
%ADD906R,0.0001X0.0947*%
%ADD907R,0.0001X0.0946*%
%ADD908R,0.0001X0.0944*%
%ADD909R,0.0001X0.0942*%
%ADD910R,0.0001X0.0941*%
%ADD911R,0.0001X0.0939*%
%ADD912R,0.0001X0.0938*%
%ADD913R,0.0001X0.0936*%
%ADD914R,0.0001X0.0934*%
%ADD915R,0.0001X0.0933*%
%ADD916R,0.0001X0.0931*%
%ADD917R,0.0001X0.0930*%
%ADD918R,0.0001X0.0928*%
%ADD919R,0.0001X0.0926*%
%ADD920R,0.0001X0.0925*%
%ADD921R,0.0001X0.0923*%
%ADD922R,0.0001X0.0922*%
%ADD923R,0.0001X0.0920*%
%ADD924R,0.0001X0.0918*%
%ADD925R,0.0001X0.0917*%
%ADD926R,0.0001X0.0914*%
%ADD927R,0.0001X0.0909*%
%ADD928R,0.0001X0.0905*%
%ADD929R,0.0001X0.0901*%
%ADD930R,0.0001X0.0896*%
%ADD931R,0.0001X0.0891*%
%ADD932R,0.0001X0.0886*%
%ADD933R,0.0001X0.0882*%
%ADD934R,0.0001X0.0876*%
%ADD935R,0.0001X0.0871*%
%ADD936R,0.0001X0.0866*%
%ADD937R,0.0001X0.0860*%
%ADD938R,0.0001X0.0854*%
%ADD939R,0.0001X0.0848*%
%ADD940R,0.0001X0.0842*%
%ADD941R,0.0001X0.0835*%
%ADD942R,0.0001X0.0829*%
%ADD943R,0.0001X0.0821*%
%ADD944R,0.0001X0.0813*%
%ADD945R,0.0001X0.0804*%
%ADD946R,0.0001X0.0794*%
%ADD947R,0.0001X0.0782*%
%ADD948R,0.0001X0.0763*%
%ADD949C,0.0000*%
D10*
X015289Y018277D02*
X015410Y018157D01*
X015650Y018157D01*
X015470Y018157D02*
X015470Y018398D01*
X015410Y018398D02*
X015289Y018277D01*
X015410Y018398D02*
X015650Y018398D01*
X015590Y018526D02*
X015650Y018586D01*
X015650Y018706D01*
X015590Y018766D01*
X015350Y018766D01*
X015289Y018706D01*
X015289Y018586D01*
X015350Y018526D01*
X016110Y018541D02*
X016110Y018661D01*
X016170Y018721D01*
X016290Y018721D01*
X016350Y018661D01*
X016350Y018541D01*
X016290Y018481D01*
X016170Y018481D01*
X016110Y018541D01*
X016110Y018353D02*
X016110Y018293D01*
X016170Y018233D01*
X016110Y018173D01*
X016170Y018113D01*
X016350Y018113D01*
X016350Y018233D02*
X016170Y018233D01*
X016110Y018353D02*
X016350Y018353D01*
X016350Y018849D02*
X016350Y019030D01*
X016290Y019090D01*
X016170Y019090D01*
X016110Y019030D01*
X016110Y018849D01*
X016290Y019214D02*
X016350Y019214D01*
X016350Y019274D01*
X016290Y019274D01*
X016290Y019214D01*
X016350Y019402D02*
X016350Y019582D01*
X016290Y019642D01*
X016170Y019642D01*
X016110Y019582D01*
X016110Y019402D01*
X015770Y019380D02*
X015650Y019260D01*
X015650Y019320D01*
X015590Y019320D01*
X015590Y019260D01*
X015650Y019260D01*
X015650Y019508D02*
X015650Y019688D01*
X015590Y019748D01*
X015530Y019688D01*
X015530Y019508D01*
X015470Y019508D02*
X015650Y019508D01*
X015470Y019508D02*
X015410Y019568D01*
X015410Y019688D01*
X015470Y019876D02*
X015650Y019876D01*
X015470Y019876D02*
X015410Y019936D01*
X015410Y020116D01*
X015650Y020116D01*
X015530Y020244D02*
X015530Y020485D01*
X015590Y020485D02*
X015470Y020485D01*
X015410Y020425D01*
X015410Y020304D01*
X015470Y020244D01*
X015530Y020244D01*
X015650Y020304D02*
X015650Y020425D01*
X015590Y020485D01*
X015650Y020613D02*
X015650Y020793D01*
X015590Y020853D01*
X015470Y020853D01*
X015410Y020793D01*
X015410Y020613D01*
X015289Y020613D02*
X015650Y020613D01*
X015650Y020981D02*
X015650Y021161D01*
X015590Y021221D01*
X015530Y021161D01*
X015530Y020981D01*
X015470Y020981D02*
X015650Y020981D01*
X015470Y020981D02*
X015410Y021041D01*
X015410Y021161D01*
X015410Y021349D02*
X015410Y021530D01*
X015470Y021590D01*
X015530Y021530D01*
X015530Y021409D01*
X015590Y021349D01*
X015650Y021409D01*
X015650Y021590D01*
X015650Y021718D02*
X015650Y021898D01*
X015590Y021958D01*
X015530Y021898D01*
X015530Y021718D01*
X015470Y021718D02*
X015650Y021718D01*
X015470Y021718D02*
X015410Y021778D01*
X015410Y021898D01*
X015470Y022086D02*
X015530Y022146D01*
X015530Y022326D01*
X015650Y022326D02*
X015289Y022326D01*
X015289Y022146D01*
X015350Y022086D01*
X015470Y022086D01*
X016110Y022102D02*
X016170Y022041D01*
X016350Y022041D01*
X016350Y022222D01*
X016290Y022282D01*
X016230Y022222D01*
X016230Y022041D01*
X016110Y022102D02*
X016110Y022222D01*
X016290Y022406D02*
X016290Y022466D01*
X016350Y022466D01*
X016350Y022406D01*
X016290Y022406D01*
X016290Y022594D02*
X016110Y022594D01*
X016290Y022594D02*
X016350Y022654D01*
X016290Y022714D01*
X016350Y022774D01*
X016290Y022834D01*
X016110Y022834D01*
X016110Y022962D02*
X016290Y022962D01*
X016350Y023022D01*
X016290Y023082D01*
X016350Y023142D01*
X016290Y023202D01*
X016110Y023202D01*
X016110Y023331D02*
X016290Y023331D01*
X016350Y023391D01*
X016290Y023451D01*
X016350Y023511D01*
X016290Y023571D01*
X016110Y023571D01*
X016170Y021913D02*
X016290Y021913D01*
X016350Y021853D01*
X016350Y021673D01*
X016350Y021545D02*
X016110Y021545D01*
X016230Y021545D02*
X016110Y021425D01*
X016110Y021365D01*
X016170Y021238D02*
X016290Y021238D01*
X016350Y021178D01*
X016350Y021058D01*
X016290Y020998D01*
X016170Y020998D01*
X016110Y021058D01*
X016110Y021178D01*
X016170Y021238D01*
X016110Y021673D02*
X016110Y021853D01*
X016170Y021913D01*
X016110Y020870D02*
X016110Y020690D01*
X016170Y020630D01*
X016290Y020630D01*
X016350Y020690D01*
X016350Y020870D01*
X015989Y020870D01*
X016170Y020501D02*
X016290Y020501D01*
X016350Y020441D01*
X016350Y020321D01*
X016290Y020261D01*
X016170Y020261D01*
X016110Y020321D01*
X016110Y020441D01*
X016170Y020501D01*
X016110Y020133D02*
X016110Y020013D01*
X016050Y020073D02*
X016290Y020073D01*
X016350Y020013D01*
X016350Y019888D02*
X016350Y019768D01*
X016350Y019828D02*
X016110Y019828D01*
X016110Y019888D01*
X015989Y019828D02*
X015929Y019828D01*
D11*
X015141Y027260D02*
X014353Y027260D01*
X014353Y027259D02*
X014309Y027264D01*
X014265Y027273D01*
X014221Y027284D01*
X014179Y027300D01*
X014138Y027318D01*
X014099Y027340D01*
X014062Y027364D01*
X014026Y027392D01*
X013993Y027422D01*
X013963Y027455D01*
X013935Y027490D01*
X013910Y027527D01*
X013888Y027566D01*
X013869Y027607D01*
X013854Y027649D01*
X013842Y027692D01*
X013842Y028401D02*
X013854Y028444D01*
X013869Y028486D01*
X013888Y028527D01*
X013910Y028566D01*
X013935Y028603D01*
X013963Y028638D01*
X013993Y028671D01*
X014026Y028701D01*
X014062Y028729D01*
X014099Y028753D01*
X014138Y028775D01*
X014179Y028793D01*
X014221Y028809D01*
X014265Y028820D01*
X014309Y028829D01*
X014353Y028834D01*
X015141Y028834D01*
X015185Y028829D01*
X015229Y028820D01*
X015273Y028809D01*
X015315Y028793D01*
X015356Y028775D01*
X015395Y028753D01*
X015432Y028729D01*
X015468Y028701D01*
X015501Y028671D01*
X015531Y028638D01*
X015559Y028603D01*
X015584Y028566D01*
X015606Y028527D01*
X015625Y028486D01*
X015640Y028444D01*
X015652Y028401D01*
X015652Y027692D02*
X015640Y027649D01*
X015625Y027607D01*
X015606Y027566D01*
X015584Y027527D01*
X015559Y027490D01*
X015531Y027455D01*
X015501Y027422D01*
X015468Y027392D01*
X015432Y027364D01*
X015395Y027340D01*
X015356Y027318D01*
X015315Y027300D01*
X015273Y027284D01*
X015229Y027273D01*
X015185Y027264D01*
X015141Y027259D01*
X017747Y004597D02*
X017747Y002597D01*
X020747Y002597D01*
X020747Y004597D01*
X017747Y004597D01*
X017997Y002397D02*
X018497Y002397D01*
D12*
X011928Y014747D02*
X011930Y014805D01*
X011936Y014863D01*
X011946Y014920D01*
X011960Y014976D01*
X011977Y015032D01*
X011998Y015086D01*
X012023Y015138D01*
X012052Y015189D01*
X012084Y015237D01*
X012119Y015283D01*
X012157Y015327D01*
X012198Y015368D01*
X012242Y015406D01*
X012288Y015441D01*
X012336Y015473D01*
X012387Y015502D01*
X012439Y015527D01*
X012493Y015548D01*
X012549Y015565D01*
X012605Y015579D01*
X012662Y015589D01*
X012720Y015595D01*
X012778Y015597D01*
X012836Y015595D01*
X012894Y015589D01*
X012951Y015579D01*
X013007Y015565D01*
X013063Y015548D01*
X013117Y015527D01*
X013169Y015502D01*
X013220Y015473D01*
X013268Y015441D01*
X013314Y015406D01*
X013358Y015368D01*
X013399Y015327D01*
X013437Y015283D01*
X013472Y015237D01*
X013504Y015189D01*
X013533Y015138D01*
X013558Y015086D01*
X013579Y015032D01*
X013596Y014976D01*
X013610Y014920D01*
X013620Y014863D01*
X013626Y014805D01*
X013628Y014747D01*
X013626Y014689D01*
X013620Y014631D01*
X013610Y014574D01*
X013596Y014518D01*
X013579Y014462D01*
X013558Y014408D01*
X013533Y014356D01*
X013504Y014305D01*
X013472Y014257D01*
X013437Y014211D01*
X013399Y014167D01*
X013358Y014126D01*
X013314Y014088D01*
X013268Y014053D01*
X013220Y014021D01*
X013169Y013992D01*
X013117Y013967D01*
X013063Y013946D01*
X013007Y013929D01*
X012951Y013915D01*
X012894Y013905D01*
X012836Y013899D01*
X012778Y013897D01*
X012720Y013899D01*
X012662Y013905D01*
X012605Y013915D01*
X012549Y013929D01*
X012493Y013946D01*
X012439Y013967D01*
X012387Y013992D01*
X012336Y014021D01*
X012288Y014053D01*
X012242Y014088D01*
X012198Y014126D01*
X012157Y014167D01*
X012119Y014211D01*
X012084Y014257D01*
X012052Y014305D01*
X012023Y014356D01*
X011998Y014408D01*
X011977Y014462D01*
X011960Y014518D01*
X011946Y014574D01*
X011936Y014631D01*
X011930Y014689D01*
X011928Y014747D01*
X015865Y014747D02*
X015867Y014805D01*
X015873Y014863D01*
X015883Y014920D01*
X015897Y014976D01*
X015914Y015032D01*
X015935Y015086D01*
X015960Y015138D01*
X015989Y015189D01*
X016021Y015237D01*
X016056Y015283D01*
X016094Y015327D01*
X016135Y015368D01*
X016179Y015406D01*
X016225Y015441D01*
X016273Y015473D01*
X016324Y015502D01*
X016376Y015527D01*
X016430Y015548D01*
X016486Y015565D01*
X016542Y015579D01*
X016599Y015589D01*
X016657Y015595D01*
X016715Y015597D01*
X016773Y015595D01*
X016831Y015589D01*
X016888Y015579D01*
X016944Y015565D01*
X017000Y015548D01*
X017054Y015527D01*
X017106Y015502D01*
X017157Y015473D01*
X017205Y015441D01*
X017251Y015406D01*
X017295Y015368D01*
X017336Y015327D01*
X017374Y015283D01*
X017409Y015237D01*
X017441Y015189D01*
X017470Y015138D01*
X017495Y015086D01*
X017516Y015032D01*
X017533Y014976D01*
X017547Y014920D01*
X017557Y014863D01*
X017563Y014805D01*
X017565Y014747D01*
X017563Y014689D01*
X017557Y014631D01*
X017547Y014574D01*
X017533Y014518D01*
X017516Y014462D01*
X017495Y014408D01*
X017470Y014356D01*
X017441Y014305D01*
X017409Y014257D01*
X017374Y014211D01*
X017336Y014167D01*
X017295Y014126D01*
X017251Y014088D01*
X017205Y014053D01*
X017157Y014021D01*
X017106Y013992D01*
X017054Y013967D01*
X017000Y013946D01*
X016944Y013929D01*
X016888Y013915D01*
X016831Y013905D01*
X016773Y013899D01*
X016715Y013897D01*
X016657Y013899D01*
X016599Y013905D01*
X016542Y013915D01*
X016486Y013929D01*
X016430Y013946D01*
X016376Y013967D01*
X016324Y013992D01*
X016273Y014021D01*
X016225Y014053D01*
X016179Y014088D01*
X016135Y014126D01*
X016094Y014167D01*
X016056Y014211D01*
X016021Y014257D01*
X015989Y014305D01*
X015960Y014356D01*
X015935Y014408D01*
X015914Y014462D01*
X015897Y014518D01*
X015883Y014574D01*
X015873Y014631D01*
X015867Y014689D01*
X015865Y014747D01*
X025814Y022584D02*
X025816Y022642D01*
X025822Y022700D01*
X025832Y022757D01*
X025846Y022813D01*
X025863Y022869D01*
X025884Y022923D01*
X025909Y022975D01*
X025938Y023026D01*
X025970Y023074D01*
X026005Y023120D01*
X026043Y023164D01*
X026084Y023205D01*
X026128Y023243D01*
X026174Y023278D01*
X026222Y023310D01*
X026273Y023339D01*
X026325Y023364D01*
X026379Y023385D01*
X026435Y023402D01*
X026491Y023416D01*
X026548Y023426D01*
X026606Y023432D01*
X026664Y023434D01*
X026722Y023432D01*
X026780Y023426D01*
X026837Y023416D01*
X026893Y023402D01*
X026949Y023385D01*
X027003Y023364D01*
X027055Y023339D01*
X027106Y023310D01*
X027154Y023278D01*
X027200Y023243D01*
X027244Y023205D01*
X027285Y023164D01*
X027323Y023120D01*
X027358Y023074D01*
X027390Y023026D01*
X027419Y022975D01*
X027444Y022923D01*
X027465Y022869D01*
X027482Y022813D01*
X027496Y022757D01*
X027506Y022700D01*
X027512Y022642D01*
X027514Y022584D01*
X027512Y022526D01*
X027506Y022468D01*
X027496Y022411D01*
X027482Y022355D01*
X027465Y022299D01*
X027444Y022245D01*
X027419Y022193D01*
X027390Y022142D01*
X027358Y022094D01*
X027323Y022048D01*
X027285Y022004D01*
X027244Y021963D01*
X027200Y021925D01*
X027154Y021890D01*
X027106Y021858D01*
X027055Y021829D01*
X027003Y021804D01*
X026949Y021783D01*
X026893Y021766D01*
X026837Y021752D01*
X026780Y021742D01*
X026722Y021736D01*
X026664Y021734D01*
X026606Y021736D01*
X026548Y021742D01*
X026491Y021752D01*
X026435Y021766D01*
X026379Y021783D01*
X026325Y021804D01*
X026273Y021829D01*
X026222Y021858D01*
X026174Y021890D01*
X026128Y021925D01*
X026084Y021963D01*
X026043Y022004D01*
X026005Y022048D01*
X025970Y022094D01*
X025938Y022142D01*
X025909Y022193D01*
X025884Y022245D01*
X025863Y022299D01*
X025846Y022355D01*
X025832Y022411D01*
X025822Y022468D01*
X025816Y022526D01*
X025814Y022584D01*
X015509Y026579D02*
X015209Y026579D01*
X015049Y026579D02*
X015049Y027029D01*
X014824Y027029D01*
X014749Y026954D01*
X014749Y026654D01*
X014824Y026579D01*
X015049Y026579D01*
X015509Y026579D02*
X015509Y027029D01*
X014589Y027029D02*
X014589Y026579D01*
X014589Y026729D02*
X014363Y026729D01*
X014288Y026804D01*
X014288Y026954D01*
X014363Y027029D01*
X014589Y027029D01*
X014438Y026729D02*
X014288Y026579D01*
X014128Y026579D02*
X013828Y026579D01*
X013978Y026579D02*
X013978Y027029D01*
X014128Y026879D01*
X001980Y022584D02*
X001982Y022642D01*
X001988Y022700D01*
X001998Y022757D01*
X002012Y022813D01*
X002029Y022869D01*
X002050Y022923D01*
X002075Y022975D01*
X002104Y023026D01*
X002136Y023074D01*
X002171Y023120D01*
X002209Y023164D01*
X002250Y023205D01*
X002294Y023243D01*
X002340Y023278D01*
X002388Y023310D01*
X002439Y023339D01*
X002491Y023364D01*
X002545Y023385D01*
X002601Y023402D01*
X002657Y023416D01*
X002714Y023426D01*
X002772Y023432D01*
X002830Y023434D01*
X002888Y023432D01*
X002946Y023426D01*
X003003Y023416D01*
X003059Y023402D01*
X003115Y023385D01*
X003169Y023364D01*
X003221Y023339D01*
X003272Y023310D01*
X003320Y023278D01*
X003366Y023243D01*
X003410Y023205D01*
X003451Y023164D01*
X003489Y023120D01*
X003524Y023074D01*
X003556Y023026D01*
X003585Y022975D01*
X003610Y022923D01*
X003631Y022869D01*
X003648Y022813D01*
X003662Y022757D01*
X003672Y022700D01*
X003678Y022642D01*
X003680Y022584D01*
X003678Y022526D01*
X003672Y022468D01*
X003662Y022411D01*
X003648Y022355D01*
X003631Y022299D01*
X003610Y022245D01*
X003585Y022193D01*
X003556Y022142D01*
X003524Y022094D01*
X003489Y022048D01*
X003451Y022004D01*
X003410Y021963D01*
X003366Y021925D01*
X003320Y021890D01*
X003272Y021858D01*
X003221Y021829D01*
X003169Y021804D01*
X003115Y021783D01*
X003059Y021766D01*
X003003Y021752D01*
X002946Y021742D01*
X002888Y021736D01*
X002830Y021734D01*
X002772Y021736D01*
X002714Y021742D01*
X002657Y021752D01*
X002601Y021766D01*
X002545Y021783D01*
X002491Y021804D01*
X002439Y021829D01*
X002388Y021858D01*
X002340Y021890D01*
X002294Y021925D01*
X002250Y021963D01*
X002209Y022004D01*
X002171Y022048D01*
X002136Y022094D01*
X002104Y022142D01*
X002075Y022193D01*
X002050Y022245D01*
X002029Y022299D01*
X002012Y022355D01*
X001998Y022411D01*
X001988Y022468D01*
X001982Y022526D01*
X001980Y022584D01*
D13*
X014830Y019552D03*
X014830Y018565D03*
D14*
X014829Y018565D03*
X014426Y018565D03*
X014829Y019551D03*
D15*
X014828Y019551D03*
D16*
X014828Y018565D03*
D17*
X014827Y019551D03*
D18*
X014827Y018565D03*
X014427Y018565D03*
D19*
X014827Y019551D03*
D20*
X014827Y018565D03*
D21*
X014826Y019552D03*
D22*
X014826Y018565D03*
X014429Y018565D03*
D23*
X014825Y018565D03*
X014825Y019551D03*
D24*
X014824Y019551D03*
X014824Y018565D03*
X014431Y018565D03*
D25*
X014823Y019552D03*
D26*
X014823Y018565D03*
D27*
X014823Y018565D03*
X014432Y018565D03*
X014823Y019551D03*
D28*
X014822Y019552D03*
D29*
X014822Y018565D03*
D30*
X014821Y019551D03*
X014439Y019551D03*
D31*
X014434Y018565D03*
X014821Y018565D03*
D32*
X014820Y018565D03*
X014820Y019551D03*
D33*
X014819Y019551D03*
X014819Y018565D03*
X014435Y018565D03*
D34*
X014436Y018565D03*
X014819Y018565D03*
X014819Y019551D03*
D35*
X014818Y019551D03*
X014818Y018565D03*
D36*
X014817Y018565D03*
X014817Y019551D03*
D37*
X014816Y019551D03*
X014816Y018565D03*
X014439Y018565D03*
D38*
X014815Y018565D03*
X014815Y019551D03*
D39*
X014815Y019551D03*
D40*
X014815Y018565D03*
D41*
X014814Y018565D03*
X014441Y018565D03*
X014814Y019552D03*
D42*
X014813Y019552D03*
X014447Y019552D03*
D43*
X014813Y018565D03*
D44*
X014812Y018565D03*
X014443Y018565D03*
X014812Y019551D03*
D45*
X014811Y019551D03*
D46*
X014811Y018565D03*
D47*
X014811Y018565D03*
X014444Y018565D03*
X014449Y019551D03*
X014811Y019551D03*
D48*
X014810Y019551D03*
X014451Y019551D03*
D49*
X014446Y018565D03*
X014809Y018565D03*
X014810Y018565D03*
D50*
X014809Y019552D03*
D51*
X014808Y019551D03*
D52*
X014808Y018565D03*
D53*
X014807Y018565D03*
X014447Y018565D03*
X014453Y019552D03*
X014807Y019552D03*
D54*
X014807Y019551D03*
X014454Y019551D03*
X014449Y018565D03*
X014806Y018565D03*
X014807Y018565D03*
D55*
X014806Y019552D03*
D56*
X014805Y019551D03*
X014805Y018565D03*
D57*
X014804Y018565D03*
X014451Y018565D03*
X014450Y018565D03*
X014455Y019551D03*
X014804Y019551D03*
D58*
X014803Y019551D03*
X014803Y019551D03*
X014457Y019551D03*
X014453Y018565D03*
X014452Y018565D03*
X014803Y018565D03*
D59*
X014803Y018565D03*
X014456Y019552D03*
D60*
X014458Y019551D03*
X014802Y019551D03*
X014802Y018565D03*
D61*
X014801Y019552D03*
X014459Y019552D03*
D62*
X014454Y018565D03*
X014801Y018565D03*
D63*
X014800Y018565D03*
X014799Y018565D03*
X014799Y018565D03*
X014456Y018565D03*
X014455Y018565D03*
X014459Y019551D03*
X014460Y019551D03*
X014461Y019551D03*
X014799Y019551D03*
X014800Y019551D03*
D64*
X014799Y019552D03*
D65*
X014798Y019552D03*
X014462Y019552D03*
D66*
X014798Y018565D03*
D67*
X014797Y018565D03*
X014796Y018565D03*
X014795Y018565D03*
X014794Y018565D03*
X014461Y018565D03*
X014460Y018565D03*
X014459Y018565D03*
X014459Y018565D03*
X014463Y019551D03*
X014463Y019551D03*
X014464Y019551D03*
X014466Y019551D03*
X014795Y019551D03*
X014796Y019551D03*
X014797Y019551D03*
D68*
X014795Y019551D03*
X014465Y019551D03*
X014458Y018565D03*
X014795Y018565D03*
D69*
X014793Y018565D03*
X014792Y018565D03*
X014791Y018565D03*
X014790Y018565D03*
X014789Y018565D03*
X014787Y018565D03*
X014787Y018565D03*
X014786Y018565D03*
X014784Y018565D03*
X014783Y018565D03*
X014783Y018565D03*
X014781Y018565D03*
X014780Y018565D03*
X014779Y018565D03*
X014779Y018565D03*
X014777Y018565D03*
X014776Y018565D03*
X014775Y018565D03*
X014774Y018565D03*
X014773Y018565D03*
X014772Y018565D03*
X014771Y018565D03*
X014770Y018565D03*
X014769Y018565D03*
X014767Y018565D03*
X014767Y018565D03*
X014766Y018565D03*
X014764Y018565D03*
X014763Y018565D03*
X014763Y018565D03*
X014761Y018565D03*
X014760Y018565D03*
X014759Y018565D03*
X014759Y018565D03*
X014757Y018565D03*
X014756Y018565D03*
X014755Y018565D03*
X014754Y018565D03*
X014753Y018565D03*
X014752Y018565D03*
X014751Y018565D03*
X014750Y018565D03*
X014749Y018565D03*
X014747Y018565D03*
X014747Y018565D03*
X014746Y018565D03*
X014744Y018565D03*
X014743Y018565D03*
X014743Y018565D03*
X014741Y018565D03*
X014740Y018565D03*
X014739Y018565D03*
X014739Y018565D03*
X014737Y018565D03*
X014736Y018565D03*
X014735Y018565D03*
X014734Y018565D03*
X014733Y018565D03*
X014732Y018565D03*
X014731Y018565D03*
X014730Y018565D03*
X014729Y018565D03*
X014727Y018565D03*
X014727Y018565D03*
X014726Y018565D03*
X014724Y018565D03*
X014723Y018565D03*
X014723Y018565D03*
X014721Y018565D03*
X014720Y018565D03*
X014719Y018565D03*
X014719Y018565D03*
X014717Y018565D03*
X014716Y018565D03*
X014715Y018565D03*
X014714Y018565D03*
X014713Y018565D03*
X014712Y018565D03*
X014711Y018565D03*
X014710Y018565D03*
X014709Y018565D03*
X014707Y018565D03*
X014707Y018565D03*
X014706Y018565D03*
X014704Y018565D03*
X014703Y018565D03*
X014703Y018565D03*
X014701Y018565D03*
X014700Y018565D03*
X014699Y018565D03*
X014699Y018565D03*
X014697Y018565D03*
X014696Y018565D03*
X014695Y018565D03*
X014694Y018565D03*
X014693Y018565D03*
X014692Y018565D03*
X014691Y018565D03*
X014690Y018565D03*
X014689Y018565D03*
X014687Y018565D03*
X014687Y018565D03*
X014686Y018565D03*
X014684Y018565D03*
X014683Y018565D03*
X014683Y018565D03*
X014681Y018565D03*
X014680Y018565D03*
X014679Y018565D03*
X014679Y018565D03*
X014677Y018565D03*
X014676Y018565D03*
X014675Y018565D03*
X014674Y018565D03*
X014673Y018565D03*
X014672Y018565D03*
X014671Y018565D03*
X014670Y018565D03*
X014669Y018565D03*
X014667Y018565D03*
X014667Y018565D03*
X014666Y018565D03*
X014664Y018565D03*
X014663Y018565D03*
X014663Y018565D03*
X014661Y018565D03*
X014660Y018565D03*
X014659Y018565D03*
X014659Y018565D03*
X014657Y018565D03*
X014656Y018565D03*
X014655Y018565D03*
X014654Y018565D03*
X014653Y018565D03*
X014652Y018565D03*
X014651Y018565D03*
X014650Y018565D03*
X014649Y018565D03*
X014647Y018565D03*
X014647Y018565D03*
X014646Y018565D03*
X014644Y018565D03*
X014643Y018565D03*
X014643Y018565D03*
X014641Y018565D03*
X014640Y018565D03*
X014639Y018565D03*
X014639Y018565D03*
X014637Y018565D03*
X014636Y018565D03*
X014635Y018565D03*
X014634Y018565D03*
X014633Y018565D03*
X014632Y018565D03*
X014631Y018565D03*
X014630Y018565D03*
X014629Y018565D03*
X014627Y018565D03*
X014627Y018565D03*
X014626Y018565D03*
X014624Y018565D03*
X014623Y018565D03*
X014623Y018565D03*
X014621Y018565D03*
X014620Y018565D03*
X014619Y018565D03*
X014619Y018565D03*
X014617Y018565D03*
X014616Y018565D03*
X014615Y018565D03*
X014614Y018565D03*
X014613Y018565D03*
X014612Y018565D03*
X014611Y018565D03*
X014610Y018565D03*
X014609Y018565D03*
X014607Y018565D03*
X014607Y018565D03*
X014606Y018565D03*
X014604Y018565D03*
X014603Y018565D03*
X014603Y018565D03*
X014601Y018565D03*
X014600Y018565D03*
X014599Y018565D03*
X014599Y018565D03*
X014597Y018565D03*
X014596Y018565D03*
X014595Y018565D03*
X014594Y018565D03*
X014593Y018565D03*
X014592Y018565D03*
X014591Y018565D03*
X014590Y018565D03*
X014589Y018565D03*
X014587Y018565D03*
X014587Y018565D03*
X014586Y018565D03*
X014584Y018565D03*
X014583Y018565D03*
X014583Y018565D03*
X014581Y018565D03*
X014580Y018565D03*
X014579Y018565D03*
X014579Y018565D03*
X014577Y018565D03*
X014576Y018565D03*
X014575Y018565D03*
X014574Y018565D03*
X014573Y018565D03*
X014572Y018565D03*
X014571Y018565D03*
X014570Y018565D03*
X014569Y018565D03*
X014567Y018565D03*
X014567Y018565D03*
X014566Y018565D03*
X014564Y018565D03*
X014563Y018565D03*
X014563Y018565D03*
X014561Y018565D03*
X014560Y018565D03*
X014559Y018565D03*
X014559Y018565D03*
X014557Y018565D03*
X014556Y018565D03*
X014555Y018565D03*
X014554Y018565D03*
X014553Y018565D03*
X014552Y018565D03*
X014551Y018565D03*
X014550Y018565D03*
X014549Y018565D03*
X014547Y018565D03*
X014547Y018565D03*
X014546Y018565D03*
X014544Y018565D03*
X014543Y018565D03*
X014543Y018565D03*
X014541Y018565D03*
X014540Y018565D03*
X014539Y018565D03*
X014539Y018565D03*
X014537Y018565D03*
X014536Y018565D03*
X014535Y018565D03*
X014534Y018565D03*
X014533Y018565D03*
X014532Y018565D03*
X014531Y018565D03*
X014530Y018565D03*
X014529Y018565D03*
X014527Y018565D03*
X014527Y018565D03*
X014526Y018565D03*
X014524Y018565D03*
X014523Y018565D03*
X014523Y018565D03*
X014521Y018565D03*
X014520Y018565D03*
X014519Y018565D03*
X014519Y018565D03*
X014517Y018565D03*
X014516Y018565D03*
X014515Y018565D03*
X014514Y018565D03*
X014513Y018565D03*
X014512Y018565D03*
X014511Y018565D03*
X014510Y018565D03*
X014509Y018565D03*
X014507Y018565D03*
X014507Y018565D03*
X014506Y018565D03*
X014504Y018565D03*
X014503Y018565D03*
X014503Y018565D03*
X014501Y018565D03*
X014500Y018565D03*
X014499Y018565D03*
X014499Y018565D03*
X014497Y018565D03*
X014496Y018565D03*
X014495Y018565D03*
X014494Y018565D03*
X014493Y018565D03*
X014492Y018565D03*
X014491Y018565D03*
X014490Y018565D03*
X014489Y018565D03*
X014487Y018565D03*
X014487Y018565D03*
X014486Y018565D03*
X014484Y018565D03*
X014483Y018565D03*
X014483Y018565D03*
X014481Y018565D03*
X014480Y018565D03*
X014479Y018565D03*
X014479Y018565D03*
X014477Y018565D03*
X014476Y018565D03*
X014475Y018565D03*
X014474Y018565D03*
X014473Y018565D03*
X014472Y018565D03*
X014471Y018565D03*
X014470Y018565D03*
X014469Y018565D03*
X014467Y018565D03*
X014467Y018565D03*
X014466Y018565D03*
X014464Y018565D03*
X014463Y018565D03*
X014463Y018565D03*
X014467Y019552D03*
X014467Y019552D03*
X014469Y019552D03*
X014470Y019552D03*
X014471Y019552D03*
X014472Y019552D03*
X014473Y019552D03*
X014474Y019552D03*
X014475Y019552D03*
X014476Y019552D03*
X014477Y019552D03*
X014479Y019552D03*
X014479Y019552D03*
X014480Y019552D03*
X014481Y019552D03*
X014483Y019552D03*
X014483Y019552D03*
X014484Y019552D03*
X014486Y019552D03*
X014487Y019552D03*
X014487Y019552D03*
X014489Y019552D03*
X014490Y019552D03*
X014491Y019552D03*
X014492Y019552D03*
X014493Y019552D03*
X014494Y019552D03*
X014495Y019552D03*
X014496Y019552D03*
X014497Y019552D03*
X014499Y019552D03*
X014499Y019552D03*
X014500Y019552D03*
X014501Y019552D03*
X014503Y019552D03*
X014503Y019552D03*
X014504Y019552D03*
X014506Y019552D03*
X014507Y019552D03*
X014507Y019552D03*
X014509Y019552D03*
X014510Y019552D03*
X014511Y019552D03*
X014512Y019552D03*
X014513Y019552D03*
X014514Y019552D03*
X014515Y019552D03*
X014516Y019552D03*
X014517Y019552D03*
X014519Y019552D03*
X014519Y019552D03*
X014520Y019552D03*
X014521Y019552D03*
X014523Y019552D03*
X014523Y019552D03*
X014524Y019552D03*
X014526Y019552D03*
X014527Y019552D03*
X014527Y019552D03*
X014529Y019552D03*
X014530Y019552D03*
X014531Y019552D03*
X014532Y019552D03*
X014533Y019552D03*
X014534Y019552D03*
X014535Y019552D03*
X014536Y019552D03*
X014537Y019552D03*
X014539Y019552D03*
X014539Y019552D03*
X014540Y019552D03*
X014541Y019552D03*
X014543Y019552D03*
X014543Y019552D03*
X014544Y019552D03*
X014546Y019552D03*
X014547Y019552D03*
X014547Y019552D03*
X014549Y019552D03*
X014550Y019552D03*
X014551Y019552D03*
X014552Y019552D03*
X014553Y019552D03*
X014554Y019552D03*
X014555Y019552D03*
X014556Y019552D03*
X014557Y019552D03*
X014559Y019552D03*
X014559Y019552D03*
X014560Y019552D03*
X014561Y019552D03*
X014563Y019552D03*
X014563Y019552D03*
X014564Y019552D03*
X014566Y019552D03*
X014567Y019552D03*
X014567Y019552D03*
X014569Y019552D03*
X014570Y019552D03*
X014571Y019552D03*
X014572Y019552D03*
X014573Y019552D03*
X014574Y019552D03*
X014575Y019552D03*
X014576Y019552D03*
X014577Y019552D03*
X014579Y019552D03*
X014579Y019552D03*
X014580Y019552D03*
X014581Y019552D03*
X014583Y019552D03*
X014583Y019552D03*
X014584Y019552D03*
X014586Y019552D03*
X014587Y019552D03*
X014587Y019552D03*
X014589Y019552D03*
X014590Y019552D03*
X014591Y019552D03*
X014592Y019552D03*
X014593Y019552D03*
X014594Y019552D03*
X014595Y019552D03*
X014596Y019552D03*
X014597Y019552D03*
X014599Y019552D03*
X014599Y019552D03*
X014600Y019552D03*
X014601Y019552D03*
X014603Y019552D03*
X014603Y019552D03*
X014604Y019552D03*
X014606Y019552D03*
X014607Y019552D03*
X014607Y019552D03*
X014609Y019552D03*
X014610Y019552D03*
X014611Y019552D03*
X014612Y019552D03*
X014613Y019552D03*
X014614Y019552D03*
X014615Y019552D03*
X014616Y019552D03*
X014617Y019552D03*
X014619Y019552D03*
X014619Y019552D03*
X014620Y019552D03*
X014621Y019552D03*
X014623Y019552D03*
X014623Y019552D03*
X014624Y019552D03*
X014626Y019552D03*
X014627Y019552D03*
X014627Y019552D03*
X014629Y019552D03*
X014630Y019552D03*
X014631Y019552D03*
X014632Y019552D03*
X014633Y019552D03*
X014634Y019552D03*
X014635Y019552D03*
X014636Y019552D03*
X014637Y019552D03*
X014639Y019552D03*
X014639Y019552D03*
X014640Y019552D03*
X014641Y019552D03*
X014643Y019552D03*
X014643Y019552D03*
X014644Y019552D03*
X014646Y019552D03*
X014647Y019552D03*
X014647Y019552D03*
X014649Y019552D03*
X014650Y019552D03*
X014651Y019552D03*
X014652Y019552D03*
X014653Y019552D03*
X014654Y019552D03*
X014655Y019552D03*
X014656Y019552D03*
X014657Y019552D03*
X014659Y019552D03*
X014659Y019552D03*
X014660Y019552D03*
X014661Y019552D03*
X014663Y019552D03*
X014663Y019552D03*
X014664Y019552D03*
X014666Y019552D03*
X014667Y019552D03*
X014667Y019552D03*
X014669Y019552D03*
X014670Y019552D03*
X014671Y019552D03*
X014672Y019552D03*
X014673Y019552D03*
X014674Y019552D03*
X014675Y019552D03*
X014676Y019552D03*
X014677Y019552D03*
X014679Y019552D03*
X014679Y019552D03*
X014680Y019552D03*
X014681Y019552D03*
X014683Y019552D03*
X014683Y019552D03*
X014684Y019552D03*
X014686Y019552D03*
X014687Y019552D03*
X014687Y019552D03*
X014689Y019552D03*
X014690Y019552D03*
X014691Y019552D03*
X014692Y019552D03*
X014693Y019552D03*
X014694Y019552D03*
X014695Y019552D03*
X014696Y019552D03*
X014697Y019552D03*
X014699Y019552D03*
X014699Y019552D03*
X014700Y019552D03*
X014701Y019552D03*
X014703Y019552D03*
X014703Y019552D03*
X014704Y019552D03*
X014706Y019552D03*
X014707Y019552D03*
X014707Y019552D03*
X014709Y019552D03*
X014710Y019552D03*
X014711Y019552D03*
X014712Y019552D03*
X014713Y019552D03*
X014714Y019552D03*
X014715Y019552D03*
X014716Y019552D03*
X014717Y019552D03*
X014719Y019552D03*
X014719Y019552D03*
X014720Y019552D03*
X014721Y019552D03*
X014723Y019552D03*
X014723Y019552D03*
X014724Y019552D03*
X014726Y019552D03*
X014727Y019552D03*
X014727Y019552D03*
X014729Y019552D03*
X014730Y019552D03*
X014731Y019552D03*
X014732Y019552D03*
X014733Y019552D03*
X014734Y019552D03*
X014735Y019552D03*
X014736Y019552D03*
X014737Y019552D03*
X014739Y019552D03*
X014739Y019552D03*
X014740Y019552D03*
X014741Y019552D03*
X014743Y019552D03*
X014743Y019552D03*
X014744Y019552D03*
X014746Y019552D03*
X014747Y019552D03*
X014747Y019552D03*
X014749Y019552D03*
X014750Y019552D03*
X014751Y019552D03*
X014752Y019552D03*
X014753Y019552D03*
X014754Y019552D03*
X014755Y019552D03*
X014756Y019552D03*
X014757Y019552D03*
X014759Y019552D03*
X014759Y019552D03*
X014760Y019552D03*
X014761Y019552D03*
X014763Y019552D03*
X014763Y019552D03*
X014764Y019552D03*
X014766Y019552D03*
X014767Y019552D03*
X014767Y019552D03*
X014769Y019552D03*
X014770Y019552D03*
X014771Y019552D03*
X014772Y019552D03*
X014773Y019552D03*
X014774Y019552D03*
X014775Y019552D03*
X014776Y019552D03*
X014777Y019552D03*
X014779Y019552D03*
X014779Y019552D03*
X014780Y019552D03*
X014781Y019552D03*
X014783Y019552D03*
X014783Y019552D03*
X014784Y019552D03*
X014786Y019552D03*
X014787Y019552D03*
X014787Y019552D03*
X014789Y019552D03*
X014790Y019552D03*
X014791Y019552D03*
X014792Y019552D03*
X014793Y019552D03*
X014794Y019552D03*
D70*
X014791Y019552D03*
X014788Y019552D03*
X014785Y019552D03*
X014782Y019552D03*
X014778Y019552D03*
X014775Y019552D03*
X014771Y019552D03*
X014768Y019552D03*
X014765Y019552D03*
X014762Y019552D03*
X014758Y019552D03*
X014755Y019552D03*
X014751Y019552D03*
X014748Y019552D03*
X014745Y019552D03*
X014742Y019552D03*
X014738Y019552D03*
X014735Y019552D03*
X014731Y019552D03*
X014728Y019552D03*
X014725Y019552D03*
X014722Y019552D03*
X014718Y019552D03*
X014715Y019552D03*
X014711Y019552D03*
X014708Y019552D03*
X014705Y019552D03*
X014702Y019552D03*
X014698Y019552D03*
X014695Y019552D03*
X014691Y019552D03*
X014688Y019552D03*
X014685Y019552D03*
X014682Y019552D03*
X014678Y019552D03*
X014675Y019552D03*
X014671Y019552D03*
X014668Y019552D03*
X014665Y019552D03*
X014662Y019552D03*
X014658Y019552D03*
X014655Y019552D03*
X014651Y019552D03*
X014648Y019552D03*
X014645Y019552D03*
X014642Y019552D03*
X014638Y019552D03*
X014635Y019552D03*
X014631Y019552D03*
X014628Y019552D03*
X014625Y019552D03*
X014622Y019552D03*
X014618Y019552D03*
X014615Y019552D03*
X014611Y019552D03*
X014608Y019552D03*
X014605Y019552D03*
X014602Y019552D03*
X014598Y019552D03*
X014595Y019552D03*
X014591Y019552D03*
X014588Y019552D03*
X014585Y019552D03*
X014582Y019552D03*
X014578Y019552D03*
X014575Y019552D03*
X014571Y019552D03*
X014568Y019552D03*
X014565Y019552D03*
X014562Y019552D03*
X014558Y019552D03*
X014555Y019552D03*
X014551Y019552D03*
X014548Y019552D03*
X014545Y019552D03*
X014542Y019552D03*
X014538Y019552D03*
X014535Y019552D03*
X014531Y019552D03*
X014528Y019552D03*
X014525Y019552D03*
X014522Y019552D03*
X014518Y019552D03*
X014515Y019552D03*
X014511Y019552D03*
X014508Y019552D03*
X014505Y019552D03*
X014502Y019552D03*
X014498Y019552D03*
X014495Y019552D03*
X014491Y019552D03*
X014488Y019552D03*
X014485Y019552D03*
X014482Y019552D03*
X014478Y019552D03*
X014475Y019552D03*
X014471Y019552D03*
X014468Y019552D03*
X014468Y018565D03*
X014465Y018565D03*
X014462Y018565D03*
X014471Y018565D03*
X014475Y018565D03*
X014478Y018565D03*
X014482Y018565D03*
X014485Y018565D03*
X014488Y018565D03*
X014491Y018565D03*
X014495Y018565D03*
X014498Y018565D03*
X014502Y018565D03*
X014505Y018565D03*
X014508Y018565D03*
X014511Y018565D03*
X014515Y018565D03*
X014518Y018565D03*
X014522Y018565D03*
X014525Y018565D03*
X014528Y018565D03*
X014531Y018565D03*
X014535Y018565D03*
X014538Y018565D03*
X014542Y018565D03*
X014545Y018565D03*
X014548Y018565D03*
X014551Y018565D03*
X014555Y018565D03*
X014558Y018565D03*
X014562Y018565D03*
X014565Y018565D03*
X014568Y018565D03*
X014571Y018565D03*
X014575Y018565D03*
X014578Y018565D03*
X014582Y018565D03*
X014585Y018565D03*
X014588Y018565D03*
X014591Y018565D03*
X014595Y018565D03*
X014598Y018565D03*
X014602Y018565D03*
X014605Y018565D03*
X014608Y018565D03*
X014611Y018565D03*
X014615Y018565D03*
X014618Y018565D03*
X014622Y018565D03*
X014625Y018565D03*
X014628Y018565D03*
X014631Y018565D03*
X014635Y018565D03*
X014638Y018565D03*
X014642Y018565D03*
X014645Y018565D03*
X014648Y018565D03*
X014651Y018565D03*
X014655Y018565D03*
X014658Y018565D03*
X014662Y018565D03*
X014665Y018565D03*
X014668Y018565D03*
X014671Y018565D03*
X014675Y018565D03*
X014678Y018565D03*
X014682Y018565D03*
X014685Y018565D03*
X014688Y018565D03*
X014691Y018565D03*
X014695Y018565D03*
X014698Y018565D03*
X014702Y018565D03*
X014705Y018565D03*
X014708Y018565D03*
X014711Y018565D03*
X014715Y018565D03*
X014718Y018565D03*
X014722Y018565D03*
X014725Y018565D03*
X014728Y018565D03*
X014731Y018565D03*
X014735Y018565D03*
X014738Y018565D03*
X014742Y018565D03*
X014745Y018565D03*
X014748Y018565D03*
X014751Y018565D03*
X014755Y018565D03*
X014758Y018565D03*
X014762Y018565D03*
X014765Y018565D03*
X014768Y018565D03*
X014771Y018565D03*
X014775Y018565D03*
X014778Y018565D03*
X014782Y018565D03*
X014785Y018565D03*
X014788Y018565D03*
X014791Y018565D03*
D71*
X014457Y018565D03*
D72*
X014455Y019552D03*
D73*
X014455Y018565D03*
D74*
X014452Y019551D03*
D75*
X014451Y019552D03*
D76*
X014451Y018565D03*
D77*
X014450Y019552D03*
D78*
X014448Y019551D03*
D79*
X014448Y018565D03*
D80*
X014447Y019551D03*
D81*
X014447Y018565D03*
D82*
X014446Y019551D03*
D83*
X014445Y019551D03*
D84*
X014445Y018565D03*
D85*
X014439Y018565D03*
X014444Y019552D03*
D86*
X014443Y019552D03*
D87*
X014443Y018565D03*
D88*
X014443Y019552D03*
D89*
X014442Y019552D03*
D90*
X014442Y018565D03*
D91*
X014441Y019552D03*
D92*
X014440Y019552D03*
D93*
X014440Y018565D03*
D94*
X014439Y019551D03*
D95*
X014438Y019552D03*
D96*
X014438Y018565D03*
D97*
X014437Y019551D03*
D98*
X014437Y018565D03*
D99*
X014436Y019552D03*
D100*
X014435Y019552D03*
D101*
X014435Y019551D03*
D102*
X014435Y018565D03*
D103*
X014434Y019551D03*
D104*
X014433Y019552D03*
D105*
X014433Y018565D03*
D106*
X014432Y019552D03*
D107*
X014431Y019552D03*
D108*
X014431Y018565D03*
D109*
X014431Y019552D03*
D110*
X014430Y019549D03*
D111*
X014430Y018565D03*
D112*
X014429Y019550D03*
X014427Y019550D03*
X014427Y019550D03*
D113*
X014428Y019550D03*
D114*
X014428Y018565D03*
D115*
X014427Y018565D03*
D116*
X014426Y019550D03*
X014424Y019550D03*
D117*
X014425Y019550D03*
D118*
X014425Y018565D03*
D119*
X014424Y018559D03*
X014423Y018559D03*
X014423Y018559D03*
X014331Y019564D03*
X014330Y019564D03*
X014329Y019564D03*
D120*
X014421Y019551D03*
X014423Y019551D03*
X014423Y019551D03*
D121*
X014422Y019551D03*
D122*
X014422Y018559D03*
D123*
X014421Y018558D03*
X014420Y018558D03*
X014419Y018558D03*
X014419Y018558D03*
X014327Y019565D03*
X014327Y019565D03*
X014326Y019565D03*
D124*
X014419Y019551D03*
X014419Y019551D03*
X014420Y019551D03*
D125*
X014418Y019551D03*
D126*
X014325Y019565D03*
X014418Y018558D03*
D127*
X014417Y019551D03*
X014416Y019551D03*
D128*
X014324Y019565D03*
X014323Y019565D03*
X014415Y018558D03*
X014416Y018558D03*
X014417Y018558D03*
D129*
X014415Y019552D03*
X014414Y019552D03*
X014413Y019552D03*
D130*
X014415Y019552D03*
D131*
X014322Y019565D03*
X014415Y018557D03*
D132*
X014414Y018557D03*
X014413Y018557D03*
X014412Y018557D03*
X014323Y019565D03*
X014321Y019565D03*
D133*
X014411Y019552D03*
X014412Y019552D03*
D134*
X014411Y019552D03*
D135*
X014318Y019566D03*
X014408Y018557D03*
X014411Y018557D03*
D136*
X014411Y018557D03*
X014410Y018557D03*
X014409Y018557D03*
X014320Y019566D03*
X014319Y019566D03*
X014319Y019566D03*
D137*
X014407Y019553D03*
X014409Y019553D03*
X014410Y019553D03*
D138*
X014408Y019553D03*
D139*
X014407Y018557D03*
X014407Y018557D03*
X014406Y018557D03*
D140*
X014406Y019553D03*
X014407Y019553D03*
D141*
X014405Y019553D03*
D142*
X014405Y018557D03*
D143*
X014404Y019553D03*
X014403Y019553D03*
X014403Y019553D03*
D144*
X014314Y019567D03*
X014313Y019567D03*
X014312Y019567D03*
X014403Y018556D03*
X014403Y018556D03*
X014404Y018556D03*
D145*
X014402Y019554D03*
D146*
X014315Y019567D03*
X014402Y018556D03*
D147*
X014401Y019554D03*
X014400Y019554D03*
X014399Y019554D03*
D148*
X014311Y019567D03*
X014310Y019567D03*
X014399Y018556D03*
X014399Y018556D03*
X014400Y018556D03*
X014401Y018556D03*
D149*
X014399Y019554D03*
X014397Y019554D03*
D150*
X014398Y019554D03*
D151*
X014308Y019567D03*
X014398Y018555D03*
D152*
X014397Y018555D03*
X014396Y018555D03*
X014395Y018555D03*
X014309Y019567D03*
X014307Y019567D03*
D153*
X014394Y019555D03*
X014395Y019555D03*
X014396Y019555D03*
D154*
X014395Y019555D03*
D155*
X014395Y018555D03*
D156*
X014394Y018555D03*
X014393Y018555D03*
X014392Y018555D03*
D157*
X014392Y019555D03*
X014393Y019555D03*
D158*
X014391Y019555D03*
D159*
X014302Y019568D03*
X014388Y018555D03*
X014391Y018555D03*
D160*
X014390Y019555D03*
X014391Y019555D03*
X014389Y019555D03*
D161*
X014303Y019568D03*
X014303Y019568D03*
X014389Y018555D03*
X014390Y018555D03*
X014391Y018555D03*
D162*
X014388Y019556D03*
D163*
X014387Y019556D03*
X014387Y019556D03*
X014386Y019556D03*
D164*
X014301Y019569D03*
X014300Y019569D03*
X014299Y019569D03*
X014299Y019569D03*
X014386Y018554D03*
X014387Y018554D03*
X014387Y018554D03*
D165*
X014385Y019556D03*
D166*
X014385Y018554D03*
D167*
X014384Y019556D03*
X014383Y019556D03*
D168*
X014297Y019569D03*
X014296Y019569D03*
X014383Y018554D03*
X014383Y018554D03*
X014384Y018554D03*
D169*
X014383Y019557D03*
X014381Y019557D03*
X014380Y019557D03*
D170*
X014382Y019557D03*
D171*
X014298Y019569D03*
X014382Y018554D03*
D172*
X014381Y018553D03*
X014380Y018553D03*
X014379Y018553D03*
X014379Y018553D03*
D173*
X014379Y019557D03*
X014379Y019557D03*
D174*
X014378Y019557D03*
D175*
X014291Y019570D03*
X014378Y018553D03*
D176*
X014377Y019557D03*
X014376Y019557D03*
X014375Y019557D03*
D177*
X014293Y019570D03*
X014292Y019570D03*
X014291Y019570D03*
X014375Y018553D03*
X014376Y018553D03*
X014377Y018553D03*
D178*
X014375Y019558D03*
D179*
X014288Y019570D03*
X014375Y018553D03*
D180*
X014374Y019558D03*
X014373Y019558D03*
X014372Y019558D03*
D181*
X014290Y019570D03*
X014289Y019570D03*
X014372Y018553D03*
X014373Y018553D03*
X014374Y018553D03*
D182*
X014371Y019558D03*
D183*
X014285Y019571D03*
X014368Y018552D03*
X014371Y018552D03*
D184*
X014370Y019558D03*
X014371Y019558D03*
D185*
X014287Y019571D03*
X014287Y019571D03*
X014286Y019571D03*
X014369Y018552D03*
X014370Y018552D03*
X014371Y018552D03*
D186*
X014369Y019559D03*
X014367Y019559D03*
X014367Y019559D03*
D187*
X014368Y019559D03*
D188*
X014367Y018552D03*
X014367Y018552D03*
X014366Y018552D03*
D189*
X014366Y019559D03*
X014364Y019559D03*
D190*
X014365Y019559D03*
D191*
X014365Y018552D03*
D192*
X014364Y018551D03*
X014363Y018551D03*
X014363Y018551D03*
X014281Y019571D03*
X014280Y019571D03*
D193*
X014363Y019559D03*
X014363Y019559D03*
D194*
X014362Y019559D03*
D195*
X014282Y019571D03*
X014362Y018551D03*
D196*
X014361Y019560D03*
X014360Y019560D03*
X014359Y019560D03*
X014359Y019560D03*
D197*
X014279Y019572D03*
X014279Y019572D03*
X014277Y019572D03*
X014359Y018551D03*
X014359Y018551D03*
X014360Y018551D03*
X014361Y018551D03*
D198*
X014358Y019560D03*
D199*
X014275Y019572D03*
X014358Y018551D03*
D200*
X014357Y019560D03*
X014356Y019560D03*
D201*
X014276Y019572D03*
X014275Y019572D03*
X014355Y018551D03*
X014356Y018551D03*
X014357Y018551D03*
D202*
X014355Y019561D03*
X014354Y019561D03*
X014353Y019561D03*
D203*
X014355Y019561D03*
D204*
X014271Y019573D03*
X014355Y018550D03*
D205*
X014354Y018550D03*
X014353Y018550D03*
X014352Y018550D03*
X014274Y019573D03*
X014273Y019573D03*
X014272Y019573D03*
D206*
X014351Y019561D03*
X014352Y019561D03*
D207*
X014351Y019561D03*
D208*
X014351Y018550D03*
X014348Y018550D03*
D209*
X014349Y018550D03*
X014350Y018550D03*
X014351Y018550D03*
X014271Y019573D03*
X014270Y019573D03*
X014269Y019573D03*
D210*
X014349Y019561D03*
X014350Y019561D03*
D211*
X014348Y019561D03*
D212*
X014347Y019562D03*
X014347Y019562D03*
X014346Y019562D03*
D213*
X014267Y019573D03*
X014267Y019573D03*
X014346Y018549D03*
X014347Y018549D03*
X014347Y018549D03*
D214*
X014345Y019562D03*
D215*
X014268Y019573D03*
X014345Y018549D03*
D216*
X014344Y019562D03*
X014343Y019562D03*
X014343Y019562D03*
D217*
X014266Y019574D03*
X014264Y019574D03*
X014263Y019574D03*
X014343Y018549D03*
X014343Y018549D03*
X014344Y018549D03*
D218*
X014342Y019563D03*
D219*
X014265Y019574D03*
X014342Y018549D03*
D220*
X014341Y019563D03*
X014340Y019563D03*
X014339Y019563D03*
D221*
X014263Y019574D03*
X014261Y019574D03*
X014339Y018549D03*
X014339Y018549D03*
X014340Y018549D03*
X014341Y018549D03*
D222*
X014339Y019563D03*
X014337Y019563D03*
D223*
X014338Y019563D03*
D224*
X014258Y019575D03*
X014338Y018548D03*
D225*
X014337Y018548D03*
X014336Y018548D03*
X014335Y018548D03*
X014260Y019575D03*
X014259Y019575D03*
X014259Y019575D03*
D226*
X014335Y019563D03*
X014336Y019563D03*
D227*
X014335Y019563D03*
D228*
X014335Y018548D03*
D229*
X014334Y019564D03*
X014333Y019564D03*
X014332Y019564D03*
D230*
X014257Y019575D03*
X014256Y019575D03*
X014255Y019575D03*
X014332Y018548D03*
X014333Y018548D03*
X014334Y018548D03*
D231*
X014331Y019564D03*
D232*
X014255Y019575D03*
X014328Y018547D03*
X014331Y018547D03*
D233*
X014331Y018547D03*
X014330Y018547D03*
X014329Y018547D03*
X014254Y019575D03*
X014253Y019575D03*
X014252Y019575D03*
D234*
X014328Y019565D03*
D235*
X014251Y019576D03*
X014250Y019576D03*
X014326Y018547D03*
X014327Y018547D03*
X014327Y018547D03*
D236*
X014325Y018547D03*
X014251Y019576D03*
D237*
X014323Y018547D03*
X014323Y018547D03*
X014324Y018547D03*
D238*
X014322Y018547D03*
D239*
X014321Y018546D03*
X014320Y018546D03*
X014319Y018546D03*
X014319Y018546D03*
X014247Y019577D03*
X014246Y019577D03*
X014244Y019577D03*
D240*
X014242Y019577D03*
X014318Y018546D03*
D241*
X014317Y019566D03*
X014316Y019566D03*
X014315Y019566D03*
D242*
X014243Y019577D03*
X014243Y019577D03*
X014315Y018546D03*
X014316Y018546D03*
X014317Y018546D03*
D243*
X014315Y018545D03*
D244*
X014314Y018545D03*
X014313Y018545D03*
X014312Y018545D03*
X014241Y019577D03*
X014240Y019577D03*
X014239Y019577D03*
X014239Y019577D03*
D245*
X014311Y019567D03*
D246*
X014311Y018545D03*
X014308Y018545D03*
D247*
X014309Y018545D03*
X014310Y018545D03*
X014311Y018545D03*
D248*
X014307Y018545D03*
X014307Y018545D03*
X014306Y018545D03*
X014235Y019578D03*
X014234Y019578D03*
D249*
X014304Y019568D03*
X014306Y019568D03*
X014307Y019568D03*
D250*
X014305Y019568D03*
D251*
X014235Y019578D03*
X014305Y018545D03*
D252*
X014304Y018544D03*
X014303Y018544D03*
X014303Y018544D03*
X014233Y019579D03*
X014232Y019579D03*
X014231Y019579D03*
D253*
X014231Y019579D03*
X014302Y018544D03*
D254*
X014301Y018544D03*
X014300Y018544D03*
X014299Y018544D03*
X014299Y018544D03*
X014230Y019579D03*
X014229Y019579D03*
D255*
X014298Y018543D03*
D256*
X014297Y018543D03*
X014296Y018543D03*
X014295Y018543D03*
D257*
X014294Y019569D03*
X014295Y019569D03*
D258*
X014295Y019569D03*
D259*
X014295Y018543D03*
D260*
X014294Y018543D03*
X014293Y018543D03*
X014292Y018543D03*
X014224Y019580D03*
X014223Y019580D03*
X014223Y019580D03*
D261*
X014222Y019580D03*
X014288Y018543D03*
X014291Y018543D03*
D262*
X014291Y018543D03*
X014290Y018543D03*
X014289Y018543D03*
X014221Y019580D03*
X014220Y019580D03*
D263*
X014219Y019581D03*
X014219Y019581D03*
X014217Y019581D03*
X014286Y018542D03*
X014287Y018542D03*
X014287Y018542D03*
D264*
X014285Y018542D03*
X014218Y019581D03*
D265*
X014283Y019571D03*
X014283Y019571D03*
X014284Y019571D03*
D266*
X014283Y018542D03*
X014283Y018542D03*
X014284Y018542D03*
D267*
X014282Y018542D03*
D268*
X014281Y018541D03*
X014280Y018541D03*
X014279Y018541D03*
X014279Y018541D03*
X014214Y019581D03*
X014213Y019581D03*
X014212Y019581D03*
D269*
X014278Y019572D03*
D270*
X014278Y018541D03*
D271*
X014277Y018541D03*
X014276Y018541D03*
X014275Y018541D03*
X014211Y019582D03*
X014210Y019582D03*
X014209Y019582D03*
D272*
X014208Y019582D03*
X014275Y018541D03*
D273*
X014274Y018541D03*
X014273Y018541D03*
X014272Y018541D03*
X014207Y019582D03*
X014207Y019582D03*
D274*
X014205Y019583D03*
X014268Y018540D03*
X014271Y018540D03*
D275*
X014271Y018540D03*
X014270Y018540D03*
X014269Y018540D03*
X014206Y019583D03*
X014204Y019583D03*
X014203Y019583D03*
D276*
X014203Y019583D03*
X014201Y019583D03*
X014266Y018540D03*
X014267Y018540D03*
X014267Y018540D03*
D277*
X014265Y018540D03*
X014202Y019583D03*
D278*
X014200Y019583D03*
X014199Y019583D03*
X014199Y019583D03*
X014263Y018539D03*
X014263Y018539D03*
X014264Y018539D03*
D279*
X014262Y019574D03*
D280*
X014198Y019583D03*
X014262Y018539D03*
D281*
X014261Y018539D03*
X014260Y018539D03*
X014259Y018539D03*
X014259Y018539D03*
X014197Y019584D03*
X014196Y019584D03*
X014195Y019584D03*
D282*
X014195Y019584D03*
X014258Y018539D03*
D283*
X014257Y018539D03*
X014256Y018539D03*
X014255Y018539D03*
X014194Y019584D03*
X014193Y019584D03*
D284*
X014191Y019585D03*
X014255Y018538D03*
D285*
X014254Y018538D03*
X014253Y018538D03*
X014252Y018538D03*
X014192Y019585D03*
X014191Y019585D03*
X014190Y019585D03*
D286*
X014188Y019585D03*
X014248Y018538D03*
X014251Y018538D03*
D287*
X014251Y018538D03*
X014250Y018538D03*
X014249Y018538D03*
X014189Y019585D03*
X014187Y019585D03*
D288*
X014247Y019576D03*
X014249Y019576D03*
D289*
X014248Y019576D03*
D290*
X014187Y019585D03*
X014186Y019585D03*
X014184Y019585D03*
X014246Y018537D03*
X014247Y018537D03*
X014247Y018537D03*
D291*
X014245Y019577D03*
D292*
X014185Y019585D03*
X014245Y018537D03*
D293*
X014244Y018537D03*
X014243Y018537D03*
X014243Y018537D03*
X014183Y019586D03*
X014183Y019586D03*
D294*
X014182Y019586D03*
X014242Y018537D03*
D295*
X014241Y018537D03*
X014240Y018537D03*
X014239Y018537D03*
X014239Y018537D03*
D296*
X014238Y019578D03*
D297*
X014178Y019587D03*
X014238Y018536D03*
D298*
X014237Y019578D03*
X014236Y019578D03*
D299*
X014179Y019587D03*
X014177Y019587D03*
X014176Y019587D03*
X014235Y018536D03*
X014236Y018536D03*
X014237Y018536D03*
D300*
X014235Y018536D03*
X014175Y019587D03*
D301*
X014175Y019587D03*
X014174Y019587D03*
X014232Y018536D03*
X014233Y018536D03*
X014234Y018536D03*
D302*
X014231Y018535D03*
X014228Y018535D03*
X014171Y019587D03*
D303*
X014171Y019587D03*
X014172Y019587D03*
X014173Y019587D03*
X014229Y018535D03*
X014230Y018535D03*
X014231Y018535D03*
D304*
X014228Y019579D03*
D305*
X014227Y019579D03*
X014227Y019579D03*
X014226Y019579D03*
D306*
X014226Y018535D03*
X014227Y018535D03*
X014227Y018535D03*
D307*
X014225Y019579D03*
D308*
X014225Y018535D03*
D309*
X014224Y018535D03*
X014223Y018535D03*
X014223Y018535D03*
X014167Y019588D03*
X014167Y019588D03*
X014166Y019588D03*
D310*
X014222Y018535D03*
D311*
X014221Y018534D03*
X014220Y018534D03*
X014219Y018534D03*
X014219Y018534D03*
X014164Y019589D03*
X014163Y019589D03*
X014163Y019589D03*
D312*
X014162Y019589D03*
X014218Y018534D03*
D313*
X014217Y018534D03*
X014216Y018534D03*
X014215Y018534D03*
X014161Y019589D03*
X014160Y019589D03*
D314*
X014215Y019581D03*
X014216Y019581D03*
D315*
X014215Y019581D03*
D316*
X014215Y018533D03*
D317*
X014214Y018533D03*
X014213Y018533D03*
X014212Y018533D03*
D318*
X014211Y019581D03*
D319*
X014155Y019590D03*
X014208Y018533D03*
X014211Y018533D03*
D320*
X014211Y018533D03*
X014210Y018533D03*
X014209Y018533D03*
X014156Y019590D03*
X014155Y019590D03*
D321*
X014154Y019590D03*
X014153Y019590D03*
X014152Y019590D03*
X014206Y018533D03*
X014207Y018533D03*
X014207Y018533D03*
D322*
X014205Y018533D03*
D323*
X014204Y018532D03*
X014203Y018532D03*
X014203Y018532D03*
X014151Y019591D03*
X014150Y019591D03*
X014149Y019591D03*
D324*
X014151Y019591D03*
X014202Y018532D03*
D325*
X014201Y018532D03*
X014200Y018532D03*
X014199Y018532D03*
X014199Y018532D03*
D326*
X014198Y018531D03*
X014145Y019591D03*
D327*
X014146Y019591D03*
X014144Y019591D03*
X014143Y019591D03*
X014195Y018531D03*
X014196Y018531D03*
X014197Y018531D03*
D328*
X014195Y018531D03*
X014142Y019592D03*
D329*
X014143Y019592D03*
X014141Y019592D03*
X014192Y018531D03*
X014193Y018531D03*
X014194Y018531D03*
D330*
X014191Y018531D03*
X014188Y018531D03*
D331*
X014189Y018531D03*
X014190Y018531D03*
X014191Y018531D03*
X014140Y019592D03*
X014139Y019592D03*
X014139Y019592D03*
D332*
X014137Y019593D03*
X014136Y019593D03*
X014135Y019593D03*
X014186Y018530D03*
X014187Y018530D03*
X014187Y018530D03*
D333*
X014185Y018530D03*
X014138Y019593D03*
D334*
X014134Y019593D03*
X014133Y019593D03*
X014183Y018530D03*
X014183Y018530D03*
X014184Y018530D03*
D335*
X014182Y018530D03*
X014135Y019593D03*
D336*
X014179Y019586D03*
X014180Y019586D03*
X014181Y019586D03*
D337*
X014132Y019593D03*
X014131Y019593D03*
X014130Y019593D03*
X014179Y018529D03*
X014179Y018529D03*
X014180Y018529D03*
X014181Y018529D03*
D338*
X014178Y018529D03*
X014128Y019594D03*
D339*
X014127Y019594D03*
X014129Y019594D03*
X014175Y018529D03*
X014176Y018529D03*
X014177Y018529D03*
D340*
X014175Y018529D03*
X014125Y019594D03*
D341*
X014126Y019594D03*
X014127Y019594D03*
X014172Y018529D03*
X014173Y018529D03*
X014174Y018529D03*
D342*
X014171Y018528D03*
X014168Y018528D03*
X014122Y019595D03*
D343*
X014123Y019595D03*
X014123Y019595D03*
X014124Y019595D03*
X014169Y018528D03*
X014170Y018528D03*
X014171Y018528D03*
D344*
X014170Y019588D03*
X014169Y019588D03*
D345*
X014168Y019588D03*
D346*
X014121Y019595D03*
X014120Y019595D03*
X014119Y019595D03*
X014166Y018528D03*
X014167Y018528D03*
X014167Y018528D03*
D347*
X014165Y019589D03*
D348*
X014165Y018528D03*
D349*
X014164Y018527D03*
X014163Y018527D03*
X014163Y018527D03*
X014119Y019595D03*
X014117Y019595D03*
X014116Y019595D03*
D350*
X014118Y019595D03*
X014162Y018527D03*
D351*
X014161Y018527D03*
X014160Y018527D03*
X014159Y018527D03*
X014159Y018527D03*
X014115Y019596D03*
X014114Y019596D03*
D352*
X014157Y019589D03*
X014159Y019589D03*
X014159Y019589D03*
D353*
X014158Y019589D03*
D354*
X014158Y018527D03*
D355*
X014157Y018527D03*
X014156Y018527D03*
X014155Y018527D03*
D356*
X014155Y018526D03*
X014108Y019597D03*
D357*
X014109Y019597D03*
X014110Y019597D03*
X014111Y019597D03*
X014152Y018526D03*
X014153Y018526D03*
X014154Y018526D03*
D358*
X014151Y018526D03*
X014148Y018526D03*
D359*
X014149Y018526D03*
X014150Y018526D03*
X014151Y018526D03*
X014107Y019597D03*
X014107Y019597D03*
X014106Y019597D03*
D360*
X014148Y019591D03*
D361*
X014147Y019591D03*
X014147Y019591D03*
D362*
X014104Y019597D03*
X014103Y019597D03*
X014103Y019597D03*
X014146Y018525D03*
X014147Y018525D03*
X014147Y018525D03*
D363*
X014145Y018525D03*
X014105Y019597D03*
D364*
X014143Y018525D03*
X014143Y018525D03*
X014144Y018525D03*
D365*
X014142Y018525D03*
D366*
X014141Y018525D03*
X014140Y018525D03*
X014139Y018525D03*
X014139Y018525D03*
X014099Y019598D03*
X014099Y019598D03*
D367*
X014095Y019599D03*
X014138Y018524D03*
D368*
X014137Y018524D03*
X014136Y018524D03*
X014135Y018524D03*
X014097Y019599D03*
X014096Y019599D03*
X014095Y019599D03*
D369*
X014135Y018524D03*
D370*
X014134Y018524D03*
X014133Y018524D03*
X014132Y018524D03*
X014094Y019599D03*
X014093Y019599D03*
X014092Y019599D03*
D371*
X014131Y019593D03*
D372*
X014131Y018523D03*
X014128Y018523D03*
D373*
X014129Y018523D03*
X014130Y018523D03*
X014131Y018523D03*
D374*
X014127Y018523D03*
X014127Y018523D03*
X014126Y018523D03*
X014087Y019600D03*
X014087Y019600D03*
D375*
X014088Y019600D03*
X014125Y018523D03*
D376*
X014124Y018523D03*
X014123Y018523D03*
X014123Y018523D03*
X014086Y019600D03*
X014084Y019600D03*
D377*
X014085Y019600D03*
X014122Y018523D03*
D378*
X014121Y018522D03*
X014120Y018522D03*
X014119Y018522D03*
X014119Y018522D03*
X014083Y019601D03*
X014083Y019601D03*
X014081Y019601D03*
D379*
X014118Y018522D03*
D380*
X014117Y018522D03*
X014116Y018522D03*
X014115Y018522D03*
D381*
X014115Y019596D03*
D382*
X014078Y019601D03*
X014115Y018521D03*
D383*
X014114Y018521D03*
X014113Y018521D03*
X014112Y018521D03*
X014077Y019601D03*
X014076Y019601D03*
X014075Y019601D03*
D384*
X014112Y019596D03*
X014113Y019596D03*
D385*
X014111Y019596D03*
D386*
X014075Y019602D03*
X014108Y018521D03*
X014111Y018521D03*
D387*
X014111Y018521D03*
X014110Y018521D03*
X014109Y018521D03*
X014074Y019602D03*
X014073Y019602D03*
D388*
X014072Y019602D03*
X014071Y019602D03*
X014106Y018521D03*
X014107Y018521D03*
X014107Y018521D03*
D389*
X014105Y018521D03*
X014071Y019602D03*
D390*
X014070Y019603D03*
X014069Y019603D03*
X014067Y019603D03*
X014103Y018520D03*
X014103Y018520D03*
X014104Y018520D03*
D391*
X014102Y019598D03*
D392*
X014068Y019603D03*
X014102Y018520D03*
D393*
X014101Y019598D03*
X014100Y019598D03*
D394*
X014067Y019603D03*
X014066Y019603D03*
X014099Y018520D03*
X014099Y018520D03*
X014100Y018520D03*
X014101Y018520D03*
D395*
X014098Y019598D03*
D396*
X014062Y019603D03*
X014098Y018519D03*
D397*
X014097Y018519D03*
X014096Y018519D03*
X014095Y018519D03*
X014064Y019603D03*
X014063Y019603D03*
X014063Y019603D03*
D398*
X014095Y018519D03*
D399*
X014094Y018519D03*
X014093Y018519D03*
X014092Y018519D03*
X014061Y019604D03*
X014060Y019604D03*
X014059Y019604D03*
D400*
X014091Y019599D03*
D401*
X014058Y019604D03*
X014088Y018519D03*
X014091Y018519D03*
D402*
X014090Y019599D03*
X014091Y019599D03*
X014089Y019599D03*
D403*
X014059Y019604D03*
X014057Y019604D03*
X014089Y018519D03*
X014090Y018519D03*
X014091Y018519D03*
D404*
X014087Y018518D03*
X014087Y018518D03*
X014086Y018518D03*
X014056Y019605D03*
X014055Y019605D03*
X014054Y019605D03*
D405*
X014055Y019605D03*
X014085Y018518D03*
D406*
X014084Y018518D03*
X014083Y018518D03*
X014083Y018518D03*
X014053Y019605D03*
X014052Y019605D03*
D407*
X014082Y019601D03*
D408*
X014051Y019605D03*
X014082Y018518D03*
D409*
X014081Y018517D03*
X014080Y018517D03*
X014079Y018517D03*
X014079Y018517D03*
X014051Y019605D03*
X014050Y019605D03*
X014049Y019605D03*
D410*
X014079Y019601D03*
X014079Y019601D03*
X014080Y019601D03*
D411*
X014078Y018517D03*
D412*
X014077Y018517D03*
X014076Y018517D03*
X014075Y018517D03*
X014047Y019606D03*
X014047Y019606D03*
X014046Y019606D03*
D413*
X014075Y018517D03*
D414*
X014074Y018517D03*
X014073Y018517D03*
X014072Y018517D03*
D415*
X014071Y018516D03*
X014068Y018516D03*
X014042Y019607D03*
D416*
X014043Y019607D03*
X014041Y019607D03*
X014040Y019607D03*
X014069Y018516D03*
X014070Y018516D03*
X014071Y018516D03*
D417*
X014067Y018516D03*
X014067Y018516D03*
X014066Y018516D03*
X014039Y019607D03*
X014039Y019607D03*
D418*
X014065Y019603D03*
D419*
X014038Y019607D03*
X014065Y018516D03*
D420*
X014064Y018515D03*
X014063Y018515D03*
X014063Y018515D03*
X014037Y019607D03*
X014036Y019607D03*
X014035Y019607D03*
D421*
X014035Y019607D03*
X014062Y018515D03*
D422*
X014061Y018515D03*
X014060Y018515D03*
X014059Y018515D03*
X014059Y018515D03*
D423*
X014058Y018515D03*
X014031Y019608D03*
D424*
X014031Y019608D03*
X014030Y019608D03*
X014055Y018515D03*
X014056Y018515D03*
X014057Y018515D03*
D425*
X014055Y018514D03*
X014028Y019609D03*
D426*
X014027Y019609D03*
X014027Y019609D03*
X014029Y019609D03*
X014052Y018514D03*
X014053Y018514D03*
X014054Y018514D03*
D427*
X014051Y018514D03*
X014048Y018514D03*
X014025Y019609D03*
D428*
X014026Y019609D03*
X014024Y019609D03*
X014049Y018514D03*
X014050Y018514D03*
X014051Y018514D03*
D429*
X014048Y019605D03*
D430*
X014047Y018513D03*
X014047Y018513D03*
X014046Y018513D03*
D431*
X014045Y019606D03*
D432*
X014045Y018513D03*
D433*
X014043Y019606D03*
X014044Y019606D03*
D434*
X014020Y019610D03*
X014019Y019610D03*
X014019Y019610D03*
X014043Y018513D03*
X014043Y018513D03*
X014044Y018513D03*
D435*
X014042Y018513D03*
D436*
X014041Y018513D03*
X014040Y018513D03*
X014039Y018513D03*
X014039Y018513D03*
X014017Y019610D03*
X014016Y019610D03*
D437*
X014015Y019611D03*
X014038Y018512D03*
D438*
X014037Y018512D03*
X014036Y018512D03*
X014035Y018512D03*
X014015Y019611D03*
X014014Y019611D03*
X014013Y019611D03*
D439*
X014035Y018512D03*
D440*
X014034Y019608D03*
X014033Y019608D03*
X014032Y019608D03*
D441*
X014032Y018512D03*
X014033Y018512D03*
X014034Y018512D03*
D442*
X014031Y018511D03*
X014028Y018511D03*
X014008Y019611D03*
D443*
X014007Y019611D03*
X014009Y019611D03*
X014010Y019611D03*
X014029Y018511D03*
X014030Y018511D03*
X014031Y018511D03*
D444*
X014027Y018511D03*
X014027Y018511D03*
X014026Y018511D03*
X014007Y019612D03*
X014006Y019612D03*
D445*
X014005Y019612D03*
X014025Y018511D03*
D446*
X014024Y018511D03*
X014023Y018511D03*
X014023Y018511D03*
X014004Y019612D03*
X014003Y019612D03*
X014003Y019612D03*
D447*
X014021Y019609D03*
X014023Y019609D03*
X014023Y019609D03*
D448*
X014022Y019609D03*
D449*
X014022Y018511D03*
D450*
X014021Y018510D03*
X014020Y018510D03*
X014019Y018510D03*
X014019Y018510D03*
X014001Y019613D03*
X014000Y019613D03*
X013999Y019613D03*
D451*
X014018Y019610D03*
D452*
X013998Y019613D03*
X014018Y018510D03*
D453*
X014017Y018510D03*
X014016Y018510D03*
X014015Y018510D03*
X013999Y019613D03*
X013997Y019613D03*
D454*
X013995Y019613D03*
X014015Y018509D03*
D455*
X014014Y018509D03*
X014013Y018509D03*
X014012Y018509D03*
X013996Y019613D03*
X013995Y019613D03*
X013994Y019613D03*
D456*
X014011Y019611D03*
X014012Y019611D03*
D457*
X014011Y019611D03*
D458*
X013991Y019614D03*
X014008Y018509D03*
X014011Y018509D03*
D459*
X014011Y018509D03*
X014010Y018509D03*
X014009Y018509D03*
X013993Y019614D03*
X013992Y019614D03*
D460*
X013991Y019614D03*
X013990Y019614D03*
X013989Y019614D03*
X014006Y018509D03*
X014007Y018509D03*
X014007Y018509D03*
D461*
X014005Y018509D03*
D462*
X014004Y018508D03*
X014003Y018508D03*
X014003Y018508D03*
X013987Y019615D03*
X013987Y019615D03*
X013986Y019615D03*
D463*
X014002Y019613D03*
D464*
X013988Y019615D03*
X014002Y018508D03*
D465*
X014001Y018508D03*
X014000Y018508D03*
X013999Y018508D03*
X013999Y018508D03*
X013984Y019615D03*
X013983Y019615D03*
D466*
X013982Y019615D03*
X013998Y018507D03*
D467*
X013997Y018507D03*
X013996Y018507D03*
X013995Y018507D03*
X013983Y019615D03*
X013981Y019615D03*
X013980Y019615D03*
D468*
X013978Y019616D03*
X013995Y018507D03*
D469*
X013994Y018507D03*
X013993Y018507D03*
X013992Y018507D03*
X013979Y019616D03*
X013979Y019616D03*
D470*
X013988Y018507D03*
X013991Y018507D03*
D471*
X013991Y018507D03*
X013990Y018507D03*
X013989Y018507D03*
D472*
X013987Y018506D03*
X013987Y018506D03*
X013986Y018506D03*
X013974Y019617D03*
X013973Y019617D03*
X013972Y019617D03*
D473*
X013985Y019615D03*
D474*
X013975Y019617D03*
X013985Y018506D03*
D475*
X013984Y018506D03*
X013983Y018506D03*
X013983Y018506D03*
X013971Y019617D03*
X013970Y019617D03*
D476*
X013971Y019617D03*
X013982Y018506D03*
D477*
X013981Y018505D03*
X013980Y018505D03*
X013979Y018505D03*
X013979Y018505D03*
X013969Y019617D03*
X013967Y019617D03*
X013967Y019617D03*
D478*
X013978Y018505D03*
D479*
X013977Y019616D03*
X013976Y019616D03*
X013975Y019616D03*
D480*
X013975Y018505D03*
X013976Y018505D03*
X013977Y018505D03*
D481*
X013975Y018505D03*
X013962Y019618D03*
D482*
X013963Y019618D03*
X013963Y019618D03*
X013972Y018505D03*
X013973Y018505D03*
X013974Y018505D03*
D483*
X013971Y018504D03*
X013968Y018504D03*
D484*
X013969Y018504D03*
X013970Y018504D03*
X013971Y018504D03*
X013961Y019619D03*
X013960Y019619D03*
X013959Y019619D03*
X013959Y019619D03*
D485*
X013968Y019617D03*
D486*
X013957Y019619D03*
X013956Y019619D03*
X013966Y018504D03*
X013967Y018504D03*
X013967Y018504D03*
D487*
X013966Y019618D03*
X013964Y019618D03*
D488*
X013965Y019618D03*
D489*
X013958Y019619D03*
X013965Y018504D03*
D490*
X013964Y018503D03*
X013963Y018503D03*
X013963Y018503D03*
D491*
X013962Y018503D03*
D492*
X013961Y018503D03*
X013960Y018503D03*
X013959Y018503D03*
X013959Y018503D03*
X013952Y019620D03*
X013951Y019620D03*
D493*
X013948Y019620D03*
X013958Y018503D03*
D494*
X013957Y018503D03*
X013956Y018503D03*
X013955Y018503D03*
X013950Y019620D03*
X013949Y019620D03*
D495*
X013953Y019619D03*
X013954Y019619D03*
X013955Y019619D03*
D496*
X013955Y019619D03*
D497*
X013945Y019621D03*
X013955Y018502D03*
D498*
X013954Y018502D03*
X013953Y018502D03*
X013952Y018502D03*
X013947Y019621D03*
X013947Y019621D03*
X013946Y019621D03*
D499*
X013951Y019620D03*
D500*
X013951Y018502D03*
X013948Y018502D03*
D501*
X013949Y018502D03*
X013950Y018502D03*
X013951Y018502D03*
D502*
X013947Y018501D03*
X013947Y018501D03*
X013946Y018501D03*
X013941Y019621D03*
X013940Y019621D03*
X013939Y019621D03*
D503*
X013942Y019621D03*
X013945Y018501D03*
D504*
X013943Y019621D03*
X013943Y019621D03*
X013944Y019621D03*
D505*
X013939Y019622D03*
X013937Y019622D03*
X013943Y018501D03*
X013943Y018501D03*
X013944Y018501D03*
D506*
X013942Y018501D03*
X013938Y019622D03*
D507*
X013936Y019622D03*
X013935Y019622D03*
X013939Y018501D03*
X013939Y018501D03*
X013940Y018501D03*
X013941Y018501D03*
D508*
X013938Y018500D03*
X013931Y019623D03*
D509*
X013932Y019623D03*
X013933Y019623D03*
X013934Y019623D03*
X013935Y018500D03*
X013936Y018500D03*
X013937Y018500D03*
D510*
X013935Y019622D03*
D511*
X013935Y018500D03*
D512*
X013934Y018500D03*
X013933Y018500D03*
X013932Y018500D03*
X013931Y019623D03*
X013930Y019623D03*
X013929Y019623D03*
D513*
X013928Y019623D03*
X013928Y018499D03*
X013931Y018499D03*
D514*
X013931Y018499D03*
X013930Y018499D03*
X013929Y018499D03*
X013927Y019623D03*
X013927Y019623D03*
X013926Y019623D03*
D515*
X013924Y019624D03*
X013923Y019624D03*
X013926Y018499D03*
X013927Y018499D03*
X013927Y018499D03*
D516*
X013925Y018499D03*
X013925Y019624D03*
D517*
X013923Y019624D03*
X013921Y019624D03*
X013923Y018499D03*
X013923Y018499D03*
X013924Y018499D03*
D518*
X013922Y018499D03*
X013922Y019624D03*
D519*
X013920Y019625D03*
X013919Y019625D03*
X013919Y019625D03*
X013919Y018498D03*
X013919Y018498D03*
X013920Y018498D03*
X013921Y018498D03*
D520*
X013918Y019625D03*
D521*
X013918Y018498D03*
D522*
X013917Y018498D03*
X013916Y018498D03*
X013915Y018498D03*
X013915Y019625D03*
X013916Y019625D03*
X013917Y019625D03*
D523*
X013915Y019625D03*
X013915Y018497D03*
D524*
X013914Y018497D03*
X013913Y018497D03*
X013912Y018497D03*
X013912Y019625D03*
X013913Y019625D03*
X013914Y019625D03*
D525*
X013911Y019626D03*
X013911Y018497D03*
X013908Y018497D03*
D526*
X013909Y018497D03*
X013910Y018497D03*
X013911Y018497D03*
X013910Y019626D03*
X013911Y019626D03*
D527*
X013909Y019626D03*
X013907Y019626D03*
D528*
X013908Y019626D03*
D529*
X013907Y018497D03*
X013907Y018497D03*
X013906Y018497D03*
D530*
X013904Y018496D03*
X013903Y018496D03*
X013903Y018496D03*
X013904Y019627D03*
X013906Y019627D03*
X013907Y019627D03*
D531*
X013905Y019627D03*
X013902Y018496D03*
D532*
X013905Y018497D03*
D533*
X013901Y018496D03*
X013900Y018496D03*
X013899Y018496D03*
X013899Y018496D03*
X013903Y019627D03*
X013903Y019627D03*
D534*
X013902Y019627D03*
D535*
X013901Y019627D03*
X013900Y019627D03*
X013899Y019627D03*
X013899Y019627D03*
X013897Y018495D03*
X013896Y018495D03*
X013895Y018495D03*
D536*
X013898Y019628D03*
D537*
X013898Y018495D03*
D538*
X013897Y019628D03*
X013896Y019628D03*
D539*
X013895Y019628D03*
X013894Y019628D03*
X013891Y018495D03*
X013890Y018495D03*
X013889Y018495D03*
D540*
X013888Y018495D03*
X013891Y018495D03*
X013895Y019628D03*
D541*
X013895Y018495D03*
D542*
X013894Y018495D03*
X013893Y018495D03*
X013892Y018495D03*
D543*
X013887Y018494D03*
X013887Y018494D03*
X013886Y018494D03*
X013891Y019629D03*
X013892Y019629D03*
X013893Y019629D03*
D544*
X013891Y019629D03*
X013885Y018494D03*
D545*
X013884Y018494D03*
X013883Y018494D03*
X013883Y018494D03*
X013889Y019629D03*
X013890Y019629D03*
D546*
X013888Y019629D03*
X013882Y018494D03*
D547*
X013886Y019629D03*
X013887Y019629D03*
X013887Y019629D03*
D548*
X013885Y019629D03*
D549*
X013884Y019630D03*
X013883Y019630D03*
X013883Y019630D03*
X013877Y018493D03*
X013876Y018493D03*
X013875Y018493D03*
D550*
X013875Y018493D03*
X013882Y019630D03*
D551*
X013881Y019630D03*
X013880Y019630D03*
X013874Y018493D03*
X013873Y018493D03*
X013872Y018493D03*
D552*
X013879Y018493D03*
X013879Y018493D03*
X013880Y018493D03*
X013881Y018493D03*
D553*
X013871Y018492D03*
X013870Y018492D03*
X013869Y018492D03*
X013877Y019631D03*
X013879Y019631D03*
X013879Y019631D03*
D554*
X013878Y019631D03*
X013871Y018492D03*
X013868Y018492D03*
D555*
X013878Y018493D03*
D556*
X013876Y019631D03*
X013875Y019631D03*
D557*
X013875Y019631D03*
D558*
X013874Y019631D03*
X013873Y019631D03*
X013872Y019631D03*
X013864Y018491D03*
X013863Y018491D03*
X013863Y018491D03*
D559*
X013862Y018491D03*
X013871Y019631D03*
D560*
X013871Y019632D03*
X013870Y019632D03*
X013869Y019632D03*
X013861Y018491D03*
X013860Y018491D03*
X013859Y018491D03*
X013859Y018491D03*
D561*
X013858Y018491D03*
X013868Y019632D03*
D562*
X013867Y019632D03*
X013867Y019632D03*
X013857Y018491D03*
X013856Y018491D03*
X013855Y018491D03*
D563*
X013866Y018492D03*
X013867Y018492D03*
X013867Y018492D03*
D564*
X013854Y018490D03*
X013853Y018490D03*
X013852Y018490D03*
X013863Y019633D03*
X013864Y019633D03*
X013866Y019633D03*
D565*
X013865Y019633D03*
X013855Y018490D03*
D566*
X013865Y018492D03*
D567*
X013851Y018490D03*
X013850Y018490D03*
X013849Y018490D03*
X013861Y019633D03*
X013863Y019633D03*
D568*
X013862Y019633D03*
X013851Y018490D03*
X013848Y018490D03*
D569*
X013847Y018489D03*
X013847Y018489D03*
X013846Y018489D03*
X013859Y019633D03*
X013859Y019633D03*
X013860Y019633D03*
D570*
X013858Y019633D03*
X013845Y018489D03*
D571*
X013844Y018489D03*
X013843Y018489D03*
X013843Y018489D03*
X013855Y019634D03*
X013856Y019634D03*
X013857Y019634D03*
D572*
X013855Y019634D03*
D573*
X013854Y019634D03*
X013853Y019634D03*
X013841Y018489D03*
X013840Y018489D03*
X013839Y018489D03*
X013839Y018489D03*
D574*
X013837Y018488D03*
X013836Y018488D03*
X013835Y018488D03*
X013850Y019635D03*
X013851Y019635D03*
X013852Y019635D03*
D575*
X013851Y019635D03*
X013838Y018488D03*
D576*
X013834Y018488D03*
X013833Y018488D03*
X013832Y018488D03*
X013847Y019635D03*
X013849Y019635D03*
D577*
X013848Y019635D03*
X013835Y018488D03*
D578*
X013831Y018487D03*
X013844Y019635D03*
X013846Y019635D03*
X013847Y019635D03*
D579*
X013845Y019635D03*
X013831Y018487D03*
D580*
X013843Y019636D03*
X013843Y019636D03*
D581*
X013842Y019636D03*
D582*
X013842Y018489D03*
D583*
X013841Y019636D03*
X013840Y019636D03*
X013839Y019636D03*
X013839Y019636D03*
D584*
X013838Y019637D03*
D585*
X013837Y019637D03*
X013836Y019637D03*
D586*
X013835Y019637D03*
X013834Y019637D03*
D587*
X013835Y019637D03*
D588*
X013833Y019637D03*
X013832Y019637D03*
X013831Y019637D03*
D589*
X013831Y019637D03*
D590*
X013830Y019548D03*
X013829Y019548D03*
X013827Y019548D03*
X013827Y019548D03*
X013826Y019548D03*
X013824Y019548D03*
X013823Y019548D03*
X013823Y019548D03*
X013821Y019548D03*
X013820Y019548D03*
X013819Y019548D03*
X013819Y019548D03*
X013817Y019548D03*
X013816Y019548D03*
X013815Y019548D03*
X013814Y019548D03*
X013813Y019548D03*
X013812Y019548D03*
X013811Y019548D03*
X013810Y019548D03*
X013809Y019548D03*
X013807Y019548D03*
X013807Y019548D03*
X013806Y019548D03*
X013804Y019548D03*
X013803Y019548D03*
X013803Y019548D03*
X013801Y019548D03*
X013800Y019548D03*
X013799Y019548D03*
X013799Y019548D03*
X013797Y019548D03*
X013796Y019548D03*
X013795Y019548D03*
X013794Y019548D03*
X013793Y019548D03*
X013792Y019548D03*
X013791Y019548D03*
X013790Y019548D03*
X013789Y019548D03*
X013789Y018575D03*
X013790Y018575D03*
X013791Y018575D03*
X013792Y018575D03*
X013793Y018575D03*
X013794Y018575D03*
X013795Y018575D03*
X013796Y018575D03*
X013797Y018575D03*
X013799Y018575D03*
X013799Y018575D03*
X013800Y018575D03*
X013801Y018575D03*
X013803Y018575D03*
X013803Y018575D03*
X013804Y018575D03*
X013806Y018575D03*
X013807Y018575D03*
X013807Y018575D03*
X013809Y018575D03*
X013810Y018575D03*
X013811Y018575D03*
X013812Y018575D03*
X013813Y018575D03*
X013814Y018575D03*
X013815Y018575D03*
X013816Y018575D03*
X013817Y018575D03*
X013819Y018575D03*
X013819Y018575D03*
X013820Y018575D03*
X013821Y018575D03*
X013823Y018575D03*
X013823Y018575D03*
X013824Y018575D03*
X013826Y018575D03*
X013827Y018575D03*
X013827Y018575D03*
X013829Y018575D03*
X013830Y018575D03*
D591*
X013828Y018575D03*
X013825Y018575D03*
X013822Y018575D03*
X013818Y018575D03*
X013815Y018575D03*
X013811Y018575D03*
X013808Y018575D03*
X013805Y018575D03*
X013802Y018575D03*
X013798Y018575D03*
X013795Y018575D03*
X013791Y018575D03*
X013791Y019548D03*
X013795Y019548D03*
X013798Y019548D03*
X013802Y019548D03*
X013805Y019548D03*
X013808Y019548D03*
X013811Y019548D03*
X013815Y019548D03*
X013818Y019548D03*
X013822Y019548D03*
X013825Y019548D03*
X013828Y019548D03*
D592*
X013788Y019061D03*
X013785Y019061D03*
X013782Y019061D03*
X013778Y019061D03*
X013775Y019061D03*
X013771Y019061D03*
X013768Y019061D03*
X013765Y019061D03*
X013762Y019061D03*
X013758Y019061D03*
X013548Y019061D03*
X013545Y019061D03*
X013542Y019061D03*
X013538Y019061D03*
X013535Y019061D03*
X013531Y019061D03*
X013528Y019061D03*
X013525Y019061D03*
X013522Y019061D03*
X013518Y019061D03*
X013515Y019061D03*
X013511Y019061D03*
X013508Y019061D03*
X013505Y019061D03*
X013502Y019061D03*
X013498Y019061D03*
X013495Y019061D03*
D593*
X013495Y019061D03*
X013496Y019061D03*
X013497Y019061D03*
X013499Y019061D03*
X013499Y019061D03*
X013500Y019061D03*
X013501Y019061D03*
X013503Y019061D03*
X013503Y019061D03*
X013504Y019061D03*
X013506Y019061D03*
X013507Y019061D03*
X013507Y019061D03*
X013509Y019061D03*
X013510Y019061D03*
X013511Y019061D03*
X013512Y019061D03*
X013513Y019061D03*
X013514Y019061D03*
X013515Y019061D03*
X013516Y019061D03*
X013517Y019061D03*
X013519Y019061D03*
X013519Y019061D03*
X013520Y019061D03*
X013521Y019061D03*
X013523Y019061D03*
X013523Y019061D03*
X013524Y019061D03*
X013526Y019061D03*
X013527Y019061D03*
X013527Y019061D03*
X013529Y019061D03*
X013530Y019061D03*
X013531Y019061D03*
X013532Y019061D03*
X013533Y019061D03*
X013534Y019061D03*
X013535Y019061D03*
X013536Y019061D03*
X013537Y019061D03*
X013539Y019061D03*
X013539Y019061D03*
X013540Y019061D03*
X013541Y019061D03*
X013543Y019061D03*
X013543Y019061D03*
X013544Y019061D03*
X013546Y019061D03*
X013547Y019061D03*
X013547Y019061D03*
X013549Y019061D03*
X013550Y019061D03*
X013494Y019061D03*
X013493Y019061D03*
X013492Y019061D03*
X013756Y019061D03*
X013757Y019061D03*
X013759Y019061D03*
X013759Y019061D03*
X013760Y019061D03*
X013761Y019061D03*
X013763Y019061D03*
X013763Y019061D03*
X013764Y019061D03*
X013766Y019061D03*
X013767Y019061D03*
X013767Y019061D03*
X013769Y019061D03*
X013770Y019061D03*
X013771Y019061D03*
X013772Y019061D03*
X013773Y019061D03*
X013774Y019061D03*
X013775Y019061D03*
X013776Y019061D03*
X013777Y019061D03*
X013779Y019061D03*
X013779Y019061D03*
X013780Y019061D03*
X013781Y019061D03*
X013783Y019061D03*
X013783Y019061D03*
X013784Y019061D03*
X013786Y019061D03*
X013787Y019061D03*
X013787Y019061D03*
D594*
X013755Y019499D03*
X013754Y019499D03*
X013753Y019499D03*
X013752Y019499D03*
X013751Y019499D03*
X013750Y019499D03*
X013749Y019499D03*
X013747Y019499D03*
X013747Y019499D03*
X013746Y019499D03*
X013744Y019499D03*
X013743Y019499D03*
X013743Y019499D03*
X013741Y019499D03*
X013740Y019499D03*
X013739Y019499D03*
X013739Y019499D03*
X013737Y019499D03*
X013736Y019499D03*
X013735Y019499D03*
X013734Y019499D03*
X013733Y019499D03*
X013732Y019499D03*
X013731Y019499D03*
X013730Y019499D03*
X013729Y019499D03*
X013727Y019499D03*
X013727Y019499D03*
X013726Y019499D03*
X013724Y019499D03*
X013723Y019499D03*
X013723Y019499D03*
X013721Y019499D03*
X013720Y019499D03*
X013719Y019499D03*
X013719Y019499D03*
X013717Y019499D03*
X013716Y019499D03*
X013715Y019499D03*
X013714Y019499D03*
X013713Y019499D03*
X013712Y019499D03*
X013711Y019499D03*
X013710Y019499D03*
X013709Y019499D03*
X013707Y019499D03*
X013707Y019499D03*
X013706Y019499D03*
X013704Y019499D03*
X013703Y019499D03*
X013703Y019499D03*
X013701Y019499D03*
X013700Y019499D03*
X013699Y019499D03*
X013699Y019499D03*
X013697Y019499D03*
X013696Y019499D03*
X013695Y019499D03*
X013694Y019499D03*
X013693Y019499D03*
X013692Y019499D03*
X013691Y019499D03*
X013690Y019499D03*
X013689Y019499D03*
X013687Y019499D03*
X013687Y019499D03*
X013686Y019499D03*
X013684Y019499D03*
X013683Y019499D03*
X013683Y019499D03*
X013681Y019499D03*
X013680Y019499D03*
X013679Y019499D03*
X013679Y019499D03*
X013677Y019499D03*
X013676Y019499D03*
X013675Y019499D03*
X013674Y019499D03*
X013673Y019499D03*
X013672Y019499D03*
X013671Y019499D03*
X013670Y019499D03*
X013669Y019499D03*
X013667Y019499D03*
X013667Y019499D03*
X013666Y019499D03*
X013664Y019499D03*
X013663Y019499D03*
X013663Y019499D03*
X013661Y019499D03*
X013660Y019499D03*
X013659Y019499D03*
X013659Y019499D03*
X013657Y019499D03*
X013656Y019499D03*
X013655Y019499D03*
X013654Y019499D03*
X013653Y019499D03*
X013652Y019499D03*
X013651Y019499D03*
X013650Y019499D03*
X013649Y019499D03*
X013647Y019499D03*
X013647Y019499D03*
X013646Y019499D03*
X013644Y019499D03*
X013643Y019499D03*
X013643Y019499D03*
X013641Y019499D03*
X013640Y019499D03*
X013639Y019499D03*
X013639Y019499D03*
X013637Y019499D03*
X013636Y019499D03*
X013635Y019499D03*
X013634Y019499D03*
X013633Y019499D03*
X013632Y019499D03*
X013631Y019499D03*
X013630Y019499D03*
X013629Y019499D03*
X013627Y019499D03*
X013627Y019499D03*
X013626Y019499D03*
X013624Y019499D03*
X013623Y019499D03*
X013623Y019499D03*
X013621Y019499D03*
X013620Y019499D03*
X013619Y019499D03*
X013619Y019499D03*
X013617Y019499D03*
X013616Y019499D03*
X013615Y019499D03*
X013614Y019499D03*
X013613Y019499D03*
X013612Y019499D03*
X013611Y019499D03*
X013610Y019499D03*
X013609Y019499D03*
X013607Y019499D03*
X013607Y019499D03*
X013606Y019499D03*
X013604Y019499D03*
X013603Y019499D03*
X013603Y019499D03*
X013601Y019499D03*
X013600Y019499D03*
X013599Y019499D03*
X013599Y019499D03*
X013597Y019499D03*
X013596Y019499D03*
X013595Y019499D03*
X013594Y019499D03*
X013593Y019499D03*
X013592Y019499D03*
X013591Y019499D03*
X013590Y019499D03*
X013589Y019499D03*
X013587Y019499D03*
X013587Y019499D03*
X013586Y019499D03*
X013584Y019499D03*
X013583Y019499D03*
X013583Y019499D03*
X013581Y019499D03*
X013580Y019499D03*
X013579Y019499D03*
X013579Y019499D03*
X013577Y019499D03*
X013576Y019499D03*
X013575Y019499D03*
X013574Y019499D03*
X013573Y019499D03*
X013572Y019499D03*
X013571Y019499D03*
X013570Y019499D03*
X013569Y019499D03*
X013567Y019499D03*
X013567Y019499D03*
X013566Y019499D03*
X013564Y019499D03*
X013563Y019499D03*
X013563Y019499D03*
X013561Y019499D03*
X013560Y019499D03*
X013559Y019499D03*
X013559Y019499D03*
X013557Y019499D03*
X013556Y019499D03*
X013555Y019499D03*
X013554Y019499D03*
X013553Y019499D03*
X013552Y019499D03*
X013551Y019499D03*
D595*
X013551Y018611D03*
X013552Y018611D03*
X013553Y018611D03*
X013554Y018611D03*
X013555Y018611D03*
X013556Y018611D03*
X013557Y018611D03*
X013559Y018611D03*
X013559Y018611D03*
X013560Y018611D03*
X013561Y018611D03*
X013563Y018611D03*
X013563Y018611D03*
X013564Y018611D03*
X013566Y018611D03*
X013567Y018611D03*
X013567Y018611D03*
X013569Y018611D03*
X013570Y018611D03*
X013571Y018611D03*
X013572Y018611D03*
X013573Y018611D03*
X013574Y018611D03*
X013575Y018611D03*
X013576Y018611D03*
X013577Y018611D03*
X013579Y018611D03*
X013579Y018611D03*
X013580Y018611D03*
X013581Y018611D03*
X013583Y018611D03*
X013583Y018611D03*
X013584Y018611D03*
X013586Y018611D03*
X013587Y018611D03*
X013587Y018611D03*
X013589Y018611D03*
X013590Y018611D03*
X013591Y018611D03*
X013592Y018611D03*
X013593Y018611D03*
X013594Y018611D03*
X013595Y018611D03*
X013596Y018611D03*
X013597Y018611D03*
X013599Y018611D03*
X013599Y018611D03*
X013600Y018611D03*
X013601Y018611D03*
X013603Y018611D03*
X013603Y018611D03*
X013604Y018611D03*
X013606Y018611D03*
X013607Y018611D03*
X013607Y018611D03*
X013609Y018611D03*
X013610Y018611D03*
X013611Y018611D03*
X013612Y018611D03*
X013613Y018611D03*
X013614Y018611D03*
X013615Y018611D03*
X013616Y018611D03*
X013617Y018611D03*
X013619Y018611D03*
X013619Y018611D03*
X013620Y018611D03*
X013621Y018611D03*
X013623Y018611D03*
X013623Y018611D03*
X013624Y018611D03*
X013626Y018611D03*
X013627Y018611D03*
X013627Y018611D03*
X013629Y018611D03*
X013630Y018611D03*
X013631Y018611D03*
X013632Y018611D03*
X013633Y018611D03*
X013634Y018611D03*
X013635Y018611D03*
X013636Y018611D03*
X013637Y018611D03*
X013639Y018611D03*
X013639Y018611D03*
X013640Y018611D03*
X013641Y018611D03*
X013643Y018611D03*
X013643Y018611D03*
X013644Y018611D03*
X013646Y018611D03*
X013647Y018611D03*
X013647Y018611D03*
X013649Y018611D03*
X013650Y018611D03*
X013651Y018611D03*
X013652Y018611D03*
X013653Y018611D03*
X013654Y018611D03*
X013655Y018611D03*
X013656Y018611D03*
X013657Y018611D03*
X013659Y018611D03*
X013659Y018611D03*
X013660Y018611D03*
X013661Y018611D03*
X013663Y018611D03*
X013663Y018611D03*
X013664Y018611D03*
X013666Y018611D03*
X013667Y018611D03*
X013667Y018611D03*
X013669Y018611D03*
X013670Y018611D03*
X013671Y018611D03*
X013672Y018611D03*
X013673Y018611D03*
X013674Y018611D03*
X013675Y018611D03*
X013676Y018611D03*
X013677Y018611D03*
X013679Y018611D03*
X013679Y018611D03*
X013680Y018611D03*
X013681Y018611D03*
X013683Y018611D03*
X013683Y018611D03*
X013684Y018611D03*
X013686Y018611D03*
X013687Y018611D03*
X013687Y018611D03*
X013689Y018611D03*
X013690Y018611D03*
X013691Y018611D03*
X013692Y018611D03*
X013693Y018611D03*
X013694Y018611D03*
X013695Y018611D03*
X013696Y018611D03*
X013697Y018611D03*
X013699Y018611D03*
X013699Y018611D03*
X013700Y018611D03*
X013701Y018611D03*
X013703Y018611D03*
X013703Y018611D03*
X013704Y018611D03*
X013706Y018611D03*
X013707Y018611D03*
X013707Y018611D03*
X013709Y018611D03*
X013710Y018611D03*
X013711Y018611D03*
X013712Y018611D03*
X013713Y018611D03*
X013714Y018611D03*
X013715Y018611D03*
X013716Y018611D03*
X013717Y018611D03*
X013719Y018611D03*
X013719Y018611D03*
X013720Y018611D03*
X013721Y018611D03*
X013723Y018611D03*
X013723Y018611D03*
X013724Y018611D03*
X013726Y018611D03*
X013727Y018611D03*
X013727Y018611D03*
X013729Y018611D03*
X013730Y018611D03*
X013731Y018611D03*
X013732Y018611D03*
X013733Y018611D03*
X013734Y018611D03*
X013735Y018611D03*
X013736Y018611D03*
X013737Y018611D03*
X013739Y018611D03*
X013739Y018611D03*
X013740Y018611D03*
X013741Y018611D03*
X013743Y018611D03*
X013743Y018611D03*
X013744Y018611D03*
X013746Y018611D03*
X013747Y018611D03*
X013747Y018611D03*
X013749Y018611D03*
X013750Y018611D03*
X013751Y018611D03*
X013752Y018611D03*
X013753Y018611D03*
X013754Y018611D03*
X013755Y018611D03*
D596*
X013755Y019499D03*
X013751Y019499D03*
X013748Y019499D03*
X013745Y019499D03*
X013742Y019499D03*
X013738Y019499D03*
X013735Y019499D03*
X013731Y019499D03*
X013728Y019499D03*
X013725Y019499D03*
X013722Y019499D03*
X013718Y019499D03*
X013715Y019499D03*
X013711Y019499D03*
X013708Y019499D03*
X013705Y019499D03*
X013702Y019499D03*
X013698Y019499D03*
X013695Y019499D03*
X013691Y019499D03*
X013688Y019499D03*
X013685Y019499D03*
X013682Y019499D03*
X013678Y019499D03*
X013675Y019499D03*
X013671Y019499D03*
X013668Y019499D03*
X013665Y019499D03*
X013662Y019499D03*
X013658Y019499D03*
X013655Y019499D03*
X013651Y019499D03*
X013648Y019499D03*
X013645Y019499D03*
X013642Y019499D03*
X013638Y019499D03*
X013635Y019499D03*
X013631Y019499D03*
X013628Y019499D03*
X013625Y019499D03*
X013622Y019499D03*
X013618Y019499D03*
X013615Y019499D03*
X013611Y019499D03*
X013608Y019499D03*
X013605Y019499D03*
X013602Y019499D03*
X013598Y019499D03*
X013595Y019499D03*
X013591Y019499D03*
X013588Y019499D03*
X013585Y019499D03*
X013582Y019499D03*
X013578Y019499D03*
X013575Y019499D03*
X013571Y019499D03*
X013568Y019499D03*
X013565Y019499D03*
X013562Y019499D03*
X013558Y019499D03*
X013555Y019499D03*
X013551Y019499D03*
D597*
X013551Y018611D03*
X013555Y018611D03*
X013558Y018611D03*
X013562Y018611D03*
X013565Y018611D03*
X013568Y018611D03*
X013571Y018611D03*
X013575Y018611D03*
X013578Y018611D03*
X013582Y018611D03*
X013585Y018611D03*
X013588Y018611D03*
X013591Y018611D03*
X013595Y018611D03*
X013598Y018611D03*
X013602Y018611D03*
X013605Y018611D03*
X013608Y018611D03*
X013611Y018611D03*
X013615Y018611D03*
X013618Y018611D03*
X013622Y018611D03*
X013625Y018611D03*
X013628Y018611D03*
X013631Y018611D03*
X013635Y018611D03*
X013638Y018611D03*
X013642Y018611D03*
X013645Y018611D03*
X013648Y018611D03*
X013651Y018611D03*
X013655Y018611D03*
X013658Y018611D03*
X013662Y018611D03*
X013665Y018611D03*
X013668Y018611D03*
X013671Y018611D03*
X013675Y018611D03*
X013678Y018611D03*
X013682Y018611D03*
X013685Y018611D03*
X013688Y018611D03*
X013691Y018611D03*
X013695Y018611D03*
X013698Y018611D03*
X013702Y018611D03*
X013705Y018611D03*
X013708Y018611D03*
X013711Y018611D03*
X013715Y018611D03*
X013718Y018611D03*
X013722Y018611D03*
X013725Y018611D03*
X013728Y018611D03*
X013731Y018611D03*
X013735Y018611D03*
X013738Y018611D03*
X013742Y018611D03*
X013745Y018611D03*
X013748Y018611D03*
X013751Y018611D03*
X013755Y018611D03*
D598*
X013491Y019062D03*
D599*
X013491Y019062D03*
D600*
X013490Y019061D03*
X013489Y019061D03*
X013487Y019061D03*
X013487Y019061D03*
X013486Y019061D03*
D601*
X013485Y019061D03*
X013488Y019061D03*
D602*
X013484Y019061D03*
D603*
X013483Y019061D03*
X013483Y019061D03*
X013481Y019061D03*
X013480Y019061D03*
D604*
X013482Y019061D03*
D605*
X013479Y019061D03*
X013479Y019061D03*
D606*
X013478Y019061D03*
D607*
X013477Y019061D03*
X013476Y019061D03*
X013475Y019061D03*
D608*
X013475Y019061D03*
D609*
X013474Y019061D03*
D610*
X013473Y019061D03*
X013472Y019061D03*
D611*
X013471Y019061D03*
D612*
X013471Y019061D03*
X013470Y019061D03*
D613*
X013469Y019061D03*
X013467Y019061D03*
D614*
X013468Y019061D03*
D615*
X013467Y019061D03*
X013466Y019061D03*
D616*
X013465Y019061D03*
D617*
X013464Y019061D03*
X013463Y019061D03*
D618*
X013463Y019061D03*
D619*
X013462Y019061D03*
D620*
X013461Y019061D03*
X013460Y019061D03*
X013459Y019061D03*
D621*
X013459Y019061D03*
X013457Y019061D03*
X013456Y019061D03*
D622*
X013458Y019061D03*
D623*
X013455Y019061D03*
X013454Y019061D03*
X013453Y019061D03*
D624*
X013455Y019061D03*
D625*
X013452Y019061D03*
X013451Y019061D03*
X013450Y019061D03*
D626*
X013451Y019061D03*
D627*
X013449Y019061D03*
X013447Y019061D03*
X013447Y019061D03*
D628*
X013448Y019061D03*
D629*
X013446Y019061D03*
X013444Y019061D03*
D630*
X013445Y019061D03*
D631*
X013443Y019062D03*
D632*
X013443Y019061D03*
D633*
X013442Y019061D03*
D634*
X013441Y019062D03*
D635*
X013440Y019061D03*
X013439Y019061D03*
X013439Y019061D03*
D636*
X013438Y019062D03*
D637*
X013437Y019061D03*
X013436Y019061D03*
D638*
X013435Y019062D03*
D639*
X013435Y019061D03*
D640*
X013434Y019061D03*
D641*
X013433Y019062D03*
D642*
X013432Y019061D03*
D643*
X013431Y019061D03*
D644*
X013431Y019062D03*
D645*
X013430Y019061D03*
D646*
X013429Y019062D03*
D647*
X013428Y019061D03*
D648*
X013427Y019061D03*
D649*
X013427Y019062D03*
D650*
X013426Y019061D03*
D651*
X013425Y019061D03*
D652*
X013424Y019062D03*
D653*
X013423Y019061D03*
D654*
X013423Y019062D03*
D655*
X013422Y019061D03*
D656*
X013421Y019061D03*
D657*
X013420Y019062D03*
D658*
X013419Y019061D03*
D659*
X013419Y019062D03*
D660*
X013418Y019062D03*
D661*
X013417Y019062D03*
D662*
X013416Y019061D03*
D663*
X013415Y019061D03*
D664*
X013415Y019061D03*
D665*
X013414Y019061D03*
D666*
X013413Y019061D03*
D667*
X013412Y019061D03*
D668*
X013411Y019061D03*
D669*
X013411Y019061D03*
D670*
X013410Y019061D03*
D671*
X013409Y019061D03*
D672*
X013408Y019061D03*
D673*
X013407Y019061D03*
D674*
X013407Y019061D03*
D675*
X013406Y019061D03*
D676*
X013405Y019061D03*
D677*
X013404Y019061D03*
D678*
X013403Y019061D03*
D679*
X013403Y019061D03*
D680*
X013402Y019061D03*
D681*
X013401Y019061D03*
D682*
X013400Y019061D03*
D683*
X013399Y019061D03*
D684*
X013399Y019061D03*
D685*
X013398Y019061D03*
D686*
X013397Y019061D03*
D687*
X013396Y019061D03*
D688*
X013395Y019061D03*
D689*
X013395Y019061D03*
D690*
X013394Y019061D03*
D691*
X013393Y019061D03*
D692*
X013392Y019061D03*
D693*
X013391Y019061D03*
D694*
X013391Y019062D03*
D695*
X013390Y019062D03*
D696*
X013389Y019062D03*
D697*
X013388Y019062D03*
D698*
X013387Y019062D03*
D699*
X013387Y019062D03*
D700*
X013386Y019062D03*
D701*
X013385Y019062D03*
D702*
X013384Y019062D03*
D703*
X013383Y019062D03*
D704*
X013383Y019062D03*
D705*
X013382Y019062D03*
D706*
X013381Y019062D03*
D707*
X013380Y019062D03*
D708*
X013379Y019062D03*
D709*
X013379Y019062D03*
D710*
X013378Y019062D03*
D711*
X013377Y019061D03*
D712*
X013376Y019061D03*
D713*
X013375Y019061D03*
D714*
X013375Y019061D03*
D715*
X013374Y019061D03*
D716*
X013373Y019061D03*
D717*
X013372Y019061D03*
D718*
X013371Y019061D03*
D719*
X013371Y019061D03*
D720*
X013370Y019061D03*
D721*
X013369Y019061D03*
D722*
X013368Y019061D03*
D723*
X013367Y019061D03*
D724*
X013367Y019061D03*
D725*
X013366Y019061D03*
D726*
X013365Y019061D03*
D727*
X013364Y019061D03*
D728*
X013363Y019061D03*
D729*
X013363Y019061D03*
D730*
X013362Y019061D03*
D731*
X013361Y019061D03*
D732*
X013360Y019061D03*
D733*
X013359Y019061D03*
D734*
X013359Y019061D03*
D735*
X013358Y019061D03*
D736*
X013357Y019061D03*
D737*
X013356Y019061D03*
D738*
X013355Y019061D03*
D739*
X013355Y019061D03*
D740*
X013354Y019061D03*
D741*
X013353Y019061D03*
D742*
X013352Y019061D03*
D743*
X013351Y019062D03*
D744*
X013351Y019062D03*
D745*
X013350Y019062D03*
D746*
X013349Y019062D03*
D747*
X013348Y019062D03*
D748*
X013347Y019062D03*
D749*
X013347Y019062D03*
D750*
X013346Y019062D03*
D751*
X013345Y019062D03*
D752*
X013344Y019062D03*
D753*
X013343Y019062D03*
D754*
X013343Y019062D03*
D755*
X013342Y019062D03*
D756*
X013341Y019062D03*
D757*
X013340Y019062D03*
D758*
X013339Y019062D03*
D759*
X013339Y019062D03*
D760*
X013338Y019061D03*
D761*
X013337Y019061D03*
D762*
X013336Y019061D03*
D763*
X013335Y019061D03*
D764*
X013335Y019061D03*
D765*
X013334Y019061D03*
D766*
X013333Y019061D03*
D767*
X013332Y019061D03*
D768*
X013331Y019061D03*
D769*
X013331Y019061D03*
D770*
X013330Y019061D03*
D771*
X013329Y019061D03*
D772*
X013328Y019061D03*
D773*
X013327Y019061D03*
D774*
X013327Y019061D03*
D775*
X013326Y019061D03*
D776*
X013325Y019061D03*
D777*
X013324Y019061D03*
D778*
X013323Y019061D03*
D779*
X013323Y019061D03*
D780*
X013322Y019061D03*
D781*
X013321Y019061D03*
D782*
X013320Y019061D03*
D783*
X013319Y019061D03*
D784*
X013319Y019061D03*
D785*
X013318Y019061D03*
D786*
X013317Y019061D03*
D787*
X013316Y019061D03*
D788*
X013315Y019061D03*
D789*
X013315Y019061D03*
D790*
X013314Y019061D03*
D791*
X013313Y019061D03*
D792*
X013312Y019061D03*
D793*
X013311Y019062D03*
D794*
X013311Y019062D03*
D795*
X013310Y019062D03*
D796*
X013309Y019062D03*
D797*
X013308Y019062D03*
D798*
X013307Y019062D03*
D799*
X013307Y019062D03*
D800*
X013306Y019062D03*
D801*
X013305Y019062D03*
D802*
X013304Y019062D03*
D803*
X013303Y019062D03*
D804*
X013303Y019062D03*
D805*
X013302Y019062D03*
D806*
X013301Y019062D03*
D807*
X013300Y019062D03*
D808*
X013299Y019061D03*
D809*
X013299Y019061D03*
D810*
X013298Y019061D03*
D811*
X013297Y019061D03*
D812*
X013296Y019061D03*
D813*
X013295Y019061D03*
D814*
X013295Y019061D03*
D815*
X013294Y019061D03*
D816*
X013293Y019061D03*
D817*
X013292Y019061D03*
D818*
X013291Y019061D03*
D819*
X013291Y019061D03*
D820*
X013290Y019061D03*
D821*
X013289Y019061D03*
D822*
X013288Y019061D03*
D823*
X013287Y019061D03*
D824*
X013287Y019061D03*
D825*
X013286Y019061D03*
D826*
X013285Y019061D03*
D827*
X013284Y019061D03*
D828*
X013283Y019061D03*
D829*
X013283Y019061D03*
D830*
X013282Y019061D03*
D831*
X013281Y019061D03*
D832*
X013280Y019061D03*
D833*
X013279Y019061D03*
D834*
X013279Y019061D03*
D835*
X013278Y019061D03*
D836*
X013277Y019061D03*
D837*
X013276Y019061D03*
D838*
X013275Y019061D03*
D839*
X013275Y019061D03*
D840*
X013274Y019061D03*
D841*
X013273Y019061D03*
D842*
X013272Y019062D03*
D843*
X013271Y019062D03*
D844*
X013271Y019062D03*
D845*
X013270Y019062D03*
D846*
X013269Y019062D03*
D847*
X013268Y019062D03*
D848*
X013267Y019062D03*
D849*
X013267Y019062D03*
D850*
X013266Y019062D03*
D851*
X013265Y019062D03*
D852*
X013264Y019062D03*
D853*
X013263Y019062D03*
D854*
X013263Y019062D03*
D855*
X013262Y019062D03*
D856*
X013261Y019062D03*
D857*
X013260Y019061D03*
D858*
X013259Y019061D03*
D859*
X013259Y019061D03*
D860*
X013258Y019061D03*
D861*
X013257Y019061D03*
D862*
X013256Y019061D03*
D863*
X013255Y019061D03*
D864*
X013255Y019061D03*
D865*
X013254Y019061D03*
D866*
X013253Y019061D03*
D867*
X013252Y019061D03*
D868*
X013251Y019061D03*
D869*
X013251Y019061D03*
D870*
X013250Y019061D03*
D871*
X013249Y019061D03*
D872*
X013248Y019061D03*
D873*
X013247Y019061D03*
D874*
X013247Y019061D03*
D875*
X013246Y019061D03*
D876*
X013245Y019061D03*
D877*
X013244Y019061D03*
D878*
X013243Y019061D03*
D879*
X013243Y019061D03*
D880*
X013242Y019061D03*
D881*
X013241Y019061D03*
D882*
X013240Y019061D03*
D883*
X013239Y019061D03*
D884*
X013239Y019061D03*
D885*
X013238Y019061D03*
D886*
X013237Y019061D03*
D887*
X013236Y019061D03*
D888*
X013235Y019061D03*
D889*
X013235Y019061D03*
D890*
X013234Y019061D03*
D891*
X013233Y019062D03*
D892*
X013232Y019062D03*
D893*
X013231Y019062D03*
D894*
X013231Y019062D03*
D895*
X013230Y019062D03*
D896*
X013229Y019062D03*
D897*
X013228Y019062D03*
D898*
X013227Y019062D03*
D899*
X013227Y019062D03*
D900*
X013226Y019062D03*
D901*
X013225Y019062D03*
D902*
X013224Y019062D03*
D903*
X013223Y019062D03*
D904*
X013223Y019062D03*
D905*
X013222Y019062D03*
D906*
X013221Y019061D03*
D907*
X013220Y019061D03*
D908*
X013219Y019061D03*
D909*
X013219Y019061D03*
D910*
X013218Y019061D03*
D911*
X013217Y019061D03*
D912*
X013216Y019061D03*
D913*
X013215Y019061D03*
D914*
X013215Y019061D03*
D915*
X013214Y019061D03*
D916*
X013213Y019061D03*
D917*
X013212Y019061D03*
D918*
X013211Y019061D03*
D919*
X013211Y019061D03*
D920*
X013210Y019061D03*
D921*
X013209Y019061D03*
D922*
X013208Y019061D03*
D923*
X013207Y019061D03*
D924*
X013207Y019061D03*
D925*
X013206Y019061D03*
D926*
X013205Y019061D03*
D927*
X013204Y019061D03*
D928*
X013203Y019062D03*
D929*
X013203Y019061D03*
D930*
X013202Y019061D03*
D931*
X013201Y019061D03*
D932*
X013200Y019061D03*
D933*
X013199Y019061D03*
D934*
X013199Y019062D03*
D935*
X013198Y019062D03*
D936*
X013197Y019062D03*
D937*
X013196Y019062D03*
D938*
X013195Y019062D03*
D939*
X013195Y019062D03*
D940*
X013194Y019062D03*
D941*
X013193Y019062D03*
D942*
X013192Y019062D03*
D943*
X013191Y019062D03*
D944*
X013191Y019062D03*
D945*
X013190Y019063D03*
D946*
X013189Y019063D03*
D947*
X013188Y019063D03*
D948*
X013187Y019063D03*
D949*
X014872Y019866D02*
X014874Y019867D01*
X014874Y019868D02*
X014872Y019868D01*
X014873Y019869D02*
X014872Y019869D01*
X014872Y019869D01*
X014872Y019870D01*
X014872Y019870D01*
X014873Y019870D01*
X014873Y019870D01*
X014873Y019869D01*
X014872Y019869D01*
X014873Y019869D02*
X014873Y019869D01*
X014873Y019868D01*
X014873Y019868D01*
X014873Y019868D01*
X014873Y019870D02*
X014873Y019871D01*
X014873Y019871D01*
X014872Y019871D01*
X014872Y019870D02*
X014873Y019870D01*
X014873Y019871D02*
X014873Y019871D01*
X014873Y019872D01*
X014873Y019872D01*
X014872Y019872D01*
X014872Y019872D01*
X014872Y019873D01*
X014874Y019874D01*
X014873Y019875D02*
X014872Y019876D01*
X014872Y019877D01*
X014872Y019878D01*
X014872Y019878D01*
X014873Y019878D01*
X014873Y019878D01*
X014873Y019878D01*
X014873Y019877D01*
X014873Y019878D01*
X014873Y019879D02*
X014872Y019879D01*
X014872Y019880D01*
X014872Y019881D01*
X014872Y019881D01*
X014872Y019881D01*
X014873Y019881D01*
X014873Y019881D01*
X014873Y019881D01*
X014873Y019880D01*
X014873Y019879D01*
X014873Y019879D01*
X014872Y019879D02*
X014872Y019879D01*
X014873Y019880D02*
X014872Y019880D01*
X014872Y019882D02*
X014874Y019883D01*
X014873Y019884D02*
X014873Y019884D01*
X014873Y019884D01*
X014872Y019884D01*
X014872Y019884D01*
X014872Y019883D01*
X014873Y019884D01*
X014873Y019884D01*
X014873Y019885D02*
X014873Y019885D01*
X014872Y019885D01*
X014872Y019885D01*
X014872Y019886D02*
X014872Y019887D01*
X014872Y019888D01*
X014872Y019888D01*
X014872Y019889D01*
X014872Y019889D01*
X014873Y019889D01*
X014873Y019889D01*
X014873Y019888D01*
X014872Y019888D01*
X014872Y019887D02*
X014874Y019887D01*
X014874Y019887D01*
X014873Y019888D02*
X014873Y019888D01*
X014873Y019890D02*
X014872Y019890D01*
X014872Y019891D01*
X014873Y019891D01*
X014872Y019891D01*
X014872Y019890D01*
X014872Y019890D01*
X014872Y019890D01*
X014873Y019890D02*
X014873Y019890D01*
X014873Y019891D01*
X014873Y019891D01*
X014873Y019892D01*
X014873Y019892D01*
X014872Y019892D01*
X014872Y019892D01*
X014872Y019891D01*
X014872Y019891D01*
X014872Y019893D02*
X014872Y019893D01*
X014872Y019893D01*
X014872Y019894D01*
X014872Y019894D01*
X014873Y019894D01*
X014873Y019893D01*
X014872Y019893D02*
X014872Y019893D01*
X014874Y019893D01*
X014873Y019894D02*
X014873Y019894D01*
X014873Y019895D02*
X014873Y019895D01*
X014873Y019895D01*
X014873Y019896D01*
X014872Y019896D01*
X014872Y019897D01*
X014872Y019897D01*
X014873Y019897D01*
X014873Y019897D01*
X014873Y019896D01*
X014873Y019896D01*
X014872Y019896D01*
X014873Y019895D02*
X014872Y019895D01*
X014873Y019895D01*
X014872Y019893D02*
X014872Y019893D01*
X014874Y019885D02*
X014874Y019885D01*
X014874Y019877D02*
X014874Y019877D01*
X014873Y019877D02*
X014872Y019877D01*
X014873Y019876D02*
X014873Y019877D01*
X014873Y019876D02*
X014872Y019875D01*
X014873Y019873D02*
X014873Y019872D01*
X014873Y019873D01*
X014873Y019873D01*
X014873Y019873D01*
X014873Y019872D02*
X014872Y019872D01*
M02*
