G75*
%MOIN*%
%OFA0B0*%
%FSLAX24Y24*%
%IPPOS*%
%LPD*%
%AMOC8*
5,1,8,0,0,1.08239X$1,22.5*
%
%ADD10C,0.0050*%
%ADD11C,0.0040*%
%ADD12C,0.0100*%
%ADD13C,0.0070*%
%ADD14C,0.0080*%
%ADD15R,0.0100X0.0400*%
%ADD16C,0.0060*%
%ADD17C,0.0050*%
%ADD18R,0.0001X0.0539*%
%ADD19R,0.0001X0.0550*%
%ADD20R,0.0001X0.0556*%
%ADD21R,0.0001X0.0555*%
%ADD22R,0.0001X0.0561*%
%ADD23R,0.0001X0.0560*%
%ADD24R,0.0001X0.0564*%
%ADD25R,0.0001X0.0564*%
%ADD26R,0.0001X0.0568*%
%ADD27R,0.0001X0.0567*%
%ADD28R,0.0001X0.0570*%
%ADD29R,0.0001X0.0574*%
%ADD30R,0.0001X0.0576*%
%ADD31R,0.0001X0.0576*%
%ADD32R,0.0001X0.0578*%
%ADD33R,0.0001X0.0581*%
%ADD34R,0.0001X0.0580*%
%ADD35R,0.0001X0.0583*%
%ADD36R,0.0001X0.0582*%
%ADD37R,0.0001X0.0585*%
%ADD38R,0.0001X0.0586*%
%ADD39R,0.0001X0.0588*%
%ADD40R,0.0001X0.0590*%
%ADD41R,0.0001X0.0591*%
%ADD42R,0.0001X0.0593*%
%ADD43R,0.0001X0.0594*%
%ADD44R,0.0001X0.0596*%
%ADD45R,0.0001X0.0595*%
%ADD46R,0.0001X0.0597*%
%ADD47R,0.0001X0.0598*%
%ADD48R,0.0001X0.0598*%
%ADD49R,0.0001X0.0599*%
%ADD50R,0.0001X0.0601*%
%ADD51R,0.0001X0.0600*%
%ADD52R,0.0001X0.0601*%
%ADD53R,0.0001X0.0602*%
%ADD54R,0.0001X0.0602*%
%ADD55R,0.0001X0.0603*%
%ADD56R,0.0001X0.0604*%
%ADD57R,0.0001X0.0604*%
%ADD58R,0.0001X0.0605*%
%ADD59R,0.0001X0.0606*%
%ADD60R,0.0001X0.0606*%
%ADD61R,0.0001X0.0607*%
%ADD62R,0.0001X0.0607*%
%ADD63R,0.0001X0.0609*%
%ADD64R,0.0001X0.0608*%
%ADD65R,0.0001X0.0609*%
%ADD66R,0.0001X0.0610*%
%ADD67R,0.0001X0.0610*%
%ADD68R,0.0001X0.0610*%
%ADD69R,0.0001X0.0611*%
%ADD70R,0.0001X0.0611*%
%ADD71R,0.0001X0.0611*%
%ADD72R,0.0001X0.0612*%
%ADD73R,0.0001X0.0612*%
%ADD74R,0.0001X0.0613*%
%ADD75R,0.0001X0.0613*%
%ADD76R,0.0001X0.0611*%
%ADD77R,0.0001X0.0606*%
%ADD78R,0.0001X0.0610*%
%ADD79R,0.0001X0.0604*%
%ADD80R,0.0001X0.0603*%
%ADD81R,0.0001X0.0608*%
%ADD82R,0.0001X0.0602*%
%ADD83R,0.0001X0.0599*%
%ADD84R,0.0001X0.0606*%
%ADD85R,0.0001X0.0598*%
%ADD86R,0.0001X0.0604*%
%ADD87R,0.0001X0.0596*%
%ADD88R,0.0001X0.0594*%
%ADD89R,0.0001X0.0602*%
%ADD90R,0.0001X0.0594*%
%ADD91R,0.0001X0.0592*%
%ADD92R,0.0001X0.0600*%
%ADD93R,0.0001X0.0590*%
%ADD94R,0.0001X0.0589*%
%ADD95R,0.0001X0.0598*%
%ADD96R,0.0001X0.0587*%
%ADD97R,0.0001X0.0586*%
%ADD98R,0.0001X0.0595*%
%ADD99R,0.0001X0.0582*%
%ADD100R,0.0001X0.0579*%
%ADD101R,0.0001X0.0591*%
%ADD102R,0.0001X0.0577*%
%ADD103R,0.0001X0.0590*%
%ADD104R,0.0001X0.0574*%
%ADD105R,0.0001X0.0571*%
%ADD106R,0.0001X0.0569*%
%ADD107R,0.0001X0.0584*%
%ADD108R,0.0001X0.0566*%
%ADD109R,0.0001X0.0562*%
%ADD110R,0.0001X0.0581*%
%ADD111R,0.0001X0.0557*%
%ADD112R,0.0001X0.0552*%
%ADD113R,0.0001X0.0576*%
%ADD114R,0.0001X0.0544*%
%ADD115R,0.0001X0.0413*%
%ADD116R,0.0001X0.0570*%
%ADD117R,0.0001X0.0412*%
%ADD118R,0.0001X0.0412*%
%ADD119R,0.0001X0.0564*%
%ADD120R,0.0001X0.0555*%
%ADD121R,0.0001X0.0411*%
%ADD122R,0.0001X0.0411*%
%ADD123R,0.0001X0.0540*%
%ADD124R,0.0001X0.0383*%
%ADD125R,0.0001X0.0410*%
%ADD126R,0.0001X0.0410*%
%ADD127R,0.0001X0.0383*%
%ADD128R,0.0001X0.0382*%
%ADD129R,0.0001X0.0410*%
%ADD130R,0.0001X0.0409*%
%ADD131R,0.0001X0.0382*%
%ADD132R,0.0001X0.0409*%
%ADD133R,0.0001X0.0382*%
%ADD134R,0.0001X0.0408*%
%ADD135R,0.0001X0.0408*%
%ADD136R,0.0001X0.0381*%
%ADD137R,0.0001X0.0381*%
%ADD138R,0.0001X0.0407*%
%ADD139R,0.0001X0.0407*%
%ADD140R,0.0001X0.0380*%
%ADD141R,0.0001X0.0380*%
%ADD142R,0.0001X0.0406*%
%ADD143R,0.0001X0.0406*%
%ADD144R,0.0001X0.0379*%
%ADD145R,0.0001X0.0406*%
%ADD146R,0.0001X0.0406*%
%ADD147R,0.0001X0.0379*%
%ADD148R,0.0001X0.0405*%
%ADD149R,0.0001X0.0378*%
%ADD150R,0.0001X0.0404*%
%ADD151R,0.0001X0.0378*%
%ADD152R,0.0001X0.0404*%
%ADD153R,0.0001X0.0378*%
%ADD154R,0.0001X0.0403*%
%ADD155R,0.0001X0.0403*%
%ADD156R,0.0001X0.0377*%
%ADD157R,0.0001X0.0377*%
%ADD158R,0.0001X0.0402*%
%ADD159R,0.0001X0.0402*%
%ADD160R,0.0001X0.0376*%
%ADD161R,0.0001X0.0376*%
%ADD162R,0.0001X0.0402*%
%ADD163R,0.0001X0.0402*%
%ADD164R,0.0001X0.0375*%
%ADD165R,0.0001X0.0401*%
%ADD166R,0.0001X0.0375*%
%ADD167R,0.0001X0.0400*%
%ADD168R,0.0001X0.0400*%
%ADD169R,0.0001X0.0374*%
%ADD170R,0.0001X0.0399*%
%ADD171R,0.0001X0.0374*%
%ADD172R,0.0001X0.0399*%
%ADD173R,0.0001X0.0374*%
%ADD174R,0.0001X0.0398*%
%ADD175R,0.0001X0.0398*%
%ADD176R,0.0001X0.0374*%
%ADD177R,0.0001X0.0373*%
%ADD178R,0.0001X0.0398*%
%ADD179R,0.0001X0.0398*%
%ADD180R,0.0001X0.0372*%
%ADD181R,0.0001X0.0397*%
%ADD182R,0.0001X0.0372*%
%ADD183R,0.0001X0.0396*%
%ADD184R,0.0001X0.0371*%
%ADD185R,0.0001X0.0396*%
%ADD186R,0.0001X0.0371*%
%ADD187R,0.0001X0.0395*%
%ADD188R,0.0001X0.0370*%
%ADD189R,0.0001X0.0395*%
%ADD190R,0.0001X0.0370*%
%ADD191R,0.0001X0.0394*%
%ADD192R,0.0001X0.0394*%
%ADD193R,0.0001X0.0370*%
%ADD194R,0.0001X0.0394*%
%ADD195R,0.0001X0.0394*%
%ADD196R,0.0001X0.0370*%
%ADD197R,0.0001X0.0369*%
%ADD198R,0.0001X0.0393*%
%ADD199R,0.0001X0.0393*%
%ADD200R,0.0001X0.0369*%
%ADD201R,0.0001X0.0392*%
%ADD202R,0.0001X0.0368*%
%ADD203R,0.0001X0.0391*%
%ADD204R,0.0001X0.0367*%
%ADD205R,0.0001X0.0391*%
%ADD206R,0.0001X0.0367*%
%ADD207R,0.0001X0.0390*%
%ADD208R,0.0001X0.0390*%
%ADD209R,0.0001X0.0366*%
%ADD210R,0.0001X0.0366*%
%ADD211R,0.0001X0.0390*%
%ADD212R,0.0001X0.0390*%
%ADD213R,0.0001X0.0366*%
%ADD214R,0.0001X0.0366*%
%ADD215R,0.0001X0.0389*%
%ADD216R,0.0001X0.0389*%
%ADD217R,0.0001X0.0388*%
%ADD218R,0.0001X0.0365*%
%ADD219R,0.0001X0.0388*%
%ADD220R,0.0001X0.0365*%
%ADD221R,0.0001X0.0387*%
%ADD222R,0.0001X0.0364*%
%ADD223R,0.0001X0.0386*%
%ADD224R,0.0001X0.0364*%
%ADD225R,0.0001X0.0386*%
%ADD226R,0.0001X0.0363*%
%ADD227R,0.0001X0.0386*%
%ADD228R,0.0001X0.0386*%
%ADD229R,0.0001X0.0362*%
%ADD230R,0.0001X0.0362*%
%ADD231R,0.0001X0.0385*%
%ADD232R,0.0001X0.0385*%
%ADD233R,0.0001X0.0362*%
%ADD234R,0.0001X0.0384*%
%ADD235R,0.0001X0.0362*%
%ADD236R,0.0001X0.0384*%
%ADD237R,0.0001X0.0361*%
%ADD238R,0.0001X0.0361*%
%ADD239R,0.0001X0.0382*%
%ADD240R,0.0001X0.0360*%
%ADD241R,0.0001X0.0360*%
%ADD242R,0.0001X0.0359*%
%ADD243R,0.0001X0.0359*%
%ADD244R,0.0001X0.0358*%
%ADD245R,0.0001X0.0358*%
%ADD246R,0.0001X0.0379*%
%ADD247R,0.0001X0.0358*%
%ADD248R,0.0001X0.0357*%
%ADD249R,0.0001X0.0357*%
%ADD250R,0.0001X0.0378*%
%ADD251R,0.0001X0.0356*%
%ADD252R,0.0001X0.0356*%
%ADD253R,0.0001X0.0355*%
%ADD254R,0.0001X0.0376*%
%ADD255R,0.0001X0.0376*%
%ADD256R,0.0001X0.0355*%
%ADD257R,0.0001X0.0354*%
%ADD258R,0.0001X0.0354*%
%ADD259R,0.0001X0.0354*%
%ADD260R,0.0001X0.0353*%
%ADD261R,0.0001X0.0353*%
%ADD262R,0.0001X0.0373*%
%ADD263R,0.0001X0.0373*%
%ADD264R,0.0001X0.0352*%
%ADD265R,0.0001X0.0352*%
%ADD266R,0.0001X0.0351*%
%ADD267R,0.0001X0.0351*%
%ADD268R,0.0001X0.0350*%
%ADD269R,0.0001X0.0350*%
%ADD270R,0.0001X0.0370*%
%ADD271R,0.0001X0.0350*%
%ADD272R,0.0001X0.0350*%
%ADD273R,0.0001X0.0349*%
%ADD274R,0.0001X0.0368*%
%ADD275R,0.0001X0.0348*%
%ADD276R,0.0001X0.0348*%
%ADD277R,0.0001X0.0347*%
%ADD278R,0.0001X0.0347*%
%ADD279R,0.0001X0.0346*%
%ADD280R,0.0001X0.0346*%
%ADD281R,0.0001X0.0346*%
%ADD282R,0.0001X0.0346*%
%ADD283R,0.0001X0.0345*%
%ADD284R,0.0001X0.0363*%
%ADD285R,0.0001X0.0345*%
%ADD286R,0.0001X0.0344*%
%ADD287R,0.0001X0.0343*%
%ADD288R,0.0001X0.0343*%
%ADD289R,0.0001X0.0342*%
%ADD290R,0.0001X0.0342*%
%ADD291R,0.0001X0.0342*%
%ADD292R,0.0001X0.0342*%
%ADD293R,0.0001X0.0359*%
%ADD294R,0.0001X0.0359*%
%ADD295R,0.0001X0.0341*%
%ADD296R,0.0001X0.0358*%
%ADD297R,0.0001X0.0341*%
%ADD298R,0.0001X0.0340*%
%ADD299R,0.0001X0.0340*%
%ADD300R,0.0001X0.0339*%
%ADD301R,0.0001X0.0356*%
%ADD302R,0.0001X0.0338*%
%ADD303R,0.0001X0.0356*%
%ADD304R,0.0001X0.0338*%
%ADD305R,0.0001X0.0338*%
%ADD306R,0.0001X0.0338*%
%ADD307R,0.0001X0.0337*%
%ADD308R,0.0001X0.0337*%
%ADD309R,0.0001X0.0354*%
%ADD310R,0.0001X0.0353*%
%ADD311R,0.0001X0.0336*%
%ADD312R,0.0001X0.0353*%
%ADD313R,0.0001X0.0336*%
%ADD314R,0.0001X0.0335*%
%ADD315R,0.0001X0.0335*%
%ADD316R,0.0001X0.0334*%
%ADD317R,0.0001X0.0334*%
%ADD318R,0.0001X0.0334*%
%ADD319R,0.0001X0.0350*%
%ADD320R,0.0001X0.0350*%
%ADD321R,0.0001X0.0333*%
%ADD322R,0.0001X0.0333*%
%ADD323R,0.0001X0.0349*%
%ADD324R,0.0001X0.0332*%
%ADD325R,0.0001X0.0332*%
%ADD326R,0.0001X0.0331*%
%ADD327R,0.0001X0.0331*%
%ADD328R,0.0001X0.0330*%
%ADD329R,0.0001X0.0330*%
%ADD330R,0.0001X0.0330*%
%ADD331R,0.0001X0.0329*%
%ADD332R,0.0001X0.0329*%
%ADD333R,0.0001X0.0328*%
%ADD334R,0.0001X0.0328*%
%ADD335R,0.0001X0.0327*%
%ADD336R,0.0001X0.0327*%
%ADD337R,0.0001X0.0326*%
%ADD338R,0.0001X0.0326*%
%ADD339R,0.0001X0.0326*%
%ADD340R,0.0001X0.0326*%
%ADD341R,0.0001X0.0339*%
%ADD342R,0.0001X0.0325*%
%ADD343R,0.0001X0.0324*%
%ADD344R,0.0001X0.0324*%
%ADD345R,0.0001X0.0323*%
%ADD346R,0.0001X0.0323*%
%ADD347R,0.0001X0.0322*%
%ADD348R,0.0001X0.0322*%
%ADD349R,0.0001X0.0336*%
%ADD350R,0.0001X0.0336*%
%ADD351R,0.0001X0.0322*%
%ADD352R,0.0001X0.0334*%
%ADD353R,0.0001X0.0322*%
%ADD354R,0.0001X0.0321*%
%ADD355R,0.0001X0.0321*%
%ADD356R,0.0001X0.0320*%
%ADD357R,0.0001X0.0333*%
%ADD358R,0.0001X0.0333*%
%ADD359R,0.0001X0.0319*%
%ADD360R,0.0001X0.0319*%
%ADD361R,0.0001X0.0318*%
%ADD362R,0.0001X0.0318*%
%ADD363R,0.0001X0.0318*%
%ADD364R,0.0001X0.0318*%
%ADD365R,0.0001X0.0330*%
%ADD366R,0.0001X0.0330*%
%ADD367R,0.0001X0.0317*%
%ADD368R,0.0001X0.0317*%
%ADD369R,0.0001X0.0316*%
%ADD370R,0.0001X0.0316*%
%ADD371R,0.0001X0.0315*%
%ADD372R,0.0001X0.0314*%
%ADD373R,0.0001X0.0314*%
%ADD374R,0.0001X0.0314*%
%ADD375R,0.0001X0.0314*%
%ADD376R,0.0001X0.0325*%
%ADD377R,0.0001X0.0313*%
%ADD378R,0.0001X0.0313*%
%ADD379R,0.0001X0.0312*%
%ADD380R,0.0001X0.0312*%
%ADD381R,0.0001X0.0311*%
%ADD382R,0.0001X0.0311*%
%ADD383R,0.0001X0.0310*%
%ADD384R,0.0001X0.0310*%
%ADD385R,0.0001X0.0310*%
%ADD386R,0.0001X0.0320*%
%ADD387R,0.0001X0.0309*%
%ADD388R,0.0001X0.0309*%
%ADD389R,0.0001X0.0319*%
%ADD390R,0.0001X0.0319*%
%ADD391R,0.0001X0.0308*%
%ADD392R,0.0001X0.0308*%
%ADD393R,0.0001X0.0307*%
%ADD394R,0.0001X0.0307*%
%ADD395R,0.0001X0.0306*%
%ADD396R,0.0001X0.0316*%
%ADD397R,0.0001X0.0306*%
%ADD398R,0.0001X0.0316*%
%ADD399R,0.0001X0.0306*%
%ADD400R,0.0001X0.0315*%
%ADD401R,0.0001X0.0305*%
%ADD402R,0.0001X0.0305*%
%ADD403R,0.0001X0.0304*%
%ADD404R,0.0001X0.0304*%
%ADD405R,0.0001X0.0313*%
%ADD406R,0.0001X0.0303*%
%ADD407R,0.0001X0.0313*%
%ADD408R,0.0001X0.0303*%
%ADD409R,0.0001X0.0302*%
%ADD410R,0.0001X0.0302*%
%ADD411R,0.0001X0.0302*%
%ADD412R,0.0001X0.0310*%
%ADD413R,0.0001X0.0302*%
%ADD414R,0.0001X0.0301*%
%ADD415R,0.0001X0.0310*%
%ADD416R,0.0001X0.0300*%
%ADD417R,0.0001X0.0300*%
%ADD418R,0.0001X0.0299*%
%ADD419R,0.0001X0.0299*%
%ADD420R,0.0001X0.0298*%
%ADD421R,0.0001X0.0298*%
%ADD422R,0.0001X0.0298*%
%ADD423R,0.0001X0.0306*%
%ADD424R,0.0001X0.0298*%
%ADD425R,0.0001X0.0297*%
%ADD426R,0.0001X0.0297*%
%ADD427R,0.0001X0.0296*%
%ADD428R,0.0001X0.0295*%
%ADD429R,0.0001X0.0295*%
%ADD430R,0.0001X0.0294*%
%ADD431R,0.0001X0.0294*%
%ADD432R,0.0001X0.0294*%
%ADD433R,0.0001X0.0294*%
%ADD434R,0.0001X0.0301*%
%ADD435R,0.0001X0.0293*%
%ADD436R,0.0001X0.0299*%
%ADD437R,0.0001X0.0293*%
%ADD438R,0.0001X0.0299*%
%ADD439R,0.0001X0.0292*%
%ADD440R,0.0001X0.0292*%
%ADD441R,0.0001X0.0291*%
%ADD442R,0.0001X0.0290*%
%ADD443R,0.0001X0.0290*%
%ADD444R,0.0001X0.0290*%
%ADD445R,0.0001X0.0296*%
%ADD446R,0.0001X0.0290*%
%ADD447R,0.0001X0.0289*%
%ADD448R,0.0001X0.0289*%
%ADD449R,0.0001X0.0288*%
%ADD450R,0.0001X0.0288*%
%ADD451R,0.0001X0.0287*%
%ADD452R,0.0001X0.0293*%
%ADD453R,0.0001X0.0293*%
%ADD454R,0.0001X0.0287*%
%ADD455R,0.0001X0.0286*%
%ADD456R,0.0001X0.0291*%
%ADD457R,0.0001X0.0286*%
%ADD458R,0.0001X0.0286*%
%ADD459R,0.0001X0.0285*%
%ADD460R,0.0001X0.0285*%
%ADD461R,0.0001X0.0290*%
%ADD462R,0.0001X0.0290*%
%ADD463R,0.0001X0.0284*%
%ADD464R,0.0001X0.0284*%
%ADD465R,0.0001X0.0283*%
%ADD466R,0.0001X0.0283*%
%ADD467R,0.0001X0.0282*%
%ADD468R,0.0001X0.0286*%
%ADD469R,0.0001X0.0282*%
%ADD470R,0.0001X0.0282*%
%ADD471R,0.0001X0.0281*%
%ADD472R,0.0001X0.0281*%
%ADD473R,0.0001X0.0280*%
%ADD474R,0.0001X0.0280*%
%ADD475R,0.0001X0.0279*%
%ADD476R,0.0001X0.0279*%
%ADD477R,0.0001X0.0278*%
%ADD478R,0.0001X0.0282*%
%ADD479R,0.0001X0.0278*%
%ADD480R,0.0001X0.0278*%
%ADD481R,0.0001X0.0278*%
%ADD482R,0.0001X0.0277*%
%ADD483R,0.0001X0.0276*%
%ADD484R,0.0001X0.0279*%
%ADD485R,0.0001X0.0276*%
%ADD486R,0.0001X0.0275*%
%ADD487R,0.0001X0.0275*%
%ADD488R,0.0001X0.0274*%
%ADD489R,0.0001X0.0274*%
%ADD490R,0.0001X0.0277*%
%ADD491R,0.0001X0.0274*%
%ADD492R,0.0001X0.0276*%
%ADD493R,0.0001X0.0276*%
%ADD494R,0.0001X0.0274*%
%ADD495R,0.0001X0.0273*%
%ADD496R,0.0001X0.0273*%
%ADD497R,0.0001X0.0272*%
%ADD498R,0.0001X0.0271*%
%ADD499R,0.0001X0.0271*%
%ADD500R,0.0001X0.0273*%
%ADD501R,0.0001X0.0273*%
%ADD502R,0.0001X0.0270*%
%ADD503R,0.0001X0.0270*%
%ADD504R,0.0001X0.0272*%
%ADD505R,0.0001X0.0270*%
%ADD506R,0.0001X0.0270*%
%ADD507R,0.0001X0.0269*%
%ADD508R,0.0001X0.0269*%
%ADD509R,0.0001X0.0270*%
%ADD510R,0.0001X0.0268*%
%ADD511R,0.0001X0.0268*%
%ADD512R,0.0001X0.0267*%
%ADD513R,0.0001X0.0266*%
%ADD514R,0.0001X0.0266*%
%ADD515R,0.0001X0.0267*%
%ADD516R,0.0001X0.0266*%
%ADD517R,0.0001X0.0266*%
%ADD518R,0.0001X0.0265*%
%ADD519R,0.0001X0.0265*%
%ADD520R,0.0001X0.0264*%
%ADD521R,0.0001X0.0264*%
%ADD522R,0.0001X0.0263*%
%ADD523R,0.0001X0.0263*%
%ADD524R,0.0001X0.0262*%
%ADD525R,0.0001X0.0262*%
%ADD526R,0.0001X0.0262*%
%ADD527R,0.0001X0.0262*%
%ADD528R,0.0001X0.0261*%
%ADD529R,0.0001X0.0261*%
%ADD530R,0.0001X0.0260*%
%ADD531R,0.0001X0.0260*%
%ADD532R,0.0001X0.0259*%
%ADD533R,0.0001X0.0259*%
%ADD534R,0.0001X0.0259*%
%ADD535R,0.0001X0.0258*%
%ADD536R,0.0001X0.0258*%
%ADD537R,0.0001X0.0259*%
%ADD538R,0.0001X0.0258*%
%ADD539R,0.0001X0.0258*%
%ADD540R,0.0001X0.0257*%
%ADD541R,0.0001X0.0256*%
%ADD542R,0.0001X0.0257*%
%ADD543R,0.0001X0.0256*%
%ADD544R,0.0001X0.0255*%
%ADD545R,0.0001X0.0255*%
%ADD546R,0.0001X0.0256*%
%ADD547R,0.0001X0.0256*%
%ADD548R,0.0001X0.0254*%
%ADD549R,0.0001X0.0254*%
%ADD550R,0.0001X0.0254*%
%ADD551R,0.0001X0.0254*%
%ADD552R,0.0001X0.0253*%
%ADD553R,0.0001X0.0253*%
%ADD554R,0.0001X0.0252*%
%ADD555R,0.0001X0.0251*%
%ADD556R,0.0001X0.0251*%
%ADD557R,0.0001X0.0253*%
%ADD558R,0.0001X0.0250*%
%ADD559R,0.0001X0.0250*%
%ADD560R,0.0001X0.0252*%
%ADD561R,0.0001X0.0250*%
%ADD562R,0.0001X0.0250*%
%ADD563R,0.0001X0.0249*%
%ADD564R,0.0001X0.0249*%
%ADD565R,0.0001X0.0248*%
%ADD566R,0.0001X0.0247*%
%ADD567R,0.0001X0.0247*%
%ADD568R,0.0001X0.0250*%
%ADD569R,0.0001X0.0246*%
%ADD570R,0.0001X0.0246*%
%ADD571R,0.0001X0.0250*%
%ADD572R,0.0001X0.0246*%
%ADD573R,0.0001X0.0246*%
%ADD574R,0.0001X0.0245*%
%ADD575R,0.0001X0.0245*%
%ADD576R,0.0001X0.0244*%
%ADD577R,0.0001X0.0243*%
%ADD578R,0.0001X0.0243*%
%ADD579R,0.0001X0.0242*%
%ADD580R,0.0001X0.0242*%
%ADD581R,0.0001X0.0242*%
%ADD582R,0.0001X0.0242*%
%ADD583R,0.0001X0.0241*%
%ADD584R,0.0001X0.0241*%
%ADD585R,0.0001X0.0240*%
%ADD586R,0.0001X0.0240*%
%ADD587R,0.0001X0.0244*%
%ADD588R,0.0001X0.0239*%
%ADD589R,0.0001X0.0238*%
%ADD590R,0.0001X0.0238*%
%ADD591R,0.0001X0.0238*%
%ADD592R,0.0001X0.0238*%
%ADD593R,0.0001X0.0237*%
%ADD594R,0.0001X0.0237*%
%ADD595R,0.0001X0.0415*%
%ADD596R,0.0001X0.0415*%
%ADD597R,0.0001X0.1389*%
%ADD598R,0.0001X0.1389*%
%ADD599R,0.0001X0.0514*%
%ADD600R,0.0001X0.0489*%
%ADD601R,0.0001X0.0514*%
%ADD602R,0.0001X0.0489*%
%ADD603R,0.0001X0.1388*%
%ADD604R,0.0001X0.1388*%
%ADD605R,0.0001X0.1387*%
%ADD606R,0.0001X0.1387*%
%ADD607R,0.0001X0.1386*%
%ADD608R,0.0001X0.1386*%
%ADD609R,0.0001X0.1386*%
%ADD610R,0.0001X0.1385*%
%ADD611R,0.0001X0.1384*%
%ADD612R,0.0001X0.1384*%
%ADD613R,0.0001X0.1383*%
%ADD614R,0.0001X0.1383*%
%ADD615R,0.0001X0.1382*%
%ADD616R,0.0001X0.1382*%
%ADD617R,0.0001X0.1382*%
%ADD618R,0.0001X0.1381*%
%ADD619R,0.0001X0.1381*%
%ADD620R,0.0001X0.1380*%
%ADD621R,0.0001X0.1379*%
%ADD622R,0.0001X0.1379*%
%ADD623R,0.0001X0.1378*%
%ADD624R,0.0001X0.1378*%
%ADD625R,0.0001X0.1378*%
%ADD626R,0.0001X0.1376*%
%ADD627R,0.0001X0.1376*%
%ADD628R,0.0001X0.1374*%
%ADD629R,0.0001X0.1374*%
%ADD630R,0.0001X0.1373*%
%ADD631R,0.0001X0.1373*%
%ADD632R,0.0001X0.1371*%
%ADD633R,0.0001X0.1371*%
%ADD634R,0.0001X0.1370*%
%ADD635R,0.0001X0.1370*%
%ADD636R,0.0001X0.1369*%
%ADD637R,0.0001X0.1368*%
%ADD638R,0.0001X0.1368*%
%ADD639R,0.0001X0.1367*%
%ADD640R,0.0001X0.1366*%
%ADD641R,0.0001X0.1366*%
%ADD642R,0.0001X0.1365*%
%ADD643R,0.0001X0.1364*%
%ADD644R,0.0001X0.1363*%
%ADD645R,0.0001X0.1363*%
%ADD646R,0.0001X0.1362*%
%ADD647R,0.0001X0.1362*%
%ADD648R,0.0001X0.1362*%
%ADD649R,0.0001X0.1361*%
%ADD650R,0.0001X0.1360*%
%ADD651R,0.0001X0.1359*%
%ADD652R,0.0001X0.1358*%
%ADD653R,0.0001X0.1358*%
%ADD654R,0.0001X0.1358*%
%ADD655R,0.0001X0.1357*%
%ADD656R,0.0001X0.1357*%
%ADD657R,0.0001X0.1356*%
%ADD658R,0.0001X0.1355*%
%ADD659R,0.0001X0.1354*%
%ADD660R,0.0001X0.1354*%
%ADD661R,0.0001X0.1354*%
%ADD662R,0.0001X0.1353*%
%ADD663R,0.0001X0.1352*%
%ADD664R,0.0001X0.1351*%
%ADD665R,0.0001X0.1350*%
%ADD666R,0.0001X0.1348*%
%ADD667R,0.0001X0.1346*%
%ADD668R,0.0001X0.1344*%
%ADD669R,0.0001X0.1342*%
%ADD670R,0.0001X0.1341*%
%ADD671R,0.0001X0.1339*%
%ADD672R,0.0001X0.1338*%
%ADD673R,0.0001X0.1336*%
%ADD674R,0.0001X0.1334*%
%ADD675R,0.0001X0.1333*%
%ADD676R,0.0001X0.1331*%
%ADD677R,0.0001X0.1330*%
%ADD678R,0.0001X0.1328*%
%ADD679R,0.0001X0.1326*%
%ADD680R,0.0001X0.1325*%
%ADD681R,0.0001X0.1323*%
%ADD682R,0.0001X0.1322*%
%ADD683R,0.0001X0.1320*%
%ADD684R,0.0001X0.1318*%
%ADD685R,0.0001X0.1317*%
%ADD686R,0.0001X0.1315*%
%ADD687R,0.0001X0.1314*%
%ADD688R,0.0001X0.1312*%
%ADD689R,0.0001X0.1310*%
%ADD690R,0.0001X0.1309*%
%ADD691R,0.0001X0.1307*%
%ADD692R,0.0001X0.1306*%
%ADD693R,0.0001X0.1304*%
%ADD694R,0.0001X0.1302*%
%ADD695R,0.0001X0.1301*%
%ADD696R,0.0001X0.1299*%
%ADD697R,0.0001X0.1298*%
%ADD698R,0.0001X0.1296*%
%ADD699R,0.0001X0.1294*%
%ADD700R,0.0001X0.1292*%
%ADD701R,0.0001X0.1290*%
%ADD702R,0.0001X0.1289*%
%ADD703R,0.0001X0.1287*%
%ADD704R,0.0001X0.1286*%
%ADD705R,0.0001X0.1284*%
%ADD706R,0.0001X0.1282*%
%ADD707R,0.0001X0.1281*%
%ADD708R,0.0001X0.1279*%
%ADD709R,0.0001X0.1278*%
%ADD710R,0.0001X0.1276*%
%ADD711R,0.0001X0.1274*%
%ADD712R,0.0001X0.1273*%
%ADD713R,0.0001X0.1271*%
%ADD714R,0.0001X0.1270*%
%ADD715R,0.0001X0.1268*%
%ADD716R,0.0001X0.1266*%
%ADD717R,0.0001X0.1264*%
%ADD718R,0.0001X0.1262*%
%ADD719R,0.0001X0.1261*%
%ADD720R,0.0001X0.1259*%
%ADD721R,0.0001X0.1258*%
%ADD722R,0.0001X0.1256*%
%ADD723R,0.0001X0.1254*%
%ADD724R,0.0001X0.1253*%
%ADD725R,0.0001X0.1251*%
%ADD726R,0.0001X0.1250*%
%ADD727R,0.0001X0.1248*%
%ADD728R,0.0001X0.1246*%
%ADD729R,0.0001X0.1245*%
%ADD730R,0.0001X0.1243*%
%ADD731R,0.0001X0.1242*%
%ADD732R,0.0001X0.1240*%
%ADD733R,0.0001X0.1238*%
%ADD734R,0.0001X0.1237*%
%ADD735R,0.0001X0.1235*%
%ADD736R,0.0001X0.1234*%
%ADD737R,0.0001X0.1232*%
%ADD738R,0.0001X0.1230*%
%ADD739R,0.0001X0.1229*%
%ADD740R,0.0001X0.1227*%
%ADD741R,0.0001X0.1226*%
%ADD742R,0.0001X0.1224*%
%ADD743R,0.0001X0.1222*%
%ADD744R,0.0001X0.1221*%
%ADD745R,0.0001X0.1219*%
%ADD746R,0.0001X0.1218*%
%ADD747R,0.0001X0.1216*%
%ADD748R,0.0001X0.1214*%
%ADD749R,0.0001X0.1212*%
%ADD750R,0.0001X0.1210*%
%ADD751R,0.0001X0.1209*%
%ADD752R,0.0001X0.1207*%
%ADD753R,0.0001X0.1206*%
%ADD754R,0.0001X0.1204*%
%ADD755R,0.0001X0.1202*%
%ADD756R,0.0001X0.1201*%
%ADD757R,0.0001X0.1199*%
%ADD758R,0.0001X0.1198*%
%ADD759R,0.0001X0.1196*%
%ADD760R,0.0001X0.1194*%
%ADD761R,0.0001X0.1193*%
%ADD762R,0.0001X0.1191*%
%ADD763R,0.0001X0.1190*%
%ADD764R,0.0001X0.1188*%
%ADD765R,0.0001X0.1186*%
%ADD766R,0.0001X0.1184*%
%ADD767R,0.0001X0.1182*%
%ADD768R,0.0001X0.1181*%
%ADD769R,0.0001X0.1179*%
%ADD770R,0.0001X0.1178*%
%ADD771R,0.0001X0.1176*%
%ADD772R,0.0001X0.1174*%
%ADD773R,0.0001X0.1173*%
%ADD774R,0.0001X0.1171*%
%ADD775R,0.0001X0.1170*%
%ADD776R,0.0001X0.1168*%
%ADD777R,0.0001X0.1166*%
%ADD778R,0.0001X0.1165*%
%ADD779R,0.0001X0.1163*%
%ADD780R,0.0001X0.1162*%
%ADD781R,0.0001X0.1160*%
%ADD782R,0.0001X0.1158*%
%ADD783R,0.0001X0.1157*%
%ADD784R,0.0001X0.1155*%
%ADD785R,0.0001X0.1154*%
%ADD786R,0.0001X0.1152*%
%ADD787R,0.0001X0.1150*%
%ADD788R,0.0001X0.1149*%
%ADD789R,0.0001X0.1147*%
%ADD790R,0.0001X0.1146*%
%ADD791R,0.0001X0.1144*%
%ADD792R,0.0001X0.1142*%
%ADD793R,0.0001X0.1141*%
%ADD794R,0.0001X0.1139*%
%ADD795R,0.0001X0.1138*%
%ADD796R,0.0001X0.1136*%
%ADD797R,0.0001X0.1134*%
%ADD798R,0.0001X0.1132*%
%ADD799R,0.0001X0.1130*%
%ADD800R,0.0001X0.1129*%
%ADD801R,0.0001X0.1127*%
%ADD802R,0.0001X0.1126*%
%ADD803R,0.0001X0.1124*%
%ADD804R,0.0001X0.1122*%
%ADD805R,0.0001X0.1121*%
%ADD806R,0.0001X0.1119*%
%ADD807R,0.0001X0.1118*%
%ADD808R,0.0001X0.1116*%
%ADD809R,0.0001X0.1114*%
%ADD810R,0.0001X0.1113*%
%ADD811R,0.0001X0.1111*%
%ADD812R,0.0001X0.1110*%
%ADD813R,0.0001X0.1107*%
%ADD814R,0.0001X0.1106*%
%ADD815R,0.0001X0.1104*%
%ADD816R,0.0001X0.1102*%
%ADD817R,0.0001X0.1101*%
%ADD818R,0.0001X0.1099*%
%ADD819R,0.0001X0.1098*%
%ADD820R,0.0001X0.1096*%
%ADD821R,0.0001X0.1094*%
%ADD822R,0.0001X0.1093*%
%ADD823R,0.0001X0.1091*%
%ADD824R,0.0001X0.1090*%
%ADD825R,0.0001X0.1088*%
%ADD826R,0.0001X0.1086*%
%ADD827R,0.0001X0.1085*%
%ADD828R,0.0001X0.1083*%
%ADD829R,0.0001X0.1082*%
%ADD830R,0.0001X0.1080*%
%ADD831R,0.0001X0.1078*%
%ADD832R,0.0001X0.1077*%
%ADD833R,0.0001X0.1075*%
%ADD834R,0.0001X0.1074*%
%ADD835R,0.0001X0.1072*%
%ADD836R,0.0001X0.1070*%
%ADD837R,0.0001X0.1069*%
%ADD838R,0.0001X0.1067*%
%ADD839R,0.0001X0.1066*%
%ADD840R,0.0001X0.1064*%
%ADD841R,0.0001X0.1062*%
%ADD842R,0.0001X0.1061*%
%ADD843R,0.0001X0.1059*%
%ADD844R,0.0001X0.1058*%
%ADD845R,0.0001X0.1056*%
%ADD846R,0.0001X0.1054*%
%ADD847R,0.0001X0.1052*%
%ADD848R,0.0001X0.1050*%
%ADD849R,0.0001X0.1049*%
%ADD850R,0.0001X0.1047*%
%ADD851R,0.0001X0.1046*%
%ADD852R,0.0001X0.1044*%
%ADD853R,0.0001X0.1042*%
%ADD854R,0.0001X0.1041*%
%ADD855R,0.0001X0.1039*%
%ADD856R,0.0001X0.1038*%
%ADD857R,0.0001X0.1036*%
%ADD858R,0.0001X0.1034*%
%ADD859R,0.0001X0.1033*%
%ADD860R,0.0001X0.1031*%
%ADD861R,0.0001X0.1030*%
%ADD862R,0.0001X0.1027*%
%ADD863R,0.0001X0.1026*%
%ADD864R,0.0001X0.1024*%
%ADD865R,0.0001X0.1022*%
%ADD866R,0.0001X0.1021*%
%ADD867R,0.0001X0.1019*%
%ADD868R,0.0001X0.1018*%
%ADD869R,0.0001X0.1016*%
%ADD870R,0.0001X0.1014*%
%ADD871R,0.0001X0.1013*%
%ADD872R,0.0001X0.1011*%
%ADD873R,0.0001X0.1010*%
%ADD874R,0.0001X0.1008*%
%ADD875R,0.0001X0.1006*%
%ADD876R,0.0001X0.1005*%
%ADD877R,0.0001X0.1003*%
%ADD878R,0.0001X0.1002*%
%ADD879R,0.0001X0.1000*%
%ADD880R,0.0001X0.0998*%
%ADD881R,0.0001X0.0997*%
%ADD882R,0.0001X0.0995*%
%ADD883R,0.0001X0.0994*%
%ADD884R,0.0001X0.0992*%
%ADD885R,0.0001X0.0990*%
%ADD886R,0.0001X0.0989*%
%ADD887R,0.0001X0.0987*%
%ADD888R,0.0001X0.0986*%
%ADD889R,0.0001X0.0984*%
%ADD890R,0.0001X0.0982*%
%ADD891R,0.0001X0.0981*%
%ADD892R,0.0001X0.0979*%
%ADD893R,0.0001X0.0978*%
%ADD894R,0.0001X0.0976*%
%ADD895R,0.0001X0.0974*%
%ADD896R,0.0001X0.0972*%
%ADD897R,0.0001X0.0970*%
%ADD898R,0.0001X0.0969*%
%ADD899R,0.0001X0.0967*%
%ADD900R,0.0001X0.0966*%
%ADD901R,0.0001X0.0964*%
%ADD902R,0.0001X0.0962*%
%ADD903R,0.0001X0.0961*%
%ADD904R,0.0001X0.0959*%
%ADD905R,0.0001X0.0958*%
%ADD906R,0.0001X0.0956*%
%ADD907R,0.0001X0.0954*%
%ADD908R,0.0001X0.0953*%
%ADD909R,0.0001X0.0951*%
%ADD910R,0.0001X0.0950*%
%ADD911R,0.0001X0.0947*%
%ADD912R,0.0001X0.0946*%
%ADD913R,0.0001X0.0944*%
%ADD914R,0.0001X0.0942*%
%ADD915R,0.0001X0.0941*%
%ADD916R,0.0001X0.0939*%
%ADD917R,0.0001X0.0938*%
%ADD918R,0.0001X0.0936*%
%ADD919R,0.0001X0.0934*%
%ADD920R,0.0001X0.0933*%
%ADD921R,0.0001X0.0931*%
%ADD922R,0.0001X0.0930*%
%ADD923R,0.0001X0.0928*%
%ADD924R,0.0001X0.0926*%
%ADD925R,0.0001X0.0925*%
%ADD926R,0.0001X0.0923*%
%ADD927R,0.0001X0.0922*%
%ADD928R,0.0001X0.0920*%
%ADD929R,0.0001X0.0918*%
%ADD930R,0.0001X0.0917*%
%ADD931R,0.0001X0.0914*%
%ADD932R,0.0001X0.0909*%
%ADD933R,0.0001X0.0905*%
%ADD934R,0.0001X0.0901*%
%ADD935R,0.0001X0.0896*%
%ADD936R,0.0001X0.0891*%
%ADD937R,0.0001X0.0886*%
%ADD938R,0.0001X0.0882*%
%ADD939R,0.0001X0.0876*%
%ADD940R,0.0001X0.0871*%
%ADD941R,0.0001X0.0866*%
%ADD942R,0.0001X0.0860*%
%ADD943R,0.0001X0.0854*%
%ADD944R,0.0001X0.0848*%
%ADD945R,0.0001X0.0842*%
%ADD946R,0.0001X0.0835*%
%ADD947R,0.0001X0.0829*%
%ADD948R,0.0001X0.0821*%
%ADD949R,0.0001X0.0813*%
%ADD950R,0.0001X0.0804*%
%ADD951R,0.0001X0.0794*%
%ADD952R,0.0001X0.0782*%
%ADD953R,0.0001X0.0763*%
%ADD954C,0.0000*%
%ADD955R,0.4000X0.0400*%
D10*
X005972Y005326D02*
X006047Y005251D01*
X006347Y005251D01*
X006422Y005326D01*
X006422Y005476D01*
X006347Y005551D01*
X006422Y005712D02*
X006422Y006012D01*
X006422Y005862D02*
X005972Y005862D01*
X006122Y005712D01*
X006047Y005551D02*
X005972Y005476D01*
X005972Y005326D01*
X006172Y005034D02*
X006172Y003460D01*
X006811Y003454D02*
X006811Y003003D01*
X007112Y003003D01*
X007272Y003003D02*
X007272Y003454D01*
X007572Y003454D01*
X007732Y003454D02*
X007957Y003454D01*
X008032Y003379D01*
X008032Y003078D01*
X007957Y003003D01*
X007732Y003003D01*
X007732Y003454D01*
X007422Y003229D02*
X007272Y003229D01*
X007272Y003003D02*
X007572Y003003D01*
X008193Y003003D02*
X008493Y003003D01*
X008343Y003003D02*
X008343Y003454D01*
X008193Y003304D01*
X009372Y002943D02*
X009822Y002943D01*
X009822Y002793D02*
X009822Y003093D01*
X009522Y002793D02*
X009372Y002943D01*
X009447Y002633D02*
X009597Y002633D01*
X009672Y002558D01*
X009672Y002332D01*
X009822Y002332D02*
X009372Y002332D01*
X009372Y002558D01*
X009447Y002633D01*
X009372Y002172D02*
X009372Y002022D01*
X009372Y002097D02*
X009747Y002097D01*
X009822Y002022D01*
X009822Y001947D01*
X009747Y001872D01*
X010822Y002022D02*
X010822Y002172D01*
X010822Y002097D02*
X011197Y002097D01*
X011272Y002022D01*
X011272Y001947D01*
X011197Y001872D01*
X011272Y002332D02*
X010822Y002332D01*
X010822Y002558D01*
X010897Y002633D01*
X011047Y002633D01*
X011122Y002558D01*
X011122Y002332D01*
X011272Y002793D02*
X010972Y003093D01*
X010897Y003093D01*
X010822Y003018D01*
X010822Y002868D01*
X010897Y002793D01*
X011272Y002793D02*
X011272Y003093D01*
X011466Y004572D02*
X011391Y004647D01*
X011466Y004572D02*
X011616Y004572D01*
X011691Y004647D01*
X011691Y004722D01*
X011616Y004797D01*
X011466Y004797D01*
X011391Y004872D01*
X011391Y004947D01*
X011466Y005022D01*
X011616Y005022D01*
X011691Y004947D01*
X011851Y005022D02*
X011851Y004572D01*
X012151Y004572D01*
X012001Y004797D02*
X011851Y004797D01*
X011851Y005022D02*
X012151Y005022D01*
X012312Y005022D02*
X012612Y005022D01*
X012462Y005022D02*
X012462Y004572D01*
X013772Y004922D02*
X013922Y004922D01*
X013847Y004922D02*
X013847Y005372D01*
X013772Y005372D02*
X013922Y005372D01*
X014079Y005297D02*
X014079Y004997D01*
X014154Y004922D01*
X014304Y004922D01*
X014379Y004997D01*
X014539Y004922D02*
X014840Y004922D01*
X014689Y004922D02*
X014689Y005372D01*
X014539Y005222D01*
X014379Y005297D02*
X014304Y005372D01*
X014154Y005372D01*
X014079Y005297D01*
X015272Y008072D02*
X015272Y008522D01*
X015497Y008522D01*
X015572Y008447D01*
X015572Y008297D01*
X015497Y008222D01*
X015272Y008222D01*
X015422Y008222D02*
X015572Y008072D01*
X015732Y008072D02*
X015732Y008522D01*
X016033Y008522D01*
X016193Y008447D02*
X016193Y008372D01*
X016268Y008297D01*
X016418Y008297D01*
X016493Y008222D01*
X016493Y008147D01*
X016418Y008072D01*
X016268Y008072D01*
X016193Y008147D01*
X016033Y008072D02*
X015732Y008072D01*
X015732Y008297D02*
X015882Y008297D01*
X016193Y008447D02*
X016268Y008522D01*
X016418Y008522D01*
X016493Y008447D01*
X016653Y008522D02*
X016653Y008072D01*
X016953Y008072D01*
X016803Y008297D02*
X016653Y008297D01*
X016653Y008522D02*
X016953Y008522D01*
X017113Y008522D02*
X017414Y008522D01*
X017264Y008522D02*
X017264Y008072D01*
X016612Y008872D02*
X016312Y008872D01*
X016462Y008872D02*
X016462Y009322D01*
X016312Y009172D01*
X016151Y009247D02*
X016151Y008947D01*
X016076Y008872D01*
X015926Y008872D01*
X015851Y008947D01*
X015851Y009247D01*
X015926Y009322D01*
X016076Y009322D01*
X016151Y009247D01*
X016001Y009022D02*
X016151Y008872D01*
X017022Y010051D02*
X017022Y010276D01*
X017097Y010351D01*
X017247Y010351D01*
X017322Y010276D01*
X017322Y010051D01*
X017472Y010051D02*
X017022Y010051D01*
X017322Y010201D02*
X017472Y010351D01*
X017247Y010512D02*
X017247Y010812D01*
X017472Y010737D02*
X017022Y010737D01*
X017247Y010512D01*
X018704Y006282D02*
X025790Y006282D01*
X025790Y023211D01*
X018704Y023211D01*
X018704Y006282D01*
X022422Y003997D02*
X022422Y003697D01*
X022497Y003622D01*
X022647Y003622D01*
X022722Y003697D01*
X022882Y003622D02*
X023183Y003622D01*
X023032Y003622D02*
X023032Y004072D01*
X022882Y003922D01*
X022722Y003997D02*
X022647Y004072D01*
X022497Y004072D01*
X022422Y003997D01*
X023343Y003922D02*
X023493Y004072D01*
X023493Y003622D01*
X023343Y003622D02*
X023643Y003622D01*
X019690Y002347D02*
X019690Y002197D01*
X019614Y002122D01*
X019389Y002122D01*
X019389Y001972D02*
X019389Y002422D01*
X019614Y002422D01*
X019690Y002347D01*
X019229Y002347D02*
X019154Y002422D01*
X019004Y002422D01*
X018929Y002347D01*
X018929Y002272D01*
X019004Y002197D01*
X019154Y002197D01*
X019229Y002122D01*
X019229Y002047D01*
X019154Y001972D01*
X019004Y001972D01*
X018929Y002047D01*
X018772Y001972D02*
X018622Y001972D01*
X018697Y001972D02*
X018697Y002422D01*
X018622Y002422D02*
X018772Y002422D01*
X012572Y009901D02*
X012122Y009901D01*
X012122Y010126D01*
X012197Y010201D01*
X012347Y010201D01*
X012422Y010126D01*
X012422Y009901D01*
X012422Y010051D02*
X012572Y010201D01*
X012572Y010362D02*
X012572Y010662D01*
X012572Y010512D02*
X012122Y010512D01*
X012272Y010362D01*
X010790Y006282D02*
X003704Y006282D01*
X003704Y023211D01*
X010790Y023211D01*
X010790Y006282D01*
X011928Y014747D02*
X011930Y014805D01*
X011936Y014863D01*
X011946Y014920D01*
X011960Y014976D01*
X011977Y015032D01*
X011998Y015086D01*
X012023Y015138D01*
X012052Y015189D01*
X012084Y015237D01*
X012119Y015283D01*
X012157Y015327D01*
X012198Y015368D01*
X012242Y015406D01*
X012288Y015441D01*
X012336Y015473D01*
X012387Y015502D01*
X012439Y015527D01*
X012493Y015548D01*
X012549Y015565D01*
X012605Y015579D01*
X012662Y015589D01*
X012720Y015595D01*
X012778Y015597D01*
X012836Y015595D01*
X012894Y015589D01*
X012951Y015579D01*
X013007Y015565D01*
X013063Y015548D01*
X013117Y015527D01*
X013169Y015502D01*
X013220Y015473D01*
X013268Y015441D01*
X013314Y015406D01*
X013358Y015368D01*
X013399Y015327D01*
X013437Y015283D01*
X013472Y015237D01*
X013504Y015189D01*
X013533Y015138D01*
X013558Y015086D01*
X013579Y015032D01*
X013596Y014976D01*
X013610Y014920D01*
X013620Y014863D01*
X013626Y014805D01*
X013628Y014747D01*
X013626Y014689D01*
X013620Y014631D01*
X013610Y014574D01*
X013596Y014518D01*
X013579Y014462D01*
X013558Y014408D01*
X013533Y014356D01*
X013504Y014305D01*
X013472Y014257D01*
X013437Y014211D01*
X013399Y014167D01*
X013358Y014126D01*
X013314Y014088D01*
X013268Y014053D01*
X013220Y014021D01*
X013169Y013992D01*
X013117Y013967D01*
X013063Y013946D01*
X013007Y013929D01*
X012951Y013915D01*
X012894Y013905D01*
X012836Y013899D01*
X012778Y013897D01*
X012720Y013899D01*
X012662Y013905D01*
X012605Y013915D01*
X012549Y013929D01*
X012493Y013946D01*
X012439Y013967D01*
X012387Y013992D01*
X012336Y014021D01*
X012288Y014053D01*
X012242Y014088D01*
X012198Y014126D01*
X012157Y014167D01*
X012119Y014211D01*
X012084Y014257D01*
X012052Y014305D01*
X012023Y014356D01*
X011998Y014408D01*
X011977Y014462D01*
X011960Y014518D01*
X011946Y014574D01*
X011936Y014631D01*
X011930Y014689D01*
X011928Y014747D01*
X015865Y014747D02*
X015867Y014805D01*
X015873Y014863D01*
X015883Y014920D01*
X015897Y014976D01*
X015914Y015032D01*
X015935Y015086D01*
X015960Y015138D01*
X015989Y015189D01*
X016021Y015237D01*
X016056Y015283D01*
X016094Y015327D01*
X016135Y015368D01*
X016179Y015406D01*
X016225Y015441D01*
X016273Y015473D01*
X016324Y015502D01*
X016376Y015527D01*
X016430Y015548D01*
X016486Y015565D01*
X016542Y015579D01*
X016599Y015589D01*
X016657Y015595D01*
X016715Y015597D01*
X016773Y015595D01*
X016831Y015589D01*
X016888Y015579D01*
X016944Y015565D01*
X017000Y015548D01*
X017054Y015527D01*
X017106Y015502D01*
X017157Y015473D01*
X017205Y015441D01*
X017251Y015406D01*
X017295Y015368D01*
X017336Y015327D01*
X017374Y015283D01*
X017409Y015237D01*
X017441Y015189D01*
X017470Y015138D01*
X017495Y015086D01*
X017516Y015032D01*
X017533Y014976D01*
X017547Y014920D01*
X017557Y014863D01*
X017563Y014805D01*
X017565Y014747D01*
X017563Y014689D01*
X017557Y014631D01*
X017547Y014574D01*
X017533Y014518D01*
X017516Y014462D01*
X017495Y014408D01*
X017470Y014356D01*
X017441Y014305D01*
X017409Y014257D01*
X017374Y014211D01*
X017336Y014167D01*
X017295Y014126D01*
X017251Y014088D01*
X017205Y014053D01*
X017157Y014021D01*
X017106Y013992D01*
X017054Y013967D01*
X017000Y013946D01*
X016944Y013929D01*
X016888Y013915D01*
X016831Y013905D01*
X016773Y013899D01*
X016715Y013897D01*
X016657Y013899D01*
X016599Y013905D01*
X016542Y013915D01*
X016486Y013929D01*
X016430Y013946D01*
X016376Y013967D01*
X016324Y013992D01*
X016273Y014021D01*
X016225Y014053D01*
X016179Y014088D01*
X016135Y014126D01*
X016094Y014167D01*
X016056Y014211D01*
X016021Y014257D01*
X015989Y014305D01*
X015960Y014356D01*
X015935Y014408D01*
X015914Y014462D01*
X015897Y014518D01*
X015883Y014574D01*
X015873Y014631D01*
X015867Y014689D01*
X015865Y014747D01*
X011722Y021822D02*
X011272Y021822D01*
X011272Y022047D01*
X011347Y022122D01*
X011497Y022122D01*
X011572Y022047D01*
X011572Y021822D01*
X011572Y021972D02*
X011722Y022122D01*
X011647Y022282D02*
X011722Y022357D01*
X011722Y022508D01*
X011647Y022583D01*
X011572Y022583D01*
X011497Y022508D01*
X011497Y022432D01*
X011497Y022508D02*
X011422Y022583D01*
X011347Y022583D01*
X011272Y022508D01*
X011272Y022357D01*
X011347Y022282D01*
X009347Y024347D02*
X009347Y026347D01*
X007347Y026347D01*
X007347Y024347D01*
X009347Y024347D01*
X008847Y025347D02*
X008347Y025347D01*
X007556Y025347D02*
X007558Y025403D01*
X007564Y025458D01*
X007574Y025513D01*
X007587Y025567D01*
X007605Y025620D01*
X007626Y025672D01*
X007651Y025722D01*
X007679Y025770D01*
X007710Y025816D01*
X007745Y025860D01*
X007783Y025901D01*
X007823Y025940D01*
X007866Y025975D01*
X007912Y026008D01*
X007960Y026037D01*
X008009Y026062D01*
X008060Y026084D01*
X008113Y026103D01*
X008167Y026117D01*
X008222Y026128D01*
X008277Y026135D01*
X008333Y026138D01*
X008389Y026137D01*
X008444Y026132D01*
X008500Y026123D01*
X008554Y026110D01*
X008607Y026094D01*
X008659Y026074D01*
X008710Y026050D01*
X008759Y026023D01*
X008805Y025992D01*
X008849Y025958D01*
X008891Y025921D01*
X008930Y025881D01*
X008967Y025839D01*
X009000Y025794D01*
X009030Y025747D01*
X009056Y025697D01*
X009079Y025646D01*
X009098Y025594D01*
X009114Y025540D01*
X009126Y025486D01*
X009134Y025431D01*
X009138Y025375D01*
X009138Y025319D01*
X009134Y025263D01*
X009126Y025208D01*
X009114Y025154D01*
X009098Y025100D01*
X009079Y025048D01*
X009056Y024997D01*
X009030Y024947D01*
X009000Y024900D01*
X008967Y024855D01*
X008930Y024813D01*
X008891Y024773D01*
X008849Y024736D01*
X008805Y024702D01*
X008759Y024671D01*
X008710Y024644D01*
X008659Y024620D01*
X008607Y024600D01*
X008554Y024584D01*
X008500Y024571D01*
X008444Y024562D01*
X008389Y024557D01*
X008333Y024556D01*
X008277Y024559D01*
X008222Y024566D01*
X008167Y024577D01*
X008113Y024591D01*
X008060Y024610D01*
X008009Y024632D01*
X007960Y024657D01*
X007912Y024686D01*
X007866Y024719D01*
X007823Y024754D01*
X007783Y024793D01*
X007745Y024834D01*
X007710Y024878D01*
X007679Y024924D01*
X007651Y024972D01*
X007626Y025022D01*
X007605Y025074D01*
X007587Y025127D01*
X007574Y025181D01*
X007564Y025236D01*
X007558Y025291D01*
X007556Y025347D01*
X007847Y025347D02*
X008347Y025347D01*
X008347Y025847D01*
X008347Y025347D02*
X008347Y024847D01*
X008293Y026872D02*
X008593Y026872D01*
X008443Y026872D02*
X008443Y027322D01*
X008293Y027172D01*
X008133Y027247D02*
X008133Y027097D01*
X008058Y027022D01*
X007832Y027022D01*
X007832Y026872D02*
X007832Y027322D01*
X008058Y027322D01*
X008133Y027247D01*
X007982Y027022D02*
X008133Y026872D01*
X007672Y027022D02*
X007672Y027322D01*
X007672Y027022D02*
X007522Y026872D01*
X007372Y027022D01*
X007372Y027322D01*
X010422Y027247D02*
X010422Y027022D01*
X010872Y027022D01*
X010722Y027022D02*
X010722Y027247D01*
X010647Y027322D01*
X010497Y027322D01*
X010422Y027247D01*
X010497Y027482D02*
X010422Y027557D01*
X010422Y027708D01*
X010497Y027783D01*
X010572Y027783D01*
X010872Y027482D01*
X010872Y027783D01*
X010872Y027322D02*
X010722Y027172D01*
X001980Y022584D02*
X001982Y022642D01*
X001988Y022700D01*
X001998Y022757D01*
X002012Y022813D01*
X002029Y022869D01*
X002050Y022923D01*
X002075Y022975D01*
X002104Y023026D01*
X002136Y023074D01*
X002171Y023120D01*
X002209Y023164D01*
X002250Y023205D01*
X002294Y023243D01*
X002340Y023278D01*
X002388Y023310D01*
X002439Y023339D01*
X002491Y023364D01*
X002545Y023385D01*
X002601Y023402D01*
X002657Y023416D01*
X002714Y023426D01*
X002772Y023432D01*
X002830Y023434D01*
X002888Y023432D01*
X002946Y023426D01*
X003003Y023416D01*
X003059Y023402D01*
X003115Y023385D01*
X003169Y023364D01*
X003221Y023339D01*
X003272Y023310D01*
X003320Y023278D01*
X003366Y023243D01*
X003410Y023205D01*
X003451Y023164D01*
X003489Y023120D01*
X003524Y023074D01*
X003556Y023026D01*
X003585Y022975D01*
X003610Y022923D01*
X003631Y022869D01*
X003648Y022813D01*
X003662Y022757D01*
X003672Y022700D01*
X003678Y022642D01*
X003680Y022584D01*
X003678Y022526D01*
X003672Y022468D01*
X003662Y022411D01*
X003648Y022355D01*
X003631Y022299D01*
X003610Y022245D01*
X003585Y022193D01*
X003556Y022142D01*
X003524Y022094D01*
X003489Y022048D01*
X003451Y022004D01*
X003410Y021963D01*
X003366Y021925D01*
X003320Y021890D01*
X003272Y021858D01*
X003221Y021829D01*
X003169Y021804D01*
X003115Y021783D01*
X003059Y021766D01*
X003003Y021752D01*
X002946Y021742D01*
X002888Y021736D01*
X002830Y021734D01*
X002772Y021736D01*
X002714Y021742D01*
X002657Y021752D01*
X002601Y021766D01*
X002545Y021783D01*
X002491Y021804D01*
X002439Y021829D01*
X002388Y021858D01*
X002340Y021890D01*
X002294Y021925D01*
X002250Y021963D01*
X002209Y022004D01*
X002171Y022048D01*
X002136Y022094D01*
X002104Y022142D01*
X002075Y022193D01*
X002050Y022245D01*
X002029Y022299D01*
X002012Y022355D01*
X001998Y022411D01*
X001988Y022468D01*
X001982Y022526D01*
X001980Y022584D01*
X020861Y026003D02*
X021162Y026003D01*
X021322Y026003D02*
X021622Y026003D01*
X021782Y026003D02*
X021782Y026454D01*
X022007Y026454D01*
X022082Y026379D01*
X022082Y026078D01*
X022007Y026003D01*
X021782Y026003D01*
X021472Y026229D02*
X021322Y026229D01*
X021322Y026454D02*
X021322Y026003D01*
X021322Y026454D02*
X021622Y026454D01*
X022243Y026379D02*
X022318Y026454D01*
X022468Y026454D01*
X022543Y026379D01*
X022543Y026304D01*
X022243Y026003D01*
X022543Y026003D01*
X023322Y026034D02*
X023322Y024460D01*
X023422Y024133D02*
X023422Y023832D01*
X023122Y024133D01*
X023047Y024133D01*
X022972Y024058D01*
X022972Y023907D01*
X023047Y023832D01*
X023047Y023672D02*
X022972Y023597D01*
X022972Y023447D01*
X023047Y023372D01*
X023347Y023372D01*
X023422Y023447D01*
X023422Y023597D01*
X023347Y023672D01*
X020861Y026003D02*
X020861Y026454D01*
X025814Y022584D02*
X025816Y022642D01*
X025822Y022700D01*
X025832Y022757D01*
X025846Y022813D01*
X025863Y022869D01*
X025884Y022923D01*
X025909Y022975D01*
X025938Y023026D01*
X025970Y023074D01*
X026005Y023120D01*
X026043Y023164D01*
X026084Y023205D01*
X026128Y023243D01*
X026174Y023278D01*
X026222Y023310D01*
X026273Y023339D01*
X026325Y023364D01*
X026379Y023385D01*
X026435Y023402D01*
X026491Y023416D01*
X026548Y023426D01*
X026606Y023432D01*
X026664Y023434D01*
X026722Y023432D01*
X026780Y023426D01*
X026837Y023416D01*
X026893Y023402D01*
X026949Y023385D01*
X027003Y023364D01*
X027055Y023339D01*
X027106Y023310D01*
X027154Y023278D01*
X027200Y023243D01*
X027244Y023205D01*
X027285Y023164D01*
X027323Y023120D01*
X027358Y023074D01*
X027390Y023026D01*
X027419Y022975D01*
X027444Y022923D01*
X027465Y022869D01*
X027482Y022813D01*
X027496Y022757D01*
X027506Y022700D01*
X027512Y022642D01*
X027514Y022584D01*
X027512Y022526D01*
X027506Y022468D01*
X027496Y022411D01*
X027482Y022355D01*
X027465Y022299D01*
X027444Y022245D01*
X027419Y022193D01*
X027390Y022142D01*
X027358Y022094D01*
X027323Y022048D01*
X027285Y022004D01*
X027244Y021963D01*
X027200Y021925D01*
X027154Y021890D01*
X027106Y021858D01*
X027055Y021829D01*
X027003Y021804D01*
X026949Y021783D01*
X026893Y021766D01*
X026837Y021752D01*
X026780Y021742D01*
X026722Y021736D01*
X026664Y021734D01*
X026606Y021736D01*
X026548Y021742D01*
X026491Y021752D01*
X026435Y021766D01*
X026379Y021783D01*
X026325Y021804D01*
X026273Y021829D01*
X026222Y021858D01*
X026174Y021890D01*
X026128Y021925D01*
X026084Y021963D01*
X026043Y022004D01*
X026005Y022048D01*
X025970Y022094D01*
X025938Y022142D01*
X025909Y022193D01*
X025884Y022245D01*
X025863Y022299D01*
X025846Y022355D01*
X025832Y022411D01*
X025822Y022468D01*
X025816Y022526D01*
X025814Y022584D01*
X028997Y014072D02*
X028997Y013772D01*
X028847Y013922D02*
X029147Y013922D01*
X028472Y011862D02*
X028472Y011562D01*
X028472Y011712D02*
X028022Y011712D01*
X028172Y011562D01*
X028097Y011401D02*
X028022Y011326D01*
X028022Y011101D01*
X028472Y011101D01*
X028472Y011326D01*
X028397Y011401D01*
X028097Y011401D01*
D11*
X028184Y016490D02*
X028297Y016490D01*
X028240Y016490D02*
X028240Y016830D01*
X028184Y016830D02*
X028297Y016830D01*
X028417Y016830D02*
X028644Y016490D01*
X028644Y016830D01*
X028417Y016830D02*
X028417Y016490D01*
X028061Y016660D02*
X027834Y016660D01*
X027711Y016660D02*
X027654Y016604D01*
X027484Y016604D01*
X027597Y016604D02*
X027711Y016490D01*
X027711Y016660D02*
X027711Y016774D01*
X027654Y016830D01*
X027484Y016830D01*
X027484Y016490D01*
X027361Y016490D02*
X027361Y016717D01*
X027247Y016830D01*
X027134Y016717D01*
X027134Y016490D01*
X027011Y016490D02*
X026784Y016490D01*
X026784Y016830D01*
X026661Y016774D02*
X026604Y016830D01*
X026491Y016830D01*
X026434Y016774D01*
X026434Y016547D01*
X026491Y016490D01*
X026604Y016490D01*
X026661Y016547D01*
X026661Y016774D01*
X026311Y016774D02*
X026255Y016830D01*
X026141Y016830D01*
X026084Y016774D01*
X026084Y016717D01*
X026141Y016660D01*
X026255Y016660D01*
X026311Y016604D01*
X026311Y016547D01*
X026255Y016490D01*
X026141Y016490D01*
X026084Y016547D01*
X027134Y016660D02*
X027361Y016660D01*
X016450Y018085D02*
X016390Y018145D01*
X016450Y018205D01*
X016390Y018265D01*
X016210Y018265D01*
X016210Y018393D02*
X016390Y018393D01*
X016450Y018453D01*
X016390Y018513D01*
X016450Y018573D01*
X016390Y018633D01*
X016210Y018633D01*
X016210Y018761D02*
X016390Y018761D01*
X016450Y018821D01*
X016390Y018881D01*
X016450Y018941D01*
X016390Y019001D01*
X016210Y019001D01*
X016390Y019130D02*
X016390Y019190D01*
X016450Y019190D01*
X016450Y019130D01*
X016390Y019130D01*
X016390Y019314D02*
X016330Y019374D01*
X016330Y019554D01*
X016270Y019554D02*
X016450Y019554D01*
X016450Y019374D01*
X016390Y019314D01*
X016210Y019374D02*
X016210Y019494D01*
X016270Y019554D01*
X016270Y019682D02*
X016390Y019682D01*
X016450Y019742D01*
X016450Y019922D01*
X016450Y020050D02*
X016210Y020050D01*
X016330Y020050D02*
X016210Y020170D01*
X016210Y020231D01*
X016270Y020357D02*
X016210Y020417D01*
X016210Y020537D01*
X016270Y020598D01*
X016390Y020598D01*
X016450Y020537D01*
X016450Y020417D01*
X016390Y020357D01*
X016270Y020357D01*
X016210Y020726D02*
X016210Y020906D01*
X016270Y020966D01*
X016390Y020966D01*
X016450Y020906D01*
X016450Y020726D01*
X016089Y020726D01*
X015750Y020707D02*
X015690Y020647D01*
X015630Y020707D01*
X015630Y020888D01*
X015570Y020888D02*
X015750Y020888D01*
X015750Y020707D01*
X015750Y020519D02*
X015570Y020519D01*
X015510Y020459D01*
X015510Y020279D01*
X015750Y020279D01*
X015630Y020151D02*
X015630Y019911D01*
X015690Y019911D02*
X015570Y019911D01*
X015510Y019971D01*
X015510Y020091D01*
X015570Y020151D01*
X015630Y020151D01*
X015750Y020091D02*
X015750Y019971D01*
X015690Y019911D01*
X015750Y019783D02*
X015750Y019603D01*
X015690Y019542D01*
X015570Y019542D01*
X015510Y019603D01*
X015510Y019783D01*
X015389Y019783D02*
X015750Y019783D01*
X016210Y019742D02*
X016270Y019682D01*
X016210Y019742D02*
X016210Y019922D01*
X015750Y019414D02*
X015570Y019414D01*
X015510Y019354D01*
X015510Y019234D01*
X015630Y019234D02*
X015630Y019414D01*
X015750Y019414D02*
X015750Y019234D01*
X015690Y019174D01*
X015630Y019234D01*
X015690Y019046D02*
X015630Y018986D01*
X015630Y018866D01*
X015570Y018806D01*
X015510Y018866D01*
X015510Y019046D01*
X015690Y019046D02*
X015750Y018986D01*
X015750Y018806D01*
X015750Y018678D02*
X015750Y018498D01*
X015690Y018438D01*
X015630Y018498D01*
X015630Y018678D01*
X015570Y018678D02*
X015750Y018678D01*
X015570Y018678D02*
X015510Y018618D01*
X015510Y018498D01*
X015570Y018309D02*
X015630Y018249D01*
X015630Y018069D01*
X015750Y018069D02*
X015389Y018069D01*
X015389Y018249D01*
X015450Y018309D01*
X015570Y018309D01*
X016210Y018025D02*
X016390Y018025D01*
X016450Y018085D01*
X015510Y020707D02*
X015510Y020828D01*
X015570Y020888D01*
X015690Y021076D02*
X015750Y021076D01*
X015750Y021136D01*
X015690Y021136D01*
X015690Y021076D01*
X015750Y021136D02*
X015870Y021016D01*
X016210Y021154D02*
X016210Y021274D01*
X016270Y021334D01*
X016390Y021334D01*
X016450Y021274D01*
X016450Y021154D01*
X016390Y021094D01*
X016270Y021094D01*
X016210Y021154D01*
X016210Y021462D02*
X016210Y021582D01*
X016150Y021522D02*
X016390Y021522D01*
X016450Y021582D01*
X016450Y021708D02*
X016450Y021828D01*
X016450Y021768D02*
X016210Y021768D01*
X016210Y021708D01*
X016089Y021768D02*
X016029Y021768D01*
X015750Y021810D02*
X015690Y021870D01*
X015750Y021810D02*
X015750Y021690D01*
X015690Y021630D01*
X015450Y021630D01*
X015389Y021690D01*
X015389Y021810D01*
X015450Y021870D01*
X015510Y021998D02*
X015389Y022118D01*
X015510Y022238D01*
X015750Y022238D01*
X015570Y022238D02*
X015570Y021998D01*
X015510Y021998D02*
X015750Y021998D01*
X016210Y022013D02*
X016210Y022194D01*
X016210Y022013D02*
X016270Y021953D01*
X016390Y021953D01*
X016450Y022013D01*
X016450Y022194D01*
X016450Y022322D02*
X016450Y022382D01*
X016390Y022382D01*
X016390Y022322D01*
X016450Y022322D01*
X016390Y022506D02*
X016450Y022566D01*
X016450Y022746D01*
X016390Y022874D02*
X016450Y022934D01*
X016450Y023054D01*
X016390Y023114D01*
X016270Y023114D01*
X016210Y023054D01*
X016210Y022934D01*
X016270Y022874D01*
X016390Y022874D01*
X016210Y022746D02*
X016210Y022566D01*
X016270Y022506D01*
X016390Y022506D01*
X016450Y023242D02*
X016210Y023242D01*
X016210Y023303D01*
X016270Y023363D01*
X016210Y023423D01*
X016270Y023483D01*
X016450Y023483D01*
X016450Y023363D02*
X016270Y023363D01*
X010080Y023967D02*
X009960Y023847D01*
X009960Y023667D01*
X009960Y023847D02*
X009840Y023967D01*
X009840Y024027D01*
X009712Y024027D02*
X009472Y024027D01*
X009592Y024027D02*
X009592Y023667D01*
X009346Y023667D02*
X009226Y023667D01*
X009286Y023667D02*
X009286Y024027D01*
X009226Y024027D02*
X009346Y024027D01*
X009098Y024027D02*
X009098Y023787D01*
X008978Y023667D01*
X008858Y023787D01*
X008858Y024027D01*
X008733Y024027D02*
X008612Y024027D01*
X008673Y024027D02*
X008673Y023667D01*
X008733Y023667D02*
X008612Y023667D01*
X008364Y023667D02*
X008364Y024027D01*
X008244Y024027D02*
X008484Y024027D01*
X008119Y024027D02*
X007999Y024027D01*
X008059Y024027D02*
X008059Y023667D01*
X007999Y023667D02*
X008119Y023667D01*
X007871Y023727D02*
X007810Y023667D01*
X007690Y023667D01*
X007630Y023727D01*
X007690Y023847D02*
X007810Y023847D01*
X007871Y023787D01*
X007871Y023727D01*
X007690Y023847D02*
X007630Y023907D01*
X007630Y023967D01*
X007690Y024027D01*
X007810Y024027D01*
X007871Y023967D01*
X007502Y024027D02*
X007502Y023667D01*
X007262Y024027D01*
X007262Y023667D01*
X007134Y023667D02*
X006894Y023667D01*
X006894Y024027D01*
X007134Y024027D01*
X007014Y023847D02*
X006894Y023847D01*
X006766Y023787D02*
X006766Y023727D01*
X006706Y023667D01*
X006585Y023667D01*
X006525Y023727D01*
X006585Y023847D02*
X006706Y023847D01*
X006766Y023787D01*
X006766Y023967D02*
X006706Y024027D01*
X006585Y024027D01*
X006525Y023967D01*
X006525Y023907D01*
X006585Y023847D01*
X010080Y023967D02*
X010080Y024027D01*
X003167Y008083D02*
X002927Y008083D01*
X003167Y007843D01*
X003227Y007903D01*
X003227Y008023D01*
X003167Y008083D01*
X003167Y007843D02*
X002927Y007843D01*
X002867Y007903D01*
X002867Y008023D01*
X002927Y008083D01*
X003167Y007719D02*
X003227Y007719D01*
X003227Y007659D01*
X003167Y007659D01*
X003167Y007719D01*
X003227Y007531D02*
X003227Y007291D01*
X003227Y007411D02*
X002867Y007411D01*
X002987Y007291D01*
X002987Y007163D02*
X003227Y007042D01*
X002987Y006922D01*
D12*
X005047Y005247D02*
X005347Y005247D01*
X005647Y005247D01*
X005647Y005047D02*
X005347Y005047D01*
X005047Y005047D01*
X002097Y012035D02*
X001496Y012035D01*
X001196Y012335D01*
X001496Y012635D01*
X002097Y012635D01*
X001947Y012955D02*
X002097Y013105D01*
X002097Y013406D01*
X001947Y013556D01*
X001196Y013556D01*
X001196Y013876D02*
X001196Y014327D01*
X001346Y014477D01*
X001647Y014477D01*
X001797Y014327D01*
X001797Y013876D01*
X002097Y013876D02*
X001196Y013876D01*
X001797Y014176D02*
X002097Y014477D01*
X001947Y014797D02*
X002097Y014947D01*
X002097Y015247D01*
X001947Y015397D01*
X001346Y015397D01*
X001196Y015247D01*
X001196Y014947D01*
X001346Y014797D01*
X001947Y014797D01*
X002097Y015718D02*
X001196Y015718D01*
X001196Y016168D01*
X001346Y016318D01*
X001647Y016318D01*
X001797Y016168D01*
X001797Y015718D01*
X001797Y016018D02*
X002097Y016318D01*
X002097Y016638D02*
X001496Y016638D01*
X001196Y016939D01*
X001496Y017239D01*
X002097Y017239D01*
X001647Y017239D02*
X001647Y016638D01*
X001947Y012955D02*
X001196Y012955D01*
X001647Y012635D02*
X001647Y012035D01*
X023747Y024247D02*
X024047Y024247D01*
X024347Y024247D01*
X024347Y024447D02*
X024047Y024447D01*
X023747Y024447D01*
X027247Y011747D02*
X027247Y011497D01*
X026747Y011497D01*
X026747Y010397D01*
X027747Y010397D01*
X027747Y011497D01*
X027247Y011497D01*
X027747Y010397D02*
X027747Y009997D01*
X027297Y009997D01*
X027297Y009747D01*
X027297Y009997D02*
X026747Y009997D01*
X026747Y010397D01*
D13*
X003262Y010583D02*
X002947Y010583D01*
X002842Y010478D01*
X002842Y010268D01*
X002947Y010163D01*
X003262Y010163D02*
X002631Y010163D01*
X002631Y009938D02*
X002631Y009518D01*
X002631Y009728D02*
X003262Y009728D01*
X003157Y010807D02*
X002947Y010807D01*
X002842Y010912D01*
X002842Y011122D01*
X002947Y011228D01*
X003052Y011228D01*
X003052Y010807D01*
X003157Y010807D02*
X003262Y010912D01*
X003262Y011122D01*
X003157Y012096D02*
X003262Y012201D01*
X003262Y012412D01*
X003157Y012517D01*
X003052Y012517D01*
X002947Y012412D01*
X002947Y012201D01*
X002842Y012096D01*
X002736Y012096D01*
X002631Y012201D01*
X002631Y012412D01*
X002736Y012517D01*
X002842Y012741D02*
X002842Y012846D01*
X002947Y012951D01*
X002842Y013056D01*
X002947Y013161D01*
X003262Y013161D01*
X003262Y012951D02*
X002947Y012951D01*
X002842Y012741D02*
X003262Y012741D01*
X003157Y013385D02*
X003052Y013490D01*
X003052Y013806D01*
X002947Y013806D02*
X003262Y013806D01*
X003262Y013490D01*
X003157Y013385D01*
X002842Y013490D02*
X002842Y013701D01*
X002947Y013806D01*
X003052Y014030D02*
X002842Y014240D01*
X002842Y014345D01*
X002842Y014567D02*
X002842Y014777D01*
X002736Y014672D02*
X003157Y014672D01*
X003262Y014777D01*
X003262Y014030D02*
X002842Y014030D01*
X002842Y015641D02*
X002947Y015746D01*
X002947Y015957D01*
X003052Y016062D01*
X003157Y016062D01*
X003262Y015957D01*
X003262Y015746D01*
X003157Y015641D01*
X002842Y015641D02*
X002736Y015641D01*
X002631Y015746D01*
X002631Y015957D01*
X002736Y016062D01*
X002842Y016286D02*
X003157Y016286D01*
X003262Y016391D01*
X003262Y016706D01*
X002842Y016706D01*
X002842Y016930D02*
X002842Y017246D01*
X002947Y017351D01*
X003262Y017351D01*
X003262Y016930D02*
X002842Y016930D01*
X003157Y018220D02*
X003262Y018325D01*
X003262Y018430D01*
X003157Y018535D01*
X002631Y018535D01*
X002631Y018430D02*
X002631Y018640D01*
X002842Y018969D02*
X002842Y019179D01*
X002947Y019284D01*
X003262Y019284D01*
X003262Y018969D01*
X003157Y018864D01*
X003052Y018969D01*
X003052Y019284D01*
X003052Y019509D02*
X002842Y019719D01*
X002842Y019824D01*
X002842Y019509D02*
X003262Y019509D01*
D14*
X004847Y005997D02*
X004847Y004297D01*
X004849Y004280D01*
X004853Y004263D01*
X004860Y004247D01*
X004870Y004233D01*
X004883Y004220D01*
X004897Y004210D01*
X004913Y004203D01*
X004930Y004199D01*
X004947Y004197D01*
X005747Y004197D01*
X005764Y004199D01*
X005781Y004203D01*
X005797Y004210D01*
X005811Y004220D01*
X005824Y004233D01*
X005834Y004247D01*
X005841Y004263D01*
X005845Y004280D01*
X005847Y004297D01*
X005847Y005997D01*
X005845Y006014D01*
X005841Y006031D01*
X005834Y006047D01*
X005824Y006061D01*
X005811Y006074D01*
X005797Y006084D01*
X005781Y006091D01*
X005764Y006095D01*
X005747Y006097D01*
X004947Y006097D01*
X004930Y006095D01*
X004913Y006091D01*
X004897Y006084D01*
X004883Y006074D01*
X004870Y006061D01*
X004860Y006047D01*
X004853Y006031D01*
X004849Y006014D01*
X004847Y005997D01*
X009947Y003847D02*
X009947Y001847D01*
X010947Y001847D01*
X010947Y003847D01*
X009947Y003847D01*
X011397Y003847D02*
X012397Y003847D01*
X012397Y001847D01*
X011397Y001847D01*
X011397Y003847D01*
X011897Y005347D02*
X013597Y005347D01*
X013947Y006142D02*
X013947Y006947D01*
X013597Y007747D02*
X011897Y007747D01*
X011547Y006947D02*
X011547Y006154D01*
X012047Y006547D02*
X012049Y006599D01*
X012055Y006651D01*
X012065Y006703D01*
X012078Y006753D01*
X012095Y006803D01*
X012116Y006851D01*
X012141Y006897D01*
X012169Y006941D01*
X012200Y006983D01*
X012234Y007023D01*
X012271Y007060D01*
X012311Y007094D01*
X012353Y007125D01*
X012397Y007153D01*
X012443Y007178D01*
X012491Y007199D01*
X012541Y007216D01*
X012591Y007229D01*
X012643Y007239D01*
X012695Y007245D01*
X012747Y007247D01*
X012799Y007245D01*
X012851Y007239D01*
X012903Y007229D01*
X012953Y007216D01*
X013003Y007199D01*
X013051Y007178D01*
X013097Y007153D01*
X013141Y007125D01*
X013183Y007094D01*
X013223Y007060D01*
X013260Y007023D01*
X013294Y006983D01*
X013325Y006941D01*
X013353Y006897D01*
X013378Y006851D01*
X013399Y006803D01*
X013416Y006753D01*
X013429Y006703D01*
X013439Y006651D01*
X013445Y006599D01*
X013447Y006547D01*
X013445Y006495D01*
X013439Y006443D01*
X013429Y006391D01*
X013416Y006341D01*
X013399Y006291D01*
X013378Y006243D01*
X013353Y006197D01*
X013325Y006153D01*
X013294Y006111D01*
X013260Y006071D01*
X013223Y006034D01*
X013183Y006000D01*
X013141Y005969D01*
X013097Y005941D01*
X013051Y005916D01*
X013003Y005895D01*
X012953Y005878D01*
X012903Y005865D01*
X012851Y005855D01*
X012799Y005849D01*
X012747Y005847D01*
X012695Y005849D01*
X012643Y005855D01*
X012591Y005865D01*
X012541Y005878D01*
X012491Y005895D01*
X012443Y005916D01*
X012397Y005941D01*
X012353Y005969D01*
X012311Y006000D01*
X012271Y006034D01*
X012234Y006071D01*
X012200Y006111D01*
X012169Y006153D01*
X012141Y006197D01*
X012116Y006243D01*
X012095Y006291D01*
X012078Y006341D01*
X012065Y006391D01*
X012055Y006443D01*
X012049Y006495D01*
X012047Y006547D01*
X014047Y004647D02*
X014047Y004547D01*
X014047Y004647D02*
X014747Y004647D01*
X014749Y004603D01*
X014755Y004560D01*
X014764Y004518D01*
X014777Y004476D01*
X014794Y004436D01*
X014814Y004397D01*
X014837Y004360D01*
X014864Y004326D01*
X014893Y004293D01*
X014926Y004264D01*
X014960Y004237D01*
X014997Y004214D01*
X015036Y004194D01*
X015076Y004177D01*
X015118Y004164D01*
X015160Y004155D01*
X015203Y004149D01*
X015247Y004147D01*
X015291Y004149D01*
X015334Y004155D01*
X015376Y004164D01*
X015418Y004177D01*
X015458Y004194D01*
X015497Y004214D01*
X015534Y004237D01*
X015568Y004264D01*
X015601Y004293D01*
X015630Y004326D01*
X015657Y004360D01*
X015680Y004397D01*
X015700Y004436D01*
X015717Y004476D01*
X015730Y004518D01*
X015739Y004560D01*
X015745Y004603D01*
X015747Y004647D01*
X016447Y004647D01*
X016447Y004547D01*
X015897Y005347D02*
X017597Y005347D01*
X017947Y006147D02*
X017947Y006940D01*
X017597Y007747D02*
X015897Y007747D01*
X015547Y006952D02*
X015547Y006147D01*
X016047Y006547D02*
X016049Y006599D01*
X016055Y006651D01*
X016065Y006703D01*
X016078Y006753D01*
X016095Y006803D01*
X016116Y006851D01*
X016141Y006897D01*
X016169Y006941D01*
X016200Y006983D01*
X016234Y007023D01*
X016271Y007060D01*
X016311Y007094D01*
X016353Y007125D01*
X016397Y007153D01*
X016443Y007178D01*
X016491Y007199D01*
X016541Y007216D01*
X016591Y007229D01*
X016643Y007239D01*
X016695Y007245D01*
X016747Y007247D01*
X016799Y007245D01*
X016851Y007239D01*
X016903Y007229D01*
X016953Y007216D01*
X017003Y007199D01*
X017051Y007178D01*
X017097Y007153D01*
X017141Y007125D01*
X017183Y007094D01*
X017223Y007060D01*
X017260Y007023D01*
X017294Y006983D01*
X017325Y006941D01*
X017353Y006897D01*
X017378Y006851D01*
X017399Y006803D01*
X017416Y006753D01*
X017429Y006703D01*
X017439Y006651D01*
X017445Y006599D01*
X017447Y006547D01*
X017445Y006495D01*
X017439Y006443D01*
X017429Y006391D01*
X017416Y006341D01*
X017399Y006291D01*
X017378Y006243D01*
X017353Y006197D01*
X017325Y006153D01*
X017294Y006111D01*
X017260Y006071D01*
X017223Y006034D01*
X017183Y006000D01*
X017141Y005969D01*
X017097Y005941D01*
X017051Y005916D01*
X017003Y005895D01*
X016953Y005878D01*
X016903Y005865D01*
X016851Y005855D01*
X016799Y005849D01*
X016747Y005847D01*
X016695Y005849D01*
X016643Y005855D01*
X016591Y005865D01*
X016541Y005878D01*
X016491Y005895D01*
X016443Y005916D01*
X016397Y005941D01*
X016353Y005969D01*
X016311Y006000D01*
X016271Y006034D01*
X016234Y006071D01*
X016200Y006111D01*
X016169Y006153D01*
X016141Y006197D01*
X016116Y006243D01*
X016095Y006291D01*
X016078Y006341D01*
X016065Y006391D01*
X016055Y006443D01*
X016049Y006495D01*
X016047Y006547D01*
X017747Y004597D02*
X017747Y002597D01*
X020747Y002597D01*
X020747Y004597D01*
X017747Y004597D01*
X017997Y002397D02*
X018497Y002397D01*
X016447Y000747D02*
X016447Y000647D01*
X014047Y000647D01*
X014047Y000747D01*
X011919Y009207D02*
X010974Y009207D01*
X010974Y011687D01*
X011919Y011687D01*
X011919Y009207D01*
X012747Y009547D02*
X012747Y009947D01*
X016747Y009947D01*
X016747Y009547D01*
X012747Y009547D01*
X012747Y009947D02*
X012747Y010897D01*
X012747Y011247D01*
X013097Y011247D01*
X013247Y011247D01*
X016247Y011247D02*
X016397Y011247D01*
X016747Y011247D01*
X016747Y010897D01*
X016747Y009947D01*
X017574Y009207D02*
X017574Y011687D01*
X018519Y011687D01*
X018519Y009207D01*
X017574Y009207D01*
X022963Y005147D02*
X022965Y005209D01*
X022971Y005272D01*
X022981Y005333D01*
X022995Y005394D01*
X023012Y005454D01*
X023033Y005513D01*
X023059Y005570D01*
X023087Y005625D01*
X023119Y005679D01*
X023155Y005730D01*
X023193Y005780D01*
X023235Y005826D01*
X023279Y005870D01*
X023327Y005911D01*
X023376Y005949D01*
X023428Y005983D01*
X023482Y006014D01*
X023538Y006042D01*
X023596Y006066D01*
X023655Y006087D01*
X023715Y006103D01*
X023776Y006116D01*
X023838Y006125D01*
X023900Y006130D01*
X023963Y006131D01*
X024025Y006128D01*
X024087Y006121D01*
X024149Y006110D01*
X024209Y006095D01*
X024269Y006077D01*
X024327Y006055D01*
X024384Y006029D01*
X024439Y005999D01*
X024492Y005966D01*
X024543Y005930D01*
X024591Y005891D01*
X024637Y005848D01*
X024680Y005803D01*
X024720Y005755D01*
X024757Y005705D01*
X024791Y005652D01*
X024822Y005598D01*
X024848Y005542D01*
X024872Y005484D01*
X024891Y005424D01*
X024907Y005364D01*
X024919Y005302D01*
X024927Y005241D01*
X024931Y005178D01*
X024931Y005116D01*
X024927Y005053D01*
X024919Y004992D01*
X024907Y004930D01*
X024891Y004870D01*
X024872Y004810D01*
X024848Y004752D01*
X024822Y004696D01*
X024791Y004642D01*
X024757Y004589D01*
X024720Y004539D01*
X024680Y004491D01*
X024637Y004446D01*
X024591Y004403D01*
X024543Y004364D01*
X024492Y004328D01*
X024439Y004295D01*
X024384Y004265D01*
X024327Y004239D01*
X024269Y004217D01*
X024209Y004199D01*
X024149Y004184D01*
X024087Y004173D01*
X024025Y004166D01*
X023963Y004163D01*
X023900Y004164D01*
X023838Y004169D01*
X023776Y004178D01*
X023715Y004191D01*
X023655Y004207D01*
X023596Y004228D01*
X023538Y004252D01*
X023482Y004280D01*
X023428Y004311D01*
X023376Y004345D01*
X023327Y004383D01*
X023279Y004424D01*
X023235Y004468D01*
X023193Y004514D01*
X023155Y004564D01*
X023119Y004615D01*
X023087Y004669D01*
X023059Y004724D01*
X023033Y004781D01*
X023012Y004840D01*
X022995Y004900D01*
X022981Y004961D01*
X022971Y005022D01*
X022965Y005085D01*
X022963Y005147D01*
X024247Y004597D02*
X024647Y004597D01*
X027202Y013271D02*
X027202Y016223D01*
X029423Y016223D01*
X029423Y013271D01*
X029958Y013271D01*
X029958Y016223D01*
X029423Y016223D01*
X029423Y013271D02*
X027202Y013271D01*
X024447Y023397D02*
X023647Y023397D01*
X023630Y023399D01*
X023613Y023403D01*
X023597Y023410D01*
X023583Y023420D01*
X023570Y023433D01*
X023560Y023447D01*
X023553Y023463D01*
X023549Y023480D01*
X023547Y023497D01*
X023547Y025197D01*
X023549Y025214D01*
X023553Y025231D01*
X023560Y025247D01*
X023570Y025261D01*
X023583Y025274D01*
X023597Y025284D01*
X023613Y025291D01*
X023630Y025295D01*
X023647Y025297D01*
X024447Y025297D01*
X024464Y025295D01*
X024481Y025291D01*
X024497Y025284D01*
X024511Y025274D01*
X024524Y025261D01*
X024534Y025247D01*
X024541Y025231D01*
X024545Y025214D01*
X024547Y025197D01*
X024547Y023497D01*
X024545Y023480D01*
X024541Y023463D01*
X024534Y023447D01*
X024524Y023433D01*
X024511Y023420D01*
X024497Y023410D01*
X024481Y023403D01*
X024464Y023399D01*
X024447Y023397D01*
X012019Y024707D02*
X012019Y027187D01*
X011074Y027187D01*
X011074Y024707D01*
X012019Y024707D01*
X011919Y020587D02*
X010974Y020587D01*
X010974Y018107D01*
X011919Y018107D01*
X011919Y020587D01*
D15*
X013097Y004147D03*
D16*
X005347Y004997D02*
X005347Y005047D01*
X005347Y005247D02*
X005347Y005297D01*
X024047Y024197D02*
X024047Y024247D01*
X024047Y024447D02*
X024047Y024497D01*
D17*
X023322Y024459D02*
X023283Y024386D01*
X023240Y024314D01*
X023195Y024244D01*
X023145Y024177D01*
X023093Y024112D01*
X023038Y024049D01*
X022980Y023989D01*
X022919Y023932D01*
X022855Y023878D01*
X022789Y023827D01*
X022721Y023780D01*
X022650Y023735D01*
X022577Y023694D01*
X022503Y023656D01*
X022427Y023622D01*
X022349Y023592D01*
X022270Y023565D01*
X022189Y023543D01*
X022108Y023523D01*
X022026Y023508D01*
X021943Y023497D01*
X021860Y023490D01*
X021777Y023486D01*
X021693Y023487D01*
X021610Y023491D01*
X021527Y023500D01*
X021445Y023512D01*
X021363Y023528D01*
X021282Y023549D01*
X021202Y023573D01*
X021123Y023600D01*
X021046Y023632D01*
X020970Y023667D01*
X020896Y023705D01*
X020824Y023747D01*
X020754Y023793D01*
X020686Y023841D01*
X020621Y023893D01*
X020558Y023948D01*
X020498Y024006D01*
X020440Y024067D01*
X020386Y024130D01*
X020334Y024196D01*
X020286Y024264D01*
X020241Y024334D01*
X020200Y024406D01*
X020162Y024481D01*
X020127Y024557D01*
X020096Y024634D01*
X020069Y024713D01*
X020045Y024793D01*
X020026Y024874D01*
X020010Y024956D01*
X019998Y025039D01*
X019990Y025122D01*
X019986Y025205D01*
X019986Y025289D01*
X019990Y025372D01*
X019998Y025455D01*
X020010Y025538D01*
X020026Y025620D01*
X020045Y025701D01*
X020069Y025781D01*
X020096Y025860D01*
X020127Y025937D01*
X020162Y026013D01*
X020200Y026088D01*
X020241Y026160D01*
X020286Y026230D01*
X020334Y026298D01*
X020386Y026364D01*
X020440Y026427D01*
X020498Y026488D01*
X020558Y026546D01*
X020621Y026601D01*
X020686Y026653D01*
X020754Y026701D01*
X020824Y026747D01*
X020896Y026789D01*
X020970Y026827D01*
X021046Y026862D01*
X021123Y026894D01*
X021202Y026921D01*
X021282Y026945D01*
X021363Y026966D01*
X021445Y026982D01*
X021527Y026994D01*
X021610Y027003D01*
X021693Y027007D01*
X021777Y027008D01*
X021860Y027004D01*
X021943Y026997D01*
X022026Y026986D01*
X022108Y026971D01*
X022189Y026951D01*
X022270Y026929D01*
X022349Y026902D01*
X022427Y026872D01*
X022503Y026838D01*
X022577Y026800D01*
X022650Y026759D01*
X022721Y026714D01*
X022789Y026667D01*
X022855Y026616D01*
X022919Y026562D01*
X022980Y026505D01*
X023038Y026445D01*
X023093Y026382D01*
X023145Y026317D01*
X023195Y026250D01*
X023240Y026180D01*
X023283Y026108D01*
X023322Y026035D01*
X006172Y005035D02*
X006211Y005108D01*
X006254Y005180D01*
X006299Y005250D01*
X006349Y005317D01*
X006401Y005382D01*
X006456Y005445D01*
X006514Y005505D01*
X006575Y005562D01*
X006639Y005616D01*
X006705Y005667D01*
X006773Y005714D01*
X006844Y005759D01*
X006917Y005800D01*
X006991Y005838D01*
X007067Y005872D01*
X007145Y005902D01*
X007224Y005929D01*
X007305Y005951D01*
X007386Y005971D01*
X007468Y005986D01*
X007551Y005997D01*
X007634Y006004D01*
X007717Y006008D01*
X007801Y006007D01*
X007884Y006003D01*
X007967Y005994D01*
X008049Y005982D01*
X008131Y005966D01*
X008212Y005945D01*
X008292Y005921D01*
X008371Y005894D01*
X008448Y005862D01*
X008524Y005827D01*
X008598Y005789D01*
X008670Y005747D01*
X008740Y005701D01*
X008808Y005653D01*
X008873Y005601D01*
X008936Y005546D01*
X008996Y005488D01*
X009054Y005427D01*
X009108Y005364D01*
X009160Y005298D01*
X009208Y005230D01*
X009253Y005160D01*
X009294Y005088D01*
X009332Y005013D01*
X009367Y004937D01*
X009398Y004860D01*
X009425Y004781D01*
X009449Y004701D01*
X009468Y004620D01*
X009484Y004538D01*
X009496Y004455D01*
X009504Y004372D01*
X009508Y004289D01*
X009508Y004205D01*
X009504Y004122D01*
X009496Y004039D01*
X009484Y003956D01*
X009468Y003874D01*
X009449Y003793D01*
X009425Y003713D01*
X009398Y003634D01*
X009367Y003557D01*
X009332Y003481D01*
X009294Y003406D01*
X009253Y003334D01*
X009208Y003264D01*
X009160Y003196D01*
X009108Y003130D01*
X009054Y003067D01*
X008996Y003006D01*
X008936Y002948D01*
X008873Y002893D01*
X008808Y002841D01*
X008740Y002793D01*
X008670Y002747D01*
X008598Y002705D01*
X008524Y002667D01*
X008448Y002632D01*
X008371Y002600D01*
X008292Y002573D01*
X008212Y002549D01*
X008131Y002528D01*
X008049Y002512D01*
X007967Y002500D01*
X007884Y002491D01*
X007801Y002487D01*
X007717Y002486D01*
X007634Y002490D01*
X007551Y002497D01*
X007468Y002508D01*
X007386Y002523D01*
X007305Y002543D01*
X007224Y002565D01*
X007145Y002592D01*
X007067Y002622D01*
X006991Y002656D01*
X006917Y002694D01*
X006844Y002735D01*
X006773Y002780D01*
X006705Y002827D01*
X006639Y002878D01*
X006575Y002932D01*
X006514Y002989D01*
X006456Y003049D01*
X006401Y003112D01*
X006349Y003177D01*
X006299Y003244D01*
X006254Y003314D01*
X006211Y003386D01*
X006172Y003459D01*
D18*
X014830Y018544D03*
X014830Y019531D03*
D19*
X014829Y019531D03*
X014426Y019531D03*
X014829Y018544D03*
D20*
X014828Y018544D03*
D21*
X014828Y019531D03*
D22*
X014827Y018544D03*
D23*
X014827Y019531D03*
X014427Y019531D03*
D24*
X014827Y018544D03*
D25*
X014827Y019531D03*
D26*
X014826Y018544D03*
D27*
X014826Y019531D03*
X014429Y019531D03*
D28*
X014825Y019531D03*
X014825Y018544D03*
D29*
X014824Y018544D03*
X014824Y019531D03*
X014431Y019531D03*
D30*
X014823Y018544D03*
D31*
X014823Y019531D03*
D32*
X014823Y019531D03*
X014432Y019531D03*
X014823Y018544D03*
D33*
X014822Y018544D03*
D34*
X014822Y019531D03*
D35*
X014821Y018544D03*
X014439Y018544D03*
D36*
X014434Y019531D03*
X014821Y019531D03*
D37*
X014820Y019531D03*
X014820Y018544D03*
D38*
X014819Y018544D03*
X014819Y019531D03*
X014435Y019531D03*
D39*
X014436Y019531D03*
X014819Y019531D03*
X014819Y018544D03*
D40*
X014818Y018544D03*
X014818Y019531D03*
D41*
X014817Y019531D03*
X014817Y018544D03*
D42*
X014816Y018544D03*
X014816Y019531D03*
X014439Y019531D03*
D43*
X014815Y019531D03*
X014815Y018544D03*
D44*
X014815Y018544D03*
D45*
X014815Y019531D03*
D46*
X014814Y019531D03*
X014441Y019531D03*
X014814Y018544D03*
D47*
X014813Y018544D03*
X014447Y018544D03*
D48*
X014813Y019531D03*
D49*
X014812Y019531D03*
X014443Y019531D03*
X014812Y018544D03*
D50*
X014811Y018544D03*
D51*
X014811Y019531D03*
D52*
X014811Y019531D03*
X014444Y019531D03*
X014449Y018544D03*
X014811Y018544D03*
D53*
X014810Y018544D03*
X014451Y018544D03*
D54*
X014446Y019531D03*
X014809Y019531D03*
X014810Y019531D03*
D55*
X014809Y018544D03*
D56*
X014808Y018544D03*
D57*
X014808Y019531D03*
D58*
X014807Y019531D03*
X014447Y019531D03*
X014453Y018544D03*
X014807Y018544D03*
D59*
X014807Y018544D03*
X014454Y018544D03*
X014449Y019531D03*
X014806Y019531D03*
X014807Y019531D03*
D60*
X014806Y018544D03*
D61*
X014805Y018544D03*
X014805Y019531D03*
D62*
X014804Y019531D03*
X014451Y019531D03*
X014450Y019531D03*
X014455Y018544D03*
X014804Y018544D03*
D63*
X014803Y018544D03*
X014803Y018544D03*
X014457Y018544D03*
X014453Y019531D03*
X014452Y019531D03*
X014803Y019531D03*
D64*
X014803Y019531D03*
X014456Y018544D03*
D65*
X014458Y018544D03*
X014802Y018544D03*
X014802Y019531D03*
D66*
X014801Y018544D03*
X014459Y018544D03*
D67*
X014454Y019531D03*
X014801Y019531D03*
D68*
X014800Y019531D03*
X014799Y019531D03*
X014799Y019531D03*
X014456Y019531D03*
X014455Y019531D03*
X014459Y018544D03*
X014460Y018544D03*
X014461Y018544D03*
X014799Y018544D03*
X014800Y018544D03*
D69*
X014799Y018544D03*
D70*
X014798Y018544D03*
X014462Y018544D03*
D71*
X014798Y019531D03*
D72*
X014797Y019531D03*
X014796Y019531D03*
X014795Y019531D03*
X014794Y019531D03*
X014461Y019531D03*
X014460Y019531D03*
X014459Y019531D03*
X014459Y019531D03*
X014463Y018544D03*
X014463Y018544D03*
X014464Y018544D03*
X014466Y018544D03*
X014795Y018544D03*
X014796Y018544D03*
X014797Y018544D03*
D73*
X014795Y018544D03*
X014465Y018544D03*
X014458Y019531D03*
X014795Y019531D03*
D74*
X014793Y019531D03*
X014792Y019531D03*
X014791Y019531D03*
X014790Y019531D03*
X014789Y019531D03*
X014787Y019531D03*
X014787Y019531D03*
X014786Y019531D03*
X014784Y019531D03*
X014783Y019531D03*
X014783Y019531D03*
X014781Y019531D03*
X014780Y019531D03*
X014779Y019531D03*
X014779Y019531D03*
X014777Y019531D03*
X014776Y019531D03*
X014775Y019531D03*
X014774Y019531D03*
X014773Y019531D03*
X014772Y019531D03*
X014771Y019531D03*
X014770Y019531D03*
X014769Y019531D03*
X014767Y019531D03*
X014767Y019531D03*
X014766Y019531D03*
X014764Y019531D03*
X014763Y019531D03*
X014763Y019531D03*
X014761Y019531D03*
X014760Y019531D03*
X014759Y019531D03*
X014759Y019531D03*
X014757Y019531D03*
X014756Y019531D03*
X014755Y019531D03*
X014754Y019531D03*
X014753Y019531D03*
X014752Y019531D03*
X014751Y019531D03*
X014750Y019531D03*
X014749Y019531D03*
X014747Y019531D03*
X014747Y019531D03*
X014746Y019531D03*
X014744Y019531D03*
X014743Y019531D03*
X014743Y019531D03*
X014741Y019531D03*
X014740Y019531D03*
X014739Y019531D03*
X014739Y019531D03*
X014737Y019531D03*
X014736Y019531D03*
X014735Y019531D03*
X014734Y019531D03*
X014733Y019531D03*
X014732Y019531D03*
X014731Y019531D03*
X014730Y019531D03*
X014729Y019531D03*
X014727Y019531D03*
X014727Y019531D03*
X014726Y019531D03*
X014724Y019531D03*
X014723Y019531D03*
X014723Y019531D03*
X014721Y019531D03*
X014720Y019531D03*
X014719Y019531D03*
X014719Y019531D03*
X014717Y019531D03*
X014716Y019531D03*
X014715Y019531D03*
X014714Y019531D03*
X014713Y019531D03*
X014712Y019531D03*
X014711Y019531D03*
X014710Y019531D03*
X014709Y019531D03*
X014707Y019531D03*
X014707Y019531D03*
X014706Y019531D03*
X014704Y019531D03*
X014703Y019531D03*
X014703Y019531D03*
X014701Y019531D03*
X014700Y019531D03*
X014699Y019531D03*
X014699Y019531D03*
X014697Y019531D03*
X014696Y019531D03*
X014695Y019531D03*
X014694Y019531D03*
X014693Y019531D03*
X014692Y019531D03*
X014691Y019531D03*
X014690Y019531D03*
X014689Y019531D03*
X014687Y019531D03*
X014687Y019531D03*
X014686Y019531D03*
X014684Y019531D03*
X014683Y019531D03*
X014683Y019531D03*
X014681Y019531D03*
X014680Y019531D03*
X014679Y019531D03*
X014679Y019531D03*
X014677Y019531D03*
X014676Y019531D03*
X014675Y019531D03*
X014674Y019531D03*
X014673Y019531D03*
X014672Y019531D03*
X014671Y019531D03*
X014670Y019531D03*
X014669Y019531D03*
X014667Y019531D03*
X014667Y019531D03*
X014666Y019531D03*
X014664Y019531D03*
X014663Y019531D03*
X014663Y019531D03*
X014661Y019531D03*
X014660Y019531D03*
X014659Y019531D03*
X014659Y019531D03*
X014657Y019531D03*
X014656Y019531D03*
X014655Y019531D03*
X014654Y019531D03*
X014653Y019531D03*
X014652Y019531D03*
X014651Y019531D03*
X014650Y019531D03*
X014649Y019531D03*
X014647Y019531D03*
X014647Y019531D03*
X014646Y019531D03*
X014644Y019531D03*
X014643Y019531D03*
X014643Y019531D03*
X014641Y019531D03*
X014640Y019531D03*
X014639Y019531D03*
X014639Y019531D03*
X014637Y019531D03*
X014636Y019531D03*
X014635Y019531D03*
X014634Y019531D03*
X014633Y019531D03*
X014632Y019531D03*
X014631Y019531D03*
X014630Y019531D03*
X014629Y019531D03*
X014627Y019531D03*
X014627Y019531D03*
X014626Y019531D03*
X014624Y019531D03*
X014623Y019531D03*
X014623Y019531D03*
X014621Y019531D03*
X014620Y019531D03*
X014619Y019531D03*
X014619Y019531D03*
X014617Y019531D03*
X014616Y019531D03*
X014615Y019531D03*
X014614Y019531D03*
X014613Y019531D03*
X014612Y019531D03*
X014611Y019531D03*
X014610Y019531D03*
X014609Y019531D03*
X014607Y019531D03*
X014607Y019531D03*
X014606Y019531D03*
X014604Y019531D03*
X014603Y019531D03*
X014603Y019531D03*
X014601Y019531D03*
X014600Y019531D03*
X014599Y019531D03*
X014599Y019531D03*
X014597Y019531D03*
X014596Y019531D03*
X014595Y019531D03*
X014594Y019531D03*
X014593Y019531D03*
X014592Y019531D03*
X014591Y019531D03*
X014590Y019531D03*
X014589Y019531D03*
X014587Y019531D03*
X014587Y019531D03*
X014586Y019531D03*
X014584Y019531D03*
X014583Y019531D03*
X014583Y019531D03*
X014581Y019531D03*
X014580Y019531D03*
X014579Y019531D03*
X014579Y019531D03*
X014577Y019531D03*
X014576Y019531D03*
X014575Y019531D03*
X014574Y019531D03*
X014573Y019531D03*
X014572Y019531D03*
X014571Y019531D03*
X014570Y019531D03*
X014569Y019531D03*
X014567Y019531D03*
X014567Y019531D03*
X014566Y019531D03*
X014564Y019531D03*
X014563Y019531D03*
X014563Y019531D03*
X014561Y019531D03*
X014560Y019531D03*
X014559Y019531D03*
X014559Y019531D03*
X014557Y019531D03*
X014556Y019531D03*
X014555Y019531D03*
X014554Y019531D03*
X014553Y019531D03*
X014552Y019531D03*
X014551Y019531D03*
X014550Y019531D03*
X014549Y019531D03*
X014547Y019531D03*
X014547Y019531D03*
X014546Y019531D03*
X014544Y019531D03*
X014543Y019531D03*
X014543Y019531D03*
X014541Y019531D03*
X014540Y019531D03*
X014539Y019531D03*
X014539Y019531D03*
X014537Y019531D03*
X014536Y019531D03*
X014535Y019531D03*
X014534Y019531D03*
X014533Y019531D03*
X014532Y019531D03*
X014531Y019531D03*
X014530Y019531D03*
X014529Y019531D03*
X014527Y019531D03*
X014527Y019531D03*
X014526Y019531D03*
X014524Y019531D03*
X014523Y019531D03*
X014523Y019531D03*
X014521Y019531D03*
X014520Y019531D03*
X014519Y019531D03*
X014519Y019531D03*
X014517Y019531D03*
X014516Y019531D03*
X014515Y019531D03*
X014514Y019531D03*
X014513Y019531D03*
X014512Y019531D03*
X014511Y019531D03*
X014510Y019531D03*
X014509Y019531D03*
X014507Y019531D03*
X014507Y019531D03*
X014506Y019531D03*
X014504Y019531D03*
X014503Y019531D03*
X014503Y019531D03*
X014501Y019531D03*
X014500Y019531D03*
X014499Y019531D03*
X014499Y019531D03*
X014497Y019531D03*
X014496Y019531D03*
X014495Y019531D03*
X014494Y019531D03*
X014493Y019531D03*
X014492Y019531D03*
X014491Y019531D03*
X014490Y019531D03*
X014489Y019531D03*
X014487Y019531D03*
X014487Y019531D03*
X014486Y019531D03*
X014484Y019531D03*
X014483Y019531D03*
X014483Y019531D03*
X014481Y019531D03*
X014480Y019531D03*
X014479Y019531D03*
X014479Y019531D03*
X014477Y019531D03*
X014476Y019531D03*
X014475Y019531D03*
X014474Y019531D03*
X014473Y019531D03*
X014472Y019531D03*
X014471Y019531D03*
X014470Y019531D03*
X014469Y019531D03*
X014467Y019531D03*
X014467Y019531D03*
X014466Y019531D03*
X014464Y019531D03*
X014463Y019531D03*
X014463Y019531D03*
X014467Y018544D03*
X014467Y018544D03*
X014469Y018544D03*
X014470Y018544D03*
X014471Y018544D03*
X014472Y018544D03*
X014473Y018544D03*
X014474Y018544D03*
X014475Y018544D03*
X014476Y018544D03*
X014477Y018544D03*
X014479Y018544D03*
X014479Y018544D03*
X014480Y018544D03*
X014481Y018544D03*
X014483Y018544D03*
X014483Y018544D03*
X014484Y018544D03*
X014486Y018544D03*
X014487Y018544D03*
X014487Y018544D03*
X014489Y018544D03*
X014490Y018544D03*
X014491Y018544D03*
X014492Y018544D03*
X014493Y018544D03*
X014494Y018544D03*
X014495Y018544D03*
X014496Y018544D03*
X014497Y018544D03*
X014499Y018544D03*
X014499Y018544D03*
X014500Y018544D03*
X014501Y018544D03*
X014503Y018544D03*
X014503Y018544D03*
X014504Y018544D03*
X014506Y018544D03*
X014507Y018544D03*
X014507Y018544D03*
X014509Y018544D03*
X014510Y018544D03*
X014511Y018544D03*
X014512Y018544D03*
X014513Y018544D03*
X014514Y018544D03*
X014515Y018544D03*
X014516Y018544D03*
X014517Y018544D03*
X014519Y018544D03*
X014519Y018544D03*
X014520Y018544D03*
X014521Y018544D03*
X014523Y018544D03*
X014523Y018544D03*
X014524Y018544D03*
X014526Y018544D03*
X014527Y018544D03*
X014527Y018544D03*
X014529Y018544D03*
X014530Y018544D03*
X014531Y018544D03*
X014532Y018544D03*
X014533Y018544D03*
X014534Y018544D03*
X014535Y018544D03*
X014536Y018544D03*
X014537Y018544D03*
X014539Y018544D03*
X014539Y018544D03*
X014540Y018544D03*
X014541Y018544D03*
X014543Y018544D03*
X014543Y018544D03*
X014544Y018544D03*
X014546Y018544D03*
X014547Y018544D03*
X014547Y018544D03*
X014549Y018544D03*
X014550Y018544D03*
X014551Y018544D03*
X014552Y018544D03*
X014553Y018544D03*
X014554Y018544D03*
X014555Y018544D03*
X014556Y018544D03*
X014557Y018544D03*
X014559Y018544D03*
X014559Y018544D03*
X014560Y018544D03*
X014561Y018544D03*
X014563Y018544D03*
X014563Y018544D03*
X014564Y018544D03*
X014566Y018544D03*
X014567Y018544D03*
X014567Y018544D03*
X014569Y018544D03*
X014570Y018544D03*
X014571Y018544D03*
X014572Y018544D03*
X014573Y018544D03*
X014574Y018544D03*
X014575Y018544D03*
X014576Y018544D03*
X014577Y018544D03*
X014579Y018544D03*
X014579Y018544D03*
X014580Y018544D03*
X014581Y018544D03*
X014583Y018544D03*
X014583Y018544D03*
X014584Y018544D03*
X014586Y018544D03*
X014587Y018544D03*
X014587Y018544D03*
X014589Y018544D03*
X014590Y018544D03*
X014591Y018544D03*
X014592Y018544D03*
X014593Y018544D03*
X014594Y018544D03*
X014595Y018544D03*
X014596Y018544D03*
X014597Y018544D03*
X014599Y018544D03*
X014599Y018544D03*
X014600Y018544D03*
X014601Y018544D03*
X014603Y018544D03*
X014603Y018544D03*
X014604Y018544D03*
X014606Y018544D03*
X014607Y018544D03*
X014607Y018544D03*
X014609Y018544D03*
X014610Y018544D03*
X014611Y018544D03*
X014612Y018544D03*
X014613Y018544D03*
X014614Y018544D03*
X014615Y018544D03*
X014616Y018544D03*
X014617Y018544D03*
X014619Y018544D03*
X014619Y018544D03*
X014620Y018544D03*
X014621Y018544D03*
X014623Y018544D03*
X014623Y018544D03*
X014624Y018544D03*
X014626Y018544D03*
X014627Y018544D03*
X014627Y018544D03*
X014629Y018544D03*
X014630Y018544D03*
X014631Y018544D03*
X014632Y018544D03*
X014633Y018544D03*
X014634Y018544D03*
X014635Y018544D03*
X014636Y018544D03*
X014637Y018544D03*
X014639Y018544D03*
X014639Y018544D03*
X014640Y018544D03*
X014641Y018544D03*
X014643Y018544D03*
X014643Y018544D03*
X014644Y018544D03*
X014646Y018544D03*
X014647Y018544D03*
X014647Y018544D03*
X014649Y018544D03*
X014650Y018544D03*
X014651Y018544D03*
X014652Y018544D03*
X014653Y018544D03*
X014654Y018544D03*
X014655Y018544D03*
X014656Y018544D03*
X014657Y018544D03*
X014659Y018544D03*
X014659Y018544D03*
X014660Y018544D03*
X014661Y018544D03*
X014663Y018544D03*
X014663Y018544D03*
X014664Y018544D03*
X014666Y018544D03*
X014667Y018544D03*
X014667Y018544D03*
X014669Y018544D03*
X014670Y018544D03*
X014671Y018544D03*
X014672Y018544D03*
X014673Y018544D03*
X014674Y018544D03*
X014675Y018544D03*
X014676Y018544D03*
X014677Y018544D03*
X014679Y018544D03*
X014679Y018544D03*
X014680Y018544D03*
X014681Y018544D03*
X014683Y018544D03*
X014683Y018544D03*
X014684Y018544D03*
X014686Y018544D03*
X014687Y018544D03*
X014687Y018544D03*
X014689Y018544D03*
X014690Y018544D03*
X014691Y018544D03*
X014692Y018544D03*
X014693Y018544D03*
X014694Y018544D03*
X014695Y018544D03*
X014696Y018544D03*
X014697Y018544D03*
X014699Y018544D03*
X014699Y018544D03*
X014700Y018544D03*
X014701Y018544D03*
X014703Y018544D03*
X014703Y018544D03*
X014704Y018544D03*
X014706Y018544D03*
X014707Y018544D03*
X014707Y018544D03*
X014709Y018544D03*
X014710Y018544D03*
X014711Y018544D03*
X014712Y018544D03*
X014713Y018544D03*
X014714Y018544D03*
X014715Y018544D03*
X014716Y018544D03*
X014717Y018544D03*
X014719Y018544D03*
X014719Y018544D03*
X014720Y018544D03*
X014721Y018544D03*
X014723Y018544D03*
X014723Y018544D03*
X014724Y018544D03*
X014726Y018544D03*
X014727Y018544D03*
X014727Y018544D03*
X014729Y018544D03*
X014730Y018544D03*
X014731Y018544D03*
X014732Y018544D03*
X014733Y018544D03*
X014734Y018544D03*
X014735Y018544D03*
X014736Y018544D03*
X014737Y018544D03*
X014739Y018544D03*
X014739Y018544D03*
X014740Y018544D03*
X014741Y018544D03*
X014743Y018544D03*
X014743Y018544D03*
X014744Y018544D03*
X014746Y018544D03*
X014747Y018544D03*
X014747Y018544D03*
X014749Y018544D03*
X014750Y018544D03*
X014751Y018544D03*
X014752Y018544D03*
X014753Y018544D03*
X014754Y018544D03*
X014755Y018544D03*
X014756Y018544D03*
X014757Y018544D03*
X014759Y018544D03*
X014759Y018544D03*
X014760Y018544D03*
X014761Y018544D03*
X014763Y018544D03*
X014763Y018544D03*
X014764Y018544D03*
X014766Y018544D03*
X014767Y018544D03*
X014767Y018544D03*
X014769Y018544D03*
X014770Y018544D03*
X014771Y018544D03*
X014772Y018544D03*
X014773Y018544D03*
X014774Y018544D03*
X014775Y018544D03*
X014776Y018544D03*
X014777Y018544D03*
X014779Y018544D03*
X014779Y018544D03*
X014780Y018544D03*
X014781Y018544D03*
X014783Y018544D03*
X014783Y018544D03*
X014784Y018544D03*
X014786Y018544D03*
X014787Y018544D03*
X014787Y018544D03*
X014789Y018544D03*
X014790Y018544D03*
X014791Y018544D03*
X014792Y018544D03*
X014793Y018544D03*
X014794Y018544D03*
D75*
X014791Y018544D03*
X014788Y018544D03*
X014785Y018544D03*
X014782Y018544D03*
X014778Y018544D03*
X014775Y018544D03*
X014771Y018544D03*
X014768Y018544D03*
X014765Y018544D03*
X014762Y018544D03*
X014758Y018544D03*
X014755Y018544D03*
X014751Y018544D03*
X014748Y018544D03*
X014745Y018544D03*
X014742Y018544D03*
X014738Y018544D03*
X014735Y018544D03*
X014731Y018544D03*
X014728Y018544D03*
X014725Y018544D03*
X014722Y018544D03*
X014718Y018544D03*
X014715Y018544D03*
X014711Y018544D03*
X014708Y018544D03*
X014705Y018544D03*
X014702Y018544D03*
X014698Y018544D03*
X014695Y018544D03*
X014691Y018544D03*
X014688Y018544D03*
X014685Y018544D03*
X014682Y018544D03*
X014678Y018544D03*
X014675Y018544D03*
X014671Y018544D03*
X014668Y018544D03*
X014665Y018544D03*
X014662Y018544D03*
X014658Y018544D03*
X014655Y018544D03*
X014651Y018544D03*
X014648Y018544D03*
X014645Y018544D03*
X014642Y018544D03*
X014638Y018544D03*
X014635Y018544D03*
X014631Y018544D03*
X014628Y018544D03*
X014625Y018544D03*
X014622Y018544D03*
X014618Y018544D03*
X014615Y018544D03*
X014611Y018544D03*
X014608Y018544D03*
X014605Y018544D03*
X014602Y018544D03*
X014598Y018544D03*
X014595Y018544D03*
X014591Y018544D03*
X014588Y018544D03*
X014585Y018544D03*
X014582Y018544D03*
X014578Y018544D03*
X014575Y018544D03*
X014571Y018544D03*
X014568Y018544D03*
X014565Y018544D03*
X014562Y018544D03*
X014558Y018544D03*
X014555Y018544D03*
X014551Y018544D03*
X014548Y018544D03*
X014545Y018544D03*
X014542Y018544D03*
X014538Y018544D03*
X014535Y018544D03*
X014531Y018544D03*
X014528Y018544D03*
X014525Y018544D03*
X014522Y018544D03*
X014518Y018544D03*
X014515Y018544D03*
X014511Y018544D03*
X014508Y018544D03*
X014505Y018544D03*
X014502Y018544D03*
X014498Y018544D03*
X014495Y018544D03*
X014491Y018544D03*
X014488Y018544D03*
X014485Y018544D03*
X014482Y018544D03*
X014478Y018544D03*
X014475Y018544D03*
X014471Y018544D03*
X014468Y018544D03*
X014468Y019531D03*
X014465Y019531D03*
X014462Y019531D03*
X014471Y019531D03*
X014475Y019531D03*
X014478Y019531D03*
X014482Y019531D03*
X014485Y019531D03*
X014488Y019531D03*
X014491Y019531D03*
X014495Y019531D03*
X014498Y019531D03*
X014502Y019531D03*
X014505Y019531D03*
X014508Y019531D03*
X014511Y019531D03*
X014515Y019531D03*
X014518Y019531D03*
X014522Y019531D03*
X014525Y019531D03*
X014528Y019531D03*
X014531Y019531D03*
X014535Y019531D03*
X014538Y019531D03*
X014542Y019531D03*
X014545Y019531D03*
X014548Y019531D03*
X014551Y019531D03*
X014555Y019531D03*
X014558Y019531D03*
X014562Y019531D03*
X014565Y019531D03*
X014568Y019531D03*
X014571Y019531D03*
X014575Y019531D03*
X014578Y019531D03*
X014582Y019531D03*
X014585Y019531D03*
X014588Y019531D03*
X014591Y019531D03*
X014595Y019531D03*
X014598Y019531D03*
X014602Y019531D03*
X014605Y019531D03*
X014608Y019531D03*
X014611Y019531D03*
X014615Y019531D03*
X014618Y019531D03*
X014622Y019531D03*
X014625Y019531D03*
X014628Y019531D03*
X014631Y019531D03*
X014635Y019531D03*
X014638Y019531D03*
X014642Y019531D03*
X014645Y019531D03*
X014648Y019531D03*
X014651Y019531D03*
X014655Y019531D03*
X014658Y019531D03*
X014662Y019531D03*
X014665Y019531D03*
X014668Y019531D03*
X014671Y019531D03*
X014675Y019531D03*
X014678Y019531D03*
X014682Y019531D03*
X014685Y019531D03*
X014688Y019531D03*
X014691Y019531D03*
X014695Y019531D03*
X014698Y019531D03*
X014702Y019531D03*
X014705Y019531D03*
X014708Y019531D03*
X014711Y019531D03*
X014715Y019531D03*
X014718Y019531D03*
X014722Y019531D03*
X014725Y019531D03*
X014728Y019531D03*
X014731Y019531D03*
X014735Y019531D03*
X014738Y019531D03*
X014742Y019531D03*
X014745Y019531D03*
X014748Y019531D03*
X014751Y019531D03*
X014755Y019531D03*
X014758Y019531D03*
X014762Y019531D03*
X014765Y019531D03*
X014768Y019531D03*
X014771Y019531D03*
X014775Y019531D03*
X014778Y019531D03*
X014782Y019531D03*
X014785Y019531D03*
X014788Y019531D03*
X014791Y019531D03*
D76*
X014457Y019531D03*
D77*
X014455Y018544D03*
D78*
X014455Y019531D03*
D79*
X014452Y018544D03*
D80*
X014451Y018544D03*
D81*
X014451Y019531D03*
D82*
X014450Y018544D03*
D83*
X014448Y018544D03*
D84*
X014448Y019531D03*
D85*
X014447Y018544D03*
D86*
X014447Y019531D03*
D87*
X014446Y018544D03*
D88*
X014445Y018544D03*
D89*
X014445Y019531D03*
D90*
X014439Y019531D03*
X014444Y018544D03*
D91*
X014443Y018544D03*
D92*
X014443Y019531D03*
D93*
X014443Y018544D03*
D94*
X014442Y018544D03*
D95*
X014442Y019531D03*
D96*
X014441Y018544D03*
D97*
X014440Y018544D03*
D98*
X014440Y019531D03*
D99*
X014439Y018544D03*
D100*
X014438Y018544D03*
D101*
X014438Y019531D03*
D102*
X014437Y018544D03*
D103*
X014437Y019531D03*
D104*
X014436Y018544D03*
D105*
X014435Y018544D03*
D106*
X014435Y018544D03*
D107*
X014435Y019531D03*
D108*
X014434Y018544D03*
D109*
X014433Y018544D03*
D110*
X014433Y019531D03*
D111*
X014432Y018544D03*
D112*
X014431Y018544D03*
D113*
X014431Y019531D03*
D114*
X014431Y018544D03*
D115*
X014430Y018546D03*
D116*
X014430Y019531D03*
D117*
X014429Y018546D03*
X014427Y018546D03*
X014427Y018546D03*
D118*
X014428Y018546D03*
D119*
X014428Y019531D03*
D120*
X014427Y019531D03*
D121*
X014426Y018545D03*
X014424Y018545D03*
D122*
X014425Y018545D03*
D123*
X014425Y019531D03*
D124*
X014424Y019537D03*
X014423Y019537D03*
X014423Y019537D03*
X014331Y018531D03*
X014330Y018531D03*
X014329Y018531D03*
D125*
X014421Y018545D03*
X014423Y018545D03*
X014423Y018545D03*
D126*
X014422Y018545D03*
D127*
X014422Y019537D03*
D128*
X014421Y019537D03*
X014420Y019537D03*
X014419Y019537D03*
X014419Y019537D03*
X014327Y018531D03*
X014327Y018531D03*
X014326Y018531D03*
D129*
X014419Y018545D03*
X014419Y018545D03*
X014420Y018545D03*
D130*
X014418Y018544D03*
D131*
X014325Y018531D03*
X014418Y019538D03*
D132*
X014417Y018544D03*
X014416Y018544D03*
D133*
X014324Y018531D03*
X014323Y018531D03*
X014415Y019538D03*
X014416Y019538D03*
X014417Y019538D03*
D134*
X014415Y018544D03*
X014414Y018544D03*
X014413Y018544D03*
D135*
X014415Y018544D03*
D136*
X014322Y018530D03*
X014415Y019538D03*
D137*
X014414Y019538D03*
X014413Y019538D03*
X014412Y019538D03*
X014323Y018530D03*
X014321Y018530D03*
D138*
X014411Y018543D03*
X014412Y018543D03*
D139*
X014411Y018543D03*
D140*
X014318Y018530D03*
X014408Y019539D03*
X014411Y019539D03*
D141*
X014411Y019539D03*
X014410Y019539D03*
X014409Y019539D03*
X014320Y018530D03*
X014319Y018530D03*
X014319Y018530D03*
D142*
X014407Y018543D03*
X014409Y018543D03*
X014410Y018543D03*
D143*
X014408Y018543D03*
D144*
X014407Y019539D03*
X014407Y019539D03*
X014406Y019539D03*
D145*
X014406Y018543D03*
X014407Y018543D03*
D146*
X014405Y018543D03*
D147*
X014405Y019539D03*
D148*
X014404Y018542D03*
X014403Y018542D03*
X014403Y018542D03*
D149*
X014314Y018529D03*
X014313Y018529D03*
X014312Y018529D03*
X014403Y019539D03*
X014403Y019539D03*
X014404Y019539D03*
D150*
X014402Y018542D03*
D151*
X014315Y018529D03*
X014402Y019539D03*
D152*
X014401Y018542D03*
X014400Y018542D03*
X014399Y018542D03*
D153*
X014311Y018529D03*
X014310Y018529D03*
X014399Y019540D03*
X014399Y019540D03*
X014400Y019540D03*
X014401Y019540D03*
D154*
X014399Y018541D03*
X014397Y018541D03*
D155*
X014398Y018541D03*
D156*
X014308Y018528D03*
X014398Y019540D03*
D157*
X014397Y019540D03*
X014396Y019540D03*
X014395Y019540D03*
X014309Y018528D03*
X014307Y018528D03*
D158*
X014394Y018541D03*
X014395Y018541D03*
X014396Y018541D03*
D159*
X014395Y018541D03*
D160*
X014395Y019541D03*
D161*
X014394Y019541D03*
X014393Y019541D03*
X014392Y019541D03*
D162*
X014392Y018541D03*
X014393Y018541D03*
D163*
X014391Y018541D03*
D164*
X014302Y018527D03*
X014388Y019541D03*
X014391Y019541D03*
D165*
X014390Y018540D03*
X014391Y018540D03*
X014389Y018540D03*
D166*
X014303Y018527D03*
X014303Y018527D03*
X014389Y019541D03*
X014390Y019541D03*
X014391Y019541D03*
D167*
X014388Y018540D03*
D168*
X014387Y018540D03*
X014387Y018540D03*
X014386Y018540D03*
D169*
X014301Y018527D03*
X014300Y018527D03*
X014299Y018527D03*
X014299Y018527D03*
X014386Y019541D03*
X014387Y019541D03*
X014387Y019541D03*
D170*
X014385Y018539D03*
D171*
X014385Y019541D03*
D172*
X014384Y018539D03*
X014383Y018539D03*
D173*
X014297Y018527D03*
X014296Y018527D03*
X014383Y019542D03*
X014383Y019542D03*
X014384Y019542D03*
D174*
X014383Y018539D03*
X014381Y018539D03*
X014380Y018539D03*
D175*
X014382Y018539D03*
D176*
X014298Y018527D03*
X014382Y019542D03*
D177*
X014381Y019542D03*
X014380Y019542D03*
X014379Y019542D03*
X014379Y019542D03*
D178*
X014379Y018539D03*
X014379Y018539D03*
D179*
X014378Y018539D03*
D180*
X014291Y018526D03*
X014378Y019543D03*
D181*
X014377Y018538D03*
X014376Y018538D03*
X014375Y018538D03*
D182*
X014293Y018526D03*
X014292Y018526D03*
X014291Y018526D03*
X014375Y019543D03*
X014376Y019543D03*
X014377Y019543D03*
D183*
X014375Y018538D03*
D184*
X014288Y018525D03*
X014375Y019543D03*
D185*
X014374Y018538D03*
X014373Y018538D03*
X014372Y018538D03*
D186*
X014290Y018525D03*
X014289Y018525D03*
X014372Y019543D03*
X014373Y019543D03*
X014374Y019543D03*
D187*
X014371Y018537D03*
D188*
X014285Y018525D03*
X014368Y019543D03*
X014371Y019543D03*
D189*
X014370Y018537D03*
X014371Y018537D03*
D190*
X014287Y018525D03*
X014287Y018525D03*
X014286Y018525D03*
X014369Y019543D03*
X014370Y019543D03*
X014371Y019543D03*
D191*
X014369Y018537D03*
X014367Y018537D03*
X014367Y018537D03*
D192*
X014368Y018537D03*
D193*
X014367Y019544D03*
X014367Y019544D03*
X014366Y019544D03*
D194*
X014366Y018537D03*
X014364Y018537D03*
D195*
X014365Y018537D03*
D196*
X014365Y019544D03*
D197*
X014364Y019544D03*
X014363Y019544D03*
X014363Y019544D03*
X014281Y018524D03*
X014280Y018524D03*
D198*
X014363Y018536D03*
X014363Y018536D03*
D199*
X014362Y018536D03*
D200*
X014282Y018524D03*
X014362Y019544D03*
D201*
X014361Y018536D03*
X014360Y018536D03*
X014359Y018536D03*
X014359Y018536D03*
D202*
X014279Y018524D03*
X014279Y018524D03*
X014277Y018524D03*
X014359Y019545D03*
X014359Y019545D03*
X014360Y019545D03*
X014361Y019545D03*
D203*
X014358Y018535D03*
D204*
X014275Y018523D03*
X014358Y019545D03*
D205*
X014357Y018535D03*
X014356Y018535D03*
D206*
X014276Y018523D03*
X014275Y018523D03*
X014355Y019545D03*
X014356Y019545D03*
X014357Y019545D03*
D207*
X014355Y018535D03*
X014354Y018535D03*
X014353Y018535D03*
D208*
X014355Y018535D03*
D209*
X014271Y018523D03*
X014355Y019545D03*
D210*
X014354Y019545D03*
X014353Y019545D03*
X014352Y019545D03*
X014274Y018523D03*
X014273Y018523D03*
X014272Y018523D03*
D211*
X014351Y018535D03*
X014352Y018535D03*
D212*
X014351Y018535D03*
D213*
X014351Y019546D03*
X014348Y019546D03*
D214*
X014349Y019546D03*
X014350Y019546D03*
X014351Y019546D03*
X014271Y018523D03*
X014270Y018523D03*
X014269Y018523D03*
D215*
X014349Y018534D03*
X014350Y018534D03*
D216*
X014348Y018534D03*
D217*
X014347Y018534D03*
X014347Y018534D03*
X014346Y018534D03*
D218*
X014267Y018522D03*
X014267Y018522D03*
X014346Y019546D03*
X014347Y019546D03*
X014347Y019546D03*
D219*
X014345Y018534D03*
D220*
X014268Y018522D03*
X014345Y019546D03*
D221*
X014344Y018533D03*
X014343Y018533D03*
X014343Y018533D03*
D222*
X014266Y018522D03*
X014264Y018522D03*
X014263Y018522D03*
X014343Y019547D03*
X014343Y019547D03*
X014344Y019547D03*
D223*
X014342Y018533D03*
D224*
X014265Y018522D03*
X014342Y019547D03*
D225*
X014341Y018533D03*
X014340Y018533D03*
X014339Y018533D03*
D226*
X014263Y018521D03*
X014261Y018521D03*
X014339Y019547D03*
X014339Y019547D03*
X014340Y019547D03*
X014341Y019547D03*
D227*
X014339Y018533D03*
X014337Y018533D03*
D228*
X014338Y018533D03*
D229*
X014258Y018521D03*
X014338Y019547D03*
D230*
X014337Y019547D03*
X014336Y019547D03*
X014335Y019547D03*
X014260Y018521D03*
X014259Y018521D03*
X014259Y018521D03*
D231*
X014335Y018532D03*
X014336Y018532D03*
D232*
X014335Y018532D03*
D233*
X014335Y019548D03*
D234*
X014334Y018532D03*
X014333Y018532D03*
X014332Y018532D03*
D235*
X014257Y018521D03*
X014256Y018521D03*
X014255Y018521D03*
X014332Y019548D03*
X014333Y019548D03*
X014334Y019548D03*
D236*
X014331Y018532D03*
D237*
X014255Y018520D03*
X014328Y019548D03*
X014331Y019548D03*
D238*
X014331Y019548D03*
X014330Y019548D03*
X014329Y019548D03*
X014254Y018520D03*
X014253Y018520D03*
X014252Y018520D03*
D239*
X014328Y018531D03*
D240*
X014251Y018520D03*
X014250Y018520D03*
X014326Y019549D03*
X014327Y019549D03*
X014327Y019549D03*
D241*
X014325Y019549D03*
X014251Y018520D03*
D242*
X014323Y019549D03*
X014323Y019549D03*
X014324Y019549D03*
D243*
X014322Y019549D03*
D244*
X014321Y019549D03*
X014320Y019549D03*
X014319Y019549D03*
X014319Y019549D03*
X014247Y018519D03*
X014246Y018519D03*
X014244Y018519D03*
D245*
X014242Y018519D03*
X014318Y019550D03*
D246*
X014317Y018529D03*
X014316Y018529D03*
X014315Y018529D03*
D247*
X014243Y018519D03*
X014243Y018519D03*
X014315Y019550D03*
X014316Y019550D03*
X014317Y019550D03*
D248*
X014315Y019550D03*
D249*
X014314Y019550D03*
X014313Y019550D03*
X014312Y019550D03*
X014241Y018518D03*
X014240Y018518D03*
X014239Y018518D03*
X014239Y018518D03*
D250*
X014311Y018529D03*
D251*
X014311Y019551D03*
X014308Y019551D03*
D252*
X014309Y019551D03*
X014310Y019551D03*
X014311Y019551D03*
D253*
X014307Y019551D03*
X014307Y019551D03*
X014306Y019551D03*
X014235Y018517D03*
X014234Y018517D03*
D254*
X014304Y018528D03*
X014306Y018528D03*
X014307Y018528D03*
D255*
X014305Y018528D03*
D256*
X014235Y018517D03*
X014305Y019551D03*
D257*
X014304Y019551D03*
X014303Y019551D03*
X014303Y019551D03*
X014233Y018517D03*
X014232Y018517D03*
X014231Y018517D03*
D258*
X014231Y018517D03*
X014302Y019551D03*
D259*
X014301Y019552D03*
X014300Y019552D03*
X014299Y019552D03*
X014299Y019552D03*
X014230Y018517D03*
X014229Y018517D03*
D260*
X014298Y019552D03*
D261*
X014297Y019552D03*
X014296Y019552D03*
X014295Y019552D03*
D262*
X014294Y018526D03*
X014295Y018526D03*
D263*
X014295Y018526D03*
D264*
X014295Y019553D03*
D265*
X014294Y019553D03*
X014293Y019553D03*
X014292Y019553D03*
X014224Y018516D03*
X014223Y018516D03*
X014223Y018516D03*
D266*
X014222Y018515D03*
X014288Y019553D03*
X014291Y019553D03*
D267*
X014291Y019553D03*
X014290Y019553D03*
X014289Y019553D03*
X014221Y018515D03*
X014220Y018515D03*
D268*
X014219Y018515D03*
X014219Y018515D03*
X014217Y018515D03*
X014286Y019553D03*
X014287Y019553D03*
X014287Y019553D03*
D269*
X014285Y019553D03*
X014218Y018515D03*
D270*
X014283Y018525D03*
X014283Y018525D03*
X014284Y018525D03*
D271*
X014283Y019554D03*
X014283Y019554D03*
X014284Y019554D03*
D272*
X014282Y019554D03*
D273*
X014281Y019554D03*
X014280Y019554D03*
X014279Y019554D03*
X014279Y019554D03*
X014214Y018514D03*
X014213Y018514D03*
X014212Y018514D03*
D274*
X014278Y018524D03*
D275*
X014278Y019555D03*
D276*
X014277Y019555D03*
X014276Y019555D03*
X014275Y019555D03*
X014211Y018514D03*
X014210Y018514D03*
X014209Y018514D03*
D277*
X014208Y018513D03*
X014275Y019555D03*
D278*
X014274Y019555D03*
X014273Y019555D03*
X014272Y019555D03*
X014207Y018513D03*
X014207Y018513D03*
D279*
X014205Y018513D03*
X014268Y019555D03*
X014271Y019555D03*
D280*
X014271Y019555D03*
X014270Y019555D03*
X014269Y019555D03*
X014206Y018513D03*
X014204Y018513D03*
X014203Y018513D03*
D281*
X014203Y018513D03*
X014201Y018513D03*
X014266Y019556D03*
X014267Y019556D03*
X014267Y019556D03*
D282*
X014265Y019556D03*
X014202Y018513D03*
D283*
X014200Y018512D03*
X014199Y018512D03*
X014199Y018512D03*
X014263Y019556D03*
X014263Y019556D03*
X014264Y019556D03*
D284*
X014262Y018521D03*
D285*
X014198Y018512D03*
X014262Y019556D03*
D286*
X014261Y019557D03*
X014260Y019557D03*
X014259Y019557D03*
X014259Y019557D03*
X014197Y018512D03*
X014196Y018512D03*
X014195Y018512D03*
D287*
X014195Y018511D03*
X014258Y019557D03*
D288*
X014257Y019557D03*
X014256Y019557D03*
X014255Y019557D03*
X014194Y018511D03*
X014193Y018511D03*
D289*
X014191Y018511D03*
X014255Y019557D03*
D290*
X014254Y019557D03*
X014253Y019557D03*
X014252Y019557D03*
X014192Y018511D03*
X014191Y018511D03*
X014190Y018511D03*
D291*
X014188Y018511D03*
X014248Y019558D03*
X014251Y019558D03*
D292*
X014251Y019558D03*
X014250Y019558D03*
X014249Y019558D03*
X014189Y018511D03*
X014187Y018511D03*
D293*
X014247Y018519D03*
X014249Y018519D03*
D294*
X014248Y018519D03*
D295*
X014187Y018510D03*
X014186Y018510D03*
X014184Y018510D03*
X014246Y019558D03*
X014247Y019558D03*
X014247Y019558D03*
D296*
X014245Y018519D03*
D297*
X014185Y018510D03*
X014245Y019558D03*
D298*
X014244Y019559D03*
X014243Y019559D03*
X014243Y019559D03*
X014183Y018510D03*
X014183Y018510D03*
D299*
X014182Y018510D03*
X014242Y019559D03*
D300*
X014241Y019559D03*
X014240Y019559D03*
X014239Y019559D03*
X014239Y019559D03*
D301*
X014238Y018518D03*
D302*
X014178Y018509D03*
X014238Y019559D03*
D303*
X014237Y018518D03*
X014236Y018518D03*
D304*
X014179Y018509D03*
X014177Y018509D03*
X014176Y018509D03*
X014235Y019559D03*
X014236Y019559D03*
X014237Y019559D03*
D305*
X014235Y019560D03*
X014175Y018509D03*
D306*
X014175Y018509D03*
X014174Y018509D03*
X014232Y019560D03*
X014233Y019560D03*
X014234Y019560D03*
D307*
X014231Y019560D03*
X014228Y019560D03*
X014171Y018508D03*
D308*
X014171Y018508D03*
X014172Y018508D03*
X014173Y018508D03*
X014229Y019560D03*
X014230Y019560D03*
X014231Y019560D03*
D309*
X014228Y018517D03*
D310*
X014227Y018516D03*
X014227Y018516D03*
X014226Y018516D03*
D311*
X014226Y019561D03*
X014227Y019561D03*
X014227Y019561D03*
D312*
X014225Y018516D03*
D313*
X014225Y019561D03*
D314*
X014224Y019561D03*
X014223Y019561D03*
X014223Y019561D03*
X014167Y018507D03*
X014167Y018507D03*
X014166Y018507D03*
D315*
X014222Y019561D03*
D316*
X014221Y019561D03*
X014220Y019561D03*
X014219Y019561D03*
X014219Y019561D03*
X014164Y018507D03*
X014163Y018507D03*
X014163Y018507D03*
D317*
X014162Y018507D03*
X014218Y019562D03*
D318*
X014217Y019562D03*
X014216Y019562D03*
X014215Y019562D03*
X014161Y018507D03*
X014160Y018507D03*
D319*
X014215Y018515D03*
X014216Y018515D03*
D320*
X014215Y018515D03*
D321*
X014215Y019562D03*
D322*
X014214Y019562D03*
X014213Y019562D03*
X014212Y019562D03*
D323*
X014211Y018514D03*
D324*
X014155Y018506D03*
X014208Y019563D03*
X014211Y019563D03*
D325*
X014211Y019563D03*
X014210Y019563D03*
X014209Y019563D03*
X014156Y018506D03*
X014155Y018506D03*
D326*
X014154Y018505D03*
X014153Y018505D03*
X014152Y018505D03*
X014206Y019563D03*
X014207Y019563D03*
X014207Y019563D03*
D327*
X014205Y019563D03*
D328*
X014204Y019563D03*
X014203Y019563D03*
X014203Y019563D03*
X014151Y018505D03*
X014150Y018505D03*
X014149Y018505D03*
D329*
X014151Y018505D03*
X014202Y019563D03*
D330*
X014201Y019564D03*
X014200Y019564D03*
X014199Y019564D03*
X014199Y019564D03*
D331*
X014198Y019564D03*
X014145Y018504D03*
D332*
X014146Y018504D03*
X014144Y018504D03*
X014143Y018504D03*
X014195Y019564D03*
X014196Y019564D03*
X014197Y019564D03*
D333*
X014195Y019565D03*
X014142Y018504D03*
D334*
X014143Y018504D03*
X014141Y018504D03*
X014192Y019565D03*
X014193Y019565D03*
X014194Y019565D03*
D335*
X014191Y019565D03*
X014188Y019565D03*
D336*
X014189Y019565D03*
X014190Y019565D03*
X014191Y019565D03*
X014140Y018503D03*
X014139Y018503D03*
X014139Y018503D03*
D337*
X014137Y018503D03*
X014136Y018503D03*
X014135Y018503D03*
X014186Y019565D03*
X014187Y019565D03*
X014187Y019565D03*
D338*
X014185Y019565D03*
X014138Y018503D03*
D339*
X014134Y018503D03*
X014133Y018503D03*
X014183Y019566D03*
X014183Y019566D03*
X014184Y019566D03*
D340*
X014182Y019566D03*
X014135Y018503D03*
D341*
X014179Y018509D03*
X014180Y018509D03*
X014181Y018509D03*
D342*
X014132Y018502D03*
X014131Y018502D03*
X014130Y018502D03*
X014179Y019566D03*
X014179Y019566D03*
X014180Y019566D03*
X014181Y019566D03*
D343*
X014178Y019567D03*
X014128Y018502D03*
D344*
X014127Y018502D03*
X014129Y018502D03*
X014175Y019567D03*
X014176Y019567D03*
X014177Y019567D03*
D345*
X014175Y019567D03*
X014125Y018501D03*
D346*
X014126Y018501D03*
X014127Y018501D03*
X014172Y019567D03*
X014173Y019567D03*
X014174Y019567D03*
D347*
X014171Y019567D03*
X014168Y019567D03*
X014122Y018501D03*
D348*
X014123Y018501D03*
X014123Y018501D03*
X014124Y018501D03*
X014169Y019567D03*
X014170Y019567D03*
X014171Y019567D03*
D349*
X014170Y018508D03*
X014169Y018508D03*
D350*
X014168Y018508D03*
D351*
X014121Y018501D03*
X014120Y018501D03*
X014119Y018501D03*
X014166Y019568D03*
X014167Y019568D03*
X014167Y019568D03*
D352*
X014165Y018507D03*
D353*
X014165Y019568D03*
D354*
X014164Y019568D03*
X014163Y019568D03*
X014163Y019568D03*
X014119Y018500D03*
X014117Y018500D03*
X014116Y018500D03*
D355*
X014118Y018500D03*
X014162Y019568D03*
D356*
X014161Y019569D03*
X014160Y019569D03*
X014159Y019569D03*
X014159Y019569D03*
X014115Y018500D03*
X014114Y018500D03*
D357*
X014157Y018506D03*
X014159Y018506D03*
X014159Y018506D03*
D358*
X014158Y018506D03*
D359*
X014158Y019569D03*
D360*
X014157Y019569D03*
X014156Y019569D03*
X014155Y019569D03*
D361*
X014155Y019569D03*
X014108Y018499D03*
D362*
X014109Y018499D03*
X014110Y018499D03*
X014111Y018499D03*
X014152Y019569D03*
X014153Y019569D03*
X014154Y019569D03*
D363*
X014151Y019570D03*
X014148Y019570D03*
D364*
X014149Y019570D03*
X014150Y019570D03*
X014151Y019570D03*
X014107Y018499D03*
X014107Y018499D03*
X014106Y018499D03*
D365*
X014148Y018505D03*
D366*
X014147Y018505D03*
X014147Y018505D03*
D367*
X014104Y018498D03*
X014103Y018498D03*
X014103Y018498D03*
X014146Y019570D03*
X014147Y019570D03*
X014147Y019570D03*
D368*
X014145Y019570D03*
X014105Y018498D03*
D369*
X014143Y019571D03*
X014143Y019571D03*
X014144Y019571D03*
D370*
X014142Y019571D03*
D371*
X014141Y019571D03*
X014140Y019571D03*
X014139Y019571D03*
X014139Y019571D03*
X014099Y018497D03*
X014099Y018497D03*
D372*
X014095Y018497D03*
X014138Y019571D03*
D373*
X014137Y019571D03*
X014136Y019571D03*
X014135Y019571D03*
X014097Y018497D03*
X014096Y018497D03*
X014095Y018497D03*
D374*
X014135Y019572D03*
D375*
X014134Y019572D03*
X014133Y019572D03*
X014132Y019572D03*
X014094Y018497D03*
X014093Y018497D03*
X014092Y018497D03*
D376*
X014131Y018502D03*
D377*
X014131Y019572D03*
X014128Y019572D03*
D378*
X014129Y019572D03*
X014130Y019572D03*
X014131Y019572D03*
D379*
X014127Y019573D03*
X014127Y019573D03*
X014126Y019573D03*
X014087Y018496D03*
X014087Y018496D03*
D380*
X014088Y018496D03*
X014125Y019573D03*
D381*
X014124Y019573D03*
X014123Y019573D03*
X014123Y019573D03*
X014086Y018495D03*
X014084Y018495D03*
D382*
X014085Y018495D03*
X014122Y019573D03*
D383*
X014121Y019573D03*
X014120Y019573D03*
X014119Y019573D03*
X014119Y019573D03*
X014083Y018495D03*
X014083Y018495D03*
X014081Y018495D03*
D384*
X014118Y019574D03*
D385*
X014117Y019574D03*
X014116Y019574D03*
X014115Y019574D03*
D386*
X014115Y018500D03*
D387*
X014078Y018494D03*
X014115Y019574D03*
D388*
X014114Y019574D03*
X014113Y019574D03*
X014112Y019574D03*
X014077Y018494D03*
X014076Y018494D03*
X014075Y018494D03*
D389*
X014112Y018499D03*
X014113Y018499D03*
D390*
X014111Y018499D03*
D391*
X014075Y018494D03*
X014108Y019575D03*
X014111Y019575D03*
D392*
X014111Y019575D03*
X014110Y019575D03*
X014109Y019575D03*
X014074Y018494D03*
X014073Y018494D03*
D393*
X014072Y018493D03*
X014071Y018493D03*
X014106Y019575D03*
X014107Y019575D03*
X014107Y019575D03*
D394*
X014105Y019575D03*
X014071Y018493D03*
D395*
X014070Y018493D03*
X014069Y018493D03*
X014067Y018493D03*
X014103Y019575D03*
X014103Y019575D03*
X014104Y019575D03*
D396*
X014102Y018498D03*
D397*
X014068Y018493D03*
X014102Y019575D03*
D398*
X014101Y018498D03*
X014100Y018498D03*
D399*
X014067Y018493D03*
X014066Y018493D03*
X014099Y019576D03*
X014099Y019576D03*
X014100Y019576D03*
X014101Y019576D03*
D400*
X014098Y018497D03*
D401*
X014062Y018492D03*
X014098Y019576D03*
D402*
X014097Y019576D03*
X014096Y019576D03*
X014095Y019576D03*
X014064Y018492D03*
X014063Y018492D03*
X014063Y018492D03*
D403*
X014095Y019577D03*
D404*
X014094Y019577D03*
X014093Y019577D03*
X014092Y019577D03*
X014061Y018492D03*
X014060Y018492D03*
X014059Y018492D03*
D405*
X014091Y018496D03*
D406*
X014058Y018491D03*
X014088Y019577D03*
X014091Y019577D03*
D407*
X014090Y018496D03*
X014091Y018496D03*
X014089Y018496D03*
D408*
X014059Y018491D03*
X014057Y018491D03*
X014089Y019577D03*
X014090Y019577D03*
X014091Y019577D03*
D409*
X014087Y019577D03*
X014087Y019577D03*
X014086Y019577D03*
X014056Y018491D03*
X014055Y018491D03*
X014054Y018491D03*
D410*
X014055Y018491D03*
X014085Y019577D03*
D411*
X014084Y019578D03*
X014083Y019578D03*
X014083Y019578D03*
X014053Y018491D03*
X014052Y018491D03*
D412*
X014082Y018495D03*
D413*
X014051Y018491D03*
X014082Y019578D03*
D414*
X014081Y019578D03*
X014080Y019578D03*
X014079Y019578D03*
X014079Y019578D03*
X014051Y018490D03*
X014050Y018490D03*
X014049Y018490D03*
D415*
X014079Y018495D03*
X014079Y018495D03*
X014080Y018495D03*
D416*
X014078Y019579D03*
D417*
X014077Y019579D03*
X014076Y019579D03*
X014075Y019579D03*
X014047Y018490D03*
X014047Y018490D03*
X014046Y018490D03*
D418*
X014075Y019579D03*
D419*
X014074Y019579D03*
X014073Y019579D03*
X014072Y019579D03*
D420*
X014071Y019579D03*
X014068Y019579D03*
X014042Y018489D03*
D421*
X014043Y018489D03*
X014041Y018489D03*
X014040Y018489D03*
X014069Y019579D03*
X014070Y019579D03*
X014071Y019579D03*
D422*
X014067Y019580D03*
X014067Y019580D03*
X014066Y019580D03*
X014039Y018489D03*
X014039Y018489D03*
D423*
X014065Y018493D03*
D424*
X014038Y018489D03*
X014065Y019580D03*
D425*
X014064Y019580D03*
X014063Y019580D03*
X014063Y019580D03*
X014037Y018488D03*
X014036Y018488D03*
X014035Y018488D03*
D426*
X014035Y018488D03*
X014062Y019580D03*
D427*
X014061Y019581D03*
X014060Y019581D03*
X014059Y019581D03*
X014059Y019581D03*
D428*
X014058Y019581D03*
X014031Y018487D03*
D429*
X014031Y018487D03*
X014030Y018487D03*
X014055Y019581D03*
X014056Y019581D03*
X014057Y019581D03*
D430*
X014055Y019581D03*
X014028Y018487D03*
D431*
X014027Y018487D03*
X014027Y018487D03*
X014029Y018487D03*
X014052Y019581D03*
X014053Y019581D03*
X014054Y019581D03*
D432*
X014051Y019582D03*
X014048Y019582D03*
X014025Y018487D03*
D433*
X014026Y018487D03*
X014024Y018487D03*
X014049Y019582D03*
X014050Y019582D03*
X014051Y019582D03*
D434*
X014048Y018490D03*
D435*
X014047Y019582D03*
X014047Y019582D03*
X014046Y019582D03*
D436*
X014045Y018489D03*
D437*
X014045Y019582D03*
D438*
X014043Y018489D03*
X014044Y018489D03*
D439*
X014020Y018486D03*
X014019Y018486D03*
X014019Y018486D03*
X014043Y019583D03*
X014043Y019583D03*
X014044Y019583D03*
D440*
X014042Y019583D03*
D441*
X014041Y019583D03*
X014040Y019583D03*
X014039Y019583D03*
X014039Y019583D03*
X014017Y018485D03*
X014016Y018485D03*
D442*
X014015Y018485D03*
X014038Y019583D03*
D443*
X014037Y019583D03*
X014036Y019583D03*
X014035Y019583D03*
X014015Y018485D03*
X014014Y018485D03*
X014013Y018485D03*
D444*
X014035Y019584D03*
D445*
X014034Y018488D03*
X014033Y018488D03*
X014032Y018488D03*
D446*
X014032Y019584D03*
X014033Y019584D03*
X014034Y019584D03*
D447*
X014031Y019584D03*
X014028Y019584D03*
X014008Y018484D03*
D448*
X014007Y018484D03*
X014009Y018484D03*
X014010Y018484D03*
X014029Y019584D03*
X014030Y019584D03*
X014031Y019584D03*
D449*
X014027Y019585D03*
X014027Y019585D03*
X014026Y019585D03*
X014007Y018484D03*
X014006Y018484D03*
D450*
X014005Y018484D03*
X014025Y019585D03*
D451*
X014024Y019585D03*
X014023Y019585D03*
X014023Y019585D03*
X014004Y018483D03*
X014003Y018483D03*
X014003Y018483D03*
D452*
X014021Y018486D03*
X014023Y018486D03*
X014023Y018486D03*
D453*
X014022Y018486D03*
D454*
X014022Y019585D03*
D455*
X014021Y019585D03*
X014020Y019585D03*
X014019Y019585D03*
X014019Y019585D03*
X014001Y018483D03*
X014000Y018483D03*
X013999Y018483D03*
D456*
X014018Y018485D03*
D457*
X013998Y018483D03*
X014018Y019586D03*
D458*
X014017Y019586D03*
X014016Y019586D03*
X014015Y019586D03*
X013999Y018483D03*
X013997Y018483D03*
D459*
X013995Y018482D03*
X014015Y019586D03*
D460*
X014014Y019586D03*
X014013Y019586D03*
X014012Y019586D03*
X013996Y018482D03*
X013995Y018482D03*
X013994Y018482D03*
D461*
X014011Y018485D03*
X014012Y018485D03*
D462*
X014011Y018485D03*
D463*
X013991Y018482D03*
X014008Y019587D03*
X014011Y019587D03*
D464*
X014011Y019587D03*
X014010Y019587D03*
X014009Y019587D03*
X013993Y018482D03*
X013992Y018482D03*
D465*
X013991Y018481D03*
X013990Y018481D03*
X013989Y018481D03*
X014006Y019587D03*
X014007Y019587D03*
X014007Y019587D03*
D466*
X014005Y019587D03*
D467*
X014004Y019587D03*
X014003Y019587D03*
X014003Y019587D03*
X013987Y018481D03*
X013987Y018481D03*
X013986Y018481D03*
D468*
X014002Y018483D03*
D469*
X013988Y018481D03*
X014002Y019587D03*
D470*
X014001Y019588D03*
X014000Y019588D03*
X013999Y019588D03*
X013999Y019588D03*
X013984Y018481D03*
X013983Y018481D03*
D471*
X013982Y018480D03*
X013998Y019588D03*
D472*
X013997Y019588D03*
X013996Y019588D03*
X013995Y019588D03*
X013983Y018480D03*
X013981Y018480D03*
X013980Y018480D03*
D473*
X013978Y018480D03*
X013995Y019589D03*
D474*
X013994Y019589D03*
X013993Y019589D03*
X013992Y019589D03*
X013979Y018480D03*
X013979Y018480D03*
D475*
X013988Y019589D03*
X013991Y019589D03*
D476*
X013991Y019589D03*
X013990Y019589D03*
X013989Y019589D03*
D477*
X013987Y019589D03*
X013987Y019589D03*
X013986Y019589D03*
X013974Y018479D03*
X013973Y018479D03*
X013972Y018479D03*
D478*
X013985Y018481D03*
D479*
X013975Y018479D03*
X013985Y019589D03*
D480*
X013984Y019590D03*
X013983Y019590D03*
X013983Y019590D03*
X013971Y018479D03*
X013970Y018479D03*
D481*
X013971Y018479D03*
X013982Y019590D03*
D482*
X013981Y019590D03*
X013980Y019590D03*
X013979Y019590D03*
X013979Y019590D03*
X013969Y018478D03*
X013967Y018478D03*
X013967Y018478D03*
D483*
X013978Y019591D03*
D484*
X013977Y018479D03*
X013976Y018479D03*
X013975Y018479D03*
D485*
X013975Y019591D03*
X013976Y019591D03*
X013977Y019591D03*
D486*
X013975Y019591D03*
X013962Y018477D03*
D487*
X013963Y018477D03*
X013963Y018477D03*
X013972Y019591D03*
X013973Y019591D03*
X013974Y019591D03*
D488*
X013971Y019591D03*
X013968Y019591D03*
D489*
X013969Y019591D03*
X013970Y019591D03*
X013971Y019591D03*
X013961Y018477D03*
X013960Y018477D03*
X013959Y018477D03*
X013959Y018477D03*
D490*
X013968Y018478D03*
D491*
X013957Y018477D03*
X013956Y018477D03*
X013966Y019592D03*
X013967Y019592D03*
X013967Y019592D03*
D492*
X013966Y018478D03*
X013964Y018478D03*
D493*
X013965Y018478D03*
D494*
X013958Y018477D03*
X013965Y019592D03*
D495*
X013964Y019592D03*
X013963Y019592D03*
X013963Y019592D03*
D496*
X013962Y019592D03*
D497*
X013961Y019593D03*
X013960Y019593D03*
X013959Y019593D03*
X013959Y019593D03*
X013952Y018476D03*
X013951Y018476D03*
D498*
X013948Y018475D03*
X013958Y019593D03*
D499*
X013957Y019593D03*
X013956Y019593D03*
X013955Y019593D03*
X013950Y018475D03*
X013949Y018475D03*
D500*
X013953Y018476D03*
X013954Y018476D03*
X013955Y018476D03*
D501*
X013955Y018476D03*
D502*
X013945Y018475D03*
X013955Y019593D03*
D503*
X013954Y019593D03*
X013953Y019593D03*
X013952Y019593D03*
X013947Y018475D03*
X013947Y018475D03*
X013946Y018475D03*
D504*
X013951Y018476D03*
D505*
X013951Y019594D03*
X013948Y019594D03*
D506*
X013949Y019594D03*
X013950Y019594D03*
X013951Y019594D03*
D507*
X013947Y019594D03*
X013947Y019594D03*
X013946Y019594D03*
X013941Y018474D03*
X013940Y018474D03*
X013939Y018474D03*
D508*
X013942Y018474D03*
X013945Y019594D03*
D509*
X013943Y018475D03*
X013943Y018475D03*
X013944Y018475D03*
D510*
X013939Y018474D03*
X013937Y018474D03*
X013943Y019595D03*
X013943Y019595D03*
X013944Y019595D03*
D511*
X013942Y019595D03*
X013938Y018474D03*
D512*
X013936Y018473D03*
X013935Y018473D03*
X013939Y019595D03*
X013939Y019595D03*
X013940Y019595D03*
X013941Y019595D03*
D513*
X013938Y019595D03*
X013931Y018473D03*
D514*
X013932Y018473D03*
X013933Y018473D03*
X013934Y018473D03*
X013935Y019595D03*
X013936Y019595D03*
X013937Y019595D03*
D515*
X013935Y018473D03*
D516*
X013935Y019596D03*
D517*
X013934Y019596D03*
X013933Y019596D03*
X013932Y019596D03*
X013931Y018473D03*
X013930Y018473D03*
X013929Y018473D03*
D518*
X013928Y018472D03*
X013928Y019596D03*
X013931Y019596D03*
D519*
X013931Y019596D03*
X013930Y019596D03*
X013929Y019596D03*
X013927Y018472D03*
X013927Y018472D03*
X013926Y018472D03*
D520*
X013924Y018472D03*
X013923Y018472D03*
X013926Y019597D03*
X013927Y019597D03*
X013927Y019597D03*
D521*
X013925Y019597D03*
X013925Y018472D03*
D522*
X013923Y018471D03*
X013921Y018471D03*
X013923Y019597D03*
X013923Y019597D03*
X013924Y019597D03*
D523*
X013922Y019597D03*
X013922Y018471D03*
D524*
X013920Y018471D03*
X013919Y018471D03*
X013919Y018471D03*
X013919Y019597D03*
X013919Y019597D03*
X013920Y019597D03*
X013921Y019597D03*
D525*
X013918Y018471D03*
D526*
X013918Y019598D03*
D527*
X013917Y019598D03*
X013916Y019598D03*
X013915Y019598D03*
X013915Y018471D03*
X013916Y018471D03*
X013917Y018471D03*
D528*
X013915Y018470D03*
X013915Y019598D03*
D529*
X013914Y019598D03*
X013913Y019598D03*
X013912Y019598D03*
X013912Y018470D03*
X013913Y018470D03*
X013914Y018470D03*
D530*
X013911Y018470D03*
X013911Y019599D03*
X013908Y019599D03*
D531*
X013909Y019599D03*
X013910Y019599D03*
X013911Y019599D03*
X013910Y018470D03*
X013911Y018470D03*
D532*
X013909Y018469D03*
X013907Y018469D03*
D533*
X013908Y018469D03*
D534*
X013907Y019599D03*
X013907Y019599D03*
X013906Y019599D03*
D535*
X013904Y019599D03*
X013903Y019599D03*
X013903Y019599D03*
X013904Y018469D03*
X013906Y018469D03*
X013907Y018469D03*
D536*
X013905Y018469D03*
X013902Y019599D03*
D537*
X013905Y019599D03*
D538*
X013901Y019600D03*
X013900Y019600D03*
X013899Y019600D03*
X013899Y019600D03*
X013903Y018469D03*
X013903Y018469D03*
D539*
X013902Y018469D03*
D540*
X013901Y018468D03*
X013900Y018468D03*
X013899Y018468D03*
X013899Y018468D03*
X013897Y019600D03*
X013896Y019600D03*
X013895Y019600D03*
D541*
X013898Y018468D03*
D542*
X013898Y019600D03*
D543*
X013897Y018468D03*
X013896Y018468D03*
D544*
X013895Y018467D03*
X013894Y018467D03*
X013891Y019601D03*
X013890Y019601D03*
X013889Y019601D03*
D545*
X013888Y019601D03*
X013891Y019601D03*
X013895Y018467D03*
D546*
X013895Y019601D03*
D547*
X013894Y019601D03*
X013893Y019601D03*
X013892Y019601D03*
D548*
X013887Y019601D03*
X013887Y019601D03*
X013886Y019601D03*
X013891Y018467D03*
X013892Y018467D03*
X013893Y018467D03*
D549*
X013891Y018467D03*
X013885Y019601D03*
D550*
X013884Y019602D03*
X013883Y019602D03*
X013883Y019602D03*
X013889Y018467D03*
X013890Y018467D03*
D551*
X013888Y018467D03*
X013882Y019602D03*
D552*
X013886Y018466D03*
X013887Y018466D03*
X013887Y018466D03*
D553*
X013885Y018466D03*
D554*
X013884Y018466D03*
X013883Y018466D03*
X013883Y018466D03*
X013877Y019603D03*
X013876Y019603D03*
X013875Y019603D03*
D555*
X013875Y019603D03*
X013882Y018465D03*
D556*
X013881Y018465D03*
X013880Y018465D03*
X013874Y019603D03*
X013873Y019603D03*
X013872Y019603D03*
D557*
X013879Y019602D03*
X013879Y019602D03*
X013880Y019602D03*
X013881Y019602D03*
D558*
X013871Y019603D03*
X013870Y019603D03*
X013869Y019603D03*
X013877Y018465D03*
X013879Y018465D03*
X013879Y018465D03*
D559*
X013878Y018465D03*
X013871Y019603D03*
X013868Y019603D03*
D560*
X013878Y019603D03*
D561*
X013876Y018465D03*
X013875Y018465D03*
D562*
X013875Y018465D03*
D563*
X013874Y018464D03*
X013873Y018464D03*
X013872Y018464D03*
X013864Y019604D03*
X013863Y019604D03*
X013863Y019604D03*
D564*
X013862Y019604D03*
X013871Y018464D03*
D565*
X013871Y018464D03*
X013870Y018464D03*
X013869Y018464D03*
X013861Y019605D03*
X013860Y019605D03*
X013859Y019605D03*
X013859Y019605D03*
D566*
X013858Y019605D03*
X013868Y018463D03*
D567*
X013867Y018463D03*
X013867Y018463D03*
X013857Y019605D03*
X013856Y019605D03*
X013855Y019605D03*
D568*
X013866Y019604D03*
X013867Y019604D03*
X013867Y019604D03*
D569*
X013854Y019605D03*
X013853Y019605D03*
X013852Y019605D03*
X013863Y018463D03*
X013864Y018463D03*
X013866Y018463D03*
D570*
X013865Y018463D03*
X013855Y019605D03*
D571*
X013865Y019604D03*
D572*
X013851Y019606D03*
X013850Y019606D03*
X013849Y019606D03*
X013861Y018463D03*
X013863Y018463D03*
D573*
X013862Y018463D03*
X013851Y019606D03*
X013848Y019606D03*
D574*
X013847Y019606D03*
X013847Y019606D03*
X013846Y019606D03*
X013859Y018462D03*
X013859Y018462D03*
X013860Y018462D03*
D575*
X013858Y018462D03*
X013845Y019606D03*
D576*
X013844Y019607D03*
X013843Y019607D03*
X013843Y019607D03*
X013855Y018462D03*
X013856Y018462D03*
X013857Y018462D03*
D577*
X013855Y018461D03*
D578*
X013854Y018461D03*
X013853Y018461D03*
X013841Y019607D03*
X013840Y019607D03*
X013839Y019607D03*
X013839Y019607D03*
D579*
X013837Y019607D03*
X013836Y019607D03*
X013835Y019607D03*
X013850Y018461D03*
X013851Y018461D03*
X013852Y018461D03*
D580*
X013851Y018461D03*
X013838Y019607D03*
D581*
X013834Y019608D03*
X013833Y019608D03*
X013832Y019608D03*
X013847Y018461D03*
X013849Y018461D03*
D582*
X013848Y018461D03*
X013835Y019608D03*
D583*
X013831Y019608D03*
X013844Y018460D03*
X013846Y018460D03*
X013847Y018460D03*
D584*
X013845Y018460D03*
X013831Y019608D03*
D585*
X013843Y018460D03*
X013843Y018460D03*
D586*
X013842Y018460D03*
D587*
X013842Y019607D03*
D588*
X013841Y018459D03*
X013840Y018459D03*
X013839Y018459D03*
X013839Y018459D03*
D589*
X013838Y018459D03*
D590*
X013837Y018459D03*
X013836Y018459D03*
D591*
X013835Y018459D03*
X013834Y018459D03*
D592*
X013835Y018459D03*
D593*
X013833Y018458D03*
X013832Y018458D03*
X013831Y018458D03*
D594*
X013831Y018458D03*
D595*
X013830Y018547D03*
X013829Y018547D03*
X013827Y018547D03*
X013827Y018547D03*
X013826Y018547D03*
X013824Y018547D03*
X013823Y018547D03*
X013823Y018547D03*
X013821Y018547D03*
X013820Y018547D03*
X013819Y018547D03*
X013819Y018547D03*
X013817Y018547D03*
X013816Y018547D03*
X013815Y018547D03*
X013814Y018547D03*
X013813Y018547D03*
X013812Y018547D03*
X013811Y018547D03*
X013810Y018547D03*
X013809Y018547D03*
X013807Y018547D03*
X013807Y018547D03*
X013806Y018547D03*
X013804Y018547D03*
X013803Y018547D03*
X013803Y018547D03*
X013801Y018547D03*
X013800Y018547D03*
X013799Y018547D03*
X013799Y018547D03*
X013797Y018547D03*
X013796Y018547D03*
X013795Y018547D03*
X013794Y018547D03*
X013793Y018547D03*
X013792Y018547D03*
X013791Y018547D03*
X013790Y018547D03*
X013789Y018547D03*
X013789Y019521D03*
X013790Y019521D03*
X013791Y019521D03*
X013792Y019521D03*
X013793Y019521D03*
X013794Y019521D03*
X013795Y019521D03*
X013796Y019521D03*
X013797Y019521D03*
X013799Y019521D03*
X013799Y019521D03*
X013800Y019521D03*
X013801Y019521D03*
X013803Y019521D03*
X013803Y019521D03*
X013804Y019521D03*
X013806Y019521D03*
X013807Y019521D03*
X013807Y019521D03*
X013809Y019521D03*
X013810Y019521D03*
X013811Y019521D03*
X013812Y019521D03*
X013813Y019521D03*
X013814Y019521D03*
X013815Y019521D03*
X013816Y019521D03*
X013817Y019521D03*
X013819Y019521D03*
X013819Y019521D03*
X013820Y019521D03*
X013821Y019521D03*
X013823Y019521D03*
X013823Y019521D03*
X013824Y019521D03*
X013826Y019521D03*
X013827Y019521D03*
X013827Y019521D03*
X013829Y019521D03*
X013830Y019521D03*
D596*
X013828Y019521D03*
X013825Y019521D03*
X013822Y019521D03*
X013818Y019521D03*
X013815Y019521D03*
X013811Y019521D03*
X013808Y019521D03*
X013805Y019521D03*
X013802Y019521D03*
X013798Y019521D03*
X013795Y019521D03*
X013791Y019521D03*
X013791Y018547D03*
X013795Y018547D03*
X013798Y018547D03*
X013802Y018547D03*
X013805Y018547D03*
X013808Y018547D03*
X013811Y018547D03*
X013815Y018547D03*
X013818Y018547D03*
X013822Y018547D03*
X013825Y018547D03*
X013828Y018547D03*
D597*
X013788Y019034D03*
X013785Y019034D03*
X013782Y019034D03*
X013778Y019034D03*
X013775Y019034D03*
X013771Y019034D03*
X013768Y019034D03*
X013765Y019034D03*
X013762Y019034D03*
X013758Y019034D03*
X013548Y019034D03*
X013545Y019034D03*
X013542Y019034D03*
X013538Y019034D03*
X013535Y019034D03*
X013531Y019034D03*
X013528Y019034D03*
X013525Y019034D03*
X013522Y019034D03*
X013518Y019034D03*
X013515Y019034D03*
X013511Y019034D03*
X013508Y019034D03*
X013505Y019034D03*
X013502Y019034D03*
X013498Y019034D03*
X013495Y019034D03*
D598*
X013495Y019034D03*
X013496Y019034D03*
X013497Y019034D03*
X013499Y019034D03*
X013499Y019034D03*
X013500Y019034D03*
X013501Y019034D03*
X013503Y019034D03*
X013503Y019034D03*
X013504Y019034D03*
X013506Y019034D03*
X013507Y019034D03*
X013507Y019034D03*
X013509Y019034D03*
X013510Y019034D03*
X013511Y019034D03*
X013512Y019034D03*
X013513Y019034D03*
X013514Y019034D03*
X013515Y019034D03*
X013516Y019034D03*
X013517Y019034D03*
X013519Y019034D03*
X013519Y019034D03*
X013520Y019034D03*
X013521Y019034D03*
X013523Y019034D03*
X013523Y019034D03*
X013524Y019034D03*
X013526Y019034D03*
X013527Y019034D03*
X013527Y019034D03*
X013529Y019034D03*
X013530Y019034D03*
X013531Y019034D03*
X013532Y019034D03*
X013533Y019034D03*
X013534Y019034D03*
X013535Y019034D03*
X013536Y019034D03*
X013537Y019034D03*
X013539Y019034D03*
X013539Y019034D03*
X013540Y019034D03*
X013541Y019034D03*
X013543Y019034D03*
X013543Y019034D03*
X013544Y019034D03*
X013546Y019034D03*
X013547Y019034D03*
X013547Y019034D03*
X013549Y019034D03*
X013550Y019034D03*
X013494Y019034D03*
X013493Y019034D03*
X013492Y019034D03*
X013756Y019034D03*
X013757Y019034D03*
X013759Y019034D03*
X013759Y019034D03*
X013760Y019034D03*
X013761Y019034D03*
X013763Y019034D03*
X013763Y019034D03*
X013764Y019034D03*
X013766Y019034D03*
X013767Y019034D03*
X013767Y019034D03*
X013769Y019034D03*
X013770Y019034D03*
X013771Y019034D03*
X013772Y019034D03*
X013773Y019034D03*
X013774Y019034D03*
X013775Y019034D03*
X013776Y019034D03*
X013777Y019034D03*
X013779Y019034D03*
X013779Y019034D03*
X013780Y019034D03*
X013781Y019034D03*
X013783Y019034D03*
X013783Y019034D03*
X013784Y019034D03*
X013786Y019034D03*
X013787Y019034D03*
X013787Y019034D03*
D599*
X013755Y018597D03*
X013754Y018597D03*
X013753Y018597D03*
X013752Y018597D03*
X013751Y018597D03*
X013750Y018597D03*
X013749Y018597D03*
X013747Y018597D03*
X013747Y018597D03*
X013746Y018597D03*
X013744Y018597D03*
X013743Y018597D03*
X013743Y018597D03*
X013741Y018597D03*
X013740Y018597D03*
X013739Y018597D03*
X013739Y018597D03*
X013737Y018597D03*
X013736Y018597D03*
X013735Y018597D03*
X013734Y018597D03*
X013733Y018597D03*
X013732Y018597D03*
X013731Y018597D03*
X013730Y018597D03*
X013729Y018597D03*
X013727Y018597D03*
X013727Y018597D03*
X013726Y018597D03*
X013724Y018597D03*
X013723Y018597D03*
X013723Y018597D03*
X013721Y018597D03*
X013720Y018597D03*
X013719Y018597D03*
X013719Y018597D03*
X013717Y018597D03*
X013716Y018597D03*
X013715Y018597D03*
X013714Y018597D03*
X013713Y018597D03*
X013712Y018597D03*
X013711Y018597D03*
X013710Y018597D03*
X013709Y018597D03*
X013707Y018597D03*
X013707Y018597D03*
X013706Y018597D03*
X013704Y018597D03*
X013703Y018597D03*
X013703Y018597D03*
X013701Y018597D03*
X013700Y018597D03*
X013699Y018597D03*
X013699Y018597D03*
X013697Y018597D03*
X013696Y018597D03*
X013695Y018597D03*
X013694Y018597D03*
X013693Y018597D03*
X013692Y018597D03*
X013691Y018597D03*
X013690Y018597D03*
X013689Y018597D03*
X013687Y018597D03*
X013687Y018597D03*
X013686Y018597D03*
X013684Y018597D03*
X013683Y018597D03*
X013683Y018597D03*
X013681Y018597D03*
X013680Y018597D03*
X013679Y018597D03*
X013679Y018597D03*
X013677Y018597D03*
X013676Y018597D03*
X013675Y018597D03*
X013674Y018597D03*
X013673Y018597D03*
X013672Y018597D03*
X013671Y018597D03*
X013670Y018597D03*
X013669Y018597D03*
X013667Y018597D03*
X013667Y018597D03*
X013666Y018597D03*
X013664Y018597D03*
X013663Y018597D03*
X013663Y018597D03*
X013661Y018597D03*
X013660Y018597D03*
X013659Y018597D03*
X013659Y018597D03*
X013657Y018597D03*
X013656Y018597D03*
X013655Y018597D03*
X013654Y018597D03*
X013653Y018597D03*
X013652Y018597D03*
X013651Y018597D03*
X013650Y018597D03*
X013649Y018597D03*
X013647Y018597D03*
X013647Y018597D03*
X013646Y018597D03*
X013644Y018597D03*
X013643Y018597D03*
X013643Y018597D03*
X013641Y018597D03*
X013640Y018597D03*
X013639Y018597D03*
X013639Y018597D03*
X013637Y018597D03*
X013636Y018597D03*
X013635Y018597D03*
X013634Y018597D03*
X013633Y018597D03*
X013632Y018597D03*
X013631Y018597D03*
X013630Y018597D03*
X013629Y018597D03*
X013627Y018597D03*
X013627Y018597D03*
X013626Y018597D03*
X013624Y018597D03*
X013623Y018597D03*
X013623Y018597D03*
X013621Y018597D03*
X013620Y018597D03*
X013619Y018597D03*
X013619Y018597D03*
X013617Y018597D03*
X013616Y018597D03*
X013615Y018597D03*
X013614Y018597D03*
X013613Y018597D03*
X013612Y018597D03*
X013611Y018597D03*
X013610Y018597D03*
X013609Y018597D03*
X013607Y018597D03*
X013607Y018597D03*
X013606Y018597D03*
X013604Y018597D03*
X013603Y018597D03*
X013603Y018597D03*
X013601Y018597D03*
X013600Y018597D03*
X013599Y018597D03*
X013599Y018597D03*
X013597Y018597D03*
X013596Y018597D03*
X013595Y018597D03*
X013594Y018597D03*
X013593Y018597D03*
X013592Y018597D03*
X013591Y018597D03*
X013590Y018597D03*
X013589Y018597D03*
X013587Y018597D03*
X013587Y018597D03*
X013586Y018597D03*
X013584Y018597D03*
X013583Y018597D03*
X013583Y018597D03*
X013581Y018597D03*
X013580Y018597D03*
X013579Y018597D03*
X013579Y018597D03*
X013577Y018597D03*
X013576Y018597D03*
X013575Y018597D03*
X013574Y018597D03*
X013573Y018597D03*
X013572Y018597D03*
X013571Y018597D03*
X013570Y018597D03*
X013569Y018597D03*
X013567Y018597D03*
X013567Y018597D03*
X013566Y018597D03*
X013564Y018597D03*
X013563Y018597D03*
X013563Y018597D03*
X013561Y018597D03*
X013560Y018597D03*
X013559Y018597D03*
X013559Y018597D03*
X013557Y018597D03*
X013556Y018597D03*
X013555Y018597D03*
X013554Y018597D03*
X013553Y018597D03*
X013552Y018597D03*
X013551Y018597D03*
D600*
X013551Y019484D03*
X013552Y019484D03*
X013553Y019484D03*
X013554Y019484D03*
X013555Y019484D03*
X013556Y019484D03*
X013557Y019484D03*
X013559Y019484D03*
X013559Y019484D03*
X013560Y019484D03*
X013561Y019484D03*
X013563Y019484D03*
X013563Y019484D03*
X013564Y019484D03*
X013566Y019484D03*
X013567Y019484D03*
X013567Y019484D03*
X013569Y019484D03*
X013570Y019484D03*
X013571Y019484D03*
X013572Y019484D03*
X013573Y019484D03*
X013574Y019484D03*
X013575Y019484D03*
X013576Y019484D03*
X013577Y019484D03*
X013579Y019484D03*
X013579Y019484D03*
X013580Y019484D03*
X013581Y019484D03*
X013583Y019484D03*
X013583Y019484D03*
X013584Y019484D03*
X013586Y019484D03*
X013587Y019484D03*
X013587Y019484D03*
X013589Y019484D03*
X013590Y019484D03*
X013591Y019484D03*
X013592Y019484D03*
X013593Y019484D03*
X013594Y019484D03*
X013595Y019484D03*
X013596Y019484D03*
X013597Y019484D03*
X013599Y019484D03*
X013599Y019484D03*
X013600Y019484D03*
X013601Y019484D03*
X013603Y019484D03*
X013603Y019484D03*
X013604Y019484D03*
X013606Y019484D03*
X013607Y019484D03*
X013607Y019484D03*
X013609Y019484D03*
X013610Y019484D03*
X013611Y019484D03*
X013612Y019484D03*
X013613Y019484D03*
X013614Y019484D03*
X013615Y019484D03*
X013616Y019484D03*
X013617Y019484D03*
X013619Y019484D03*
X013619Y019484D03*
X013620Y019484D03*
X013621Y019484D03*
X013623Y019484D03*
X013623Y019484D03*
X013624Y019484D03*
X013626Y019484D03*
X013627Y019484D03*
X013627Y019484D03*
X013629Y019484D03*
X013630Y019484D03*
X013631Y019484D03*
X013632Y019484D03*
X013633Y019484D03*
X013634Y019484D03*
X013635Y019484D03*
X013636Y019484D03*
X013637Y019484D03*
X013639Y019484D03*
X013639Y019484D03*
X013640Y019484D03*
X013641Y019484D03*
X013643Y019484D03*
X013643Y019484D03*
X013644Y019484D03*
X013646Y019484D03*
X013647Y019484D03*
X013647Y019484D03*
X013649Y019484D03*
X013650Y019484D03*
X013651Y019484D03*
X013652Y019484D03*
X013653Y019484D03*
X013654Y019484D03*
X013655Y019484D03*
X013656Y019484D03*
X013657Y019484D03*
X013659Y019484D03*
X013659Y019484D03*
X013660Y019484D03*
X013661Y019484D03*
X013663Y019484D03*
X013663Y019484D03*
X013664Y019484D03*
X013666Y019484D03*
X013667Y019484D03*
X013667Y019484D03*
X013669Y019484D03*
X013670Y019484D03*
X013671Y019484D03*
X013672Y019484D03*
X013673Y019484D03*
X013674Y019484D03*
X013675Y019484D03*
X013676Y019484D03*
X013677Y019484D03*
X013679Y019484D03*
X013679Y019484D03*
X013680Y019484D03*
X013681Y019484D03*
X013683Y019484D03*
X013683Y019484D03*
X013684Y019484D03*
X013686Y019484D03*
X013687Y019484D03*
X013687Y019484D03*
X013689Y019484D03*
X013690Y019484D03*
X013691Y019484D03*
X013692Y019484D03*
X013693Y019484D03*
X013694Y019484D03*
X013695Y019484D03*
X013696Y019484D03*
X013697Y019484D03*
X013699Y019484D03*
X013699Y019484D03*
X013700Y019484D03*
X013701Y019484D03*
X013703Y019484D03*
X013703Y019484D03*
X013704Y019484D03*
X013706Y019484D03*
X013707Y019484D03*
X013707Y019484D03*
X013709Y019484D03*
X013710Y019484D03*
X013711Y019484D03*
X013712Y019484D03*
X013713Y019484D03*
X013714Y019484D03*
X013715Y019484D03*
X013716Y019484D03*
X013717Y019484D03*
X013719Y019484D03*
X013719Y019484D03*
X013720Y019484D03*
X013721Y019484D03*
X013723Y019484D03*
X013723Y019484D03*
X013724Y019484D03*
X013726Y019484D03*
X013727Y019484D03*
X013727Y019484D03*
X013729Y019484D03*
X013730Y019484D03*
X013731Y019484D03*
X013732Y019484D03*
X013733Y019484D03*
X013734Y019484D03*
X013735Y019484D03*
X013736Y019484D03*
X013737Y019484D03*
X013739Y019484D03*
X013739Y019484D03*
X013740Y019484D03*
X013741Y019484D03*
X013743Y019484D03*
X013743Y019484D03*
X013744Y019484D03*
X013746Y019484D03*
X013747Y019484D03*
X013747Y019484D03*
X013749Y019484D03*
X013750Y019484D03*
X013751Y019484D03*
X013752Y019484D03*
X013753Y019484D03*
X013754Y019484D03*
X013755Y019484D03*
D601*
X013755Y018597D03*
X013751Y018597D03*
X013748Y018597D03*
X013745Y018597D03*
X013742Y018597D03*
X013738Y018597D03*
X013735Y018597D03*
X013731Y018597D03*
X013728Y018597D03*
X013725Y018597D03*
X013722Y018597D03*
X013718Y018597D03*
X013715Y018597D03*
X013711Y018597D03*
X013708Y018597D03*
X013705Y018597D03*
X013702Y018597D03*
X013698Y018597D03*
X013695Y018597D03*
X013691Y018597D03*
X013688Y018597D03*
X013685Y018597D03*
X013682Y018597D03*
X013678Y018597D03*
X013675Y018597D03*
X013671Y018597D03*
X013668Y018597D03*
X013665Y018597D03*
X013662Y018597D03*
X013658Y018597D03*
X013655Y018597D03*
X013651Y018597D03*
X013648Y018597D03*
X013645Y018597D03*
X013642Y018597D03*
X013638Y018597D03*
X013635Y018597D03*
X013631Y018597D03*
X013628Y018597D03*
X013625Y018597D03*
X013622Y018597D03*
X013618Y018597D03*
X013615Y018597D03*
X013611Y018597D03*
X013608Y018597D03*
X013605Y018597D03*
X013602Y018597D03*
X013598Y018597D03*
X013595Y018597D03*
X013591Y018597D03*
X013588Y018597D03*
X013585Y018597D03*
X013582Y018597D03*
X013578Y018597D03*
X013575Y018597D03*
X013571Y018597D03*
X013568Y018597D03*
X013565Y018597D03*
X013562Y018597D03*
X013558Y018597D03*
X013555Y018597D03*
X013551Y018597D03*
D602*
X013551Y019484D03*
X013555Y019484D03*
X013558Y019484D03*
X013562Y019484D03*
X013565Y019484D03*
X013568Y019484D03*
X013571Y019484D03*
X013575Y019484D03*
X013578Y019484D03*
X013582Y019484D03*
X013585Y019484D03*
X013588Y019484D03*
X013591Y019484D03*
X013595Y019484D03*
X013598Y019484D03*
X013602Y019484D03*
X013605Y019484D03*
X013608Y019484D03*
X013611Y019484D03*
X013615Y019484D03*
X013618Y019484D03*
X013622Y019484D03*
X013625Y019484D03*
X013628Y019484D03*
X013631Y019484D03*
X013635Y019484D03*
X013638Y019484D03*
X013642Y019484D03*
X013645Y019484D03*
X013648Y019484D03*
X013651Y019484D03*
X013655Y019484D03*
X013658Y019484D03*
X013662Y019484D03*
X013665Y019484D03*
X013668Y019484D03*
X013671Y019484D03*
X013675Y019484D03*
X013678Y019484D03*
X013682Y019484D03*
X013685Y019484D03*
X013688Y019484D03*
X013691Y019484D03*
X013695Y019484D03*
X013698Y019484D03*
X013702Y019484D03*
X013705Y019484D03*
X013708Y019484D03*
X013711Y019484D03*
X013715Y019484D03*
X013718Y019484D03*
X013722Y019484D03*
X013725Y019484D03*
X013728Y019484D03*
X013731Y019484D03*
X013735Y019484D03*
X013738Y019484D03*
X013742Y019484D03*
X013745Y019484D03*
X013748Y019484D03*
X013751Y019484D03*
X013755Y019484D03*
D603*
X013491Y019034D03*
D604*
X013491Y019034D03*
D605*
X013490Y019034D03*
X013489Y019034D03*
X013487Y019034D03*
X013487Y019034D03*
X013486Y019034D03*
D606*
X013485Y019034D03*
X013488Y019034D03*
D607*
X013484Y019035D03*
D608*
X013483Y019034D03*
X013483Y019034D03*
X013481Y019034D03*
X013480Y019034D03*
D609*
X013482Y019034D03*
D610*
X013479Y019035D03*
X013479Y019035D03*
D611*
X013478Y019034D03*
D612*
X013477Y019034D03*
X013476Y019034D03*
X013475Y019034D03*
D613*
X013475Y019035D03*
D614*
X013474Y019035D03*
D615*
X013473Y019034D03*
X013472Y019034D03*
D616*
X013471Y019034D03*
D617*
X013471Y019035D03*
X013470Y019035D03*
D618*
X013469Y019034D03*
X013467Y019034D03*
D619*
X013468Y019034D03*
D620*
X013467Y019035D03*
X013466Y019035D03*
D621*
X013465Y019034D03*
D622*
X013464Y019034D03*
X013463Y019034D03*
D623*
X013463Y019035D03*
D624*
X013462Y019034D03*
D625*
X013461Y019034D03*
X013460Y019034D03*
X013459Y019034D03*
D626*
X013459Y019034D03*
X013457Y019034D03*
X013456Y019034D03*
D627*
X013458Y019034D03*
D628*
X013455Y019034D03*
X013454Y019034D03*
X013453Y019034D03*
D629*
X013455Y019034D03*
D630*
X013452Y019034D03*
X013451Y019034D03*
X013450Y019034D03*
D631*
X013451Y019034D03*
D632*
X013449Y019034D03*
X013447Y019034D03*
X013447Y019034D03*
D633*
X013448Y019034D03*
D634*
X013446Y019034D03*
X013444Y019034D03*
D635*
X013445Y019034D03*
D636*
X013443Y019034D03*
D637*
X013443Y019034D03*
D638*
X013442Y019034D03*
D639*
X013441Y019034D03*
D640*
X013440Y019034D03*
X013439Y019034D03*
X013439Y019034D03*
D641*
X013438Y019034D03*
D642*
X013437Y019034D03*
X013436Y019034D03*
D643*
X013435Y019034D03*
D644*
X013435Y019034D03*
D645*
X013434Y019034D03*
D646*
X013433Y019034D03*
D647*
X013432Y019034D03*
D648*
X013431Y019034D03*
D649*
X013431Y019034D03*
D650*
X013430Y019034D03*
D651*
X013429Y019034D03*
D652*
X013428Y019034D03*
D653*
X013427Y019034D03*
D654*
X013427Y019034D03*
D655*
X013426Y019034D03*
D656*
X013425Y019034D03*
D657*
X013424Y019034D03*
D658*
X013423Y019034D03*
D659*
X013423Y019034D03*
D660*
X013422Y019034D03*
D661*
X013421Y019034D03*
D662*
X013420Y019034D03*
D663*
X013419Y019034D03*
D664*
X013419Y019034D03*
D665*
X013418Y019034D03*
D666*
X013417Y019034D03*
D667*
X013416Y019034D03*
D668*
X013415Y019034D03*
D669*
X013415Y019034D03*
D670*
X013414Y019034D03*
D671*
X013413Y019034D03*
D672*
X013412Y019034D03*
D673*
X013411Y019034D03*
D674*
X013411Y019034D03*
D675*
X013410Y019034D03*
D676*
X013409Y019034D03*
D677*
X013408Y019034D03*
D678*
X013407Y019034D03*
D679*
X013407Y019034D03*
D680*
X013406Y019034D03*
D681*
X013405Y019034D03*
D682*
X013404Y019034D03*
D683*
X013403Y019034D03*
D684*
X013403Y019034D03*
D685*
X013402Y019034D03*
D686*
X013401Y019034D03*
D687*
X013400Y019034D03*
D688*
X013399Y019034D03*
D689*
X013399Y019034D03*
D690*
X013398Y019034D03*
D691*
X013397Y019034D03*
D692*
X013396Y019034D03*
D693*
X013395Y019034D03*
D694*
X013395Y019034D03*
D695*
X013394Y019034D03*
D696*
X013393Y019034D03*
D697*
X013392Y019034D03*
D698*
X013391Y019034D03*
D699*
X013391Y019034D03*
D700*
X013390Y019034D03*
D701*
X013389Y019034D03*
D702*
X013388Y019034D03*
D703*
X013387Y019034D03*
D704*
X013387Y019034D03*
D705*
X013386Y019034D03*
D706*
X013385Y019034D03*
D707*
X013384Y019034D03*
D708*
X013383Y019034D03*
D709*
X013383Y019034D03*
D710*
X013382Y019034D03*
D711*
X013381Y019034D03*
D712*
X013380Y019034D03*
D713*
X013379Y019034D03*
D714*
X013379Y019034D03*
D715*
X013378Y019034D03*
D716*
X013377Y019034D03*
D717*
X013376Y019034D03*
D718*
X013375Y019034D03*
D719*
X013375Y019034D03*
D720*
X013374Y019034D03*
D721*
X013373Y019034D03*
D722*
X013372Y019034D03*
D723*
X013371Y019034D03*
D724*
X013371Y019034D03*
D725*
X013370Y019034D03*
D726*
X013369Y019034D03*
D727*
X013368Y019034D03*
D728*
X013367Y019034D03*
D729*
X013367Y019034D03*
D730*
X013366Y019034D03*
D731*
X013365Y019034D03*
D732*
X013364Y019034D03*
D733*
X013363Y019034D03*
D734*
X013363Y019034D03*
D735*
X013362Y019034D03*
D736*
X013361Y019034D03*
D737*
X013360Y019034D03*
D738*
X013359Y019034D03*
D739*
X013359Y019034D03*
D740*
X013358Y019034D03*
D741*
X013357Y019034D03*
D742*
X013356Y019034D03*
D743*
X013355Y019034D03*
D744*
X013355Y019034D03*
D745*
X013354Y019034D03*
D746*
X013353Y019034D03*
D747*
X013352Y019034D03*
D748*
X013351Y019034D03*
D749*
X013351Y019034D03*
D750*
X013350Y019034D03*
D751*
X013349Y019034D03*
D752*
X013348Y019034D03*
D753*
X013347Y019034D03*
D754*
X013347Y019034D03*
D755*
X013346Y019034D03*
D756*
X013345Y019034D03*
D757*
X013344Y019034D03*
D758*
X013343Y019034D03*
D759*
X013343Y019034D03*
D760*
X013342Y019034D03*
D761*
X013341Y019034D03*
D762*
X013340Y019034D03*
D763*
X013339Y019034D03*
D764*
X013339Y019034D03*
D765*
X013338Y019034D03*
D766*
X013337Y019034D03*
D767*
X013336Y019034D03*
D768*
X013335Y019034D03*
D769*
X013335Y019034D03*
D770*
X013334Y019034D03*
D771*
X013333Y019034D03*
D772*
X013332Y019034D03*
D773*
X013331Y019034D03*
D774*
X013331Y019034D03*
D775*
X013330Y019034D03*
D776*
X013329Y019034D03*
D777*
X013328Y019034D03*
D778*
X013327Y019034D03*
D779*
X013327Y019034D03*
D780*
X013326Y019034D03*
D781*
X013325Y019034D03*
D782*
X013324Y019034D03*
D783*
X013323Y019034D03*
D784*
X013323Y019034D03*
D785*
X013322Y019034D03*
D786*
X013321Y019034D03*
D787*
X013320Y019034D03*
D788*
X013319Y019034D03*
D789*
X013319Y019034D03*
D790*
X013318Y019034D03*
D791*
X013317Y019034D03*
D792*
X013316Y019034D03*
D793*
X013315Y019034D03*
D794*
X013315Y019034D03*
D795*
X013314Y019034D03*
D796*
X013313Y019034D03*
D797*
X013312Y019034D03*
D798*
X013311Y019034D03*
D799*
X013311Y019034D03*
D800*
X013310Y019034D03*
D801*
X013309Y019034D03*
D802*
X013308Y019034D03*
D803*
X013307Y019034D03*
D804*
X013307Y019034D03*
D805*
X013306Y019034D03*
D806*
X013305Y019034D03*
D807*
X013304Y019034D03*
D808*
X013303Y019034D03*
D809*
X013303Y019034D03*
D810*
X013302Y019034D03*
D811*
X013301Y019034D03*
D812*
X013300Y019034D03*
D813*
X013299Y019034D03*
D814*
X013299Y019034D03*
D815*
X013298Y019034D03*
D816*
X013297Y019034D03*
D817*
X013296Y019034D03*
D818*
X013295Y019034D03*
D819*
X013295Y019034D03*
D820*
X013294Y019034D03*
D821*
X013293Y019034D03*
D822*
X013292Y019034D03*
D823*
X013291Y019034D03*
D824*
X013291Y019034D03*
D825*
X013290Y019034D03*
D826*
X013289Y019034D03*
D827*
X013288Y019034D03*
D828*
X013287Y019034D03*
D829*
X013287Y019034D03*
D830*
X013286Y019034D03*
D831*
X013285Y019034D03*
D832*
X013284Y019034D03*
D833*
X013283Y019034D03*
D834*
X013283Y019034D03*
D835*
X013282Y019034D03*
D836*
X013281Y019034D03*
D837*
X013280Y019034D03*
D838*
X013279Y019034D03*
D839*
X013279Y019034D03*
D840*
X013278Y019034D03*
D841*
X013277Y019034D03*
D842*
X013276Y019034D03*
D843*
X013275Y019034D03*
D844*
X013275Y019034D03*
D845*
X013274Y019034D03*
D846*
X013273Y019034D03*
D847*
X013272Y019034D03*
D848*
X013271Y019034D03*
D849*
X013271Y019034D03*
D850*
X013270Y019034D03*
D851*
X013269Y019034D03*
D852*
X013268Y019034D03*
D853*
X013267Y019034D03*
D854*
X013267Y019034D03*
D855*
X013266Y019034D03*
D856*
X013265Y019034D03*
D857*
X013264Y019034D03*
D858*
X013263Y019034D03*
D859*
X013263Y019034D03*
D860*
X013262Y019034D03*
D861*
X013261Y019034D03*
D862*
X013260Y019034D03*
D863*
X013259Y019034D03*
D864*
X013259Y019034D03*
D865*
X013258Y019034D03*
D866*
X013257Y019034D03*
D867*
X013256Y019034D03*
D868*
X013255Y019034D03*
D869*
X013255Y019034D03*
D870*
X013254Y019034D03*
D871*
X013253Y019034D03*
D872*
X013252Y019034D03*
D873*
X013251Y019034D03*
D874*
X013251Y019034D03*
D875*
X013250Y019034D03*
D876*
X013249Y019034D03*
D877*
X013248Y019034D03*
D878*
X013247Y019034D03*
D879*
X013247Y019034D03*
D880*
X013246Y019034D03*
D881*
X013245Y019034D03*
D882*
X013244Y019034D03*
D883*
X013243Y019034D03*
D884*
X013243Y019034D03*
D885*
X013242Y019034D03*
D886*
X013241Y019034D03*
D887*
X013240Y019034D03*
D888*
X013239Y019034D03*
D889*
X013239Y019034D03*
D890*
X013238Y019034D03*
D891*
X013237Y019034D03*
D892*
X013236Y019034D03*
D893*
X013235Y019034D03*
D894*
X013235Y019034D03*
D895*
X013234Y019034D03*
D896*
X013233Y019034D03*
D897*
X013232Y019034D03*
D898*
X013231Y019034D03*
D899*
X013231Y019034D03*
D900*
X013230Y019034D03*
D901*
X013229Y019034D03*
D902*
X013228Y019034D03*
D903*
X013227Y019034D03*
D904*
X013227Y019034D03*
D905*
X013226Y019034D03*
D906*
X013225Y019034D03*
D907*
X013224Y019034D03*
D908*
X013223Y019034D03*
D909*
X013223Y019034D03*
D910*
X013222Y019034D03*
D911*
X013221Y019034D03*
D912*
X013220Y019034D03*
D913*
X013219Y019034D03*
D914*
X013219Y019034D03*
D915*
X013218Y019034D03*
D916*
X013217Y019034D03*
D917*
X013216Y019034D03*
D918*
X013215Y019034D03*
D919*
X013215Y019034D03*
D920*
X013214Y019034D03*
D921*
X013213Y019034D03*
D922*
X013212Y019034D03*
D923*
X013211Y019034D03*
D924*
X013211Y019034D03*
D925*
X013210Y019034D03*
D926*
X013209Y019034D03*
D927*
X013208Y019034D03*
D928*
X013207Y019034D03*
D929*
X013207Y019034D03*
D930*
X013206Y019034D03*
D931*
X013205Y019034D03*
D932*
X013204Y019034D03*
D933*
X013203Y019034D03*
D934*
X013203Y019034D03*
D935*
X013202Y019034D03*
D936*
X013201Y019034D03*
D937*
X013200Y019034D03*
D938*
X013199Y019034D03*
D939*
X013199Y019034D03*
D940*
X013198Y019034D03*
D941*
X013197Y019034D03*
D942*
X013196Y019034D03*
D943*
X013195Y019034D03*
D944*
X013195Y019033D03*
D945*
X013194Y019033D03*
D946*
X013193Y019033D03*
D947*
X013192Y019033D03*
D948*
X013191Y019033D03*
D949*
X013191Y019033D03*
D950*
X013190Y019033D03*
D951*
X013189Y019033D03*
D952*
X013188Y019033D03*
D953*
X013187Y019033D03*
D954*
X014873Y018229D02*
X014873Y018229D01*
X014873Y018229D01*
X014873Y018228D01*
X014874Y018228D01*
X014874Y018229D01*
X014873Y018229D01*
X014873Y018228D02*
X014874Y018228D01*
X014873Y018227D02*
X014874Y018227D01*
X014874Y018226D02*
X014873Y018226D01*
X014873Y018226D01*
X014873Y018226D01*
X014873Y018225D01*
X014873Y018224D02*
X014874Y018224D01*
X014874Y018224D01*
X014873Y018224D01*
X014873Y018224D01*
X014873Y018224D01*
X014874Y018224D01*
X014874Y018223D01*
X014873Y018223D01*
X014873Y018223D01*
X014873Y018223D01*
X014873Y018224D01*
X014873Y018224D01*
X014874Y018225D02*
X014874Y018226D01*
X014873Y018226D01*
X014873Y018227D01*
X014873Y018227D01*
X014873Y018227D01*
X014873Y018228D01*
X014872Y018225D02*
X014874Y018225D01*
X014874Y018222D02*
X014873Y018222D01*
X014873Y018222D01*
X014873Y018221D01*
X014873Y018221D01*
X014873Y018221D01*
X014873Y018221D01*
X014873Y018220D01*
X014873Y018220D01*
X014873Y018220D01*
X014874Y018220D01*
X014874Y018221D01*
X014873Y018221D01*
X014874Y018222D01*
X014874Y018222D01*
X014874Y018222D01*
X014874Y018222D01*
X014874Y018219D02*
X014874Y018219D01*
X014872Y018219D01*
X014872Y018219D01*
X014874Y018217D02*
X014874Y018218D01*
X014874Y018217D02*
X014874Y018216D01*
X014874Y018215D01*
X014873Y018215D01*
X014873Y018216D01*
X014874Y018216D01*
X014873Y018217D02*
X014874Y018217D01*
X014873Y018216D02*
X014873Y018217D01*
X014872Y018217D02*
X014872Y018217D01*
X014873Y018216D02*
X014873Y018216D01*
X014873Y018215D01*
X014873Y018215D01*
X014872Y018214D02*
X014874Y018213D01*
X014873Y018213D01*
X014873Y018213D01*
X014873Y018213D01*
X014873Y018212D01*
X014873Y018212D01*
X014873Y018212D01*
X014874Y018212D01*
X014874Y018213D01*
X014874Y018212D02*
X014874Y018211D01*
X014873Y018210D01*
X014873Y018209D01*
X014873Y018209D01*
X014873Y018209D01*
X014873Y018210D01*
X014873Y018210D01*
X014873Y018210D01*
X014873Y018211D01*
X014873Y018212D01*
X014874Y018210D02*
X014873Y018210D01*
X014874Y018209D02*
X014874Y018210D01*
X014874Y018209D02*
X014874Y018208D01*
X014873Y018208D01*
X014873Y018208D01*
X014874Y018207D01*
X014873Y018207D02*
X014874Y018208D01*
X014872Y018208D02*
X014872Y018208D01*
X014872Y018206D02*
X014874Y018205D01*
X014874Y018204D02*
X014874Y018204D01*
X014873Y018204D01*
X014873Y018204D01*
X014873Y018204D01*
X014873Y018204D01*
X014873Y018205D01*
X014873Y018205D01*
X014873Y018204D01*
X014873Y018203D02*
X014874Y018203D01*
X014873Y018203D01*
X014873Y018203D01*
X014873Y018203D01*
X014873Y018202D01*
X014873Y018201D01*
X014873Y018201D01*
X014873Y018201D01*
X014873Y018201D01*
X014874Y018201D01*
X014874Y018201D01*
X014873Y018202D01*
X014873Y018202D01*
X014873Y018202D01*
X014874Y018202D01*
X014873Y018200D02*
X014874Y018200D01*
X014874Y018199D02*
X014872Y018199D01*
X014874Y018198D01*
X014873Y018199D02*
X014873Y018199D01*
X014873Y018200D01*
X014873Y018200D01*
D955*
X014747Y009747D03*
M02*
