%
M48
M72
T01C0.0200
T02C0.0276
T03C0.0300
T04C0.0315
T05C0.0320
T06C0.0354
T07C0.0394
T08C0.0400
T09C0.0500
T10C0.0787
T11C0.1000
%
T01
X7997Y5797
X14247Y12547
T02
X23447Y5147
X24447Y5147
T03
X16747Y4147
X16747Y3147
X16747Y2147
X16747Y1147
X13747Y1147
X13747Y2147
X13747Y3147
X13747Y4147
X8497Y4247
X7997Y4247
X7497Y4247
X6997Y4247
X20997Y25247
X21497Y25247
X21997Y25247
X22497Y25247
T04
X15534Y28047
X13960Y28047
T05
X5347Y4647
X5347Y5647
X24047Y23847
X24047Y24847
T06
X11547Y23947
X11447Y21347
X11447Y17347
X11447Y12447
X11447Y8447
X18047Y8447
X18047Y12447
X11547Y27947
T07
X9347Y25347
X8347Y26347
X7347Y25347
T08
X13747Y10747
X14747Y10747
X15747Y10747
X15467Y7437
X14027Y7437
X14027Y5657
X15467Y5657
X18027Y5657
X18247Y4097
X19247Y4097
X19247Y3097
X18247Y3097
X20247Y3097
X20247Y4097
X18027Y7437
X11897Y3347
X11897Y2347
X10447Y2347
X10447Y3347
X11467Y5657
X11467Y7437
X27247Y9247
X27247Y12247
X28541Y14058
X28541Y15436
T09
X22247Y22227
X7247Y22227
X7247Y7267
X22247Y7267
T10
X19097Y7267
X10397Y22227
T11
X2830Y22584
X12778Y14747
X16715Y14747
X26664Y22584
M30
