G75*
%MOIN*%
%OFA0B0*%
%FSLAX24Y24*%
%IPPOS*%
%LPD*%
%AMOC8*
5,1,8,0,0,1.08239X$1,22.5*
%
%ADD10C,0.0500*%
%ADD11C,0.0660*%
%ADD12C,0.0740*%
%ADD13C,0.0800*%
%ADD14R,0.0800X0.0800*%
%ADD15R,0.0740X0.0740*%
%ADD16C,0.0650*%
%ADD17C,0.0350*%
%ADD18C,0.0600*%
%ADD19C,0.1650*%
%ADD20C,0.0080*%
%ADD21C,0.0160*%
%ADD22C,0.0400*%
D10*
X013497Y001147D02*
X013997Y001147D01*
X013997Y002147D02*
X013497Y002147D01*
X013497Y003147D02*
X013997Y003147D01*
X013997Y004147D02*
X013497Y004147D01*
X016497Y004147D02*
X016997Y004147D01*
X016997Y003147D02*
X016497Y003147D01*
X016497Y002147D02*
X016997Y002147D01*
X016997Y001147D02*
X016497Y001147D01*
D11*
X005347Y004647D03*
X005347Y005647D03*
X024047Y023847D03*
X024047Y024847D03*
X015534Y028047D03*
X013960Y028047D03*
D12*
X011547Y027947D03*
X009347Y025347D03*
X008347Y026347D03*
X007347Y025347D03*
X011547Y023947D03*
X011447Y021347D03*
X011447Y017347D03*
X011447Y012447D03*
X011447Y008447D03*
X011467Y007437D03*
X011467Y005657D03*
X011897Y003347D03*
X010447Y003347D03*
X014027Y005657D03*
X015467Y005657D03*
X015467Y007437D03*
X014027Y007437D03*
X018027Y007437D03*
X018047Y008447D03*
X018027Y005657D03*
X018247Y004097D03*
X019247Y004097D03*
X019247Y003097D03*
X020247Y003097D03*
X020247Y004097D03*
X018047Y012447D03*
D13*
X022247Y007267D03*
X027247Y009247D03*
X027247Y012247D03*
X028541Y015436D03*
X022247Y022227D03*
X007247Y022227D03*
X007247Y007267D03*
D14*
X028541Y014058D03*
D15*
X018247Y003097D03*
X011897Y002347D03*
X010447Y002347D03*
D16*
X023447Y005147D03*
X024447Y005147D03*
D17*
X008497Y004422D02*
X008497Y004072D01*
X007997Y004072D02*
X007997Y004422D01*
X007497Y004422D02*
X007497Y004072D01*
X006997Y004072D02*
X006997Y004422D01*
X020997Y025072D02*
X020997Y025422D01*
X021497Y025422D02*
X021497Y025072D01*
X021997Y025072D02*
X021997Y025422D01*
X022497Y025422D02*
X022497Y025072D01*
D18*
X015747Y011047D02*
X015747Y010447D01*
X014747Y010447D02*
X014747Y011047D01*
X013747Y011047D02*
X013747Y010447D01*
D19*
X012778Y014747D03*
X016715Y014747D03*
X026664Y022584D03*
X002830Y022584D03*
D20*
X003516Y022989D02*
X002143Y022989D01*
X002117Y022947D02*
X002069Y022831D01*
X002039Y022709D01*
X002030Y022584D01*
X002040Y022454D01*
X002071Y022328D01*
X002123Y022209D01*
X002193Y022099D01*
X002279Y022003D01*
X002381Y021921D01*
X002494Y021857D01*
X002616Y021813D01*
X002743Y021788D01*
X002873Y021785D01*
X003002Y021802D01*
X003126Y021840D01*
X003242Y021898D01*
X003348Y021974D01*
X003439Y022066D01*
X003515Y022171D01*
X003573Y022287D01*
X003611Y022412D01*
X003628Y022540D01*
X003625Y022670D01*
X003600Y022798D01*
X003556Y022919D01*
X003492Y023032D01*
X003410Y023134D01*
X003314Y023220D01*
X003204Y023290D01*
X003085Y023342D01*
X002959Y023373D01*
X002830Y023384D01*
X002704Y023374D01*
X002582Y023344D01*
X002466Y023296D01*
X002359Y023231D01*
X002264Y023149D01*
X002182Y023054D01*
X002117Y022947D01*
X002102Y022911D02*
X003559Y022911D01*
X003588Y022832D02*
X002069Y022832D01*
X002050Y022754D02*
X003609Y022754D01*
X003624Y022675D02*
X002037Y022675D01*
X002031Y022597D02*
X003627Y022597D01*
X003625Y022518D02*
X002035Y022518D01*
X002044Y022440D02*
X003615Y022440D01*
X003596Y022361D02*
X002063Y022361D01*
X002091Y022283D02*
X003571Y022283D01*
X003532Y022204D02*
X002126Y022204D01*
X002176Y022126D02*
X003483Y022126D01*
X003421Y022047D02*
X002239Y022047D01*
X002321Y021969D02*
X003341Y021969D01*
X003227Y021890D02*
X002435Y021890D01*
X002620Y021812D02*
X003033Y021812D01*
X003463Y023068D02*
X002195Y023068D01*
X002262Y023146D02*
X003396Y023146D01*
X003307Y023225D02*
X002353Y023225D01*
X002484Y023303D02*
X003174Y023303D01*
X002849Y023382D02*
X002809Y023382D01*
X012066Y015110D02*
X012018Y014994D01*
X011988Y014872D01*
X011978Y014747D01*
X013576Y014747D01*
X013577Y014704D02*
X013574Y014833D01*
X013549Y014961D01*
X013504Y015083D01*
X013441Y015196D01*
X013359Y015297D01*
X013263Y015384D01*
X013153Y015454D01*
X013034Y015505D01*
X012908Y015536D01*
X012778Y015547D01*
X012653Y015537D01*
X012531Y015508D01*
X012415Y015460D01*
X012308Y015394D01*
X012213Y015313D01*
X012131Y015217D01*
X012066Y015110D01*
X012084Y015139D02*
X013472Y015139D01*
X013513Y015061D02*
X012045Y015061D01*
X012015Y014982D02*
X013541Y014982D01*
X013560Y014904D02*
X011996Y014904D01*
X011985Y014825D02*
X013574Y014825D01*
X013577Y014704D02*
X013560Y014575D01*
X013522Y014451D01*
X013464Y014334D01*
X013388Y014229D01*
X013296Y014137D01*
X013191Y014061D01*
X013075Y014004D01*
X012950Y013966D01*
X012822Y013948D01*
X012692Y013952D01*
X012564Y013976D01*
X012443Y014021D01*
X012329Y014085D01*
X012228Y014166D01*
X012142Y014263D01*
X012072Y014372D01*
X012020Y014491D01*
X011989Y014618D01*
X011978Y014747D01*
X011985Y014668D02*
X013572Y014668D01*
X013562Y014590D02*
X011996Y014590D01*
X012015Y014511D02*
X013540Y014511D01*
X013513Y014433D02*
X012045Y014433D01*
X012083Y014354D02*
X013474Y014354D01*
X013422Y014276D02*
X012133Y014276D01*
X012200Y014197D02*
X013357Y014197D01*
X013271Y014119D02*
X012287Y014119D01*
X012408Y014040D02*
X013148Y014040D01*
X012923Y013962D02*
X012638Y013962D01*
X012132Y015218D02*
X013423Y015218D01*
X013360Y015296D02*
X012199Y015296D01*
X012286Y015375D02*
X013272Y015375D01*
X013154Y015453D02*
X012405Y015453D01*
X012632Y015532D02*
X012926Y015532D01*
X015925Y014872D02*
X015915Y014747D01*
X017513Y014747D01*
X017514Y014704D02*
X017511Y014833D01*
X017486Y014961D01*
X017441Y015083D01*
X017378Y015196D01*
X017296Y015297D01*
X017200Y015384D01*
X017090Y015454D01*
X016971Y015505D01*
X016845Y015536D01*
X016715Y015547D01*
X016590Y015537D01*
X016468Y015508D01*
X016352Y015460D01*
X016245Y015394D01*
X016150Y015313D01*
X016068Y015217D01*
X016003Y015110D01*
X015955Y014994D01*
X015925Y014872D01*
X015933Y014904D02*
X017497Y014904D01*
X017511Y014825D02*
X015922Y014825D01*
X015915Y014747D02*
X015926Y014618D01*
X015957Y014491D01*
X016009Y014372D01*
X016079Y014263D01*
X016165Y014166D01*
X016266Y014085D01*
X016380Y014021D01*
X016501Y013976D01*
X016629Y013952D01*
X016759Y013948D01*
X016887Y013966D01*
X017012Y014004D01*
X017128Y014061D01*
X017233Y014137D01*
X017325Y014229D01*
X017401Y014334D01*
X017459Y014451D01*
X017497Y014575D01*
X017514Y014704D01*
X017509Y014668D02*
X015922Y014668D01*
X015933Y014590D02*
X017499Y014590D01*
X017477Y014511D02*
X015952Y014511D01*
X015983Y014433D02*
X017450Y014433D01*
X017411Y014354D02*
X016020Y014354D01*
X016070Y014276D02*
X017359Y014276D01*
X017294Y014197D02*
X016137Y014197D01*
X016224Y014119D02*
X017208Y014119D01*
X017086Y014040D02*
X016345Y014040D01*
X016575Y013962D02*
X016860Y013962D01*
X017478Y014982D02*
X015952Y014982D01*
X015982Y015061D02*
X017450Y015061D01*
X017409Y015139D02*
X016021Y015139D01*
X016069Y015218D02*
X017360Y015218D01*
X017297Y015296D02*
X016136Y015296D01*
X016223Y015375D02*
X017209Y015375D01*
X017091Y015453D02*
X016342Y015453D01*
X016569Y015532D02*
X016863Y015532D01*
X025906Y022328D02*
X025875Y022454D01*
X025864Y022584D01*
X025874Y022709D01*
X025903Y022831D01*
X025951Y022947D01*
X026017Y023054D01*
X026099Y023149D01*
X026194Y023231D01*
X026301Y023296D01*
X026417Y023344D01*
X026539Y023374D01*
X026664Y023384D01*
X026794Y023373D01*
X026920Y023342D01*
X027039Y023290D01*
X027148Y023220D01*
X027245Y023134D01*
X027326Y023032D01*
X027390Y022919D01*
X027435Y022798D01*
X027460Y022670D01*
X027463Y022540D01*
X027446Y022412D01*
X027407Y022287D01*
X027350Y022171D01*
X027274Y022066D01*
X027182Y021974D01*
X027077Y021898D01*
X026960Y021840D01*
X026836Y021802D01*
X026708Y021785D01*
X026578Y021788D01*
X026450Y021813D01*
X026328Y021857D01*
X026215Y021921D01*
X026114Y022003D01*
X026027Y022099D01*
X025957Y022209D01*
X025906Y022328D01*
X025898Y022361D02*
X027430Y022361D01*
X027449Y022440D02*
X025878Y022440D01*
X025870Y022518D02*
X027460Y022518D01*
X027462Y022597D02*
X025865Y022597D01*
X025871Y022675D02*
X027459Y022675D01*
X027443Y022754D02*
X025885Y022754D01*
X025904Y022832D02*
X027422Y022832D01*
X027393Y022911D02*
X025937Y022911D01*
X025978Y022989D02*
X027351Y022989D01*
X027298Y023068D02*
X026029Y023068D01*
X026096Y023146D02*
X027231Y023146D01*
X027141Y023225D02*
X026187Y023225D01*
X026318Y023303D02*
X027009Y023303D01*
X026684Y023382D02*
X026644Y023382D01*
X025926Y022283D02*
X027405Y022283D01*
X027366Y022204D02*
X025960Y022204D01*
X026010Y022126D02*
X027317Y022126D01*
X027256Y022047D02*
X026074Y022047D01*
X026156Y021969D02*
X027175Y021969D01*
X027061Y021890D02*
X026270Y021890D01*
X026454Y021812D02*
X026868Y021812D01*
D21*
X004857Y004603D02*
X004605Y004603D01*
X004468Y004730D02*
X003493Y005839D01*
X002636Y007044D01*
X001909Y008330D01*
X001317Y009684D01*
X000867Y011092D01*
X000565Y012538D01*
X000413Y014008D01*
X000413Y015486D01*
X000565Y016956D01*
X000867Y018402D01*
X001317Y019810D01*
X001755Y020812D01*
X001755Y012975D01*
X011293Y012975D01*
X011236Y012957D01*
X011159Y012917D01*
X011089Y012866D01*
X011027Y012805D01*
X010977Y012735D01*
X010937Y012658D01*
X010910Y012576D01*
X010897Y012490D01*
X010897Y012456D01*
X011438Y012456D01*
X011438Y012438D01*
X010897Y012438D01*
X010897Y012404D01*
X010910Y012318D01*
X010937Y012236D01*
X010977Y012159D01*
X011027Y012089D01*
X011029Y012087D01*
X008399Y012087D01*
X008311Y012050D01*
X007861Y011600D01*
X007793Y011533D01*
X007757Y011445D01*
X007757Y007499D01*
X007722Y007584D01*
X007564Y007741D01*
X007358Y007827D01*
X007136Y007827D01*
X006930Y007741D01*
X006772Y007584D01*
X006687Y007378D01*
X006687Y007155D01*
X006772Y006949D01*
X006930Y006792D01*
X007136Y006707D01*
X007358Y006707D01*
X007564Y006792D01*
X007722Y006949D01*
X007757Y007035D01*
X007757Y006066D01*
X007692Y006001D01*
X007645Y005887D01*
X005778Y005887D01*
X005762Y005924D01*
X005624Y006062D01*
X005444Y006137D01*
X005249Y006137D01*
X005069Y006062D01*
X004932Y005924D01*
X004857Y005744D01*
X004857Y005549D01*
X004932Y005369D01*
X005069Y005232D01*
X005249Y005157D01*
X005444Y005157D01*
X005624Y005232D01*
X005762Y005369D01*
X005778Y005407D01*
X007895Y005407D01*
X007967Y005437D01*
X008069Y005437D01*
X008201Y005492D01*
X008302Y005593D01*
X008357Y005725D01*
X008357Y005869D01*
X008302Y006001D01*
X008237Y006066D01*
X008237Y011298D01*
X008546Y011607D01*
X014395Y011607D01*
X014483Y011643D01*
X014550Y011711D01*
X014883Y012043D01*
X014950Y012111D01*
X014987Y012199D01*
X014987Y015548D01*
X015446Y016007D01*
X015568Y016007D01*
X015311Y015750D01*
X015243Y015683D01*
X015207Y015595D01*
X015207Y011746D01*
X014930Y011469D01*
X014838Y011507D01*
X014655Y011507D01*
X014486Y011437D01*
X014357Y011307D01*
X014287Y011138D01*
X014287Y010355D01*
X014357Y010186D01*
X014486Y010057D01*
X014507Y010048D01*
X014507Y007663D01*
X014476Y007737D01*
X014327Y007886D01*
X014132Y007967D01*
X013922Y007967D01*
X013727Y007886D01*
X013578Y007737D01*
X013497Y007542D01*
X013497Y007332D01*
X013578Y007137D01*
X013727Y006988D01*
X013922Y006907D01*
X014132Y006907D01*
X014327Y006988D01*
X014476Y007137D01*
X014507Y007211D01*
X014507Y005883D01*
X014476Y005957D01*
X014327Y006106D01*
X014132Y006187D01*
X013922Y006187D01*
X013727Y006106D01*
X013578Y005957D01*
X013497Y005762D01*
X013497Y005552D01*
X013578Y005357D01*
X013727Y005208D01*
X013922Y005127D01*
X014132Y005127D01*
X014227Y005166D01*
X014148Y005087D01*
X007499Y005087D01*
X007497Y005086D01*
X007495Y005087D01*
X005565Y005087D01*
X005444Y005137D01*
X005249Y005137D01*
X005069Y005062D01*
X004932Y004924D01*
X004857Y004744D01*
X004857Y004549D01*
X004932Y004369D01*
X005069Y004232D01*
X005249Y004157D01*
X005444Y004157D01*
X005624Y004232D01*
X005762Y004369D01*
X005837Y004549D01*
X005837Y004607D01*
X006711Y004607D01*
X006662Y004489D01*
X006662Y004005D01*
X006713Y003882D01*
X006807Y003788D01*
X006930Y003737D01*
X007064Y003737D01*
X007187Y003788D01*
X007247Y003848D01*
X007307Y003788D01*
X007430Y003737D01*
X007564Y003737D01*
X007687Y003788D01*
X007747Y003848D01*
X007807Y003788D01*
X007930Y003737D01*
X008064Y003737D01*
X008187Y003788D01*
X008247Y003848D01*
X008307Y003788D01*
X008430Y003737D01*
X008564Y003737D01*
X008687Y003788D01*
X008781Y003882D01*
X008832Y004005D01*
X008832Y004007D01*
X012148Y004007D01*
X012207Y003948D01*
X012207Y003786D01*
X012197Y003796D01*
X012002Y003877D01*
X011792Y003877D01*
X011597Y003796D01*
X011448Y003647D01*
X011367Y003452D01*
X011367Y003242D01*
X011448Y003047D01*
X011597Y002898D01*
X011647Y002877D01*
X011461Y002877D01*
X011367Y002783D01*
X011367Y001911D01*
X011461Y001817D01*
X012333Y001817D01*
X012427Y001911D01*
X012427Y002783D01*
X012333Y002877D01*
X012147Y002877D01*
X012197Y002898D01*
X012346Y003047D01*
X012394Y003161D01*
X012543Y003011D01*
X012611Y002943D01*
X012699Y002907D01*
X013157Y002907D01*
X013265Y002799D01*
X013415Y002737D01*
X014078Y002737D01*
X014229Y002799D01*
X014345Y002915D01*
X014407Y003065D01*
X014407Y003228D01*
X014345Y003379D01*
X014229Y003495D01*
X014078Y003557D01*
X013415Y003557D01*
X013265Y003495D01*
X013157Y003387D01*
X012846Y003387D01*
X012687Y003546D01*
X012687Y004095D01*
X012650Y004183D01*
X012583Y004250D01*
X012383Y004450D01*
X012295Y004487D01*
X008832Y004487D01*
X008832Y004489D01*
X008783Y004607D01*
X014295Y004607D01*
X014383Y004643D01*
X014450Y004711D01*
X014950Y005211D01*
X014987Y005299D01*
X014987Y005431D01*
X015018Y005357D01*
X015167Y005208D01*
X015207Y005191D01*
X015207Y004387D01*
X014337Y004387D01*
X014229Y004495D01*
X014078Y004557D01*
X013415Y004557D01*
X013265Y004495D01*
X013149Y004379D01*
X013087Y004228D01*
X013087Y004065D01*
X013149Y003915D01*
X013265Y003799D01*
X013415Y003737D01*
X014078Y003737D01*
X014229Y003799D01*
X014337Y003907D01*
X015148Y003907D01*
X015207Y003848D01*
X015207Y001799D01*
X015243Y001711D01*
X015311Y001643D01*
X015511Y001443D01*
X015599Y001407D01*
X016177Y001407D01*
X016149Y001379D01*
X016087Y001228D01*
X016087Y001065D01*
X016149Y000915D01*
X016177Y000887D01*
X016046Y000887D01*
X014583Y002350D01*
X014495Y002387D01*
X014337Y002387D01*
X014229Y002495D01*
X014078Y002557D01*
X013415Y002557D01*
X013265Y002495D01*
X013149Y002379D01*
X013087Y002228D01*
X013087Y002065D01*
X013149Y001915D01*
X013265Y001799D01*
X013415Y001737D01*
X014078Y001737D01*
X014229Y001799D01*
X014337Y001907D01*
X014348Y001907D01*
X015743Y000511D01*
X015802Y000452D01*
X015116Y000399D01*
X013639Y000437D01*
X012174Y000627D01*
X010736Y000966D01*
X009340Y001452D01*
X008001Y002078D01*
X006735Y002839D01*
X005553Y003726D01*
X004468Y004730D01*
X004440Y004761D02*
X004864Y004761D01*
X004930Y004920D02*
X004301Y004920D01*
X004162Y005078D02*
X005108Y005078D01*
X005064Y005237D02*
X004022Y005237D01*
X003883Y005395D02*
X004921Y005395D01*
X004857Y005554D02*
X003744Y005554D01*
X003604Y005712D02*
X004857Y005712D01*
X004909Y005871D02*
X003470Y005871D01*
X003358Y006029D02*
X005036Y006029D01*
X005347Y005647D02*
X007847Y005647D01*
X007997Y005797D01*
X007997Y011397D01*
X008447Y011847D01*
X014347Y011847D01*
X014747Y012247D01*
X014547Y012247D01*
X014247Y012547D01*
X014247Y016047D01*
X014047Y016247D01*
X009647Y016247D01*
X009347Y016547D01*
X009347Y025347D01*
X009877Y025366D02*
X012385Y025366D01*
X012385Y025208D02*
X009863Y025208D01*
X009877Y025242D02*
X009877Y025452D01*
X009796Y025647D01*
X009647Y025796D01*
X009452Y025877D01*
X009242Y025877D01*
X009047Y025796D01*
X008898Y025647D01*
X008817Y025452D01*
X008817Y025242D01*
X008898Y025047D01*
X009047Y024898D01*
X009107Y024873D01*
X009107Y016499D01*
X009143Y016411D01*
X009511Y016043D01*
X009599Y016007D01*
X013948Y016007D01*
X014007Y015948D01*
X014007Y012816D01*
X013942Y012751D01*
X013887Y012619D01*
X013887Y012475D01*
X013942Y012343D01*
X014043Y012242D01*
X014175Y012187D01*
X014268Y012187D01*
X014308Y012147D01*
X014248Y012087D01*
X011865Y012087D01*
X011866Y012089D01*
X011917Y012159D01*
X011957Y012236D01*
X011983Y012318D01*
X011997Y012404D01*
X011997Y012438D01*
X011456Y012438D01*
X011456Y012456D01*
X011997Y012456D01*
X011997Y012490D01*
X011983Y012576D01*
X011957Y012658D01*
X011917Y012735D01*
X011866Y012805D01*
X011805Y012866D01*
X011735Y012917D01*
X011658Y012957D01*
X011601Y012975D01*
X013960Y012975D01*
X013960Y015928D01*
X004904Y015947D01*
X004904Y025168D01*
X005553Y025768D01*
X006735Y026655D01*
X008001Y027416D01*
X009340Y028042D01*
X010736Y028528D01*
X012174Y028867D01*
X012385Y028894D01*
X012385Y016509D01*
X017109Y016509D01*
X017109Y027439D01*
X014747Y027439D01*
X014747Y029085D01*
X015116Y029095D01*
X016590Y028981D01*
X018044Y028716D01*
X019462Y028303D01*
X020831Y027746D01*
X022136Y027052D01*
X023362Y026227D01*
X024496Y025280D01*
X024589Y025185D01*
X024589Y015947D01*
X017897Y015928D01*
X017897Y012976D01*
X017836Y012957D01*
X017759Y012917D01*
X017689Y012866D01*
X017627Y012805D01*
X017577Y012735D01*
X017537Y012658D01*
X017510Y012576D01*
X017497Y012490D01*
X017497Y012456D01*
X018038Y012456D01*
X018038Y012438D01*
X018056Y012438D01*
X018056Y012456D01*
X018597Y012456D01*
X018597Y012490D01*
X018583Y012576D01*
X018557Y012658D01*
X018517Y012735D01*
X018466Y012805D01*
X018405Y012866D01*
X018335Y012917D01*
X018258Y012957D01*
X018201Y012975D01*
X027739Y012975D01*
X027739Y020814D01*
X027899Y020495D01*
X028420Y019112D01*
X028796Y017683D01*
X029024Y016223D01*
X029050Y015714D01*
X029037Y015740D01*
X028983Y015814D01*
X028918Y015878D01*
X028845Y015932D01*
X028763Y015973D01*
X028676Y016002D01*
X028586Y016016D01*
X028561Y016016D01*
X028561Y015456D01*
X028521Y015456D01*
X028521Y016016D01*
X028495Y016016D01*
X028405Y016002D01*
X028318Y015973D01*
X028237Y015932D01*
X028163Y015878D01*
X028098Y015814D01*
X028045Y015740D01*
X028003Y015659D01*
X027975Y015572D01*
X027961Y015482D01*
X027961Y015456D01*
X028521Y015456D01*
X028521Y015416D01*
X028561Y015416D01*
X028561Y014856D01*
X028586Y014856D01*
X028676Y014870D01*
X028763Y014898D01*
X028845Y014940D01*
X028918Y014994D01*
X028983Y015058D01*
X029037Y015132D01*
X029076Y015209D01*
X029100Y014747D01*
X029089Y014536D01*
X029007Y014618D01*
X028074Y014618D01*
X027981Y014524D01*
X027981Y013592D01*
X028074Y013498D01*
X029007Y013498D01*
X029037Y013528D01*
X029024Y013271D01*
X029024Y013271D01*
X028796Y011811D01*
X028420Y010382D01*
X027899Y008999D01*
X027238Y007678D01*
X026445Y006431D01*
X025528Y005272D01*
X024496Y004214D01*
X023362Y003267D01*
X022136Y002442D01*
X020831Y001748D01*
X019462Y001191D01*
X019438Y001184D01*
X020976Y002541D01*
X020983Y002543D01*
X021011Y002572D01*
X021042Y002599D01*
X021045Y002606D01*
X021050Y002611D01*
X021066Y002648D01*
X021083Y002684D01*
X021084Y002692D01*
X021087Y002699D01*
X021087Y002739D01*
X021089Y002780D01*
X021087Y002787D01*
X021087Y003948D01*
X021246Y004107D01*
X022395Y004107D01*
X022483Y004143D01*
X022783Y004443D01*
X022850Y004511D01*
X022887Y004599D01*
X022887Y006548D01*
X023183Y006843D01*
X023207Y006868D01*
X023207Y005572D01*
X023172Y005558D01*
X023036Y005422D01*
X022962Y005243D01*
X022962Y005050D01*
X023036Y004872D01*
X023172Y004736D01*
X023350Y004662D01*
X023543Y004662D01*
X023722Y004736D01*
X023858Y004872D01*
X023932Y005050D01*
X023932Y005243D01*
X023858Y005422D01*
X023722Y005558D01*
X023687Y005572D01*
X023687Y008848D01*
X023846Y009007D01*
X026740Y009007D01*
X026772Y008930D01*
X026930Y008772D01*
X027136Y008687D01*
X027358Y008687D01*
X027564Y008772D01*
X027722Y008930D01*
X027807Y009136D01*
X027807Y009358D01*
X028034Y009358D01*
X028094Y009516D02*
X027741Y009516D01*
X027722Y009564D02*
X027564Y009722D01*
X027358Y009807D01*
X027136Y009807D01*
X026930Y009722D01*
X026772Y009564D01*
X026740Y009487D01*
X023699Y009487D01*
X023611Y009450D01*
X023543Y009383D01*
X023243Y009083D01*
X023207Y008995D01*
X023207Y008426D01*
X023050Y008583D01*
X022983Y008650D01*
X022895Y008687D01*
X018521Y008687D01*
X018496Y008747D01*
X018347Y008896D01*
X018152Y008977D01*
X017942Y008977D01*
X017747Y008896D01*
X017598Y008747D01*
X017517Y008552D01*
X017517Y008342D01*
X017598Y008147D01*
X017747Y007998D01*
X017871Y007946D01*
X017727Y007886D01*
X017578Y007737D01*
X017497Y007542D01*
X017497Y007332D01*
X017578Y007137D01*
X017727Y006988D01*
X017922Y006907D01*
X018132Y006907D01*
X018327Y006988D01*
X018476Y007137D01*
X018544Y007299D01*
X018544Y007156D01*
X018628Y006953D01*
X018784Y006797D01*
X018987Y006713D01*
X019207Y006713D01*
X019411Y006797D01*
X019567Y006953D01*
X019651Y007156D01*
X019651Y007377D01*
X019567Y007580D01*
X019411Y007736D01*
X019207Y007820D01*
X018987Y007820D01*
X018784Y007736D01*
X018628Y007580D01*
X018557Y007409D01*
X018557Y007542D01*
X018476Y007737D01*
X018327Y007886D01*
X018203Y007938D01*
X018347Y007998D01*
X018496Y008147D01*
X018521Y008207D01*
X022748Y008207D01*
X022807Y008148D01*
X022807Y007146D01*
X022801Y007140D01*
X022807Y007155D01*
X022807Y007378D01*
X022722Y007584D01*
X022564Y007741D01*
X022358Y007827D01*
X022136Y007827D01*
X021930Y007741D01*
X021772Y007584D01*
X021687Y007378D01*
X021687Y007155D01*
X021772Y006949D01*
X021930Y006792D01*
X022007Y006760D01*
X022007Y005146D01*
X021848Y004987D01*
X018399Y004987D01*
X018311Y004950D01*
X018243Y004883D01*
X018043Y004683D01*
X018007Y004595D01*
X018007Y004571D01*
X017947Y004546D01*
X017798Y004397D01*
X017717Y004202D01*
X017717Y003992D01*
X017798Y003797D01*
X017947Y003648D01*
X017997Y003627D01*
X017811Y003627D01*
X017717Y003533D01*
X017717Y002661D01*
X017811Y002567D01*
X018007Y002567D01*
X018007Y002387D01*
X017337Y002387D01*
X017229Y002495D01*
X017078Y002557D01*
X016415Y002557D01*
X016265Y002495D01*
X016149Y002379D01*
X016087Y002228D01*
X016087Y002065D01*
X016149Y001915D01*
X016177Y001887D01*
X015746Y001887D01*
X015687Y001946D01*
X015687Y005174D01*
X015767Y005208D01*
X015916Y005357D01*
X015997Y005552D01*
X015997Y005762D01*
X015916Y005957D01*
X015767Y006106D01*
X015572Y006187D01*
X015362Y006187D01*
X015167Y006106D01*
X015018Y005957D01*
X014987Y005883D01*
X014987Y007211D01*
X015018Y007137D01*
X015167Y006988D01*
X015362Y006907D01*
X015572Y006907D01*
X015767Y006988D01*
X015916Y007137D01*
X015997Y007332D01*
X015997Y007542D01*
X015916Y007737D01*
X015767Y007886D01*
X015572Y007967D01*
X015362Y007967D01*
X015167Y007886D01*
X015018Y007737D01*
X014987Y007663D01*
X014987Y010048D01*
X015007Y010057D01*
X015137Y010186D01*
X015207Y010355D01*
X015207Y011068D01*
X015293Y011154D01*
X015287Y011138D01*
X015287Y010355D01*
X015357Y010186D01*
X015486Y010057D01*
X015655Y009987D01*
X015838Y009987D01*
X016007Y010057D01*
X016137Y010186D01*
X016207Y010355D01*
X016207Y011138D01*
X016137Y011307D01*
X016007Y011437D01*
X015838Y011507D01*
X015655Y011507D01*
X015640Y011500D01*
X015650Y011511D01*
X015687Y011599D01*
X015687Y015448D01*
X015846Y015607D01*
X016166Y015607D01*
X016085Y015551D01*
X015993Y015469D01*
X015911Y015377D01*
X015841Y015276D01*
X015841Y015276D01*
X015826Y015246D01*
X015784Y015166D01*
X015770Y015130D01*
X015740Y015051D01*
X015740Y015051D01*
X015728Y015005D01*
X015710Y014931D01*
X015698Y014827D01*
X016635Y014827D01*
X016635Y014667D01*
X015698Y014667D01*
X015710Y014563D01*
X015710Y014563D01*
X015740Y014443D01*
X015740Y014443D01*
X015784Y014328D01*
X015784Y014328D01*
X015841Y014218D01*
X015911Y014117D01*
X015911Y014117D01*
X015993Y014024D01*
X016046Y013977D01*
X016085Y013943D01*
X016152Y013896D01*
X016187Y013872D01*
X016272Y013828D01*
X016296Y013815D01*
X016408Y013772D01*
X016411Y013771D01*
X016411Y013771D01*
X016531Y013742D01*
X016635Y013729D01*
X016635Y014667D01*
X016795Y014667D01*
X016795Y013729D01*
X016900Y013742D01*
X017019Y013771D01*
X017019Y013771D01*
X017135Y013815D01*
X017244Y013872D01*
X017244Y013872D01*
X017346Y013943D01*
X017438Y014024D01*
X017438Y014024D01*
X017520Y014117D01*
X017590Y014218D01*
X017647Y014328D01*
X017691Y014443D01*
X017721Y014563D01*
X017733Y014667D01*
X016795Y014667D01*
X016795Y014827D01*
X017733Y014827D01*
X017721Y014931D01*
X017691Y015051D01*
X017647Y015166D01*
X017647Y015166D01*
X017590Y015276D01*
X017520Y015377D01*
X017520Y015377D01*
X017438Y015469D01*
X017438Y015469D01*
X017346Y015551D01*
X017329Y015562D01*
X017265Y015607D01*
X017395Y015607D01*
X017483Y015643D01*
X017550Y015711D01*
X018850Y017011D01*
X018887Y017099D01*
X018887Y020648D01*
X022200Y023961D01*
X022237Y024049D01*
X022237Y024838D01*
X022247Y024848D01*
X022307Y024788D01*
X022430Y024737D01*
X022564Y024737D01*
X022687Y024788D01*
X022781Y024882D01*
X022832Y025005D01*
X022832Y025489D01*
X022781Y025612D01*
X022687Y025706D01*
X022564Y025757D01*
X022430Y025757D01*
X022307Y025706D01*
X022247Y025646D01*
X022187Y025706D01*
X022064Y025757D01*
X021930Y025757D01*
X021807Y025706D01*
X021747Y025646D01*
X021687Y025706D01*
X021564Y025757D01*
X021430Y025757D01*
X021307Y025706D01*
X021247Y025646D01*
X021187Y025706D01*
X021064Y025757D01*
X020930Y025757D01*
X020807Y025706D01*
X020713Y025612D01*
X020662Y025489D01*
X020662Y025005D01*
X020713Y024882D01*
X020807Y024788D01*
X020930Y024737D01*
X021064Y024737D01*
X021187Y024788D01*
X021247Y024848D01*
X021257Y024838D01*
X021257Y024496D01*
X018011Y021250D01*
X017943Y021183D01*
X017907Y021095D01*
X017907Y017246D01*
X017148Y016487D01*
X015299Y016487D01*
X015211Y016450D01*
X014611Y015850D01*
X014543Y015783D01*
X014507Y015695D01*
X014507Y012796D01*
X014487Y012816D01*
X014487Y016095D01*
X014450Y016183D01*
X014383Y016250D01*
X014183Y016450D01*
X014095Y016487D01*
X009746Y016487D01*
X009587Y016646D01*
X009587Y024873D01*
X009647Y024898D01*
X009796Y025047D01*
X009877Y025242D01*
X009797Y025049D02*
X012385Y025049D01*
X012385Y024891D02*
X009631Y024891D01*
X009587Y024732D02*
X012385Y024732D01*
X012385Y024574D02*
X009587Y024574D01*
X009587Y024415D02*
X011293Y024415D01*
X011247Y024396D02*
X011098Y024247D01*
X011017Y024052D01*
X011017Y023842D01*
X011098Y023647D01*
X011247Y023498D01*
X011442Y023417D01*
X011652Y023417D01*
X011847Y023498D01*
X011996Y023647D01*
X012077Y023842D01*
X012077Y024052D01*
X011996Y024247D01*
X011847Y024396D01*
X011652Y024477D01*
X011442Y024477D01*
X011247Y024396D01*
X011107Y024257D02*
X009587Y024257D01*
X009587Y024098D02*
X011036Y024098D01*
X011017Y023940D02*
X009587Y023940D01*
X009587Y023781D02*
X011042Y023781D01*
X011121Y023623D02*
X009587Y023623D01*
X009587Y023464D02*
X011327Y023464D01*
X011767Y023464D02*
X012385Y023464D01*
X012385Y023306D02*
X009587Y023306D01*
X009587Y023147D02*
X012385Y023147D01*
X012385Y022989D02*
X009587Y022989D01*
X009587Y022830D02*
X012385Y022830D01*
X012385Y022672D02*
X010735Y022672D01*
X010710Y022697D02*
X010507Y022781D01*
X010286Y022781D01*
X010083Y022697D01*
X009927Y022541D01*
X009843Y022337D01*
X009843Y022117D01*
X009927Y021914D01*
X010083Y021758D01*
X010286Y021674D01*
X010507Y021674D01*
X010710Y021758D01*
X010866Y021914D01*
X010950Y022117D01*
X010950Y022337D01*
X010866Y022541D01*
X010710Y022697D01*
X010877Y022513D02*
X012385Y022513D01*
X012385Y022355D02*
X010943Y022355D01*
X010950Y022196D02*
X012385Y022196D01*
X012385Y022038D02*
X010917Y022038D01*
X010832Y021879D02*
X011306Y021879D01*
X011318Y021883D02*
X011236Y021857D01*
X011159Y021817D01*
X011089Y021766D01*
X011027Y021705D01*
X010977Y021635D01*
X010937Y021558D01*
X010910Y021476D01*
X010897Y021390D01*
X010897Y021356D01*
X011438Y021356D01*
X011438Y021897D01*
X011404Y021897D01*
X011318Y021883D01*
X011438Y021879D02*
X011456Y021879D01*
X011456Y021897D02*
X011456Y021356D01*
X011438Y021356D01*
X011438Y021338D01*
X010897Y021338D01*
X010897Y021304D01*
X010910Y021218D01*
X010937Y021136D01*
X010977Y021059D01*
X011027Y020989D01*
X011089Y020927D01*
X011159Y020877D01*
X011236Y020837D01*
X011318Y020810D01*
X011404Y020797D01*
X011438Y020797D01*
X011438Y021338D01*
X011456Y021338D01*
X011456Y021356D01*
X011997Y021356D01*
X011997Y021390D01*
X011983Y021476D01*
X011957Y021558D01*
X011917Y021635D01*
X011866Y021705D01*
X011805Y021766D01*
X011735Y021817D01*
X011658Y021857D01*
X011576Y021883D01*
X011490Y021897D01*
X011456Y021897D01*
X011588Y021879D02*
X012385Y021879D01*
X012385Y021721D02*
X011851Y021721D01*
X011954Y021562D02*
X012385Y021562D01*
X012385Y021404D02*
X011995Y021404D01*
X011997Y021338D02*
X011456Y021338D01*
X011456Y020797D01*
X011490Y020797D01*
X011576Y020810D01*
X011658Y020837D01*
X011735Y020877D01*
X011805Y020927D01*
X011866Y020989D01*
X011917Y021059D01*
X011957Y021136D01*
X011983Y021218D01*
X011997Y021304D01*
X011997Y021338D01*
X011988Y021245D02*
X012385Y021245D01*
X012385Y021087D02*
X011932Y021087D01*
X011806Y020928D02*
X012385Y020928D01*
X012385Y020770D02*
X009587Y020770D01*
X009587Y020928D02*
X011088Y020928D01*
X010962Y021087D02*
X009587Y021087D01*
X009587Y021245D02*
X010906Y021245D01*
X010899Y021404D02*
X009587Y021404D01*
X009587Y021562D02*
X010939Y021562D01*
X011043Y021721D02*
X010621Y021721D01*
X010172Y021721D02*
X009587Y021721D01*
X009587Y021879D02*
X009961Y021879D01*
X009876Y022038D02*
X009587Y022038D01*
X009587Y022196D02*
X009843Y022196D01*
X009850Y022355D02*
X009587Y022355D01*
X009587Y022513D02*
X009916Y022513D01*
X010058Y022672D02*
X009587Y022672D01*
X009107Y022672D02*
X007594Y022672D01*
X007564Y022702D02*
X007358Y022787D01*
X007136Y022787D01*
X006930Y022702D01*
X006772Y022544D01*
X006687Y022339D01*
X006687Y022116D01*
X006772Y021910D01*
X006930Y021752D01*
X007136Y021667D01*
X007358Y021667D01*
X007564Y021752D01*
X007722Y021910D01*
X007807Y022116D01*
X007807Y022339D01*
X007722Y022544D01*
X007564Y022702D01*
X007735Y022513D02*
X009107Y022513D01*
X009107Y022355D02*
X007800Y022355D01*
X007807Y022196D02*
X009107Y022196D01*
X009107Y022038D02*
X007775Y022038D01*
X007691Y021879D02*
X009107Y021879D01*
X009107Y021721D02*
X007488Y021721D01*
X007006Y021721D02*
X004904Y021721D01*
X004904Y021879D02*
X006803Y021879D01*
X006719Y022038D02*
X004904Y022038D01*
X004904Y022196D02*
X006687Y022196D01*
X006694Y022355D02*
X004904Y022355D01*
X004904Y022513D02*
X006759Y022513D01*
X006900Y022672D02*
X004904Y022672D01*
X004904Y022830D02*
X009107Y022830D01*
X009107Y022989D02*
X004904Y022989D01*
X004904Y023147D02*
X009107Y023147D01*
X009107Y023306D02*
X004904Y023306D01*
X004904Y023464D02*
X009107Y023464D01*
X009107Y023623D02*
X004904Y023623D01*
X004904Y023781D02*
X009107Y023781D01*
X009107Y023940D02*
X004904Y023940D01*
X004904Y024098D02*
X009107Y024098D01*
X009107Y024257D02*
X004904Y024257D01*
X004904Y024415D02*
X009107Y024415D01*
X009107Y024574D02*
X004904Y024574D01*
X004904Y024732D02*
X009107Y024732D01*
X009063Y024891D02*
X007631Y024891D01*
X007647Y024898D02*
X007796Y025047D01*
X007877Y025242D01*
X007877Y025452D01*
X007796Y025647D01*
X007647Y025796D01*
X007452Y025877D01*
X007242Y025877D01*
X007047Y025796D01*
X006898Y025647D01*
X006817Y025452D01*
X006817Y025242D01*
X006898Y025047D01*
X007047Y024898D01*
X007242Y024817D01*
X007452Y024817D01*
X007647Y024898D01*
X007797Y025049D02*
X008896Y025049D01*
X008831Y025208D02*
X007863Y025208D01*
X007877Y025366D02*
X008817Y025366D01*
X008847Y025525D02*
X007847Y025525D01*
X007760Y025683D02*
X008934Y025683D01*
X009157Y025842D02*
X008513Y025842D01*
X008452Y025817D02*
X008647Y025898D01*
X008796Y026047D01*
X008877Y026242D01*
X008877Y026452D01*
X008796Y026647D01*
X008647Y026796D01*
X008452Y026877D01*
X008242Y026877D01*
X008047Y026796D01*
X007898Y026647D01*
X007817Y026452D01*
X007817Y026242D01*
X007898Y026047D01*
X008047Y025898D01*
X008242Y025817D01*
X008452Y025817D01*
X008181Y025842D02*
X007537Y025842D01*
X007944Y026000D02*
X005862Y026000D01*
X005651Y025842D02*
X007157Y025842D01*
X006934Y025683D02*
X005461Y025683D01*
X005290Y025525D02*
X006847Y025525D01*
X006817Y025366D02*
X005119Y025366D01*
X004947Y025208D02*
X006831Y025208D01*
X006896Y025049D02*
X004904Y025049D01*
X004904Y024891D02*
X007063Y024891D01*
X007851Y026159D02*
X006074Y026159D01*
X006285Y026317D02*
X007817Y026317D01*
X007827Y026476D02*
X006496Y026476D01*
X006707Y026634D02*
X007892Y026634D01*
X008043Y026793D02*
X006964Y026793D01*
X007228Y026951D02*
X012385Y026951D01*
X012385Y026793D02*
X008650Y026793D01*
X008802Y026634D02*
X012385Y026634D01*
X012385Y026476D02*
X008867Y026476D01*
X008877Y026317D02*
X012385Y026317D01*
X012385Y026159D02*
X008843Y026159D01*
X008750Y026000D02*
X012385Y026000D01*
X012385Y025842D02*
X009537Y025842D01*
X009760Y025683D02*
X012385Y025683D01*
X012385Y025525D02*
X009847Y025525D01*
X011247Y027498D02*
X011442Y027417D01*
X011652Y027417D01*
X011847Y027498D01*
X011996Y027647D01*
X012077Y027842D01*
X012077Y028052D01*
X011996Y028247D01*
X011847Y028396D01*
X011652Y028477D01*
X011442Y028477D01*
X011247Y028396D01*
X011098Y028247D01*
X011017Y028052D01*
X011017Y027842D01*
X011098Y027647D01*
X011247Y027498D01*
X011159Y027585D02*
X008364Y027585D01*
X008025Y027427D02*
X011417Y027427D01*
X011677Y027427D02*
X012385Y027427D01*
X012385Y027585D02*
X011935Y027585D01*
X012037Y027744D02*
X012385Y027744D01*
X012385Y027902D02*
X012077Y027902D01*
X012073Y028061D02*
X012385Y028061D01*
X012385Y028219D02*
X012008Y028219D01*
X011865Y028378D02*
X012385Y028378D01*
X012385Y028536D02*
X010773Y028536D01*
X011086Y028219D02*
X009849Y028219D01*
X009394Y028061D02*
X011020Y028061D01*
X011017Y027902D02*
X009041Y027902D01*
X008703Y027744D02*
X011057Y027744D01*
X011228Y028378D02*
X010305Y028378D01*
X011444Y028695D02*
X012385Y028695D01*
X012385Y028853D02*
X012116Y028853D01*
X012385Y027268D02*
X007756Y027268D01*
X007492Y027110D02*
X012385Y027110D01*
X014747Y027585D02*
X015317Y027585D01*
X015339Y027574D02*
X015415Y027549D01*
X015494Y027537D01*
X015534Y027537D01*
X015534Y028047D01*
X015534Y028047D01*
X015024Y028047D01*
X015024Y028087D01*
X015037Y028166D01*
X015062Y028243D01*
X015098Y028314D01*
X015145Y028379D01*
X015202Y028436D01*
X015267Y028483D01*
X015339Y028520D01*
X015415Y028544D01*
X015494Y028557D01*
X015534Y028557D01*
X015534Y028047D01*
X015024Y028047D01*
X015024Y028007D01*
X015037Y027928D01*
X015062Y027851D01*
X015098Y027780D01*
X015145Y027715D01*
X015202Y027658D01*
X015267Y027611D01*
X015339Y027574D01*
X015534Y027585D02*
X015534Y027585D01*
X015534Y027537D02*
X015574Y027537D01*
X015654Y027549D01*
X015730Y027574D01*
X015802Y027611D01*
X015867Y027658D01*
X015923Y027715D01*
X015971Y027780D01*
X016007Y027851D01*
X016032Y027928D01*
X016044Y028007D01*
X016044Y028047D01*
X016044Y028087D01*
X016032Y028166D01*
X016007Y028243D01*
X015971Y028314D01*
X015923Y028379D01*
X015867Y028436D01*
X015802Y028483D01*
X015730Y028520D01*
X015654Y028544D01*
X015574Y028557D01*
X015534Y028557D01*
X015534Y028047D01*
X015534Y028047D01*
X015534Y028047D01*
X015534Y027537D01*
X015534Y027744D02*
X015534Y027744D01*
X015534Y027902D02*
X015534Y027902D01*
X015534Y028047D02*
X015534Y028047D01*
X016044Y028047D01*
X015534Y028047D01*
X015534Y028061D02*
X015534Y028061D01*
X015534Y028219D02*
X015534Y028219D01*
X015534Y028378D02*
X015534Y028378D01*
X015534Y028536D02*
X015534Y028536D01*
X015391Y028536D02*
X014747Y028536D01*
X014747Y028378D02*
X015144Y028378D01*
X015054Y028219D02*
X014747Y028219D01*
X014747Y028061D02*
X015024Y028061D01*
X015045Y027902D02*
X014747Y027902D01*
X014747Y027744D02*
X015124Y027744D01*
X015752Y027585D02*
X021133Y027585D01*
X021431Y027427D02*
X017109Y027427D01*
X017109Y027268D02*
X021729Y027268D01*
X022026Y027110D02*
X017109Y027110D01*
X017109Y026951D02*
X022285Y026951D01*
X022520Y026793D02*
X017109Y026793D01*
X017109Y026634D02*
X022756Y026634D01*
X022991Y026476D02*
X017109Y026476D01*
X017109Y026317D02*
X023227Y026317D01*
X023443Y026159D02*
X017109Y026159D01*
X017109Y026000D02*
X023633Y026000D01*
X023823Y025842D02*
X017109Y025842D01*
X017109Y025683D02*
X020785Y025683D01*
X020677Y025525D02*
X017109Y025525D01*
X017109Y025366D02*
X020662Y025366D01*
X020662Y025208D02*
X017109Y025208D01*
X017109Y025049D02*
X020662Y025049D01*
X020709Y024891D02*
X017109Y024891D01*
X017109Y024732D02*
X021257Y024732D01*
X021257Y024574D02*
X017109Y024574D01*
X017109Y024415D02*
X021176Y024415D01*
X021018Y024257D02*
X017109Y024257D01*
X017109Y024098D02*
X020859Y024098D01*
X020701Y023940D02*
X017109Y023940D01*
X017109Y023781D02*
X020542Y023781D01*
X020384Y023623D02*
X017109Y023623D01*
X017109Y023464D02*
X020225Y023464D01*
X020067Y023306D02*
X017109Y023306D01*
X017109Y023147D02*
X019908Y023147D01*
X019750Y022989D02*
X017109Y022989D01*
X017109Y022830D02*
X019591Y022830D01*
X019433Y022672D02*
X017109Y022672D01*
X017109Y022513D02*
X019274Y022513D01*
X019116Y022355D02*
X017109Y022355D01*
X017109Y022196D02*
X018957Y022196D01*
X018799Y022038D02*
X017109Y022038D01*
X017109Y021879D02*
X018640Y021879D01*
X018482Y021721D02*
X017109Y021721D01*
X017109Y021562D02*
X018323Y021562D01*
X018165Y021404D02*
X017109Y021404D01*
X017109Y021245D02*
X018006Y021245D01*
X017907Y021087D02*
X017109Y021087D01*
X017109Y020928D02*
X017907Y020928D01*
X017907Y020770D02*
X017109Y020770D01*
X017109Y020611D02*
X017907Y020611D01*
X017907Y020453D02*
X017109Y020453D01*
X017109Y020294D02*
X017907Y020294D01*
X017907Y020136D02*
X017109Y020136D01*
X017109Y019977D02*
X017907Y019977D01*
X017907Y019819D02*
X017109Y019819D01*
X017109Y019660D02*
X017907Y019660D01*
X017907Y019502D02*
X017109Y019502D01*
X017109Y019343D02*
X017907Y019343D01*
X017907Y019185D02*
X017109Y019185D01*
X017109Y019026D02*
X017907Y019026D01*
X017907Y018868D02*
X017109Y018868D01*
X017109Y018709D02*
X017907Y018709D01*
X017907Y018551D02*
X017109Y018551D01*
X017109Y018392D02*
X017907Y018392D01*
X017907Y018234D02*
X017109Y018234D01*
X017109Y018075D02*
X017907Y018075D01*
X017907Y017917D02*
X017109Y017917D01*
X017109Y017758D02*
X017907Y017758D01*
X017907Y017600D02*
X017109Y017600D01*
X017109Y017441D02*
X017907Y017441D01*
X017907Y017283D02*
X017109Y017283D01*
X017109Y017124D02*
X017785Y017124D01*
X017627Y016966D02*
X017109Y016966D01*
X017109Y016807D02*
X017468Y016807D01*
X017310Y016649D02*
X017109Y016649D01*
X017151Y016490D02*
X009743Y016490D01*
X009587Y016649D02*
X012385Y016649D01*
X012385Y016807D02*
X009587Y016807D01*
X009587Y016966D02*
X011078Y016966D01*
X011147Y016898D02*
X010998Y017047D01*
X010917Y017242D01*
X010917Y017452D01*
X010998Y017647D01*
X011147Y017796D01*
X011342Y017877D01*
X011552Y017877D01*
X011747Y017796D01*
X011896Y017647D01*
X011977Y017452D01*
X011977Y017242D01*
X011896Y017047D01*
X011747Y016898D01*
X011552Y016817D01*
X011342Y016817D01*
X011147Y016898D01*
X010965Y017124D02*
X009587Y017124D01*
X009587Y017283D02*
X010917Y017283D01*
X010917Y017441D02*
X009587Y017441D01*
X009587Y017600D02*
X010978Y017600D01*
X011109Y017758D02*
X009587Y017758D01*
X009587Y017917D02*
X012385Y017917D01*
X012385Y018075D02*
X009587Y018075D01*
X009587Y018234D02*
X012385Y018234D01*
X012385Y018392D02*
X009587Y018392D01*
X009587Y018551D02*
X012385Y018551D01*
X012385Y018709D02*
X009587Y018709D01*
X009587Y018868D02*
X012385Y018868D01*
X012385Y019026D02*
X009587Y019026D01*
X009587Y019185D02*
X012385Y019185D01*
X012385Y019343D02*
X009587Y019343D01*
X009587Y019502D02*
X012385Y019502D01*
X012385Y019660D02*
X009587Y019660D01*
X009587Y019819D02*
X012385Y019819D01*
X012385Y019977D02*
X009587Y019977D01*
X009587Y020136D02*
X012385Y020136D01*
X012385Y020294D02*
X009587Y020294D01*
X009587Y020453D02*
X012385Y020453D01*
X012385Y020611D02*
X009587Y020611D01*
X009107Y020611D02*
X004904Y020611D01*
X004904Y020453D02*
X009107Y020453D01*
X009107Y020294D02*
X004904Y020294D01*
X004904Y020136D02*
X009107Y020136D01*
X009107Y019977D02*
X004904Y019977D01*
X004904Y019819D02*
X009107Y019819D01*
X009107Y019660D02*
X004904Y019660D01*
X004904Y019502D02*
X009107Y019502D01*
X009107Y019343D02*
X004904Y019343D01*
X004904Y019185D02*
X009107Y019185D01*
X009107Y019026D02*
X004904Y019026D01*
X004904Y018868D02*
X009107Y018868D01*
X009107Y018709D02*
X004904Y018709D01*
X004904Y018551D02*
X009107Y018551D01*
X009107Y018392D02*
X004904Y018392D01*
X004904Y018234D02*
X009107Y018234D01*
X009107Y018075D02*
X004904Y018075D01*
X004904Y017917D02*
X009107Y017917D01*
X009107Y017758D02*
X004904Y017758D01*
X004904Y017600D02*
X009107Y017600D01*
X009107Y017441D02*
X004904Y017441D01*
X004904Y017283D02*
X009107Y017283D01*
X009107Y017124D02*
X004904Y017124D01*
X004904Y016966D02*
X009107Y016966D01*
X009107Y016807D02*
X004904Y016807D01*
X004904Y016649D02*
X009107Y016649D01*
X009111Y016490D02*
X004904Y016490D01*
X004904Y016332D02*
X009223Y016332D01*
X009381Y016173D02*
X004904Y016173D01*
X004904Y016015D02*
X009580Y016015D01*
X011815Y016966D02*
X012385Y016966D01*
X012385Y017124D02*
X011928Y017124D01*
X011977Y017283D02*
X012385Y017283D01*
X012385Y017441D02*
X011977Y017441D01*
X011916Y017600D02*
X012385Y017600D01*
X012385Y017758D02*
X011785Y017758D01*
X013960Y015856D02*
X014007Y015856D01*
X014007Y015698D02*
X013960Y015698D01*
X013960Y015539D02*
X014007Y015539D01*
X014007Y015381D02*
X013960Y015381D01*
X013960Y015222D02*
X014007Y015222D01*
X014007Y015064D02*
X013960Y015064D01*
X013960Y014905D02*
X014007Y014905D01*
X014007Y014747D02*
X013960Y014747D01*
X013960Y014588D02*
X014007Y014588D01*
X014007Y014430D02*
X013960Y014430D01*
X013960Y014271D02*
X014007Y014271D01*
X014007Y014113D02*
X013960Y014113D01*
X013960Y013954D02*
X014007Y013954D01*
X014007Y013796D02*
X013960Y013796D01*
X013960Y013637D02*
X014007Y013637D01*
X014007Y013479D02*
X013960Y013479D01*
X013960Y013320D02*
X014007Y013320D01*
X014007Y013162D02*
X013960Y013162D01*
X013960Y013003D02*
X014007Y013003D01*
X014007Y012845D02*
X011827Y012845D01*
X011942Y012686D02*
X013915Y012686D01*
X013887Y012528D02*
X011991Y012528D01*
X011992Y012369D02*
X013931Y012369D01*
X014117Y012211D02*
X011944Y012211D01*
X010950Y012211D02*
X000634Y012211D01*
X000667Y012052D02*
X008316Y012052D01*
X008155Y011894D02*
X000700Y011894D01*
X000733Y011735D02*
X007996Y011735D01*
X007838Y011577D02*
X000766Y011577D01*
X000799Y011418D02*
X007757Y011418D01*
X007757Y011260D02*
X000832Y011260D01*
X000865Y011101D02*
X007757Y011101D01*
X007757Y010943D02*
X000915Y010943D01*
X000966Y010784D02*
X007757Y010784D01*
X007757Y010626D02*
X001016Y010626D01*
X001067Y010467D02*
X007757Y010467D01*
X007757Y010309D02*
X001117Y010309D01*
X001168Y010150D02*
X007757Y010150D01*
X007757Y009992D02*
X001219Y009992D01*
X001269Y009833D02*
X007757Y009833D01*
X007757Y009675D02*
X001321Y009675D01*
X001390Y009516D02*
X007757Y009516D01*
X007757Y009358D02*
X001459Y009358D01*
X001529Y009199D02*
X007757Y009199D01*
X007757Y009041D02*
X001598Y009041D01*
X001667Y008882D02*
X007757Y008882D01*
X007757Y008724D02*
X001736Y008724D01*
X001806Y008565D02*
X007757Y008565D01*
X007757Y008407D02*
X001875Y008407D01*
X001955Y008248D02*
X007757Y008248D01*
X007757Y008090D02*
X002044Y008090D01*
X002134Y007931D02*
X007757Y007931D01*
X007757Y007773D02*
X007488Y007773D01*
X007691Y007614D02*
X007757Y007614D01*
X008237Y007614D02*
X010967Y007614D01*
X010937Y007542D02*
X010937Y007332D01*
X011018Y007137D01*
X011167Y006988D01*
X011362Y006907D01*
X011572Y006907D01*
X011767Y006988D01*
X011916Y007137D01*
X011997Y007332D01*
X011997Y007542D01*
X011916Y007737D01*
X011767Y007886D01*
X011623Y007946D01*
X011747Y007998D01*
X011896Y008147D01*
X011977Y008342D01*
X011977Y008552D01*
X011896Y008747D01*
X011747Y008896D01*
X011552Y008977D01*
X011342Y008977D01*
X011147Y008896D01*
X010998Y008747D01*
X010917Y008552D01*
X010917Y008342D01*
X010998Y008147D01*
X011147Y007998D01*
X011291Y007938D01*
X011167Y007886D01*
X011018Y007737D01*
X010937Y007542D01*
X010937Y007456D02*
X008237Y007456D01*
X008237Y007297D02*
X010951Y007297D01*
X011017Y007139D02*
X008237Y007139D01*
X008237Y006980D02*
X011184Y006980D01*
X011750Y006980D02*
X013744Y006980D01*
X013577Y007139D02*
X011917Y007139D01*
X011983Y007297D02*
X013511Y007297D01*
X013497Y007456D02*
X011997Y007456D01*
X011967Y007614D02*
X013527Y007614D01*
X013613Y007773D02*
X011880Y007773D01*
X011658Y007931D02*
X013836Y007931D01*
X014218Y007931D02*
X014507Y007931D01*
X014507Y007773D02*
X014440Y007773D01*
X014507Y008090D02*
X011839Y008090D01*
X011938Y008248D02*
X014507Y008248D01*
X014507Y008407D02*
X011977Y008407D01*
X011972Y008565D02*
X014507Y008565D01*
X014507Y008724D02*
X011906Y008724D01*
X011761Y008882D02*
X014507Y008882D01*
X014507Y009041D02*
X008237Y009041D01*
X008237Y009199D02*
X014507Y009199D01*
X014507Y009358D02*
X008237Y009358D01*
X008237Y009516D02*
X014507Y009516D01*
X014507Y009675D02*
X008237Y009675D01*
X008237Y009833D02*
X014507Y009833D01*
X014507Y009992D02*
X013900Y009992D01*
X013931Y010002D02*
X013999Y010036D01*
X014060Y010081D01*
X014113Y010134D01*
X014157Y010195D01*
X014192Y010263D01*
X014215Y010335D01*
X014227Y010409D01*
X014227Y010727D01*
X013767Y010727D01*
X013767Y010767D01*
X013727Y010767D01*
X013727Y011527D01*
X013709Y011527D01*
X013635Y011515D01*
X013563Y011492D01*
X013495Y011457D01*
X013434Y011413D01*
X013381Y011360D01*
X013336Y011299D01*
X013302Y011231D01*
X013279Y011159D01*
X013267Y011085D01*
X013267Y010767D01*
X013727Y010767D01*
X013727Y010727D01*
X013267Y010727D01*
X013267Y010409D01*
X013279Y010335D01*
X013302Y010263D01*
X013336Y010195D01*
X013381Y010134D01*
X013434Y010081D01*
X013495Y010036D01*
X013563Y010002D01*
X013635Y009979D01*
X013709Y009967D01*
X013727Y009967D01*
X013727Y010727D01*
X013767Y010727D01*
X013767Y009967D01*
X013785Y009967D01*
X013859Y009979D01*
X013931Y010002D01*
X013767Y009992D02*
X013727Y009992D01*
X013594Y009992D02*
X008237Y009992D01*
X008237Y010150D02*
X013369Y010150D01*
X013287Y010309D02*
X008237Y010309D01*
X008237Y010467D02*
X013267Y010467D01*
X013267Y010626D02*
X008237Y010626D01*
X008237Y010784D02*
X013267Y010784D01*
X013267Y010943D02*
X008237Y010943D01*
X008237Y011101D02*
X013270Y011101D01*
X013317Y011260D02*
X008237Y011260D01*
X008358Y011418D02*
X013442Y011418D01*
X013727Y011418D02*
X013767Y011418D01*
X013767Y011527D02*
X013767Y010767D01*
X014227Y010767D01*
X014227Y011085D01*
X014215Y011159D01*
X014192Y011231D01*
X014157Y011299D01*
X014113Y011360D01*
X014060Y011413D01*
X013999Y011457D01*
X013931Y011492D01*
X013859Y011515D01*
X013785Y011527D01*
X013767Y011527D01*
X013767Y011260D02*
X013727Y011260D01*
X013727Y011101D02*
X013767Y011101D01*
X013767Y010943D02*
X013727Y010943D01*
X013727Y010784D02*
X013767Y010784D01*
X013767Y010626D02*
X013727Y010626D01*
X013727Y010467D02*
X013767Y010467D01*
X013767Y010309D02*
X013727Y010309D01*
X013727Y010150D02*
X013767Y010150D01*
X014125Y010150D02*
X014393Y010150D01*
X014306Y010309D02*
X014207Y010309D01*
X014227Y010467D02*
X014287Y010467D01*
X014287Y010626D02*
X014227Y010626D01*
X014227Y010784D02*
X014287Y010784D01*
X014287Y010943D02*
X014227Y010943D01*
X014224Y011101D02*
X014287Y011101D01*
X014337Y011260D02*
X014177Y011260D01*
X014052Y011418D02*
X014468Y011418D01*
X014575Y011735D02*
X015196Y011735D01*
X015207Y011894D02*
X014733Y011894D01*
X014883Y012043D02*
X014883Y012043D01*
X014892Y012052D02*
X015207Y012052D01*
X015207Y012211D02*
X014987Y012211D01*
X014987Y012369D02*
X015207Y012369D01*
X015207Y012528D02*
X014987Y012528D01*
X014987Y012686D02*
X015207Y012686D01*
X015207Y012845D02*
X014987Y012845D01*
X014987Y013003D02*
X015207Y013003D01*
X015207Y013162D02*
X014987Y013162D01*
X014987Y013320D02*
X015207Y013320D01*
X015207Y013479D02*
X014987Y013479D01*
X014987Y013637D02*
X015207Y013637D01*
X015207Y013796D02*
X014987Y013796D01*
X014987Y013954D02*
X015207Y013954D01*
X015207Y014113D02*
X014987Y014113D01*
X014987Y014271D02*
X015207Y014271D01*
X015207Y014430D02*
X014987Y014430D01*
X014987Y014588D02*
X015207Y014588D01*
X015207Y014747D02*
X014987Y014747D01*
X014987Y014905D02*
X015207Y014905D01*
X015207Y015064D02*
X014987Y015064D01*
X014987Y015222D02*
X015207Y015222D01*
X015207Y015381D02*
X014987Y015381D01*
X014987Y015539D02*
X015207Y015539D01*
X015259Y015698D02*
X015137Y015698D01*
X015296Y015856D02*
X015417Y015856D01*
X015447Y015547D02*
X015447Y011647D01*
X014747Y010947D01*
X014747Y010747D01*
X014747Y005347D01*
X014247Y004847D01*
X007547Y004847D01*
X007497Y004797D01*
X007447Y004847D01*
X005547Y004847D01*
X005347Y004647D01*
X004900Y004444D02*
X004776Y004444D01*
X004947Y004286D02*
X005015Y004286D01*
X005119Y004127D02*
X006662Y004127D01*
X006677Y003969D02*
X005290Y003969D01*
X005461Y003810D02*
X006785Y003810D01*
X007209Y003810D02*
X007285Y003810D01*
X007709Y003810D02*
X007785Y003810D01*
X008209Y003810D02*
X008285Y003810D01*
X008709Y003810D02*
X010181Y003810D01*
X010147Y003796D02*
X009998Y003647D01*
X009917Y003452D01*
X009917Y003242D01*
X009998Y003047D01*
X010147Y002898D01*
X010197Y002877D01*
X010011Y002877D01*
X009917Y002783D01*
X009917Y001911D01*
X010011Y001817D01*
X010883Y001817D01*
X010977Y001911D01*
X010977Y002783D01*
X010883Y002877D01*
X010697Y002877D01*
X010747Y002898D01*
X010896Y003047D01*
X010977Y003242D01*
X010977Y003452D01*
X010896Y003647D01*
X010747Y003796D01*
X010552Y003877D01*
X010342Y003877D01*
X010147Y003796D01*
X010002Y003652D02*
X005651Y003652D01*
X005862Y003493D02*
X009934Y003493D01*
X009917Y003335D02*
X006074Y003335D01*
X006285Y003176D02*
X009944Y003176D01*
X010026Y003018D02*
X006496Y003018D01*
X006707Y002859D02*
X009993Y002859D01*
X009917Y002701D02*
X006964Y002701D01*
X007228Y002542D02*
X009917Y002542D01*
X009917Y002384D02*
X007492Y002384D01*
X007756Y002225D02*
X009917Y002225D01*
X009917Y002067D02*
X008025Y002067D01*
X008364Y001908D02*
X009919Y001908D01*
X009849Y001274D02*
X013086Y001274D01*
X013078Y001248D02*
X013067Y001181D01*
X013067Y001147D01*
X013747Y001147D01*
X013747Y001147D01*
X013747Y001577D01*
X014031Y001577D01*
X014098Y001566D01*
X014162Y001545D01*
X014222Y001515D01*
X014277Y001475D01*
X014325Y001427D01*
X014365Y001372D01*
X014395Y001312D01*
X014416Y001248D01*
X014427Y001181D01*
X014427Y001147D01*
X013747Y001147D01*
X013747Y001147D01*
X013747Y001577D01*
X013463Y001577D01*
X013396Y001566D01*
X013332Y001545D01*
X013272Y001515D01*
X013217Y001475D01*
X013169Y001427D01*
X013129Y001372D01*
X013098Y001312D01*
X013078Y001248D01*
X013067Y001147D02*
X013067Y001113D01*
X013078Y001046D01*
X013098Y000982D01*
X013129Y000922D01*
X013169Y000867D01*
X013217Y000819D01*
X013272Y000779D01*
X013332Y000748D01*
X013396Y000728D01*
X013463Y000717D01*
X013747Y000717D01*
X014031Y000717D01*
X014098Y000728D01*
X014162Y000748D01*
X014222Y000779D01*
X014277Y000819D01*
X014325Y000867D01*
X014365Y000922D01*
X014395Y000982D01*
X014416Y001046D01*
X014427Y001113D01*
X014427Y001147D01*
X013747Y001147D01*
X013747Y000717D01*
X013747Y001147D01*
X013747Y001147D01*
X013747Y001147D01*
X013067Y001147D01*
X013067Y001116D02*
X010305Y001116D01*
X010773Y000957D02*
X013111Y000957D01*
X013244Y000799D02*
X011444Y000799D01*
X012116Y000640D02*
X015614Y000640D01*
X015773Y000482D02*
X013293Y000482D01*
X013747Y000799D02*
X013747Y000799D01*
X013747Y000957D02*
X013747Y000957D01*
X013747Y001116D02*
X013747Y001116D01*
X013747Y001274D02*
X013747Y001274D01*
X013747Y001433D02*
X013747Y001433D01*
X014110Y001750D02*
X014505Y001750D01*
X014663Y001591D02*
X009041Y001591D01*
X009394Y001433D02*
X013175Y001433D01*
X013384Y001750D02*
X008703Y001750D01*
X010713Y003810D02*
X011631Y003810D01*
X011452Y003652D02*
X010891Y003652D01*
X010960Y003493D02*
X011384Y003493D01*
X011367Y003335D02*
X010977Y003335D01*
X010950Y003176D02*
X011394Y003176D01*
X011476Y003018D02*
X010867Y003018D01*
X010901Y002859D02*
X011443Y002859D01*
X011367Y002701D02*
X010977Y002701D01*
X010977Y002542D02*
X011367Y002542D01*
X011367Y002384D02*
X010977Y002384D01*
X010977Y002225D02*
X011367Y002225D01*
X011367Y002067D02*
X010977Y002067D01*
X010975Y001908D02*
X011369Y001908D01*
X012425Y001908D02*
X013156Y001908D01*
X013087Y002067D02*
X012427Y002067D01*
X012427Y002225D02*
X013087Y002225D01*
X013154Y002384D02*
X012427Y002384D01*
X012427Y002542D02*
X013380Y002542D01*
X013205Y002859D02*
X012351Y002859D01*
X012317Y003018D02*
X012537Y003018D01*
X012543Y003011D02*
X012543Y003011D01*
X012747Y003147D02*
X012447Y003447D01*
X012447Y004047D01*
X012247Y004247D01*
X008497Y004247D01*
X008817Y003969D02*
X012186Y003969D01*
X012163Y003810D02*
X012207Y003810D01*
X012687Y003810D02*
X013254Y003810D01*
X013127Y003969D02*
X012687Y003969D01*
X012673Y004127D02*
X013087Y004127D01*
X013111Y004286D02*
X012547Y004286D01*
X012583Y004250D02*
X012583Y004250D01*
X012389Y004444D02*
X013215Y004444D01*
X013747Y004147D02*
X015247Y004147D01*
X015447Y003947D01*
X015447Y005637D01*
X015467Y005657D01*
X015844Y006029D02*
X017650Y006029D01*
X017578Y005957D02*
X017497Y005762D01*
X017497Y005552D01*
X017578Y005357D01*
X017727Y005208D01*
X017922Y005127D01*
X018132Y005127D01*
X018327Y005208D01*
X018476Y005357D01*
X018557Y005552D01*
X018557Y005762D01*
X018476Y005957D01*
X018327Y006106D01*
X018132Y006187D01*
X017922Y006187D01*
X017727Y006106D01*
X017578Y005957D01*
X017542Y005871D02*
X015952Y005871D01*
X015997Y005712D02*
X017497Y005712D01*
X017497Y005554D02*
X015997Y005554D01*
X015932Y005395D02*
X017562Y005395D01*
X017697Y005237D02*
X015796Y005237D01*
X015687Y005078D02*
X021939Y005078D01*
X022007Y005237D02*
X018356Y005237D01*
X018492Y005395D02*
X022007Y005395D01*
X022007Y005554D02*
X018557Y005554D01*
X018557Y005712D02*
X022007Y005712D01*
X022007Y005871D02*
X018512Y005871D01*
X018404Y006029D02*
X022007Y006029D01*
X022007Y006188D02*
X014987Y006188D01*
X014987Y006346D02*
X022007Y006346D01*
X022007Y006505D02*
X014987Y006505D01*
X014987Y006663D02*
X022007Y006663D01*
X021900Y006822D02*
X019436Y006822D01*
X019578Y006980D02*
X021759Y006980D01*
X021694Y007139D02*
X019644Y007139D01*
X019651Y007297D02*
X021687Y007297D01*
X021719Y007456D02*
X019618Y007456D01*
X019533Y007614D02*
X021803Y007614D01*
X022006Y007773D02*
X019322Y007773D01*
X018873Y007773D02*
X018440Y007773D01*
X018527Y007614D02*
X018662Y007614D01*
X018576Y007456D02*
X018557Y007456D01*
X018543Y007297D02*
X018544Y007297D01*
X018551Y007139D02*
X018477Y007139D01*
X018617Y006980D02*
X018310Y006980D01*
X018759Y006822D02*
X014987Y006822D01*
X014987Y006980D02*
X015184Y006980D01*
X015017Y007139D02*
X014987Y007139D01*
X014507Y007139D02*
X014477Y007139D01*
X014507Y006980D02*
X014310Y006980D01*
X014507Y006822D02*
X008237Y006822D01*
X008237Y006663D02*
X014507Y006663D01*
X014507Y006505D02*
X008237Y006505D01*
X008237Y006346D02*
X014507Y006346D01*
X014507Y006188D02*
X008237Y006188D01*
X008274Y006029D02*
X011090Y006029D01*
X011018Y005957D02*
X010937Y005762D01*
X010937Y005552D01*
X011018Y005357D01*
X011167Y005208D01*
X011362Y005127D01*
X011572Y005127D01*
X011767Y005208D01*
X011916Y005357D01*
X011997Y005552D01*
X011997Y005762D01*
X011916Y005957D01*
X011767Y006106D01*
X011572Y006187D01*
X011362Y006187D01*
X011167Y006106D01*
X011018Y005957D01*
X010982Y005871D02*
X008356Y005871D01*
X008352Y005712D02*
X010937Y005712D01*
X010937Y005554D02*
X008263Y005554D01*
X007720Y006029D02*
X005657Y006029D01*
X005773Y005395D02*
X011002Y005395D01*
X011137Y005237D02*
X005630Y005237D01*
X005837Y004603D02*
X006709Y004603D01*
X006662Y004444D02*
X005793Y004444D01*
X005679Y004286D02*
X006662Y004286D01*
X007497Y004247D02*
X007497Y004797D01*
X007757Y006188D02*
X003245Y006188D01*
X003132Y006346D02*
X007757Y006346D01*
X007757Y006505D02*
X003020Y006505D01*
X002907Y006663D02*
X007757Y006663D01*
X007757Y006822D02*
X007594Y006822D01*
X007735Y006980D02*
X007757Y006980D01*
X006900Y006822D02*
X002794Y006822D01*
X002682Y006980D02*
X006759Y006980D01*
X006694Y007139D02*
X002583Y007139D01*
X002493Y007297D02*
X006687Y007297D01*
X006719Y007456D02*
X002403Y007456D01*
X002314Y007614D02*
X006803Y007614D01*
X007006Y007773D02*
X002224Y007773D01*
X000600Y012369D02*
X010902Y012369D01*
X010903Y012528D02*
X000567Y012528D01*
X000550Y012686D02*
X010952Y012686D01*
X011067Y012845D02*
X000533Y012845D01*
X000517Y013003D02*
X001755Y013003D01*
X001755Y013162D02*
X000501Y013162D01*
X000484Y013320D02*
X001755Y013320D01*
X001755Y013479D02*
X000468Y013479D01*
X000452Y013637D02*
X001755Y013637D01*
X001755Y013796D02*
X000435Y013796D01*
X000419Y013954D02*
X001755Y013954D01*
X001755Y014113D02*
X000413Y014113D01*
X000413Y014271D02*
X001755Y014271D01*
X001755Y014430D02*
X000413Y014430D01*
X000413Y014588D02*
X001755Y014588D01*
X001755Y014747D02*
X000413Y014747D01*
X000413Y014905D02*
X001755Y014905D01*
X001755Y015064D02*
X000413Y015064D01*
X000413Y015222D02*
X001755Y015222D01*
X001755Y015381D02*
X000413Y015381D01*
X000419Y015539D02*
X001755Y015539D01*
X001755Y015698D02*
X000435Y015698D01*
X000452Y015856D02*
X001755Y015856D01*
X001755Y016015D02*
X000468Y016015D01*
X000484Y016173D02*
X001755Y016173D01*
X001755Y016332D02*
X000501Y016332D01*
X000517Y016490D02*
X001755Y016490D01*
X001755Y016649D02*
X000533Y016649D01*
X000550Y016807D02*
X001755Y016807D01*
X001755Y016966D02*
X000567Y016966D01*
X000600Y017124D02*
X001755Y017124D01*
X001755Y017283D02*
X000634Y017283D01*
X000667Y017441D02*
X001755Y017441D01*
X001755Y017600D02*
X000700Y017600D01*
X000733Y017758D02*
X001755Y017758D01*
X001755Y017917D02*
X000766Y017917D01*
X000799Y018075D02*
X001755Y018075D01*
X001755Y018234D02*
X000832Y018234D01*
X000865Y018392D02*
X001755Y018392D01*
X001755Y018551D02*
X000915Y018551D01*
X000966Y018709D02*
X001755Y018709D01*
X001755Y018868D02*
X001016Y018868D01*
X001067Y019026D02*
X001755Y019026D01*
X001755Y019185D02*
X001117Y019185D01*
X001168Y019343D02*
X001755Y019343D01*
X001755Y019502D02*
X001219Y019502D01*
X001269Y019660D02*
X001755Y019660D01*
X001755Y019819D02*
X001321Y019819D01*
X001390Y019977D02*
X001755Y019977D01*
X001755Y020136D02*
X001459Y020136D01*
X001529Y020294D02*
X001755Y020294D01*
X001755Y020453D02*
X001598Y020453D01*
X001667Y020611D02*
X001755Y020611D01*
X001755Y020770D02*
X001736Y020770D01*
X004904Y020770D02*
X009107Y020770D01*
X009107Y020928D02*
X004904Y020928D01*
X004904Y021087D02*
X009107Y021087D01*
X009107Y021245D02*
X004904Y021245D01*
X004904Y021404D02*
X009107Y021404D01*
X009107Y021562D02*
X004904Y021562D01*
X011438Y021562D02*
X011456Y021562D01*
X011456Y021404D02*
X011438Y021404D01*
X011438Y021245D02*
X011456Y021245D01*
X011456Y021087D02*
X011438Y021087D01*
X011438Y020928D02*
X011456Y020928D01*
X011438Y021721D02*
X011456Y021721D01*
X011972Y023623D02*
X012385Y023623D01*
X012385Y023781D02*
X012052Y023781D01*
X012077Y023940D02*
X012385Y023940D01*
X012385Y024098D02*
X012058Y024098D01*
X011986Y024257D02*
X012385Y024257D01*
X012385Y024415D02*
X011801Y024415D01*
X015945Y027744D02*
X020836Y027744D01*
X020447Y027902D02*
X016024Y027902D01*
X016044Y028061D02*
X020057Y028061D01*
X019668Y028219D02*
X016015Y028219D01*
X015924Y028378D02*
X019205Y028378D01*
X018660Y028536D02*
X015678Y028536D01*
X016188Y029012D02*
X014747Y029012D01*
X014747Y028853D02*
X017289Y028853D01*
X018116Y028695D02*
X014747Y028695D01*
X020911Y022672D02*
X021900Y022672D01*
X021930Y022702D02*
X021772Y022544D01*
X021687Y022339D01*
X021687Y022116D01*
X021772Y021910D01*
X021930Y021752D01*
X022136Y021667D01*
X022358Y021667D01*
X022564Y021752D01*
X022722Y021910D01*
X022807Y022116D01*
X022807Y022339D01*
X022722Y022544D01*
X022564Y022702D01*
X022358Y022787D01*
X022136Y022787D01*
X021930Y022702D01*
X021759Y022513D02*
X020753Y022513D01*
X020594Y022355D02*
X021694Y022355D01*
X021687Y022196D02*
X020436Y022196D01*
X020277Y022038D02*
X021719Y022038D01*
X021803Y021879D02*
X020119Y021879D01*
X019960Y021721D02*
X022006Y021721D01*
X022488Y021721D02*
X024589Y021721D01*
X024589Y021879D02*
X022691Y021879D01*
X022775Y022038D02*
X024589Y022038D01*
X024589Y022196D02*
X022807Y022196D01*
X022800Y022355D02*
X024589Y022355D01*
X024589Y022513D02*
X022735Y022513D01*
X022594Y022672D02*
X024589Y022672D01*
X024589Y022830D02*
X021070Y022830D01*
X021228Y022989D02*
X024589Y022989D01*
X024589Y023147D02*
X021387Y023147D01*
X021545Y023306D02*
X024589Y023306D01*
X024589Y023464D02*
X024357Y023464D01*
X024324Y023432D02*
X024462Y023569D01*
X024537Y023749D01*
X024537Y023944D01*
X024462Y024124D01*
X024324Y024262D01*
X024144Y024337D01*
X023949Y024337D01*
X023769Y024262D01*
X023632Y024124D01*
X023557Y023944D01*
X023557Y023749D01*
X023632Y023569D01*
X023769Y023432D01*
X023949Y023357D01*
X024144Y023357D01*
X024324Y023432D01*
X024485Y023623D02*
X024589Y023623D01*
X024589Y023781D02*
X024537Y023781D01*
X024537Y023940D02*
X024589Y023940D01*
X024589Y024098D02*
X024473Y024098D01*
X024589Y024257D02*
X024330Y024257D01*
X024286Y024415D02*
X024589Y024415D01*
X024589Y024574D02*
X024464Y024574D01*
X024462Y024569D02*
X024537Y024749D01*
X024537Y024944D01*
X024462Y025124D01*
X024324Y025262D01*
X024144Y025337D01*
X023949Y025337D01*
X023769Y025262D01*
X023632Y025124D01*
X023557Y024944D01*
X023557Y024749D01*
X023632Y024569D01*
X023769Y024432D01*
X023949Y024357D01*
X024144Y024357D01*
X024324Y024432D01*
X024462Y024569D01*
X024530Y024732D02*
X024589Y024732D01*
X024589Y024891D02*
X024537Y024891D01*
X024493Y025049D02*
X024589Y025049D01*
X024567Y025208D02*
X024379Y025208D01*
X024393Y025366D02*
X022832Y025366D01*
X022832Y025208D02*
X023715Y025208D01*
X023600Y025049D02*
X022832Y025049D01*
X022785Y024891D02*
X023557Y024891D01*
X023564Y024732D02*
X022237Y024732D01*
X022237Y024574D02*
X023630Y024574D01*
X023808Y024415D02*
X022237Y024415D01*
X022237Y024257D02*
X023764Y024257D01*
X023621Y024098D02*
X022237Y024098D01*
X022179Y023940D02*
X023557Y023940D01*
X023557Y023781D02*
X022021Y023781D01*
X021862Y023623D02*
X023609Y023623D01*
X023736Y023464D02*
X021704Y023464D01*
X021997Y024097D02*
X018647Y020747D01*
X018647Y017147D01*
X017347Y015847D01*
X015747Y015847D01*
X015447Y015547D01*
X015687Y015381D02*
X015914Y015381D01*
X015993Y015469D02*
X015993Y015469D01*
X016072Y015539D02*
X015779Y015539D01*
X015813Y015222D02*
X015687Y015222D01*
X015784Y015166D02*
X015784Y015166D01*
X015745Y015064D02*
X015687Y015064D01*
X015710Y014931D02*
X015710Y014931D01*
X015707Y014905D02*
X015687Y014905D01*
X015687Y014747D02*
X016635Y014747D01*
X016635Y014588D02*
X016795Y014588D01*
X016795Y014430D02*
X016635Y014430D01*
X016635Y014271D02*
X016795Y014271D01*
X016795Y014113D02*
X016635Y014113D01*
X016635Y013954D02*
X016795Y013954D01*
X016795Y013796D02*
X016635Y013796D01*
X016900Y013742D02*
X016900Y013742D01*
X017084Y013796D02*
X017897Y013796D01*
X017897Y013954D02*
X017359Y013954D01*
X017346Y013943D02*
X017346Y013943D01*
X017516Y014113D02*
X017897Y014113D01*
X017897Y014271D02*
X017618Y014271D01*
X017686Y014430D02*
X017897Y014430D01*
X017897Y014588D02*
X017724Y014588D01*
X017897Y014747D02*
X016795Y014747D01*
X017359Y015539D02*
X017897Y015539D01*
X017897Y015381D02*
X017516Y015381D01*
X017590Y015276D02*
X017590Y015276D01*
X017618Y015222D02*
X017897Y015222D01*
X017897Y015064D02*
X017686Y015064D01*
X017691Y015051D02*
X017691Y015051D01*
X017724Y014905D02*
X017897Y014905D01*
X017346Y015551D02*
X017346Y015551D01*
X017537Y015698D02*
X017897Y015698D01*
X017897Y015856D02*
X017696Y015856D01*
X017854Y016015D02*
X024589Y016015D01*
X024589Y016173D02*
X018013Y016173D01*
X018171Y016332D02*
X024589Y016332D01*
X024589Y016490D02*
X018330Y016490D01*
X018488Y016649D02*
X024589Y016649D01*
X024589Y016807D02*
X018647Y016807D01*
X018805Y016966D02*
X024589Y016966D01*
X024589Y017124D02*
X018887Y017124D01*
X018887Y017283D02*
X024589Y017283D01*
X024589Y017441D02*
X018887Y017441D01*
X018887Y017600D02*
X024589Y017600D01*
X024589Y017758D02*
X018887Y017758D01*
X018887Y017917D02*
X024589Y017917D01*
X024589Y018075D02*
X018887Y018075D01*
X018887Y018234D02*
X024589Y018234D01*
X024589Y018392D02*
X018887Y018392D01*
X018887Y018551D02*
X024589Y018551D01*
X024589Y018709D02*
X018887Y018709D01*
X018887Y018868D02*
X024589Y018868D01*
X024589Y019026D02*
X018887Y019026D01*
X018887Y019185D02*
X024589Y019185D01*
X024589Y019343D02*
X018887Y019343D01*
X018887Y019502D02*
X024589Y019502D01*
X024589Y019660D02*
X018887Y019660D01*
X018887Y019819D02*
X024589Y019819D01*
X024589Y019977D02*
X018887Y019977D01*
X018887Y020136D02*
X024589Y020136D01*
X024589Y020294D02*
X018887Y020294D01*
X018887Y020453D02*
X024589Y020453D01*
X024589Y020611D02*
X018887Y020611D01*
X019009Y020770D02*
X024589Y020770D01*
X024589Y020928D02*
X019168Y020928D01*
X019326Y021087D02*
X024589Y021087D01*
X024589Y021245D02*
X019485Y021245D01*
X019643Y021404D02*
X024589Y021404D01*
X024589Y021562D02*
X019802Y021562D01*
X018147Y021047D02*
X018147Y017147D01*
X017247Y016247D01*
X015347Y016247D01*
X014747Y015647D01*
X014747Y012247D01*
X014507Y012845D02*
X014487Y012845D01*
X014487Y013003D02*
X014507Y013003D01*
X014507Y013162D02*
X014487Y013162D01*
X014487Y013320D02*
X014507Y013320D01*
X014507Y013479D02*
X014487Y013479D01*
X014487Y013637D02*
X014507Y013637D01*
X014507Y013796D02*
X014487Y013796D01*
X014487Y013954D02*
X014507Y013954D01*
X014507Y014113D02*
X014487Y014113D01*
X014487Y014271D02*
X014507Y014271D01*
X014507Y014430D02*
X014487Y014430D01*
X014487Y014588D02*
X014507Y014588D01*
X014507Y014747D02*
X014487Y014747D01*
X014487Y014905D02*
X014507Y014905D01*
X014507Y015064D02*
X014487Y015064D01*
X014487Y015222D02*
X014507Y015222D01*
X014507Y015381D02*
X014487Y015381D01*
X014487Y015539D02*
X014507Y015539D01*
X014508Y015698D02*
X014487Y015698D01*
X014487Y015856D02*
X014617Y015856D01*
X014487Y016015D02*
X014776Y016015D01*
X014934Y016173D02*
X014454Y016173D01*
X014383Y016250D02*
X014383Y016250D01*
X014301Y016332D02*
X015093Y016332D01*
X015687Y014588D02*
X015707Y014588D01*
X015687Y014430D02*
X015745Y014430D01*
X015687Y014271D02*
X015813Y014271D01*
X015841Y014218D02*
X015841Y014218D01*
X015914Y014113D02*
X015687Y014113D01*
X015687Y013954D02*
X016072Y013954D01*
X016085Y013943D02*
X016085Y013943D01*
X015993Y014024D02*
X015993Y014024D01*
X015993Y014024D01*
X016187Y013872D02*
X016187Y013872D01*
X016296Y013815D02*
X016296Y013815D01*
X016347Y013796D02*
X015687Y013796D01*
X015687Y013637D02*
X017897Y013637D01*
X017897Y013479D02*
X015687Y013479D01*
X015687Y013320D02*
X017897Y013320D01*
X017897Y013162D02*
X015687Y013162D01*
X015687Y013003D02*
X017897Y013003D01*
X017667Y012845D02*
X015687Y012845D01*
X015687Y012686D02*
X017552Y012686D01*
X017503Y012528D02*
X015687Y012528D01*
X015687Y012369D02*
X017502Y012369D01*
X017497Y012404D02*
X017510Y012318D01*
X017537Y012236D01*
X017577Y012159D01*
X017627Y012089D01*
X017689Y012027D01*
X017759Y011977D01*
X017836Y011937D01*
X017918Y011910D01*
X018004Y011897D01*
X018038Y011897D01*
X018038Y012438D01*
X017497Y012438D01*
X017497Y012404D01*
X017550Y012211D02*
X015687Y012211D01*
X015687Y012052D02*
X017664Y012052D01*
X018038Y012052D02*
X018056Y012052D01*
X018056Y011897D02*
X018090Y011897D01*
X018176Y011910D01*
X018258Y011937D01*
X018335Y011977D01*
X018405Y012027D01*
X018466Y012089D01*
X018517Y012159D01*
X018557Y012236D01*
X018583Y012318D01*
X018597Y012404D01*
X018597Y012438D01*
X018056Y012438D01*
X018056Y011897D01*
X018038Y012211D02*
X018056Y012211D01*
X018056Y012369D02*
X018038Y012369D01*
X018430Y012052D02*
X026721Y012052D01*
X026687Y012136D02*
X026772Y011930D01*
X026930Y011772D01*
X027136Y011687D01*
X027358Y011687D01*
X027564Y011772D01*
X027722Y011930D01*
X027807Y012136D01*
X027807Y012358D01*
X027722Y012564D01*
X027564Y012722D01*
X027358Y012807D01*
X027136Y012807D01*
X026930Y012722D01*
X026772Y012564D01*
X026687Y012358D01*
X026687Y012136D01*
X026687Y012211D02*
X018544Y012211D01*
X018592Y012369D02*
X026692Y012369D01*
X026757Y012528D02*
X018591Y012528D01*
X018542Y012686D02*
X026894Y012686D01*
X027599Y012686D02*
X028933Y012686D01*
X028908Y012528D02*
X027737Y012528D01*
X027802Y012369D02*
X028883Y012369D01*
X028858Y012211D02*
X027807Y012211D01*
X027773Y012052D02*
X028834Y012052D01*
X028809Y011894D02*
X027686Y011894D01*
X027475Y011735D02*
X028776Y011735D01*
X028735Y011577D02*
X015678Y011577D01*
X015687Y011735D02*
X027018Y011735D01*
X026808Y011894D02*
X015687Y011894D01*
X016026Y011418D02*
X028693Y011418D01*
X028651Y011260D02*
X016157Y011260D01*
X016207Y011101D02*
X028609Y011101D01*
X028568Y010943D02*
X016207Y010943D01*
X016207Y010784D02*
X028526Y010784D01*
X028484Y010626D02*
X016207Y010626D01*
X016207Y010467D02*
X028442Y010467D01*
X028392Y010309D02*
X016188Y010309D01*
X016101Y010150D02*
X028333Y010150D01*
X028273Y009992D02*
X015850Y009992D01*
X015643Y009992D02*
X014987Y009992D01*
X014987Y009833D02*
X028213Y009833D01*
X028153Y009675D02*
X027611Y009675D01*
X027722Y009564D02*
X027807Y009358D01*
X027807Y009199D02*
X027974Y009199D01*
X027914Y009041D02*
X027768Y009041D01*
X027840Y008882D02*
X027674Y008882D01*
X027761Y008724D02*
X027448Y008724D01*
X027682Y008565D02*
X023687Y008565D01*
X023687Y008407D02*
X027602Y008407D01*
X027523Y008248D02*
X023687Y008248D01*
X023687Y008090D02*
X027444Y008090D01*
X027365Y007931D02*
X023687Y007931D01*
X023687Y007773D02*
X027286Y007773D01*
X027198Y007614D02*
X023687Y007614D01*
X023687Y007456D02*
X027097Y007456D01*
X026996Y007297D02*
X023687Y007297D01*
X023687Y007139D02*
X026895Y007139D01*
X026794Y006980D02*
X023687Y006980D01*
X023687Y006822D02*
X026694Y006822D01*
X026593Y006663D02*
X023687Y006663D01*
X023687Y006505D02*
X026492Y006505D01*
X026378Y006346D02*
X023687Y006346D01*
X023687Y006188D02*
X026253Y006188D01*
X026127Y006029D02*
X023687Y006029D01*
X023687Y005871D02*
X026002Y005871D01*
X025876Y005712D02*
X023687Y005712D01*
X023726Y005554D02*
X024148Y005554D01*
X024118Y005532D02*
X024062Y005476D01*
X024015Y005412D01*
X023979Y005341D01*
X023954Y005265D01*
X023942Y005187D01*
X023942Y005147D01*
X024447Y005147D01*
X024952Y005147D01*
X024952Y005187D01*
X024939Y005265D01*
X024915Y005341D01*
X024879Y005412D01*
X024832Y005476D01*
X024776Y005532D01*
X024712Y005579D01*
X024641Y005615D01*
X024565Y005639D01*
X024487Y005652D01*
X024447Y005652D01*
X024447Y005147D01*
X024447Y005147D01*
X024447Y005147D01*
X024952Y005147D01*
X024952Y005107D01*
X024939Y005029D01*
X024915Y004953D01*
X024879Y004882D01*
X024832Y004818D01*
X024776Y004762D01*
X024712Y004715D01*
X024641Y004679D01*
X024565Y004654D01*
X024487Y004642D01*
X024447Y004642D01*
X024447Y005147D01*
X024447Y005652D01*
X024407Y005652D01*
X024329Y005639D01*
X024253Y005615D01*
X024182Y005579D01*
X024118Y005532D01*
X024007Y005395D02*
X023869Y005395D01*
X023932Y005237D02*
X023950Y005237D01*
X023942Y005147D02*
X023942Y005107D01*
X023954Y005029D01*
X023979Y004953D01*
X024015Y004882D01*
X024062Y004818D01*
X024118Y004762D01*
X024182Y004715D01*
X024253Y004679D01*
X024329Y004654D01*
X024407Y004642D01*
X024447Y004642D01*
X024447Y005147D01*
X024447Y005147D01*
X024447Y005147D01*
X023942Y005147D01*
X023932Y005078D02*
X023946Y005078D01*
X023996Y004920D02*
X023878Y004920D01*
X023747Y004761D02*
X024118Y004761D01*
X024447Y004761D02*
X024447Y004761D01*
X024447Y004920D02*
X024447Y004920D01*
X024447Y005078D02*
X024447Y005078D01*
X024447Y005237D02*
X024447Y005237D01*
X024447Y005395D02*
X024447Y005395D01*
X024447Y005554D02*
X024447Y005554D01*
X024746Y005554D02*
X025751Y005554D01*
X025625Y005395D02*
X024887Y005395D01*
X024944Y005237D02*
X025494Y005237D01*
X025339Y005078D02*
X024947Y005078D01*
X024898Y004920D02*
X025185Y004920D01*
X025030Y004761D02*
X024775Y004761D01*
X024876Y004603D02*
X022887Y004603D01*
X022887Y004761D02*
X023147Y004761D01*
X023016Y004920D02*
X022887Y004920D01*
X022887Y005078D02*
X022962Y005078D01*
X022962Y005237D02*
X022887Y005237D01*
X022887Y005395D02*
X023025Y005395D01*
X022887Y005554D02*
X023168Y005554D01*
X023207Y005712D02*
X022887Y005712D01*
X022887Y005871D02*
X023207Y005871D01*
X023207Y006029D02*
X022887Y006029D01*
X022887Y006188D02*
X023207Y006188D01*
X023207Y006346D02*
X022887Y006346D01*
X022887Y006505D02*
X023207Y006505D01*
X023207Y006663D02*
X023003Y006663D01*
X023161Y006822D02*
X023207Y006822D01*
X023047Y007047D02*
X023047Y008247D01*
X022847Y008447D01*
X018047Y008447D01*
X017555Y008248D02*
X014987Y008248D01*
X014987Y008090D02*
X017654Y008090D01*
X017836Y007931D02*
X015658Y007931D01*
X015880Y007773D02*
X017613Y007773D01*
X017527Y007614D02*
X015967Y007614D01*
X015997Y007456D02*
X017497Y007456D01*
X017511Y007297D02*
X015983Y007297D01*
X015917Y007139D02*
X017577Y007139D01*
X017744Y006980D02*
X015750Y006980D01*
X015053Y007773D02*
X014987Y007773D01*
X014987Y007931D02*
X015276Y007931D01*
X014987Y008407D02*
X017517Y008407D01*
X017522Y008565D02*
X014987Y008565D01*
X014987Y008724D02*
X017588Y008724D01*
X017733Y008882D02*
X014987Y008882D01*
X014987Y009041D02*
X023226Y009041D01*
X023207Y008882D02*
X018361Y008882D01*
X018506Y008724D02*
X023207Y008724D01*
X023207Y008565D02*
X023068Y008565D01*
X023447Y008947D02*
X023747Y009247D01*
X027247Y009247D01*
X026883Y009675D02*
X014987Y009675D01*
X014987Y009516D02*
X026752Y009516D01*
X026819Y008882D02*
X023722Y008882D01*
X023687Y008724D02*
X027046Y008724D01*
X023519Y009358D02*
X014987Y009358D01*
X014987Y009199D02*
X023360Y009199D01*
X023447Y008947D02*
X023447Y005147D01*
X022647Y004647D02*
X022647Y006647D01*
X023047Y007047D01*
X022807Y007297D02*
X022807Y007297D01*
X022807Y007456D02*
X022775Y007456D01*
X022807Y007614D02*
X022691Y007614D01*
X022807Y007773D02*
X022488Y007773D01*
X022807Y007931D02*
X018218Y007931D01*
X018439Y008090D02*
X022807Y008090D01*
X022247Y007267D02*
X022247Y005047D01*
X021947Y004747D01*
X018447Y004747D01*
X018247Y004547D01*
X018247Y004097D01*
X017792Y003810D02*
X017240Y003810D01*
X017229Y003799D02*
X017345Y003915D01*
X017407Y004065D01*
X017407Y004228D01*
X017345Y004379D01*
X017229Y004495D01*
X017078Y004557D01*
X016415Y004557D01*
X016265Y004495D01*
X016149Y004379D01*
X016087Y004228D01*
X016087Y004065D01*
X016149Y003915D01*
X016265Y003799D01*
X016415Y003737D01*
X017078Y003737D01*
X017229Y003799D01*
X017367Y003969D02*
X017726Y003969D01*
X017717Y004127D02*
X017407Y004127D01*
X017383Y004286D02*
X017752Y004286D01*
X017845Y004444D02*
X017279Y004444D01*
X018010Y004603D02*
X015687Y004603D01*
X015687Y004761D02*
X018122Y004761D01*
X018281Y004920D02*
X015687Y004920D01*
X015687Y004444D02*
X016215Y004444D01*
X016111Y004286D02*
X015687Y004286D01*
X015687Y004127D02*
X016087Y004127D01*
X016127Y003969D02*
X015687Y003969D01*
X015687Y003810D02*
X016254Y003810D01*
X016415Y003557D02*
X016265Y003495D01*
X016149Y003379D01*
X016087Y003228D01*
X016087Y003065D01*
X016149Y002915D01*
X016265Y002799D01*
X016415Y002737D01*
X017078Y002737D01*
X017229Y002799D01*
X017345Y002915D01*
X017407Y003065D01*
X017407Y003228D01*
X017345Y003379D01*
X017229Y003495D01*
X017078Y003557D01*
X016415Y003557D01*
X016264Y003493D02*
X015687Y003493D01*
X015687Y003335D02*
X016131Y003335D01*
X016087Y003176D02*
X015687Y003176D01*
X015687Y003018D02*
X016107Y003018D01*
X016205Y002859D02*
X015687Y002859D01*
X015687Y002701D02*
X017717Y002701D01*
X017717Y002859D02*
X017289Y002859D01*
X017387Y003018D02*
X017717Y003018D01*
X017717Y003176D02*
X017407Y003176D01*
X017363Y003335D02*
X017717Y003335D01*
X017717Y003493D02*
X017230Y003493D01*
X017942Y003652D02*
X015687Y003652D01*
X015447Y003947D02*
X015447Y001847D01*
X015647Y001647D01*
X018947Y001647D01*
X020247Y002747D01*
X020247Y003097D01*
X020847Y002747D02*
X020847Y004047D01*
X021147Y004347D01*
X022347Y004347D01*
X022647Y004647D01*
X022784Y004444D02*
X024721Y004444D01*
X024567Y004286D02*
X022625Y004286D01*
X022444Y004127D02*
X024393Y004127D01*
X024203Y003969D02*
X021108Y003969D01*
X021087Y003810D02*
X024013Y003810D01*
X023823Y003652D02*
X021087Y003652D01*
X021087Y003493D02*
X023633Y003493D01*
X023443Y003335D02*
X021087Y003335D01*
X021087Y003176D02*
X023227Y003176D01*
X022991Y003018D02*
X021087Y003018D01*
X021087Y002859D02*
X022756Y002859D01*
X022520Y002701D02*
X021087Y002701D01*
X020980Y002542D02*
X022285Y002542D01*
X022026Y002384D02*
X020798Y002384D01*
X020619Y002225D02*
X021729Y002225D01*
X021431Y002067D02*
X020439Y002067D01*
X020259Y001908D02*
X021133Y001908D01*
X020836Y001750D02*
X020080Y001750D01*
X019900Y001591D02*
X020447Y001591D01*
X020057Y001433D02*
X019720Y001433D01*
X019668Y001274D02*
X019541Y001274D01*
X019147Y001247D02*
X020847Y002747D01*
X019147Y001247D02*
X017847Y001247D01*
X017247Y000647D01*
X015947Y000647D01*
X014447Y002147D01*
X013747Y002147D01*
X014114Y002542D02*
X015207Y002542D01*
X015207Y002384D02*
X014502Y002384D01*
X014708Y002225D02*
X015207Y002225D01*
X015207Y002067D02*
X014866Y002067D01*
X015025Y001908D02*
X015207Y001908D01*
X015183Y001750D02*
X015227Y001750D01*
X015342Y001591D02*
X015363Y001591D01*
X015500Y001433D02*
X015536Y001433D01*
X015659Y001274D02*
X016106Y001274D01*
X016087Y001116D02*
X015817Y001116D01*
X015976Y000957D02*
X016132Y000957D01*
X015456Y000799D02*
X014249Y000799D01*
X014383Y000957D02*
X015297Y000957D01*
X015139Y001116D02*
X014427Y001116D01*
X014408Y001274D02*
X014980Y001274D01*
X014822Y001433D02*
X014319Y001433D01*
X014289Y002859D02*
X015207Y002859D01*
X015207Y002701D02*
X012427Y002701D01*
X012747Y003147D02*
X013747Y003147D01*
X013264Y003493D02*
X012740Y003493D01*
X012687Y003652D02*
X015207Y003652D01*
X015207Y003810D02*
X014240Y003810D01*
X014230Y003493D02*
X015207Y003493D01*
X015207Y003335D02*
X014363Y003335D01*
X014407Y003176D02*
X015207Y003176D01*
X015207Y003018D02*
X014387Y003018D01*
X015687Y002542D02*
X016380Y002542D01*
X016154Y002384D02*
X015687Y002384D01*
X015687Y002225D02*
X016087Y002225D01*
X016087Y002067D02*
X015687Y002067D01*
X015725Y001908D02*
X016156Y001908D01*
X016747Y002147D02*
X018147Y002147D01*
X018247Y002247D01*
X018247Y003097D01*
X018007Y002542D02*
X017114Y002542D01*
X015207Y004444D02*
X014279Y004444D01*
X014501Y004761D02*
X015207Y004761D01*
X015207Y004603D02*
X008785Y004603D01*
X011796Y005237D02*
X013697Y005237D01*
X013562Y005395D02*
X011932Y005395D01*
X011997Y005554D02*
X013497Y005554D01*
X013497Y005712D02*
X011997Y005712D01*
X011952Y005871D02*
X013542Y005871D01*
X013650Y006029D02*
X011844Y006029D01*
X011053Y007773D02*
X008237Y007773D01*
X008237Y007931D02*
X011276Y007931D01*
X011054Y008090D02*
X008237Y008090D01*
X008237Y008248D02*
X010955Y008248D01*
X010917Y008407D02*
X008237Y008407D01*
X008237Y008565D02*
X010922Y008565D01*
X010988Y008724D02*
X008237Y008724D01*
X008237Y008882D02*
X011133Y008882D01*
X008516Y011577D02*
X015038Y011577D01*
X015241Y011101D02*
X015287Y011101D01*
X015287Y010943D02*
X015207Y010943D01*
X015207Y010784D02*
X015287Y010784D01*
X015287Y010626D02*
X015207Y010626D01*
X015207Y010467D02*
X015287Y010467D01*
X015306Y010309D02*
X015188Y010309D01*
X015101Y010150D02*
X015393Y010150D01*
X018427Y012845D02*
X028957Y012845D01*
X028982Y013003D02*
X027739Y013003D01*
X027739Y013162D02*
X029007Y013162D01*
X029026Y013320D02*
X027739Y013320D01*
X027739Y013479D02*
X029034Y013479D01*
X027981Y013637D02*
X027739Y013637D01*
X027739Y013796D02*
X027981Y013796D01*
X027981Y013954D02*
X027739Y013954D01*
X027739Y014113D02*
X027981Y014113D01*
X027981Y014271D02*
X027739Y014271D01*
X027739Y014430D02*
X027981Y014430D01*
X028045Y014588D02*
X027739Y014588D01*
X027739Y014747D02*
X029100Y014747D01*
X029091Y014905D02*
X028777Y014905D01*
X028561Y014905D02*
X028521Y014905D01*
X028521Y014856D02*
X028521Y015416D01*
X027961Y015416D01*
X027961Y015390D01*
X027975Y015300D01*
X028003Y015213D01*
X028045Y015132D01*
X028098Y015058D01*
X028163Y014994D01*
X028237Y014940D01*
X028318Y014898D01*
X028405Y014870D01*
X028495Y014856D01*
X028521Y014856D01*
X028521Y015064D02*
X028561Y015064D01*
X028561Y015222D02*
X028521Y015222D01*
X028521Y015381D02*
X028561Y015381D01*
X028561Y015539D02*
X028521Y015539D01*
X028521Y015698D02*
X028561Y015698D01*
X028561Y015856D02*
X028521Y015856D01*
X028521Y016015D02*
X028561Y016015D01*
X028592Y016015D02*
X029034Y016015D01*
X029026Y016173D02*
X027739Y016173D01*
X027739Y016015D02*
X028489Y016015D01*
X028141Y015856D02*
X027739Y015856D01*
X027739Y015698D02*
X028023Y015698D01*
X027970Y015539D02*
X027739Y015539D01*
X027739Y015381D02*
X027962Y015381D01*
X028000Y015222D02*
X027739Y015222D01*
X027739Y015064D02*
X028094Y015064D01*
X028304Y014905D02*
X027739Y014905D01*
X028987Y015064D02*
X029083Y015064D01*
X029091Y014588D02*
X029036Y014588D01*
X029042Y015856D02*
X028940Y015856D01*
X029007Y016332D02*
X027739Y016332D01*
X027739Y016490D02*
X028982Y016490D01*
X028957Y016649D02*
X027739Y016649D01*
X027739Y016807D02*
X028933Y016807D01*
X028908Y016966D02*
X027739Y016966D01*
X027739Y017124D02*
X028883Y017124D01*
X028858Y017283D02*
X027739Y017283D01*
X027739Y017441D02*
X028834Y017441D01*
X028809Y017600D02*
X027739Y017600D01*
X027739Y017758D02*
X028776Y017758D01*
X028735Y017917D02*
X027739Y017917D01*
X027739Y018075D02*
X028693Y018075D01*
X028651Y018234D02*
X027739Y018234D01*
X027739Y018392D02*
X028609Y018392D01*
X028568Y018551D02*
X027739Y018551D01*
X027739Y018709D02*
X028526Y018709D01*
X028484Y018868D02*
X027739Y018868D01*
X027739Y019026D02*
X028442Y019026D01*
X028392Y019185D02*
X027739Y019185D01*
X027739Y019343D02*
X028333Y019343D01*
X028273Y019502D02*
X027739Y019502D01*
X027739Y019660D02*
X028213Y019660D01*
X028153Y019819D02*
X027739Y019819D01*
X027739Y019977D02*
X028094Y019977D01*
X028034Y020136D02*
X027739Y020136D01*
X027739Y020294D02*
X027974Y020294D01*
X027914Y020453D02*
X027739Y020453D01*
X027739Y020611D02*
X027840Y020611D01*
X027761Y020770D02*
X027739Y020770D01*
X024203Y025525D02*
X022817Y025525D01*
X022709Y025683D02*
X024013Y025683D01*
X022285Y025683D02*
X022209Y025683D01*
X021785Y025683D02*
X021709Y025683D01*
X021285Y025683D02*
X021209Y025683D01*
X021497Y025247D02*
X021497Y024397D01*
X018147Y021047D01*
X021997Y024097D02*
X021997Y025247D01*
X017520Y014117D02*
X017520Y014117D01*
X017135Y013815D02*
X017135Y013815D01*
X015090Y006029D02*
X014987Y006029D01*
X014507Y006029D02*
X014404Y006029D01*
X014987Y005395D02*
X015002Y005395D01*
X014961Y005237D02*
X015137Y005237D01*
X015207Y005078D02*
X014818Y005078D01*
X014659Y004920D02*
X015207Y004920D01*
D22*
X007997Y005797D03*
X014247Y012547D03*
M02*
