G75*
%MOIN*%
%OFA0B0*%
%FSLAX24Y24*%
%IPPOS*%
%LPD*%
%AMOC8*
5,1,8,0,0,1.08239X$1,22.5*
%
%ADD10C,0.0010*%
%ADD11C,0.0500*%
%ADD12C,0.0660*%
%ADD13C,0.0740*%
%ADD14C,0.0800*%
%ADD15C,0.0000*%
%ADD16R,0.0800X0.0800*%
%ADD17R,0.0740X0.0740*%
%ADD18C,0.0650*%
%ADD19C,0.0350*%
%ADD20C,0.0600*%
%ADD21C,0.1650*%
%ADD22C,0.0080*%
%ADD23C,0.0160*%
%ADD24C,0.0400*%
D10*
X000229Y014747D02*
X000233Y015103D01*
X000246Y015459D01*
X000268Y015815D01*
X000299Y016170D01*
X000338Y016524D01*
X000386Y016877D01*
X000443Y017229D01*
X000508Y017579D01*
X000582Y017928D01*
X000664Y018275D01*
X000755Y018619D01*
X000854Y018961D01*
X000962Y019301D01*
X001078Y019638D01*
X001202Y019972D01*
X001334Y020303D01*
X001475Y020630D01*
X001623Y020954D01*
X001779Y021274D01*
X001943Y021591D01*
X002115Y021903D01*
X002294Y022211D01*
X002481Y022514D01*
X002676Y022813D01*
X002877Y023107D01*
X003086Y023395D01*
X003302Y023679D01*
X003524Y023957D01*
X003754Y024230D01*
X003990Y024497D01*
X004232Y024758D01*
X004481Y025013D01*
X004736Y025262D01*
X004997Y025504D01*
X005264Y025740D01*
X005537Y025970D01*
X005815Y026192D01*
X006099Y026408D01*
X006387Y026617D01*
X006681Y026818D01*
X006980Y027013D01*
X007283Y027200D01*
X007591Y027379D01*
X007903Y027551D01*
X008220Y027715D01*
X008540Y027871D01*
X008864Y028019D01*
X009191Y028160D01*
X009522Y028292D01*
X009856Y028416D01*
X010193Y028532D01*
X010533Y028640D01*
X010875Y028739D01*
X011219Y028830D01*
X011566Y028912D01*
X011915Y028986D01*
X012265Y029051D01*
X012617Y029108D01*
X012970Y029156D01*
X013324Y029195D01*
X013679Y029226D01*
X014035Y029248D01*
X014391Y029261D01*
X014747Y029265D01*
X015103Y029261D01*
X015459Y029248D01*
X015815Y029226D01*
X016170Y029195D01*
X016524Y029156D01*
X016877Y029108D01*
X017229Y029051D01*
X017579Y028986D01*
X017928Y028912D01*
X018275Y028830D01*
X018619Y028739D01*
X018961Y028640D01*
X019301Y028532D01*
X019638Y028416D01*
X019972Y028292D01*
X020303Y028160D01*
X020630Y028019D01*
X020954Y027871D01*
X021274Y027715D01*
X021591Y027551D01*
X021903Y027379D01*
X022211Y027200D01*
X022514Y027013D01*
X022813Y026818D01*
X023107Y026617D01*
X023395Y026408D01*
X023679Y026192D01*
X023957Y025970D01*
X024230Y025740D01*
X024497Y025504D01*
X024758Y025262D01*
X025013Y025013D01*
X025262Y024758D01*
X025504Y024497D01*
X025740Y024230D01*
X025970Y023957D01*
X026192Y023679D01*
X026408Y023395D01*
X026617Y023107D01*
X026818Y022813D01*
X027013Y022514D01*
X027200Y022211D01*
X027379Y021903D01*
X027551Y021591D01*
X027715Y021274D01*
X027871Y020954D01*
X028019Y020630D01*
X028160Y020303D01*
X028292Y019972D01*
X028416Y019638D01*
X028532Y019301D01*
X028640Y018961D01*
X028739Y018619D01*
X028830Y018275D01*
X028912Y017928D01*
X028986Y017579D01*
X029051Y017229D01*
X029108Y016877D01*
X029156Y016524D01*
X029195Y016170D01*
X029226Y015815D01*
X029248Y015459D01*
X029261Y015103D01*
X029265Y014747D01*
X029261Y014391D01*
X029248Y014035D01*
X029226Y013679D01*
X029195Y013324D01*
X029156Y012970D01*
X029108Y012617D01*
X029051Y012265D01*
X028986Y011915D01*
X028912Y011566D01*
X028830Y011219D01*
X028739Y010875D01*
X028640Y010533D01*
X028532Y010193D01*
X028416Y009856D01*
X028292Y009522D01*
X028160Y009191D01*
X028019Y008864D01*
X027871Y008540D01*
X027715Y008220D01*
X027551Y007903D01*
X027379Y007591D01*
X027200Y007283D01*
X027013Y006980D01*
X026818Y006681D01*
X026617Y006387D01*
X026408Y006099D01*
X026192Y005815D01*
X025970Y005537D01*
X025740Y005264D01*
X025504Y004997D01*
X025262Y004736D01*
X025013Y004481D01*
X024758Y004232D01*
X024497Y003990D01*
X024230Y003754D01*
X023957Y003524D01*
X023679Y003302D01*
X023395Y003086D01*
X023107Y002877D01*
X022813Y002676D01*
X022514Y002481D01*
X022211Y002294D01*
X021903Y002115D01*
X021591Y001943D01*
X021274Y001779D01*
X020954Y001623D01*
X020630Y001475D01*
X020303Y001334D01*
X019972Y001202D01*
X019638Y001078D01*
X019301Y000962D01*
X018961Y000854D01*
X018619Y000755D01*
X018275Y000664D01*
X017928Y000582D01*
X017579Y000508D01*
X017229Y000443D01*
X016877Y000386D01*
X016524Y000338D01*
X016170Y000299D01*
X015815Y000268D01*
X015459Y000246D01*
X015103Y000233D01*
X014747Y000229D01*
X014391Y000233D01*
X014035Y000246D01*
X013679Y000268D01*
X013324Y000299D01*
X012970Y000338D01*
X012617Y000386D01*
X012265Y000443D01*
X011915Y000508D01*
X011566Y000582D01*
X011219Y000664D01*
X010875Y000755D01*
X010533Y000854D01*
X010193Y000962D01*
X009856Y001078D01*
X009522Y001202D01*
X009191Y001334D01*
X008864Y001475D01*
X008540Y001623D01*
X008220Y001779D01*
X007903Y001943D01*
X007591Y002115D01*
X007283Y002294D01*
X006980Y002481D01*
X006681Y002676D01*
X006387Y002877D01*
X006099Y003086D01*
X005815Y003302D01*
X005537Y003524D01*
X005264Y003754D01*
X004997Y003990D01*
X004736Y004232D01*
X004481Y004481D01*
X004232Y004736D01*
X003990Y004997D01*
X003754Y005264D01*
X003524Y005537D01*
X003302Y005815D01*
X003086Y006099D01*
X002877Y006387D01*
X002676Y006681D01*
X002481Y006980D01*
X002294Y007283D01*
X002115Y007591D01*
X001943Y007903D01*
X001779Y008220D01*
X001623Y008540D01*
X001475Y008864D01*
X001334Y009191D01*
X001202Y009522D01*
X001078Y009856D01*
X000962Y010193D01*
X000854Y010533D01*
X000755Y010875D01*
X000664Y011219D01*
X000582Y011566D01*
X000508Y011915D01*
X000443Y012265D01*
X000386Y012617D01*
X000338Y012970D01*
X000299Y013324D01*
X000268Y013679D01*
X000246Y014035D01*
X000233Y014391D01*
X000229Y014747D01*
D11*
X013497Y004147D02*
X013997Y004147D01*
X013997Y003147D02*
X013497Y003147D01*
X013497Y002147D02*
X013997Y002147D01*
X013997Y001147D02*
X013497Y001147D01*
X016497Y001147D02*
X016997Y001147D01*
X016997Y002147D02*
X016497Y002147D01*
X016497Y003147D02*
X016997Y003147D01*
X016997Y004147D02*
X016497Y004147D01*
D12*
X005347Y004647D03*
X005347Y005647D03*
X024047Y023847D03*
X024047Y024847D03*
X015534Y028047D03*
X013960Y028047D03*
D13*
X011547Y027947D03*
X009347Y025347D03*
X008347Y026347D03*
X007347Y025347D03*
X011547Y023947D03*
X011447Y021347D03*
X011447Y017347D03*
X011447Y012447D03*
X011447Y008447D03*
X011467Y007437D03*
X011467Y005657D03*
X011897Y003347D03*
X010447Y003347D03*
X014027Y005657D03*
X015467Y005657D03*
X015467Y007437D03*
X014027Y007437D03*
X018027Y007437D03*
X018047Y008447D03*
X018027Y005657D03*
X018247Y004097D03*
X019247Y004097D03*
X019247Y003097D03*
X020247Y003097D03*
X020247Y004097D03*
X018047Y012447D03*
D14*
X022247Y007267D03*
X027247Y009247D03*
X027247Y012247D03*
X028541Y015436D03*
X022247Y022227D03*
X007247Y022227D03*
X007247Y007267D03*
D15*
X018703Y007267D02*
X018705Y007306D01*
X018711Y007345D01*
X018721Y007383D01*
X018734Y007420D01*
X018751Y007455D01*
X018771Y007489D01*
X018795Y007520D01*
X018822Y007549D01*
X018851Y007575D01*
X018883Y007598D01*
X018917Y007618D01*
X018953Y007634D01*
X018990Y007646D01*
X019029Y007655D01*
X019068Y007660D01*
X019107Y007661D01*
X019146Y007658D01*
X019185Y007651D01*
X019222Y007640D01*
X019259Y007626D01*
X019294Y007608D01*
X019327Y007587D01*
X019358Y007562D01*
X019386Y007535D01*
X019411Y007505D01*
X019433Y007472D01*
X019452Y007438D01*
X019467Y007402D01*
X019479Y007364D01*
X019487Y007326D01*
X019491Y007287D01*
X019491Y007247D01*
X019487Y007208D01*
X019479Y007170D01*
X019467Y007132D01*
X019452Y007096D01*
X019433Y007062D01*
X019411Y007029D01*
X019386Y006999D01*
X019358Y006972D01*
X019327Y006947D01*
X019294Y006926D01*
X019259Y006908D01*
X019222Y006894D01*
X019185Y006883D01*
X019146Y006876D01*
X019107Y006873D01*
X019068Y006874D01*
X019029Y006879D01*
X018990Y006888D01*
X018953Y006900D01*
X018917Y006916D01*
X018883Y006936D01*
X018851Y006959D01*
X018822Y006985D01*
X018795Y007014D01*
X018771Y007045D01*
X018751Y007079D01*
X018734Y007114D01*
X018721Y007151D01*
X018711Y007189D01*
X018705Y007228D01*
X018703Y007267D01*
X010003Y022227D02*
X010005Y022266D01*
X010011Y022305D01*
X010021Y022343D01*
X010034Y022380D01*
X010051Y022415D01*
X010071Y022449D01*
X010095Y022480D01*
X010122Y022509D01*
X010151Y022535D01*
X010183Y022558D01*
X010217Y022578D01*
X010253Y022594D01*
X010290Y022606D01*
X010329Y022615D01*
X010368Y022620D01*
X010407Y022621D01*
X010446Y022618D01*
X010485Y022611D01*
X010522Y022600D01*
X010559Y022586D01*
X010594Y022568D01*
X010627Y022547D01*
X010658Y022522D01*
X010686Y022495D01*
X010711Y022465D01*
X010733Y022432D01*
X010752Y022398D01*
X010767Y022362D01*
X010779Y022324D01*
X010787Y022286D01*
X010791Y022247D01*
X010791Y022207D01*
X010787Y022168D01*
X010779Y022130D01*
X010767Y022092D01*
X010752Y022056D01*
X010733Y022022D01*
X010711Y021989D01*
X010686Y021959D01*
X010658Y021932D01*
X010627Y021907D01*
X010594Y021886D01*
X010559Y021868D01*
X010522Y021854D01*
X010485Y021843D01*
X010446Y021836D01*
X010407Y021833D01*
X010368Y021834D01*
X010329Y021839D01*
X010290Y021848D01*
X010253Y021860D01*
X010217Y021876D01*
X010183Y021896D01*
X010151Y021919D01*
X010122Y021945D01*
X010095Y021974D01*
X010071Y022005D01*
X010051Y022039D01*
X010034Y022074D01*
X010021Y022111D01*
X010011Y022149D01*
X010005Y022188D01*
X010003Y022227D01*
D16*
X028541Y014058D03*
D17*
X018247Y003097D03*
X011897Y002347D03*
X010447Y002347D03*
D18*
X023447Y005147D03*
X024447Y005147D03*
D19*
X008497Y004422D02*
X008497Y004072D01*
X007997Y004072D02*
X007997Y004422D01*
X007497Y004422D02*
X007497Y004072D01*
X006997Y004072D02*
X006997Y004422D01*
X020997Y025072D02*
X020997Y025422D01*
X021497Y025422D02*
X021497Y025072D01*
X021997Y025072D02*
X021997Y025422D01*
X022497Y025422D02*
X022497Y025072D01*
D20*
X015747Y011047D02*
X015747Y010447D01*
X014747Y010447D02*
X014747Y011047D01*
X013747Y011047D02*
X013747Y010447D01*
D21*
X012778Y014747D03*
X016715Y014747D03*
X026664Y022584D03*
X002830Y022584D03*
D22*
X003516Y022989D02*
X002143Y022989D01*
X002117Y022947D02*
X002069Y022831D01*
X002039Y022709D01*
X002030Y022584D01*
X002040Y022454D01*
X002071Y022328D01*
X002123Y022209D01*
X002193Y022099D01*
X002279Y022003D01*
X002381Y021921D01*
X002494Y021857D01*
X002616Y021813D01*
X002743Y021788D01*
X002873Y021785D01*
X003002Y021802D01*
X003126Y021840D01*
X003242Y021898D01*
X003348Y021974D01*
X003439Y022066D01*
X003515Y022171D01*
X003573Y022287D01*
X003611Y022412D01*
X003628Y022540D01*
X003625Y022670D01*
X003600Y022798D01*
X003556Y022919D01*
X003492Y023032D01*
X003410Y023134D01*
X003314Y023220D01*
X003204Y023290D01*
X003085Y023342D01*
X002959Y023373D01*
X002830Y023384D01*
X002704Y023374D01*
X002582Y023344D01*
X002466Y023296D01*
X002359Y023231D01*
X002264Y023149D01*
X002182Y023054D01*
X002117Y022947D01*
X002102Y022911D02*
X003559Y022911D01*
X003588Y022832D02*
X002069Y022832D01*
X002050Y022754D02*
X003609Y022754D01*
X003624Y022675D02*
X002037Y022675D01*
X002031Y022597D02*
X003627Y022597D01*
X003625Y022518D02*
X002035Y022518D01*
X002044Y022440D02*
X003615Y022440D01*
X003596Y022361D02*
X002063Y022361D01*
X002091Y022283D02*
X003571Y022283D01*
X003532Y022204D02*
X002126Y022204D01*
X002176Y022126D02*
X003483Y022126D01*
X003421Y022047D02*
X002239Y022047D01*
X002321Y021969D02*
X003341Y021969D01*
X003227Y021890D02*
X002435Y021890D01*
X002620Y021812D02*
X003033Y021812D01*
X003463Y023068D02*
X002195Y023068D01*
X002262Y023146D02*
X003396Y023146D01*
X003307Y023225D02*
X002353Y023225D01*
X002484Y023303D02*
X003174Y023303D01*
X002849Y023382D02*
X002809Y023382D01*
X012066Y015110D02*
X012018Y014994D01*
X011988Y014872D01*
X011978Y014747D01*
X013576Y014747D01*
X013577Y014704D02*
X013574Y014833D01*
X013549Y014961D01*
X013504Y015083D01*
X013441Y015196D01*
X013359Y015297D01*
X013263Y015384D01*
X013153Y015454D01*
X013034Y015505D01*
X012908Y015536D01*
X012778Y015547D01*
X012653Y015537D01*
X012531Y015508D01*
X012415Y015460D01*
X012308Y015394D01*
X012213Y015313D01*
X012131Y015217D01*
X012066Y015110D01*
X012084Y015139D02*
X013472Y015139D01*
X013513Y015061D02*
X012045Y015061D01*
X012015Y014982D02*
X013541Y014982D01*
X013560Y014904D02*
X011996Y014904D01*
X011985Y014825D02*
X013574Y014825D01*
X013577Y014704D02*
X013560Y014575D01*
X013522Y014451D01*
X013464Y014334D01*
X013388Y014229D01*
X013296Y014137D01*
X013191Y014061D01*
X013075Y014004D01*
X012950Y013966D01*
X012822Y013948D01*
X012692Y013952D01*
X012564Y013976D01*
X012443Y014021D01*
X012329Y014085D01*
X012228Y014166D01*
X012142Y014263D01*
X012072Y014372D01*
X012020Y014491D01*
X011989Y014618D01*
X011978Y014747D01*
X011985Y014668D02*
X013572Y014668D01*
X013562Y014590D02*
X011996Y014590D01*
X012015Y014511D02*
X013540Y014511D01*
X013513Y014433D02*
X012045Y014433D01*
X012083Y014354D02*
X013474Y014354D01*
X013422Y014276D02*
X012133Y014276D01*
X012200Y014197D02*
X013357Y014197D01*
X013271Y014119D02*
X012287Y014119D01*
X012408Y014040D02*
X013148Y014040D01*
X012923Y013962D02*
X012638Y013962D01*
X012132Y015218D02*
X013423Y015218D01*
X013360Y015296D02*
X012199Y015296D01*
X012286Y015375D02*
X013272Y015375D01*
X013154Y015453D02*
X012405Y015453D01*
X012632Y015532D02*
X012926Y015532D01*
X015925Y014872D02*
X015915Y014747D01*
X017513Y014747D01*
X017514Y014704D02*
X017511Y014833D01*
X017486Y014961D01*
X017441Y015083D01*
X017378Y015196D01*
X017296Y015297D01*
X017200Y015384D01*
X017090Y015454D01*
X016971Y015505D01*
X016845Y015536D01*
X016715Y015547D01*
X016590Y015537D01*
X016468Y015508D01*
X016352Y015460D01*
X016245Y015394D01*
X016150Y015313D01*
X016068Y015217D01*
X016003Y015110D01*
X015955Y014994D01*
X015925Y014872D01*
X015933Y014904D02*
X017497Y014904D01*
X017511Y014825D02*
X015922Y014825D01*
X015915Y014747D02*
X015926Y014618D01*
X015957Y014491D01*
X016009Y014372D01*
X016079Y014263D01*
X016165Y014166D01*
X016266Y014085D01*
X016380Y014021D01*
X016501Y013976D01*
X016629Y013952D01*
X016759Y013948D01*
X016887Y013966D01*
X017012Y014004D01*
X017128Y014061D01*
X017233Y014137D01*
X017325Y014229D01*
X017401Y014334D01*
X017459Y014451D01*
X017497Y014575D01*
X017514Y014704D01*
X017509Y014668D02*
X015922Y014668D01*
X015933Y014590D02*
X017499Y014590D01*
X017477Y014511D02*
X015952Y014511D01*
X015983Y014433D02*
X017450Y014433D01*
X017411Y014354D02*
X016020Y014354D01*
X016070Y014276D02*
X017359Y014276D01*
X017294Y014197D02*
X016137Y014197D01*
X016224Y014119D02*
X017208Y014119D01*
X017086Y014040D02*
X016345Y014040D01*
X016575Y013962D02*
X016860Y013962D01*
X017478Y014982D02*
X015952Y014982D01*
X015982Y015061D02*
X017450Y015061D01*
X017409Y015139D02*
X016021Y015139D01*
X016069Y015218D02*
X017360Y015218D01*
X017297Y015296D02*
X016136Y015296D01*
X016223Y015375D02*
X017209Y015375D01*
X017091Y015453D02*
X016342Y015453D01*
X016569Y015532D02*
X016863Y015532D01*
X025906Y022328D02*
X025875Y022454D01*
X025864Y022584D01*
X025874Y022709D01*
X025903Y022831D01*
X025951Y022947D01*
X026017Y023054D01*
X026099Y023149D01*
X026194Y023231D01*
X026301Y023296D01*
X026417Y023344D01*
X026539Y023374D01*
X026664Y023384D01*
X026794Y023373D01*
X026920Y023342D01*
X027039Y023290D01*
X027148Y023220D01*
X027245Y023134D01*
X027326Y023032D01*
X027390Y022919D01*
X027435Y022798D01*
X027460Y022670D01*
X027463Y022540D01*
X027446Y022412D01*
X027407Y022287D01*
X027350Y022171D01*
X027274Y022066D01*
X027182Y021974D01*
X027077Y021898D01*
X026960Y021840D01*
X026836Y021802D01*
X026708Y021785D01*
X026578Y021788D01*
X026450Y021813D01*
X026328Y021857D01*
X026215Y021921D01*
X026114Y022003D01*
X026027Y022099D01*
X025957Y022209D01*
X025906Y022328D01*
X025898Y022361D02*
X027430Y022361D01*
X027449Y022440D02*
X025878Y022440D01*
X025870Y022518D02*
X027460Y022518D01*
X027462Y022597D02*
X025865Y022597D01*
X025871Y022675D02*
X027459Y022675D01*
X027443Y022754D02*
X025885Y022754D01*
X025904Y022832D02*
X027422Y022832D01*
X027393Y022911D02*
X025937Y022911D01*
X025978Y022989D02*
X027351Y022989D01*
X027298Y023068D02*
X026029Y023068D01*
X026096Y023146D02*
X027231Y023146D01*
X027141Y023225D02*
X026187Y023225D01*
X026318Y023303D02*
X027009Y023303D01*
X026684Y023382D02*
X026644Y023382D01*
X025926Y022283D02*
X027405Y022283D01*
X027366Y022204D02*
X025960Y022204D01*
X026010Y022126D02*
X027317Y022126D01*
X027256Y022047D02*
X026074Y022047D01*
X026156Y021969D02*
X027175Y021969D01*
X027061Y021890D02*
X026270Y021890D01*
X026454Y021812D02*
X026868Y021812D01*
D23*
X004857Y004603D02*
X004605Y004603D01*
X004468Y004730D02*
X003493Y005839D01*
X002636Y007044D01*
X001909Y008330D01*
X001317Y009684D01*
X000867Y011092D01*
X000565Y012538D01*
X000413Y014008D01*
X000413Y015486D01*
X000565Y016956D01*
X000867Y018402D01*
X001317Y019810D01*
X001909Y021164D01*
X002249Y021766D01*
X002261Y021759D01*
X002272Y021749D01*
X002282Y021744D01*
X002320Y021714D01*
X002338Y021716D01*
X002339Y021715D01*
X002347Y021698D01*
X002409Y021675D01*
X002467Y021643D01*
X002485Y021648D01*
X002486Y021647D01*
X002497Y021632D01*
X002562Y021619D01*
X002624Y021596D01*
X002631Y021600D01*
X002634Y021599D01*
X002647Y021599D01*
X002655Y021591D01*
X002721Y021589D01*
X002787Y021576D01*
X002802Y021587D01*
X002803Y021587D01*
X002818Y021575D01*
X002884Y021584D01*
X002950Y021583D01*
X002964Y021595D01*
X002965Y021595D01*
X002981Y021587D01*
X003020Y021599D01*
X003026Y021599D01*
X003043Y021606D01*
X003045Y021606D01*
X003111Y021615D01*
X003122Y021630D01*
X003123Y021630D01*
X003140Y021624D01*
X003200Y021654D01*
X003264Y021673D01*
X003272Y021690D01*
X003273Y021690D01*
X003291Y021687D01*
X003346Y021726D01*
X003405Y021756D01*
X003410Y021771D01*
X003413Y021774D01*
X003430Y021774D01*
X003477Y021821D01*
X003531Y021860D01*
X003534Y021878D01*
X003535Y021879D01*
X003553Y021882D01*
X003592Y021936D01*
X003639Y021983D01*
X003639Y022000D01*
X003642Y022003D01*
X003657Y022008D01*
X003687Y022068D01*
X003726Y022122D01*
X003723Y022140D01*
X003723Y022141D01*
X003740Y022150D01*
X003759Y022213D01*
X003789Y022273D01*
X003783Y022290D01*
X003783Y022291D01*
X003798Y022302D01*
X003807Y022368D01*
X003807Y022370D01*
X003815Y022388D01*
X003815Y022394D01*
X003826Y022432D01*
X003818Y022448D01*
X003818Y022449D01*
X003831Y022463D01*
X003829Y022529D01*
X003838Y022595D01*
X003827Y022610D01*
X003827Y022611D01*
X003837Y022626D01*
X003824Y022692D01*
X003823Y022758D01*
X003815Y022766D01*
X003815Y022779D01*
X003814Y022782D01*
X003817Y022789D01*
X003794Y022851D01*
X003781Y022917D01*
X003766Y022927D01*
X003766Y022928D01*
X003771Y022946D01*
X003738Y023004D01*
X003715Y023066D01*
X003698Y023074D01*
X003698Y023075D01*
X003700Y023093D01*
X003669Y023131D01*
X003665Y023141D01*
X003654Y023152D01*
X003625Y023203D01*
X003607Y023208D01*
X003607Y023209D01*
X003606Y023227D01*
X003556Y023272D01*
X003514Y023324D01*
X003496Y023326D01*
X003495Y023326D01*
X003491Y023344D01*
X003435Y023380D01*
X003386Y023425D01*
X003374Y023424D01*
X003365Y023428D01*
X003359Y023441D01*
X003346Y023447D01*
X003493Y023654D01*
X004468Y024764D01*
X005553Y025768D01*
X006735Y026655D01*
X008001Y027416D01*
X009340Y028042D01*
X010736Y028528D01*
X012174Y028867D01*
X013639Y029057D01*
X015116Y029095D01*
X016590Y028981D01*
X018044Y028716D01*
X019462Y028303D01*
X020831Y027746D01*
X022136Y027052D01*
X023362Y026227D01*
X024496Y025280D01*
X025528Y024222D01*
X026145Y023442D01*
X026142Y023435D01*
X026127Y023437D01*
X026076Y023393D01*
X026019Y023358D01*
X026015Y023343D01*
X026000Y023342D01*
X025957Y023291D01*
X025906Y023248D01*
X025904Y023232D01*
X025890Y023229D01*
X025855Y023172D01*
X025811Y023121D01*
X025812Y023106D01*
X025798Y023100D01*
X025773Y023038D01*
X025738Y022981D01*
X025741Y022966D01*
X025728Y022958D01*
X025713Y022893D01*
X025687Y022831D01*
X025693Y022817D01*
X025681Y022807D01*
X025676Y022740D01*
X025660Y022675D01*
X025668Y022662D01*
X025658Y022650D01*
X025664Y022583D01*
X025658Y022517D01*
X025670Y022503D01*
X025670Y022502D01*
X025661Y022486D01*
X025677Y022422D01*
X025679Y022391D01*
X025679Y022388D01*
X025680Y022387D01*
X025682Y022355D01*
X025696Y022343D01*
X025697Y022342D01*
X025690Y022325D01*
X025716Y022264D01*
X025732Y022199D01*
X025748Y022190D01*
X025748Y022189D01*
X025744Y022171D01*
X025780Y022115D01*
X025806Y022054D01*
X025820Y022048D01*
X025824Y022039D01*
X025823Y022028D01*
X025868Y021978D01*
X025903Y021922D01*
X025922Y021918D01*
X025922Y021917D01*
X025924Y021899D01*
X025976Y021857D01*
X026021Y021808D01*
X026039Y021807D01*
X026040Y021806D01*
X026045Y021788D01*
X026095Y021759D01*
X026106Y021749D01*
X026116Y021744D01*
X026155Y021714D01*
X026173Y021716D01*
X026174Y021715D01*
X026182Y021698D01*
X026244Y021675D01*
X026302Y021643D01*
X026320Y021648D01*
X026321Y021647D01*
X026331Y021632D01*
X026397Y021619D01*
X026459Y021596D01*
X026466Y021600D01*
X026468Y021599D01*
X026482Y021599D01*
X026490Y021591D01*
X026556Y021589D01*
X026621Y021576D01*
X026637Y021587D01*
X026638Y021587D01*
X026652Y021575D01*
X026718Y021584D01*
X026785Y021583D01*
X026798Y021595D01*
X026799Y021595D01*
X026816Y021587D01*
X026854Y021599D01*
X026860Y021599D01*
X026877Y021606D01*
X026879Y021606D01*
X026945Y021615D01*
X026956Y021630D01*
X026958Y021630D01*
X026975Y021624D01*
X027035Y021654D01*
X027098Y021673D01*
X027107Y021690D01*
X027108Y021690D01*
X027126Y021687D01*
X027180Y021726D01*
X027240Y021756D01*
X027245Y021771D01*
X027248Y021774D01*
X027259Y021774D01*
X027899Y020495D01*
X028420Y019112D01*
X028796Y017683D01*
X029024Y016223D01*
X029050Y015714D01*
X029037Y015740D01*
X028983Y015814D01*
X028918Y015878D01*
X028845Y015932D01*
X028763Y015973D01*
X028676Y016002D01*
X028586Y016016D01*
X028561Y016016D01*
X028561Y015456D01*
X028521Y015456D01*
X028521Y016016D01*
X028495Y016016D01*
X028405Y016002D01*
X028318Y015973D01*
X028237Y015932D01*
X028163Y015878D01*
X028098Y015814D01*
X028045Y015740D01*
X028003Y015659D01*
X027975Y015572D01*
X027961Y015482D01*
X027961Y015456D01*
X028521Y015456D01*
X028521Y015416D01*
X028561Y015416D01*
X028561Y014856D01*
X028586Y014856D01*
X028676Y014870D01*
X028763Y014898D01*
X028845Y014940D01*
X028918Y014994D01*
X028983Y015058D01*
X029037Y015132D01*
X029076Y015209D01*
X029100Y014747D01*
X029089Y014536D01*
X029007Y014618D01*
X028074Y014618D01*
X027981Y014524D01*
X027981Y013592D01*
X028074Y013498D01*
X028307Y013498D01*
X028307Y012546D01*
X028248Y012487D01*
X027754Y012487D01*
X027722Y012564D01*
X027564Y012722D01*
X027487Y012754D01*
X027487Y012995D01*
X027450Y013083D01*
X027383Y013150D01*
X026983Y013550D01*
X026895Y013587D01*
X015946Y013587D01*
X014683Y014850D01*
X014595Y014887D01*
X013772Y014887D01*
X013771Y014922D01*
X013763Y014929D01*
X013763Y014943D01*
X013762Y014945D01*
X013766Y014952D01*
X013743Y015015D01*
X013730Y015080D01*
X013715Y015090D01*
X013714Y015091D01*
X013719Y015109D01*
X013687Y015167D01*
X013664Y015230D01*
X013647Y015237D01*
X013646Y015238D01*
X013648Y015257D01*
X013618Y015295D01*
X013613Y015305D01*
X013602Y015316D01*
X013574Y015366D01*
X013556Y015371D01*
X013555Y015372D01*
X013554Y015391D01*
X013505Y015435D01*
X013463Y015487D01*
X013445Y015489D01*
X013444Y015490D01*
X013440Y015508D01*
X013384Y015544D01*
X013334Y015588D01*
X013323Y015587D01*
X013314Y015591D01*
X013308Y015605D01*
X013247Y015631D01*
X013191Y015667D01*
X013173Y015663D01*
X013172Y015663D01*
X013163Y015679D01*
X013098Y015695D01*
X013037Y015722D01*
X013020Y015715D01*
X013019Y015715D01*
X013007Y015729D01*
X012975Y015732D01*
X012974Y015732D01*
X012971Y015732D01*
X012940Y015734D01*
X012876Y015750D01*
X012860Y015741D01*
X012859Y015741D01*
X012845Y015753D01*
X012779Y015748D01*
X012712Y015753D01*
X012700Y015743D01*
X012687Y015751D01*
X012622Y015735D01*
X012555Y015730D01*
X012545Y015718D01*
X012531Y015724D01*
X012469Y015699D01*
X012404Y015683D01*
X012396Y015670D01*
X012381Y015674D01*
X012324Y015638D01*
X012262Y015613D01*
X012256Y015599D01*
X012241Y015600D01*
X012190Y015556D01*
X012133Y015521D01*
X012130Y015507D01*
X012114Y015505D01*
X012071Y015454D01*
X012020Y015411D01*
X012019Y015396D01*
X012004Y015392D01*
X011969Y015335D01*
X011925Y015284D01*
X011927Y015269D01*
X011913Y015263D01*
X011887Y015201D01*
X011852Y015144D01*
X011855Y015129D01*
X011842Y015121D01*
X011827Y015056D01*
X011801Y014994D01*
X011807Y014980D01*
X011795Y014970D01*
X011790Y014903D01*
X011774Y014838D01*
X011782Y014825D01*
X011772Y014813D01*
X011778Y014747D01*
X011687Y014747D01*
X011778Y014747D02*
X011773Y014680D01*
X011784Y014666D01*
X011784Y014665D01*
X011775Y014650D01*
X011791Y014585D01*
X011793Y014555D01*
X011793Y014551D01*
X011794Y014550D01*
X011796Y014519D01*
X011810Y014507D01*
X011811Y014506D01*
X011804Y014489D01*
X011830Y014427D01*
X011846Y014363D01*
X011862Y014353D01*
X011862Y014352D01*
X011858Y014334D01*
X011894Y014278D01*
X011921Y014217D01*
X011934Y014212D01*
X011938Y014202D01*
X011937Y014191D01*
X011982Y014141D01*
X012018Y014085D01*
X012036Y014081D01*
X012036Y014081D01*
X012038Y014062D01*
X012090Y014020D01*
X012135Y013971D01*
X012153Y013970D01*
X012154Y013969D01*
X012159Y013951D01*
X012209Y013923D01*
X012220Y013912D01*
X012231Y013908D01*
X012269Y013877D01*
X012287Y013879D01*
X012288Y013878D01*
X012296Y013862D01*
X012358Y013839D01*
X012416Y013806D01*
X012434Y013811D01*
X012435Y013811D01*
X012445Y013795D01*
X012511Y013783D01*
X012573Y013760D01*
X012580Y013763D01*
X012582Y013762D01*
X012596Y013762D01*
X012604Y013754D01*
X012670Y013752D01*
X012736Y013740D01*
X012751Y013750D01*
X012752Y013750D01*
X012767Y013739D01*
X012833Y013748D01*
X012899Y013746D01*
X012913Y013759D01*
X012914Y013759D01*
X012930Y013750D01*
X012968Y013762D01*
X012974Y013762D01*
X012992Y013769D01*
X012994Y013770D01*
X013059Y013779D01*
X013071Y013793D01*
X013072Y013794D01*
X013089Y013788D01*
X013149Y013817D01*
X013212Y013837D01*
X013221Y013853D01*
X013222Y013854D01*
X013240Y013851D01*
X013294Y013890D01*
X013354Y013919D01*
X013359Y013935D01*
X013362Y013937D01*
X013379Y013937D01*
X013426Y013984D01*
X013480Y014023D01*
X013483Y014041D01*
X013484Y014042D01*
X013502Y014045D01*
X013541Y014099D01*
X013588Y014146D01*
X013588Y014164D01*
X013591Y014166D01*
X013606Y014171D01*
X013636Y014231D01*
X013675Y014285D01*
X013672Y014303D01*
X013672Y014304D01*
X013688Y014313D01*
X013708Y014377D01*
X013723Y014407D01*
X014448Y014407D01*
X015643Y013211D01*
X015711Y013143D01*
X015799Y013107D01*
X026748Y013107D01*
X027007Y012848D01*
X027007Y012754D01*
X026930Y012722D01*
X026772Y012564D01*
X026687Y012358D01*
X026687Y012136D01*
X026772Y011930D01*
X026930Y011772D01*
X027136Y011687D01*
X027358Y011687D01*
X027564Y011772D01*
X027722Y011930D01*
X027754Y012007D01*
X028395Y012007D01*
X028483Y012043D01*
X028683Y012243D01*
X028750Y012311D01*
X028787Y012399D01*
X028787Y013498D01*
X029007Y013498D01*
X029037Y013528D01*
X029024Y013271D01*
X029024Y013271D01*
X028796Y011811D01*
X028420Y010382D01*
X027899Y008999D01*
X027238Y007678D01*
X026445Y006431D01*
X025528Y005272D01*
X024496Y004214D01*
X023362Y003267D01*
X022136Y002442D01*
X020831Y001748D01*
X019462Y001191D01*
X018044Y000778D01*
X016590Y000513D01*
X015899Y000460D01*
X016083Y000643D01*
X016150Y000711D01*
X016187Y000799D01*
X016187Y000877D01*
X016265Y000799D01*
X016415Y000737D01*
X017078Y000737D01*
X017229Y000799D01*
X017337Y000907D01*
X017795Y000907D01*
X017883Y000943D01*
X017950Y001011D01*
X018150Y001211D01*
X018187Y001299D01*
X018187Y001748D01*
X018246Y001807D01*
X020695Y001807D01*
X020783Y001843D01*
X020850Y001911D01*
X021050Y002111D01*
X021087Y002199D01*
X021087Y004595D01*
X021050Y004683D01*
X020983Y004750D01*
X020783Y004950D01*
X020695Y004987D01*
X014446Y004987D01*
X014267Y005166D01*
X014267Y005183D01*
X014327Y005208D01*
X014476Y005357D01*
X014557Y005552D01*
X014557Y005762D01*
X014476Y005957D01*
X014327Y006106D01*
X014132Y006187D01*
X013922Y006187D01*
X013727Y006106D01*
X013578Y005957D01*
X013497Y005762D01*
X013497Y005552D01*
X013578Y005357D01*
X013727Y005208D01*
X013787Y005183D01*
X013787Y005019D01*
X013823Y004931D01*
X014143Y004611D01*
X014211Y004543D01*
X014299Y004507D01*
X016295Y004507D01*
X016265Y004495D01*
X016149Y004379D01*
X016087Y004228D01*
X016087Y004065D01*
X016149Y003915D01*
X016177Y003887D01*
X014317Y003887D01*
X014345Y003915D01*
X014407Y004065D01*
X014407Y004228D01*
X014345Y004379D01*
X014229Y004495D01*
X014078Y004557D01*
X013415Y004557D01*
X013265Y004495D01*
X013149Y004379D01*
X013087Y004228D01*
X013087Y004065D01*
X013149Y003915D01*
X013177Y003887D01*
X013099Y003887D01*
X013011Y003850D01*
X012943Y003783D01*
X012748Y003587D01*
X012371Y003587D01*
X012346Y003647D01*
X012197Y003796D01*
X012002Y003877D01*
X011792Y003877D01*
X011597Y003796D01*
X011448Y003647D01*
X011367Y003452D01*
X011367Y003242D01*
X011448Y003047D01*
X011597Y002898D01*
X011647Y002877D01*
X011461Y002877D01*
X011367Y002783D01*
X011367Y001911D01*
X011461Y001817D01*
X012333Y001817D01*
X012427Y001911D01*
X012427Y002107D01*
X012995Y002107D01*
X013083Y002143D01*
X013087Y002148D01*
X013087Y002065D01*
X013149Y001915D01*
X013265Y001799D01*
X013415Y001737D01*
X014078Y001737D01*
X014229Y001799D01*
X014345Y001915D01*
X014407Y002065D01*
X014407Y002228D01*
X014345Y002379D01*
X014317Y002407D01*
X016177Y002407D01*
X016157Y002387D01*
X016099Y002387D01*
X016011Y002350D01*
X015943Y002283D01*
X015743Y002083D01*
X015707Y001995D01*
X015707Y000946D01*
X015648Y000887D01*
X014340Y000887D01*
X014365Y000922D01*
X014395Y000982D01*
X014416Y001046D01*
X014427Y001113D01*
X014427Y001147D01*
X014427Y001181D01*
X014416Y001248D01*
X014395Y001312D01*
X014365Y001372D01*
X014325Y001427D01*
X014277Y001475D01*
X014222Y001515D01*
X014162Y001545D01*
X014098Y001566D01*
X014031Y001577D01*
X013747Y001577D01*
X013747Y001147D01*
X013747Y001147D01*
X014427Y001147D01*
X013747Y001147D01*
X013747Y001147D01*
X013747Y001577D01*
X013463Y001577D01*
X013396Y001566D01*
X013332Y001545D01*
X013272Y001515D01*
X013217Y001475D01*
X013169Y001427D01*
X013129Y001372D01*
X013098Y001312D01*
X013078Y001248D01*
X013067Y001181D01*
X013067Y001147D01*
X013747Y001147D01*
X013747Y001147D01*
X013067Y001147D01*
X013067Y001113D01*
X013076Y001058D01*
X012583Y001550D01*
X012495Y001587D01*
X010746Y001587D01*
X010687Y001646D01*
X010687Y001817D01*
X010883Y001817D01*
X010977Y001911D01*
X010977Y002783D01*
X010883Y002877D01*
X010697Y002877D01*
X010747Y002898D01*
X010896Y003047D01*
X010977Y003242D01*
X010977Y003452D01*
X010896Y003647D01*
X010747Y003796D01*
X010552Y003877D01*
X010342Y003877D01*
X010147Y003796D01*
X009998Y003647D01*
X009973Y003587D01*
X006746Y003587D01*
X006587Y003746D01*
X006587Y005768D01*
X006807Y005548D01*
X006807Y004706D01*
X006713Y004612D01*
X006662Y004489D01*
X006662Y004005D01*
X006713Y003882D01*
X006807Y003788D01*
X006930Y003737D01*
X007064Y003737D01*
X007187Y003788D01*
X007247Y003848D01*
X007307Y003788D01*
X007430Y003737D01*
X007564Y003737D01*
X007687Y003788D01*
X007747Y003848D01*
X007807Y003788D01*
X007930Y003737D01*
X008064Y003737D01*
X008187Y003788D01*
X008247Y003848D01*
X008307Y003788D01*
X008430Y003737D01*
X008564Y003737D01*
X008687Y003788D01*
X008781Y003882D01*
X008832Y004005D01*
X008832Y004489D01*
X008781Y004612D01*
X008687Y004706D01*
X008564Y004757D01*
X008430Y004757D01*
X008307Y004706D01*
X008247Y004646D01*
X008187Y004706D01*
X008187Y005486D01*
X008201Y005492D01*
X008302Y005593D01*
X008357Y005725D01*
X008357Y005869D01*
X008302Y006001D01*
X008201Y006102D01*
X008069Y006157D01*
X007925Y006157D01*
X007793Y006102D01*
X007692Y006001D01*
X007637Y005869D01*
X007637Y005725D01*
X007692Y005593D01*
X007707Y005578D01*
X007707Y004686D01*
X007687Y004706D01*
X007564Y004757D01*
X007430Y004757D01*
X007307Y004706D01*
X007287Y004686D01*
X007287Y005695D01*
X007250Y005783D01*
X007183Y005850D01*
X005587Y007446D01*
X005587Y022948D01*
X005746Y023107D01*
X014195Y023107D01*
X014283Y023143D01*
X014350Y023211D01*
X014750Y023611D01*
X014787Y023699D01*
X014787Y024848D01*
X014946Y025007D01*
X020662Y025007D01*
X020662Y025005D01*
X020713Y024882D01*
X020807Y024788D01*
X020930Y024737D01*
X021064Y024737D01*
X021187Y024788D01*
X021247Y024848D01*
X021257Y024838D01*
X021257Y024049D01*
X021293Y023961D01*
X021361Y023893D01*
X021611Y023643D01*
X021699Y023607D01*
X023616Y023607D01*
X023632Y023569D01*
X023769Y023432D01*
X023949Y023357D01*
X024144Y023357D01*
X024324Y023432D01*
X024462Y023569D01*
X024537Y023749D01*
X024537Y023944D01*
X024462Y024124D01*
X024324Y024262D01*
X024144Y024337D01*
X023949Y024337D01*
X023769Y024262D01*
X023632Y024124D01*
X023616Y024087D01*
X021846Y024087D01*
X021737Y024196D01*
X021737Y024838D01*
X021747Y024848D01*
X021757Y024838D01*
X021757Y024749D01*
X021793Y024661D01*
X021943Y024511D01*
X022011Y024443D01*
X022099Y024407D01*
X023829Y024407D01*
X023949Y024357D01*
X024144Y024357D01*
X024324Y024432D01*
X024462Y024569D01*
X024537Y024749D01*
X024537Y024944D01*
X024462Y025124D01*
X024324Y025262D01*
X024144Y025337D01*
X023949Y025337D01*
X023769Y025262D01*
X023632Y025124D01*
X023557Y024944D01*
X023557Y024887D01*
X022783Y024887D01*
X022832Y025005D01*
X022832Y025489D01*
X022781Y025612D01*
X022687Y025706D01*
X022564Y025757D01*
X022430Y025757D01*
X022307Y025706D01*
X022247Y025646D01*
X022187Y025706D01*
X022064Y025757D01*
X021930Y025757D01*
X021807Y025706D01*
X021747Y025646D01*
X021687Y025706D01*
X021564Y025757D01*
X021430Y025757D01*
X021307Y025706D01*
X021247Y025646D01*
X021187Y025706D01*
X021064Y025757D01*
X020930Y025757D01*
X020807Y025706D01*
X020713Y025612D01*
X020662Y025489D01*
X020662Y025487D01*
X014799Y025487D01*
X014711Y025450D01*
X014411Y025150D01*
X014343Y025083D01*
X014307Y024995D01*
X014307Y023846D01*
X014048Y023587D01*
X011936Y023587D01*
X011996Y023647D01*
X012021Y023707D01*
X013595Y023707D01*
X013683Y023743D01*
X014095Y024156D01*
X014163Y024224D01*
X014200Y024312D01*
X014200Y027616D01*
X014237Y027632D01*
X014375Y027769D01*
X014450Y027949D01*
X014450Y028144D01*
X014375Y028324D01*
X014237Y028462D01*
X014057Y028537D01*
X013862Y028537D01*
X013682Y028462D01*
X013544Y028324D01*
X013470Y028144D01*
X013470Y027949D01*
X013544Y027769D01*
X013682Y027632D01*
X013720Y027616D01*
X013720Y024459D01*
X013448Y024187D01*
X012021Y024187D01*
X011996Y024247D01*
X011847Y024396D01*
X011652Y024477D01*
X011442Y024477D01*
X011247Y024396D01*
X011098Y024247D01*
X011073Y024187D01*
X005299Y024187D01*
X005211Y024150D01*
X005143Y024083D01*
X004743Y023683D01*
X004707Y023595D01*
X004707Y007099D01*
X004743Y007011D01*
X006107Y005648D01*
X006107Y003599D01*
X006143Y003511D01*
X006443Y003211D01*
X006511Y003143D01*
X006599Y003107D01*
X009973Y003107D01*
X009998Y003047D01*
X010147Y002898D01*
X010197Y002877D01*
X010011Y002877D01*
X009917Y002783D01*
X009917Y001911D01*
X010011Y001817D01*
X010207Y001817D01*
X010207Y001499D01*
X010243Y001411D01*
X010443Y001211D01*
X010511Y001143D01*
X010599Y001107D01*
X012348Y001107D01*
X012925Y000529D01*
X012174Y000627D01*
X010736Y000966D01*
X009340Y001452D01*
X008001Y002078D01*
X006735Y002839D01*
X005553Y003726D01*
X004468Y004730D01*
X004440Y004761D02*
X004864Y004761D01*
X004857Y004744D02*
X004857Y004549D01*
X004932Y004369D01*
X005069Y004232D01*
X005249Y004157D01*
X005444Y004157D01*
X005624Y004232D01*
X005762Y004369D01*
X005837Y004549D01*
X005837Y004744D01*
X005762Y004924D01*
X005624Y005062D01*
X005444Y005137D01*
X005249Y005137D01*
X005069Y005062D01*
X004932Y004924D01*
X004857Y004744D01*
X004930Y004920D02*
X004301Y004920D01*
X004162Y005078D02*
X005108Y005078D01*
X005069Y005232D02*
X005249Y005157D01*
X005444Y005157D01*
X005624Y005232D01*
X005762Y005369D01*
X005837Y005549D01*
X005837Y005744D01*
X005762Y005924D01*
X005624Y006062D01*
X005444Y006137D01*
X005249Y006137D01*
X005069Y006062D01*
X004932Y005924D01*
X004857Y005744D01*
X004857Y005549D01*
X004932Y005369D01*
X005069Y005232D01*
X005064Y005237D02*
X004022Y005237D01*
X003883Y005395D02*
X004921Y005395D01*
X004857Y005554D02*
X003744Y005554D01*
X003604Y005712D02*
X004857Y005712D01*
X004909Y005871D02*
X003470Y005871D01*
X003358Y006029D02*
X005036Y006029D01*
X005408Y006346D02*
X003132Y006346D01*
X003245Y006188D02*
X005567Y006188D01*
X005657Y006029D02*
X005725Y006029D01*
X005785Y005871D02*
X005884Y005871D01*
X005837Y005712D02*
X006042Y005712D01*
X006107Y005554D02*
X005837Y005554D01*
X005773Y005395D02*
X006107Y005395D01*
X006107Y005237D02*
X005630Y005237D01*
X005586Y005078D02*
X006107Y005078D01*
X006107Y004920D02*
X005764Y004920D01*
X005830Y004761D02*
X006107Y004761D01*
X006107Y004603D02*
X005837Y004603D01*
X005793Y004444D02*
X006107Y004444D01*
X006107Y004286D02*
X005679Y004286D01*
X006107Y004127D02*
X005119Y004127D01*
X005015Y004286D02*
X004947Y004286D01*
X004900Y004444D02*
X004776Y004444D01*
X005290Y003969D02*
X006107Y003969D01*
X006107Y003810D02*
X005461Y003810D01*
X005651Y003652D02*
X006107Y003652D01*
X006161Y003493D02*
X005862Y003493D01*
X006074Y003335D02*
X006320Y003335D01*
X006285Y003176D02*
X006478Y003176D01*
X006496Y003018D02*
X010026Y003018D01*
X009993Y002859D02*
X006707Y002859D01*
X006964Y002701D02*
X009917Y002701D01*
X009917Y002542D02*
X007228Y002542D01*
X007492Y002384D02*
X009917Y002384D01*
X009917Y002225D02*
X007756Y002225D01*
X008025Y002067D02*
X009917Y002067D01*
X009919Y001908D02*
X008364Y001908D01*
X008703Y001750D02*
X010207Y001750D01*
X010207Y001591D02*
X009041Y001591D01*
X009394Y001433D02*
X010234Y001433D01*
X010380Y001274D02*
X009849Y001274D01*
X010305Y001116D02*
X010578Y001116D01*
X010647Y001347D02*
X012447Y001347D01*
X013147Y000647D01*
X015747Y000647D01*
X015947Y000847D01*
X015947Y001947D01*
X016147Y002147D01*
X016747Y002147D01*
X016547Y002647D02*
X017447Y002647D01*
X017647Y002447D01*
X019047Y002447D01*
X019247Y002647D01*
X019247Y003097D01*
X019247Y004097D02*
X019247Y004647D01*
X019347Y004747D01*
X014347Y004747D01*
X014027Y005067D01*
X014027Y005657D01*
X014404Y006029D02*
X015090Y006029D01*
X015018Y005957D02*
X015167Y006106D01*
X015362Y006187D01*
X015572Y006187D01*
X015767Y006106D01*
X015916Y005957D01*
X015997Y005762D01*
X015997Y005552D01*
X015916Y005357D01*
X015767Y005208D01*
X015572Y005127D01*
X015362Y005127D01*
X015167Y005208D01*
X015018Y005357D01*
X014937Y005552D01*
X014937Y005762D01*
X015018Y005957D01*
X014982Y005871D02*
X014512Y005871D01*
X014557Y005712D02*
X014937Y005712D01*
X014937Y005554D02*
X014557Y005554D01*
X014492Y005395D02*
X015002Y005395D01*
X015137Y005237D02*
X014356Y005237D01*
X014355Y005078D02*
X022962Y005078D01*
X022962Y005050D02*
X023036Y004872D01*
X023172Y004736D01*
X023350Y004662D01*
X023543Y004662D01*
X023722Y004736D01*
X023858Y004872D01*
X023932Y005050D01*
X023932Y005243D01*
X023858Y005422D01*
X023722Y005558D01*
X023687Y005572D01*
X023687Y006095D01*
X023650Y006183D01*
X023583Y006250D01*
X023083Y006750D01*
X022995Y006787D01*
X022552Y006787D01*
X022564Y006792D01*
X022722Y006949D01*
X022807Y007155D01*
X022807Y007378D01*
X022722Y007584D01*
X022564Y007741D01*
X022487Y007773D01*
X022487Y011295D01*
X022450Y011383D01*
X022383Y011450D01*
X021783Y012050D01*
X021695Y012087D01*
X018465Y012087D01*
X018466Y012089D01*
X018517Y012159D01*
X018557Y012236D01*
X018583Y012318D01*
X018597Y012404D01*
X018597Y012438D01*
X018056Y012438D01*
X018056Y012456D01*
X018038Y012456D01*
X018038Y012997D01*
X018004Y012997D01*
X017918Y012983D01*
X017836Y012957D01*
X017759Y012917D01*
X017689Y012866D01*
X017627Y012805D01*
X017577Y012735D01*
X017537Y012658D01*
X017510Y012576D01*
X017497Y012490D01*
X017497Y012456D01*
X018038Y012456D01*
X018038Y012438D01*
X017497Y012438D01*
X017497Y012404D01*
X017510Y012318D01*
X017537Y012236D01*
X017577Y012159D01*
X017627Y012089D01*
X017629Y012087D01*
X015046Y012087D01*
X014607Y012526D01*
X014607Y012619D01*
X014552Y012751D01*
X014451Y012852D01*
X014319Y012907D01*
X014175Y012907D01*
X014043Y012852D01*
X013942Y012751D01*
X013887Y012619D01*
X013887Y012475D01*
X013942Y012343D01*
X014043Y012242D01*
X014175Y012187D01*
X014268Y012187D01*
X014743Y011711D01*
X014811Y011643D01*
X014899Y011607D01*
X021548Y011607D01*
X022007Y011148D01*
X022007Y007773D01*
X021930Y007741D01*
X021772Y007584D01*
X021687Y007378D01*
X021687Y007155D01*
X021772Y006949D01*
X021930Y006792D01*
X021942Y006787D01*
X019386Y006787D01*
X019411Y006797D01*
X019567Y006953D01*
X019651Y007156D01*
X019651Y007377D01*
X019567Y007580D01*
X019411Y007736D01*
X019207Y007820D01*
X018987Y007820D01*
X018784Y007736D01*
X018628Y007580D01*
X018557Y007409D01*
X018557Y007542D01*
X018476Y007737D01*
X018327Y007886D01*
X018203Y007938D01*
X018347Y007998D01*
X018496Y008147D01*
X018577Y008342D01*
X018577Y008552D01*
X018496Y008747D01*
X018347Y008896D01*
X018152Y008977D01*
X017942Y008977D01*
X017881Y008952D01*
X016207Y010626D01*
X016207Y011138D01*
X016137Y011307D01*
X016007Y011437D01*
X015838Y011507D01*
X015655Y011507D01*
X015486Y011437D01*
X015357Y011307D01*
X015287Y011138D01*
X015287Y010355D01*
X015357Y010186D01*
X015486Y010057D01*
X015655Y009987D01*
X015838Y009987D01*
X016007Y010057D01*
X016052Y010102D01*
X017542Y008613D01*
X017517Y008552D01*
X017517Y008342D01*
X017598Y008147D01*
X017747Y007998D01*
X017871Y007946D01*
X017727Y007886D01*
X017578Y007737D01*
X017497Y007542D01*
X017497Y007332D01*
X017578Y007137D01*
X017727Y006988D01*
X017922Y006907D01*
X018132Y006907D01*
X018327Y006988D01*
X018476Y007137D01*
X018544Y007299D01*
X018544Y007156D01*
X018628Y006953D01*
X018784Y006797D01*
X018809Y006787D01*
X015526Y006787D01*
X015670Y006931D01*
X015679Y006951D01*
X015767Y006988D01*
X015916Y007137D01*
X015997Y007332D01*
X015997Y007542D01*
X015916Y007737D01*
X015767Y007886D01*
X015572Y007967D01*
X015362Y007967D01*
X015167Y007886D01*
X015018Y007737D01*
X014937Y007542D01*
X014937Y007332D01*
X015018Y007137D01*
X015067Y007087D01*
X014426Y007087D01*
X014476Y007137D01*
X014557Y007332D01*
X014557Y007542D01*
X014476Y007737D01*
X014327Y007886D01*
X014132Y007967D01*
X014066Y007967D01*
X012487Y009546D01*
X012487Y013095D01*
X012450Y013183D01*
X011687Y013946D01*
X011687Y016873D01*
X011747Y016898D01*
X011896Y017047D01*
X011977Y017242D01*
X011977Y017452D01*
X011896Y017647D01*
X011747Y017796D01*
X011552Y017877D01*
X011342Y017877D01*
X011147Y017796D01*
X010998Y017647D01*
X010917Y017452D01*
X010917Y017242D01*
X010998Y017047D01*
X011147Y016898D01*
X011207Y016873D01*
X011207Y013799D01*
X011243Y013711D01*
X011311Y013643D01*
X012007Y012948D01*
X012007Y009399D01*
X012043Y009311D01*
X012111Y009243D01*
X013597Y007757D01*
X013578Y007737D01*
X013497Y007542D01*
X013497Y007332D01*
X013578Y007137D01*
X013627Y007087D01*
X013046Y007087D01*
X012987Y007146D01*
X012987Y008195D01*
X012950Y008283D01*
X012883Y008350D01*
X012583Y008650D01*
X012495Y008687D01*
X011921Y008687D01*
X011896Y008747D01*
X011747Y008896D01*
X011552Y008977D01*
X011342Y008977D01*
X011147Y008896D01*
X010998Y008747D01*
X010917Y008552D01*
X010917Y008342D01*
X010998Y008147D01*
X011147Y007998D01*
X011291Y007938D01*
X011167Y007886D01*
X011018Y007737D01*
X010937Y007542D01*
X010937Y007332D01*
X011018Y007137D01*
X011167Y006988D01*
X011362Y006907D01*
X011572Y006907D01*
X011767Y006988D01*
X011916Y007137D01*
X011997Y007332D01*
X011997Y007542D01*
X011916Y007737D01*
X011767Y007886D01*
X011623Y007946D01*
X011747Y007998D01*
X011896Y008147D01*
X011921Y008207D01*
X012348Y008207D01*
X012507Y008048D01*
X012507Y006999D01*
X012543Y006911D01*
X012668Y006787D01*
X011246Y006787D01*
X010563Y007470D01*
X010475Y007507D01*
X007754Y007507D01*
X007722Y007584D01*
X007564Y007741D01*
X007358Y007827D01*
X007136Y007827D01*
X006930Y007741D01*
X006772Y007584D01*
X006687Y007378D01*
X006687Y007155D01*
X006772Y006949D01*
X006930Y006792D01*
X007136Y006707D01*
X007358Y006707D01*
X007564Y006792D01*
X007722Y006949D01*
X007754Y007027D01*
X010328Y007027D01*
X010943Y006411D01*
X011011Y006343D01*
X011099Y006307D01*
X022848Y006307D01*
X023207Y005948D01*
X023207Y005572D01*
X023172Y005558D01*
X023036Y005422D01*
X022962Y005243D01*
X022962Y005050D01*
X023016Y004920D02*
X020813Y004920D01*
X020972Y004761D02*
X023147Y004761D01*
X023447Y005147D02*
X023447Y006047D01*
X022947Y006547D01*
X011147Y006547D01*
X010427Y007267D01*
X007247Y007267D01*
X007691Y007614D02*
X010967Y007614D01*
X010937Y007456D02*
X010577Y007456D01*
X010736Y007297D02*
X010951Y007297D01*
X010894Y007139D02*
X011017Y007139D01*
X011053Y006980D02*
X011184Y006980D01*
X011211Y006822D02*
X012633Y006822D01*
X012515Y006980D02*
X011750Y006980D01*
X011917Y007139D02*
X012507Y007139D01*
X012507Y007297D02*
X011983Y007297D01*
X011997Y007456D02*
X012507Y007456D01*
X012507Y007614D02*
X011967Y007614D01*
X011880Y007773D02*
X012507Y007773D01*
X012507Y007931D02*
X011658Y007931D01*
X011839Y008090D02*
X012465Y008090D01*
X012747Y008147D02*
X012447Y008447D01*
X011447Y008447D01*
X011906Y008724D02*
X012631Y008724D01*
X012668Y008565D02*
X012789Y008565D01*
X012826Y008407D02*
X012948Y008407D01*
X012965Y008248D02*
X013106Y008248D01*
X012987Y008090D02*
X013265Y008090D01*
X013423Y007931D02*
X012987Y007931D01*
X012987Y007773D02*
X013582Y007773D01*
X013527Y007614D02*
X012987Y007614D01*
X012987Y007456D02*
X013497Y007456D01*
X013511Y007297D02*
X012987Y007297D01*
X012994Y007139D02*
X013577Y007139D01*
X014027Y007437D02*
X014027Y007667D01*
X012247Y009447D01*
X012247Y013047D01*
X011447Y013847D01*
X011447Y017347D01*
X011815Y016966D02*
X028908Y016966D01*
X028883Y017124D02*
X011928Y017124D01*
X011977Y017283D02*
X028858Y017283D01*
X028834Y017441D02*
X011977Y017441D01*
X011916Y017600D02*
X028809Y017600D01*
X028776Y017758D02*
X011785Y017758D01*
X011109Y017758D02*
X005587Y017758D01*
X005587Y017600D02*
X010978Y017600D01*
X010917Y017441D02*
X005587Y017441D01*
X005587Y017283D02*
X010917Y017283D01*
X010965Y017124D02*
X005587Y017124D01*
X005587Y016966D02*
X011078Y016966D01*
X011207Y016807D02*
X005587Y016807D01*
X005587Y016649D02*
X011207Y016649D01*
X011207Y016490D02*
X005587Y016490D01*
X005587Y016332D02*
X011207Y016332D01*
X011207Y016173D02*
X005587Y016173D01*
X005587Y016015D02*
X011207Y016015D01*
X011207Y015856D02*
X005587Y015856D01*
X005587Y015698D02*
X011207Y015698D01*
X011207Y015539D02*
X005587Y015539D01*
X005587Y015381D02*
X011207Y015381D01*
X011207Y015222D02*
X005587Y015222D01*
X005587Y015064D02*
X011207Y015064D01*
X011207Y014905D02*
X005587Y014905D01*
X005587Y014747D02*
X011207Y014747D01*
X011207Y014588D02*
X005587Y014588D01*
X005587Y014430D02*
X011207Y014430D01*
X011207Y014271D02*
X005587Y014271D01*
X005587Y014113D02*
X011207Y014113D01*
X011207Y013954D02*
X005587Y013954D01*
X005587Y013796D02*
X011208Y013796D01*
X011317Y013637D02*
X005587Y013637D01*
X005587Y013479D02*
X011476Y013479D01*
X011634Y013320D02*
X005587Y013320D01*
X005587Y013162D02*
X011793Y013162D01*
X011951Y013003D02*
X005587Y013003D01*
X005587Y012845D02*
X011067Y012845D01*
X011089Y012866D02*
X011027Y012805D01*
X010977Y012735D01*
X010937Y012658D01*
X010910Y012576D01*
X010897Y012490D01*
X010897Y012456D01*
X011438Y012456D01*
X011438Y012997D01*
X011404Y012997D01*
X011318Y012983D01*
X011236Y012957D01*
X011159Y012917D01*
X011089Y012866D01*
X010952Y012686D02*
X005587Y012686D01*
X005587Y012528D02*
X010903Y012528D01*
X010897Y012438D02*
X010897Y012404D01*
X010910Y012318D01*
X010937Y012236D01*
X010977Y012159D01*
X011027Y012089D01*
X011089Y012027D01*
X011159Y011977D01*
X011236Y011937D01*
X011318Y011910D01*
X011404Y011897D01*
X011438Y011897D01*
X011438Y012438D01*
X010897Y012438D01*
X010902Y012369D02*
X005587Y012369D01*
X005587Y012211D02*
X010950Y012211D01*
X011064Y012052D02*
X005587Y012052D01*
X005587Y011894D02*
X012007Y011894D01*
X012007Y012052D02*
X011830Y012052D01*
X011805Y012027D02*
X011866Y012089D01*
X011917Y012159D01*
X011957Y012236D01*
X011983Y012318D01*
X011997Y012404D01*
X011997Y012438D01*
X011456Y012438D01*
X011456Y012456D01*
X011438Y012456D01*
X011438Y012438D01*
X011456Y012438D01*
X011456Y011897D01*
X011490Y011897D01*
X011576Y011910D01*
X011658Y011937D01*
X011735Y011977D01*
X011805Y012027D01*
X011944Y012211D02*
X012007Y012211D01*
X011992Y012369D02*
X012007Y012369D01*
X011997Y012456D02*
X011456Y012456D01*
X011456Y012997D01*
X011490Y012997D01*
X011576Y012983D01*
X011658Y012957D01*
X011735Y012917D01*
X011805Y012866D01*
X011866Y012805D01*
X011917Y012735D01*
X011957Y012658D01*
X011983Y012576D01*
X011997Y012490D01*
X011997Y012456D01*
X011991Y012528D02*
X012007Y012528D01*
X012007Y012686D02*
X011942Y012686D01*
X012007Y012845D02*
X011827Y012845D01*
X011456Y012845D02*
X011438Y012845D01*
X011438Y012686D02*
X011456Y012686D01*
X011456Y012528D02*
X011438Y012528D01*
X011438Y012369D02*
X011456Y012369D01*
X011456Y012211D02*
X011438Y012211D01*
X011438Y012052D02*
X011456Y012052D01*
X012007Y011735D02*
X005587Y011735D01*
X005587Y011577D02*
X012007Y011577D01*
X012007Y011418D02*
X005587Y011418D01*
X005587Y011260D02*
X012007Y011260D01*
X012007Y011101D02*
X005587Y011101D01*
X005587Y010943D02*
X012007Y010943D01*
X012007Y010784D02*
X005587Y010784D01*
X005587Y010626D02*
X012007Y010626D01*
X012007Y010467D02*
X005587Y010467D01*
X005587Y010309D02*
X012007Y010309D01*
X012007Y010150D02*
X005587Y010150D01*
X005587Y009992D02*
X012007Y009992D01*
X012007Y009833D02*
X005587Y009833D01*
X005587Y009675D02*
X012007Y009675D01*
X012007Y009516D02*
X005587Y009516D01*
X005587Y009358D02*
X012024Y009358D01*
X012155Y009199D02*
X005587Y009199D01*
X005587Y009041D02*
X012314Y009041D01*
X012472Y008882D02*
X011761Y008882D01*
X012517Y009516D02*
X016638Y009516D01*
X016797Y009358D02*
X012675Y009358D01*
X012834Y009199D02*
X016955Y009199D01*
X017114Y009041D02*
X012992Y009041D01*
X013151Y008882D02*
X017272Y008882D01*
X017431Y008724D02*
X013309Y008724D01*
X013468Y008565D02*
X017522Y008565D01*
X017517Y008407D02*
X013626Y008407D01*
X013785Y008248D02*
X017555Y008248D01*
X017654Y008090D02*
X013943Y008090D01*
X014218Y007931D02*
X015276Y007931D01*
X015053Y007773D02*
X014440Y007773D01*
X014527Y007614D02*
X014967Y007614D01*
X014937Y007456D02*
X014557Y007456D01*
X014543Y007297D02*
X014951Y007297D01*
X015017Y007139D02*
X014477Y007139D01*
X015247Y006847D02*
X015467Y007067D01*
X015467Y007437D01*
X015658Y007931D02*
X017836Y007931D01*
X017613Y007773D02*
X015880Y007773D01*
X015967Y007614D02*
X017527Y007614D01*
X017497Y007456D02*
X015997Y007456D01*
X015983Y007297D02*
X017511Y007297D01*
X017577Y007139D02*
X015917Y007139D01*
X015750Y006980D02*
X017744Y006980D01*
X018310Y006980D02*
X018617Y006980D01*
X018551Y007139D02*
X018477Y007139D01*
X018543Y007297D02*
X018544Y007297D01*
X018557Y007456D02*
X018576Y007456D01*
X018527Y007614D02*
X018662Y007614D01*
X018873Y007773D02*
X018440Y007773D01*
X018218Y007931D02*
X022007Y007931D01*
X022006Y007773D02*
X019322Y007773D01*
X019533Y007614D02*
X021803Y007614D01*
X021719Y007456D02*
X019618Y007456D01*
X019651Y007297D02*
X021687Y007297D01*
X021694Y007139D02*
X019644Y007139D01*
X019578Y006980D02*
X021759Y006980D01*
X021900Y006822D02*
X019436Y006822D01*
X018759Y006822D02*
X015561Y006822D01*
X015247Y006847D02*
X012947Y006847D01*
X012747Y007047D01*
X012747Y008147D01*
X011276Y007931D02*
X005587Y007931D01*
X005587Y007773D02*
X007006Y007773D01*
X006803Y007614D02*
X005587Y007614D01*
X005587Y007456D02*
X006719Y007456D01*
X006687Y007297D02*
X005736Y007297D01*
X005894Y007139D02*
X006694Y007139D01*
X006759Y006980D02*
X006053Y006980D01*
X006211Y006822D02*
X006900Y006822D01*
X006528Y006505D02*
X010850Y006505D01*
X011008Y006346D02*
X006687Y006346D01*
X006845Y006188D02*
X022967Y006188D01*
X023125Y006029D02*
X018404Y006029D01*
X018476Y005957D02*
X018327Y006106D01*
X018132Y006187D01*
X017922Y006187D01*
X017727Y006106D01*
X017578Y005957D01*
X017497Y005762D01*
X017497Y005552D01*
X017578Y005357D01*
X017727Y005208D01*
X017922Y005127D01*
X018132Y005127D01*
X018327Y005208D01*
X018476Y005357D01*
X018557Y005552D01*
X018557Y005762D01*
X018476Y005957D01*
X018512Y005871D02*
X023207Y005871D01*
X023207Y005712D02*
X018557Y005712D01*
X018557Y005554D02*
X023168Y005554D01*
X023025Y005395D02*
X018492Y005395D01*
X018356Y005237D02*
X022962Y005237D01*
X023726Y005554D02*
X024148Y005554D01*
X024118Y005532D02*
X024062Y005476D01*
X024015Y005412D01*
X023979Y005341D01*
X023954Y005265D01*
X023942Y005187D01*
X023942Y005147D01*
X024447Y005147D01*
X024952Y005147D01*
X024952Y005187D01*
X024939Y005265D01*
X024915Y005341D01*
X024879Y005412D01*
X024832Y005476D01*
X024776Y005532D01*
X024712Y005579D01*
X024641Y005615D01*
X024565Y005639D01*
X024487Y005652D01*
X024447Y005652D01*
X024447Y005147D01*
X024447Y005147D01*
X024447Y005147D01*
X024952Y005147D01*
X024952Y005107D01*
X024939Y005029D01*
X024915Y004953D01*
X024879Y004882D01*
X024832Y004818D01*
X024776Y004762D01*
X024712Y004715D01*
X024641Y004679D01*
X024565Y004654D01*
X024487Y004642D01*
X024447Y004642D01*
X024447Y005147D01*
X024447Y005652D01*
X024407Y005652D01*
X024329Y005639D01*
X024253Y005615D01*
X024182Y005579D01*
X024118Y005532D01*
X024007Y005395D02*
X023869Y005395D01*
X023932Y005237D02*
X023950Y005237D01*
X023942Y005147D02*
X023942Y005107D01*
X023954Y005029D01*
X023979Y004953D01*
X024015Y004882D01*
X024062Y004818D01*
X024118Y004762D01*
X024182Y004715D01*
X024253Y004679D01*
X024329Y004654D01*
X024407Y004642D01*
X024447Y004642D01*
X024447Y005147D01*
X024447Y005147D01*
X024447Y005147D01*
X023942Y005147D01*
X023932Y005078D02*
X023946Y005078D01*
X023996Y004920D02*
X023878Y004920D01*
X023747Y004761D02*
X024118Y004761D01*
X024447Y004761D02*
X024447Y004761D01*
X024447Y004920D02*
X024447Y004920D01*
X024447Y005078D02*
X024447Y005078D01*
X024447Y005237D02*
X024447Y005237D01*
X024447Y005395D02*
X024447Y005395D01*
X024447Y005554D02*
X024447Y005554D01*
X024746Y005554D02*
X025751Y005554D01*
X025876Y005712D02*
X023687Y005712D01*
X023687Y005871D02*
X026002Y005871D01*
X026127Y006029D02*
X023687Y006029D01*
X023645Y006188D02*
X026253Y006188D01*
X026378Y006346D02*
X023487Y006346D01*
X023328Y006505D02*
X026492Y006505D01*
X026593Y006663D02*
X023170Y006663D01*
X022735Y006980D02*
X026794Y006980D01*
X026694Y006822D02*
X022594Y006822D01*
X022800Y007139D02*
X026895Y007139D01*
X026996Y007297D02*
X022807Y007297D01*
X022775Y007456D02*
X027097Y007456D01*
X027198Y007614D02*
X022691Y007614D01*
X022488Y007773D02*
X027286Y007773D01*
X027365Y007931D02*
X022487Y007931D01*
X022487Y008090D02*
X027444Y008090D01*
X027523Y008248D02*
X022487Y008248D01*
X022487Y008407D02*
X027602Y008407D01*
X027682Y008565D02*
X022487Y008565D01*
X022487Y008724D02*
X027046Y008724D01*
X027136Y008687D02*
X026930Y008772D01*
X026772Y008930D01*
X026687Y009136D01*
X026687Y009358D01*
X022487Y009358D01*
X022487Y009516D02*
X026752Y009516D01*
X026772Y009564D02*
X026687Y009358D01*
X026687Y009199D02*
X022487Y009199D01*
X022487Y009041D02*
X026726Y009041D01*
X026819Y008882D02*
X022487Y008882D01*
X022007Y008882D02*
X018361Y008882D01*
X018506Y008724D02*
X022007Y008724D01*
X022007Y008565D02*
X018572Y008565D01*
X018577Y008407D02*
X022007Y008407D01*
X022007Y008248D02*
X018538Y008248D01*
X018439Y008090D02*
X022007Y008090D01*
X022247Y007267D02*
X022247Y011247D01*
X021647Y011847D01*
X014947Y011847D01*
X014247Y012547D01*
X014579Y012686D02*
X017552Y012686D01*
X017503Y012528D02*
X014607Y012528D01*
X014764Y012369D02*
X017502Y012369D01*
X017550Y012211D02*
X014922Y012211D01*
X014561Y011894D02*
X012487Y011894D01*
X012487Y012052D02*
X014402Y012052D01*
X014117Y012211D02*
X012487Y012211D01*
X012487Y012369D02*
X013931Y012369D01*
X013887Y012528D02*
X012487Y012528D01*
X012487Y012686D02*
X013915Y012686D01*
X014036Y012845D02*
X012487Y012845D01*
X012487Y013003D02*
X026851Y013003D01*
X027007Y012845D02*
X018427Y012845D01*
X018405Y012866D02*
X018335Y012917D01*
X018258Y012957D01*
X018176Y012983D01*
X018090Y012997D01*
X018056Y012997D01*
X018056Y012456D01*
X018597Y012456D01*
X018597Y012490D01*
X018583Y012576D01*
X018557Y012658D01*
X018517Y012735D01*
X018466Y012805D01*
X018405Y012866D01*
X018542Y012686D02*
X026894Y012686D01*
X026757Y012528D02*
X018591Y012528D01*
X018592Y012369D02*
X026692Y012369D01*
X026687Y012211D02*
X018544Y012211D01*
X018056Y012528D02*
X018038Y012528D01*
X018038Y012686D02*
X018056Y012686D01*
X018056Y012845D02*
X018038Y012845D01*
X017667Y012845D02*
X014458Y012845D01*
X015217Y013637D02*
X011996Y013637D01*
X012154Y013479D02*
X015376Y013479D01*
X015534Y013320D02*
X012313Y013320D01*
X012459Y013162D02*
X015693Y013162D01*
X015847Y013347D02*
X026847Y013347D01*
X027247Y012947D01*
X027247Y012247D01*
X028347Y012247D01*
X028547Y012447D01*
X028547Y014052D01*
X028541Y014058D01*
X027981Y014113D02*
X017516Y014113D01*
X017520Y014117D02*
X017520Y014117D01*
X017590Y014218D01*
X017647Y014328D01*
X017691Y014443D01*
X017721Y014563D01*
X017733Y014667D01*
X016795Y014667D01*
X016795Y013729D01*
X016900Y013742D01*
X017019Y013771D01*
X017019Y013771D01*
X017135Y013815D01*
X017244Y013872D01*
X017244Y013872D01*
X017346Y013943D01*
X017438Y014024D01*
X017438Y014024D01*
X017520Y014117D01*
X017618Y014271D02*
X027981Y014271D01*
X027981Y014430D02*
X017686Y014430D01*
X017724Y014588D02*
X028045Y014588D01*
X028237Y014940D02*
X028318Y014898D01*
X028405Y014870D01*
X028495Y014856D01*
X028521Y014856D01*
X028521Y015416D01*
X027961Y015416D01*
X027961Y015390D01*
X027975Y015300D01*
X028003Y015213D01*
X028045Y015132D01*
X028098Y015058D01*
X028163Y014994D01*
X028237Y014940D01*
X028304Y014905D02*
X017724Y014905D01*
X017721Y014931D02*
X017691Y015051D01*
X017647Y015166D01*
X017647Y015166D01*
X017590Y015276D01*
X017520Y015377D01*
X017520Y015377D01*
X017438Y015469D01*
X017438Y015469D01*
X017346Y015551D01*
X017329Y015562D01*
X017244Y015621D01*
X017224Y015632D01*
X017135Y015679D01*
X017110Y015688D01*
X017019Y015723D01*
X016987Y015731D01*
X016900Y015752D01*
X016900Y015752D01*
X016795Y015765D01*
X016795Y014827D01*
X016635Y014827D01*
X016635Y014667D01*
X015698Y014667D01*
X015710Y014563D01*
X015710Y014563D01*
X015740Y014443D01*
X015740Y014443D01*
X015784Y014328D01*
X015784Y014328D01*
X015841Y014218D01*
X015911Y014117D01*
X015911Y014117D01*
X015993Y014024D01*
X016046Y013977D01*
X016085Y013943D01*
X016152Y013896D01*
X016187Y013872D01*
X016272Y013828D01*
X016296Y013815D01*
X016408Y013772D01*
X016411Y013771D01*
X016411Y013771D01*
X016531Y013742D01*
X016635Y013729D01*
X016635Y014667D01*
X016795Y014667D01*
X016795Y014827D01*
X017733Y014827D01*
X017721Y014931D01*
X017691Y015051D02*
X017691Y015051D01*
X017686Y015064D02*
X028094Y015064D01*
X028000Y015222D02*
X017618Y015222D01*
X017590Y015276D02*
X017590Y015276D01*
X017516Y015381D02*
X027962Y015381D01*
X027970Y015539D02*
X017359Y015539D01*
X017346Y015551D02*
X017346Y015551D01*
X017244Y015621D02*
X017244Y015621D01*
X017135Y015679D02*
X017135Y015679D01*
X017084Y015698D02*
X028023Y015698D01*
X028141Y015856D02*
X011687Y015856D01*
X011687Y015698D02*
X012467Y015698D01*
X012163Y015539D02*
X011687Y015539D01*
X011687Y015381D02*
X011997Y015381D01*
X011896Y015222D02*
X011687Y015222D01*
X011687Y015064D02*
X011829Y015064D01*
X011790Y014905D02*
X011687Y014905D01*
X011687Y014588D02*
X011790Y014588D01*
X011829Y014430D02*
X011687Y014430D01*
X011687Y014271D02*
X011897Y014271D01*
X012000Y014113D02*
X011687Y014113D01*
X011687Y013954D02*
X012158Y013954D01*
X012445Y013796D02*
X011837Y013796D01*
X012778Y014715D02*
X012847Y014647D01*
X014547Y014647D01*
X015847Y013347D01*
X015896Y013637D02*
X027981Y013637D01*
X027981Y013796D02*
X017084Y013796D01*
X017135Y013815D02*
X017135Y013815D01*
X017346Y013943D02*
X017346Y013943D01*
X017359Y013954D02*
X027981Y013954D01*
X028307Y013479D02*
X027054Y013479D01*
X027213Y013320D02*
X028307Y013320D01*
X028307Y013162D02*
X027371Y013162D01*
X027483Y013003D02*
X028307Y013003D01*
X028307Y012845D02*
X027487Y012845D01*
X027599Y012686D02*
X028307Y012686D01*
X028289Y012528D02*
X027737Y012528D01*
X027686Y011894D02*
X028809Y011894D01*
X028834Y012052D02*
X028492Y012052D01*
X028650Y012211D02*
X028858Y012211D01*
X028883Y012369D02*
X028775Y012369D01*
X028787Y012528D02*
X028908Y012528D01*
X028933Y012686D02*
X028787Y012686D01*
X028787Y012845D02*
X028957Y012845D01*
X028982Y013003D02*
X028787Y013003D01*
X028787Y013162D02*
X029007Y013162D01*
X029026Y013320D02*
X028787Y013320D01*
X028787Y013479D02*
X029034Y013479D01*
X029036Y014588D02*
X029091Y014588D01*
X029100Y014747D02*
X016795Y014747D01*
X016795Y014905D02*
X016635Y014905D01*
X016635Y014827D02*
X016635Y015765D01*
X016531Y015752D01*
X016411Y015723D01*
X016296Y015679D01*
X016187Y015621D01*
X016085Y015551D01*
X015993Y015469D01*
X015911Y015377D01*
X015841Y015276D01*
X015841Y015276D01*
X015826Y015246D01*
X015784Y015166D01*
X015770Y015130D01*
X015740Y015051D01*
X015740Y015051D01*
X015728Y015005D01*
X015710Y014931D01*
X015698Y014827D01*
X016635Y014827D01*
X016635Y014747D02*
X014786Y014747D01*
X014945Y014588D02*
X015707Y014588D01*
X015745Y014430D02*
X015103Y014430D01*
X015262Y014271D02*
X015813Y014271D01*
X015841Y014218D02*
X015841Y014218D01*
X015914Y014113D02*
X015420Y014113D01*
X015579Y013954D02*
X016072Y013954D01*
X016085Y013943D02*
X016085Y013943D01*
X015993Y014024D02*
X015993Y014024D01*
X015993Y014024D01*
X016187Y013872D02*
X016187Y013872D01*
X016296Y013815D02*
X016296Y013815D01*
X016347Y013796D02*
X015737Y013796D01*
X015059Y013796D02*
X013106Y013796D01*
X013396Y013954D02*
X014900Y013954D01*
X014742Y014113D02*
X013555Y014113D01*
X013665Y014271D02*
X014583Y014271D01*
X013772Y014905D02*
X015707Y014905D01*
X015710Y014931D02*
X015710Y014931D01*
X015745Y015064D02*
X013733Y015064D01*
X013666Y015222D02*
X015813Y015222D01*
X015784Y015166D02*
X015784Y015166D01*
X015914Y015381D02*
X013555Y015381D01*
X013390Y015539D02*
X016072Y015539D01*
X015993Y015469D02*
X015993Y015469D01*
X016347Y015698D02*
X013092Y015698D01*
X012778Y014747D02*
X012778Y014715D01*
X011687Y016015D02*
X028489Y016015D01*
X028521Y016015D02*
X028561Y016015D01*
X028592Y016015D02*
X029034Y016015D01*
X029026Y016173D02*
X011687Y016173D01*
X011687Y016332D02*
X029007Y016332D01*
X028982Y016490D02*
X011687Y016490D01*
X011687Y016649D02*
X028957Y016649D01*
X028933Y016807D02*
X011687Y016807D01*
X011490Y020797D02*
X011576Y020810D01*
X011658Y020837D01*
X011735Y020877D01*
X011805Y020927D01*
X011866Y020989D01*
X011917Y021059D01*
X011957Y021136D01*
X011983Y021218D01*
X011997Y021304D01*
X011997Y021338D01*
X011456Y021338D01*
X011456Y021356D01*
X011438Y021356D01*
X011438Y021897D01*
X011404Y021897D01*
X011318Y021883D01*
X011236Y021857D01*
X011159Y021817D01*
X011089Y021766D01*
X011027Y021705D01*
X010977Y021635D01*
X010937Y021558D01*
X010910Y021476D01*
X010897Y021390D01*
X010897Y021356D01*
X011438Y021356D01*
X011438Y021338D01*
X010897Y021338D01*
X010897Y021304D01*
X010910Y021218D01*
X010937Y021136D01*
X010977Y021059D01*
X011027Y020989D01*
X011089Y020927D01*
X011159Y020877D01*
X011236Y020837D01*
X011318Y020810D01*
X011404Y020797D01*
X011438Y020797D01*
X011438Y021338D01*
X011456Y021338D01*
X011456Y020797D01*
X011490Y020797D01*
X011456Y020928D02*
X011438Y020928D01*
X011438Y021087D02*
X011456Y021087D01*
X011456Y021245D02*
X011438Y021245D01*
X011456Y021356D02*
X011997Y021356D01*
X011997Y021390D01*
X011983Y021476D01*
X011957Y021558D01*
X011917Y021635D01*
X011866Y021705D01*
X011805Y021766D01*
X011735Y021817D01*
X011658Y021857D01*
X011576Y021883D01*
X011490Y021897D01*
X011456Y021897D01*
X011456Y021356D01*
X011456Y021404D02*
X011438Y021404D01*
X011438Y021562D02*
X011456Y021562D01*
X011456Y021721D02*
X011438Y021721D01*
X011438Y021879D02*
X011456Y021879D01*
X011588Y021879D02*
X021803Y021879D01*
X021772Y021910D02*
X021930Y021752D01*
X022136Y021667D01*
X022358Y021667D01*
X022564Y021752D01*
X022722Y021910D01*
X022807Y022116D01*
X022807Y022339D01*
X022722Y022544D01*
X022564Y022702D01*
X022358Y022787D01*
X022136Y022787D01*
X021930Y022702D01*
X021772Y022544D01*
X021740Y022467D01*
X011866Y022467D01*
X011350Y022983D01*
X011283Y023050D01*
X011195Y023087D01*
X007819Y023087D01*
X007731Y023050D01*
X007436Y022755D01*
X007358Y022787D01*
X007136Y022787D01*
X006930Y022702D01*
X006772Y022544D01*
X006687Y022339D01*
X006687Y022116D01*
X006772Y021910D01*
X006930Y021752D01*
X007136Y021667D01*
X007358Y021667D01*
X007564Y021752D01*
X007722Y021910D01*
X007807Y022116D01*
X007807Y022339D01*
X007775Y022416D01*
X007966Y022607D01*
X009993Y022607D01*
X009927Y022541D01*
X009843Y022337D01*
X009843Y022117D01*
X009927Y021914D01*
X010083Y021758D01*
X010286Y021674D01*
X010507Y021674D01*
X010710Y021758D01*
X010866Y021914D01*
X010950Y022117D01*
X010950Y022337D01*
X010866Y022541D01*
X010800Y022607D01*
X011048Y022607D01*
X011631Y022024D01*
X011719Y021987D01*
X021740Y021987D01*
X021772Y021910D01*
X022006Y021721D02*
X011851Y021721D01*
X011954Y021562D02*
X027365Y021562D01*
X027444Y021404D02*
X011995Y021404D01*
X011988Y021245D02*
X027523Y021245D01*
X027602Y021087D02*
X011932Y021087D01*
X011806Y020928D02*
X027682Y020928D01*
X027761Y020770D02*
X005587Y020770D01*
X005587Y020928D02*
X011088Y020928D01*
X010962Y021087D02*
X005587Y021087D01*
X005587Y021245D02*
X010906Y021245D01*
X010899Y021404D02*
X005587Y021404D01*
X005587Y021562D02*
X010939Y021562D01*
X011043Y021721D02*
X010621Y021721D01*
X010832Y021879D02*
X011306Y021879D01*
X011617Y022038D02*
X010917Y022038D01*
X010950Y022196D02*
X011458Y022196D01*
X011300Y022355D02*
X010943Y022355D01*
X010877Y022513D02*
X011141Y022513D01*
X011147Y022847D02*
X007867Y022847D01*
X007247Y022227D01*
X007775Y022038D02*
X009876Y022038D01*
X009843Y022196D02*
X007807Y022196D01*
X007800Y022355D02*
X009850Y022355D01*
X009916Y022513D02*
X007873Y022513D01*
X007669Y022989D02*
X005628Y022989D01*
X005587Y022830D02*
X007511Y022830D01*
X006900Y022672D02*
X005587Y022672D01*
X005587Y022513D02*
X006759Y022513D01*
X006694Y022355D02*
X005587Y022355D01*
X005587Y022196D02*
X006687Y022196D01*
X006719Y022038D02*
X005587Y022038D01*
X005587Y021879D02*
X006803Y021879D01*
X007006Y021721D02*
X005587Y021721D01*
X004707Y021721D02*
X003338Y021721D01*
X003540Y021879D02*
X004707Y021879D01*
X004707Y022038D02*
X003672Y022038D01*
X003754Y022196D02*
X004707Y022196D01*
X004707Y022355D02*
X003805Y022355D01*
X003829Y022513D02*
X004707Y022513D01*
X004707Y022672D02*
X003828Y022672D01*
X003801Y022830D02*
X004707Y022830D01*
X004707Y022989D02*
X003746Y022989D01*
X003659Y023147D02*
X004707Y023147D01*
X004707Y023306D02*
X003529Y023306D01*
X003358Y023464D02*
X004707Y023464D01*
X004719Y023623D02*
X003470Y023623D01*
X003604Y023781D02*
X004842Y023781D01*
X005001Y023940D02*
X003744Y023940D01*
X003883Y024098D02*
X005159Y024098D01*
X005347Y023947D02*
X011547Y023947D01*
X013547Y023947D01*
X013960Y024360D01*
X013960Y028047D01*
X014418Y028219D02*
X015054Y028219D01*
X015062Y028243D02*
X015037Y028166D01*
X015024Y028087D01*
X015024Y028047D01*
X015534Y028047D01*
X015534Y028047D01*
X015024Y028047D01*
X015024Y028007D01*
X015037Y027928D01*
X015062Y027851D01*
X015098Y027780D01*
X015145Y027715D01*
X015202Y027658D01*
X015267Y027611D01*
X015339Y027574D01*
X015415Y027549D01*
X015494Y027537D01*
X015534Y027537D01*
X015534Y028047D01*
X015534Y028557D01*
X015494Y028557D01*
X015415Y028544D01*
X015339Y028520D01*
X015267Y028483D01*
X015202Y028436D01*
X015145Y028379D01*
X015098Y028314D01*
X015062Y028243D01*
X015144Y028378D02*
X014321Y028378D01*
X014058Y028536D02*
X015391Y028536D01*
X015534Y028536D02*
X015534Y028536D01*
X015534Y028557D02*
X015574Y028557D01*
X015654Y028544D01*
X015730Y028520D01*
X015802Y028483D01*
X015867Y028436D01*
X015923Y028379D01*
X015971Y028314D01*
X016007Y028243D01*
X016032Y028166D01*
X016044Y028087D01*
X016044Y028047D01*
X015534Y028047D01*
X015534Y028047D01*
X015534Y028047D01*
X015534Y028557D01*
X015678Y028536D02*
X018660Y028536D01*
X018116Y028695D02*
X011444Y028695D01*
X011442Y028477D02*
X011247Y028396D01*
X011098Y028247D01*
X011017Y028052D01*
X011017Y027842D01*
X011098Y027647D01*
X011247Y027498D01*
X011307Y027473D01*
X011307Y026746D01*
X011148Y026587D01*
X008821Y026587D01*
X008796Y026647D01*
X008647Y026796D01*
X008452Y026877D01*
X008242Y026877D01*
X008047Y026796D01*
X007898Y026647D01*
X007817Y026452D01*
X007817Y026242D01*
X007898Y026047D01*
X008047Y025898D01*
X008242Y025817D01*
X008452Y025817D01*
X008647Y025898D01*
X008796Y026047D01*
X008821Y026107D01*
X011295Y026107D01*
X011383Y026143D01*
X011683Y026443D01*
X011750Y026511D01*
X011787Y026599D01*
X011787Y027473D01*
X011847Y027498D01*
X011996Y027647D01*
X012077Y027842D01*
X012077Y028052D01*
X011996Y028247D01*
X011847Y028396D01*
X011652Y028477D01*
X011442Y028477D01*
X011228Y028378D02*
X010305Y028378D01*
X010773Y028536D02*
X013861Y028536D01*
X013598Y028378D02*
X011865Y028378D01*
X012008Y028219D02*
X013501Y028219D01*
X013470Y028061D02*
X012073Y028061D01*
X012077Y027902D02*
X013489Y027902D01*
X013570Y027744D02*
X012037Y027744D01*
X011935Y027585D02*
X013720Y027585D01*
X013720Y027427D02*
X011787Y027427D01*
X011787Y027268D02*
X013720Y027268D01*
X013720Y027110D02*
X011787Y027110D01*
X011787Y026951D02*
X013720Y026951D01*
X013720Y026793D02*
X011787Y026793D01*
X011787Y026634D02*
X013720Y026634D01*
X013720Y026476D02*
X011715Y026476D01*
X011557Y026317D02*
X013720Y026317D01*
X013720Y026159D02*
X011398Y026159D01*
X011247Y026347D02*
X011547Y026647D01*
X011547Y027947D01*
X011159Y027585D02*
X008364Y027585D01*
X008025Y027427D02*
X011307Y027427D01*
X011307Y027268D02*
X007756Y027268D01*
X007492Y027110D02*
X011307Y027110D01*
X011307Y026951D02*
X007228Y026951D01*
X006964Y026793D02*
X008043Y026793D01*
X007892Y026634D02*
X006707Y026634D01*
X006496Y026476D02*
X007827Y026476D01*
X007817Y026317D02*
X006285Y026317D01*
X006074Y026159D02*
X007851Y026159D01*
X007944Y026000D02*
X005862Y026000D01*
X005651Y025842D02*
X007157Y025842D01*
X007242Y025877D02*
X007047Y025796D01*
X006898Y025647D01*
X006817Y025452D01*
X006817Y025242D01*
X006898Y025047D01*
X007047Y024898D01*
X007242Y024817D01*
X007452Y024817D01*
X007647Y024898D01*
X007796Y025047D01*
X007877Y025242D01*
X007877Y025452D01*
X007796Y025647D01*
X007647Y025796D01*
X007452Y025877D01*
X007242Y025877D01*
X007537Y025842D02*
X008181Y025842D01*
X008513Y025842D02*
X009157Y025842D01*
X009242Y025877D02*
X009047Y025796D01*
X008898Y025647D01*
X008817Y025452D01*
X008817Y025242D01*
X008898Y025047D01*
X009047Y024898D01*
X009242Y024817D01*
X009452Y024817D01*
X009647Y024898D01*
X009796Y025047D01*
X009877Y025242D01*
X009877Y025452D01*
X009796Y025647D01*
X009647Y025796D01*
X009452Y025877D01*
X009242Y025877D01*
X009537Y025842D02*
X013720Y025842D01*
X013720Y026000D02*
X008750Y026000D01*
X008934Y025683D02*
X007760Y025683D01*
X007847Y025525D02*
X008847Y025525D01*
X008817Y025366D02*
X007877Y025366D01*
X007863Y025208D02*
X008831Y025208D01*
X008896Y025049D02*
X007797Y025049D01*
X007631Y024891D02*
X009063Y024891D01*
X009631Y024891D02*
X013720Y024891D01*
X013720Y025049D02*
X009797Y025049D01*
X009863Y025208D02*
X013720Y025208D01*
X013720Y025366D02*
X009877Y025366D01*
X009847Y025525D02*
X013720Y025525D01*
X013720Y025683D02*
X009760Y025683D01*
X008802Y026634D02*
X011195Y026634D01*
X011307Y026793D02*
X008650Y026793D01*
X008347Y026347D02*
X011247Y026347D01*
X011057Y027744D02*
X008703Y027744D01*
X009041Y027902D02*
X011017Y027902D01*
X011020Y028061D02*
X009394Y028061D01*
X009849Y028219D02*
X011086Y028219D01*
X012116Y028853D02*
X017289Y028853D01*
X016188Y029012D02*
X013293Y029012D01*
X014450Y028061D02*
X015024Y028061D01*
X015045Y027902D02*
X014430Y027902D01*
X014350Y027744D02*
X015124Y027744D01*
X015317Y027585D02*
X014200Y027585D01*
X014200Y027427D02*
X021431Y027427D01*
X021729Y027268D02*
X014200Y027268D01*
X014200Y027110D02*
X022026Y027110D01*
X022285Y026951D02*
X014200Y026951D01*
X014200Y026793D02*
X022520Y026793D01*
X022756Y026634D02*
X014200Y026634D01*
X014200Y026476D02*
X022991Y026476D01*
X023227Y026317D02*
X014200Y026317D01*
X014200Y026159D02*
X023443Y026159D01*
X023633Y026000D02*
X014200Y026000D01*
X014200Y025842D02*
X023823Y025842D01*
X024013Y025683D02*
X022709Y025683D01*
X022817Y025525D02*
X024203Y025525D01*
X024393Y025366D02*
X022832Y025366D01*
X022832Y025208D02*
X023715Y025208D01*
X023600Y025049D02*
X022832Y025049D01*
X022785Y024891D02*
X023557Y024891D01*
X023847Y024647D02*
X024047Y024847D01*
X023847Y024647D02*
X022147Y024647D01*
X021997Y024797D01*
X021997Y025247D01*
X022209Y025683D02*
X022285Y025683D01*
X021785Y025683D02*
X021709Y025683D01*
X021285Y025683D02*
X021209Y025683D01*
X020785Y025683D02*
X014200Y025683D01*
X014200Y025525D02*
X020677Y025525D01*
X020997Y025247D02*
X014847Y025247D01*
X014547Y024947D01*
X014547Y023747D01*
X014147Y023347D01*
X005647Y023347D01*
X005347Y023047D01*
X005347Y007347D01*
X007047Y005647D01*
X007047Y004547D01*
X006997Y004497D01*
X006997Y004247D01*
X006662Y004286D02*
X006587Y004286D01*
X006587Y004444D02*
X006662Y004444D01*
X006709Y004603D02*
X006587Y004603D01*
X006587Y004761D02*
X006807Y004761D01*
X006807Y004920D02*
X006587Y004920D01*
X006587Y005078D02*
X006807Y005078D01*
X006807Y005237D02*
X006587Y005237D01*
X006587Y005395D02*
X006807Y005395D01*
X006801Y005554D02*
X006587Y005554D01*
X006587Y005712D02*
X006642Y005712D01*
X006347Y005747D02*
X006347Y003647D01*
X006647Y003347D01*
X010447Y003347D01*
X010713Y003810D02*
X011631Y003810D01*
X011452Y003652D02*
X010891Y003652D01*
X010960Y003493D02*
X011384Y003493D01*
X011367Y003335D02*
X010977Y003335D01*
X010950Y003176D02*
X011394Y003176D01*
X011476Y003018D02*
X010867Y003018D01*
X010901Y002859D02*
X011443Y002859D01*
X011367Y002701D02*
X010977Y002701D01*
X010977Y002542D02*
X011367Y002542D01*
X011367Y002384D02*
X010977Y002384D01*
X010977Y002225D02*
X011367Y002225D01*
X011367Y002067D02*
X010977Y002067D01*
X010975Y001908D02*
X011369Y001908D01*
X011897Y002347D02*
X012947Y002347D01*
X013247Y002647D01*
X016547Y002647D01*
X016747Y002847D01*
X016747Y003147D01*
X016547Y003647D02*
X016747Y003847D01*
X016747Y004147D01*
X018197Y004147D01*
X018247Y004097D01*
X017697Y005237D02*
X015796Y005237D01*
X015932Y005395D02*
X017562Y005395D01*
X017497Y005554D02*
X015997Y005554D01*
X015997Y005712D02*
X017497Y005712D01*
X017542Y005871D02*
X015952Y005871D01*
X015844Y006029D02*
X017650Y006029D01*
X016215Y004444D02*
X014279Y004444D01*
X014383Y004286D02*
X016111Y004286D01*
X016087Y004127D02*
X014407Y004127D01*
X014367Y003969D02*
X016127Y003969D01*
X016547Y003647D02*
X013147Y003647D01*
X012847Y003347D01*
X011897Y003347D01*
X012163Y003810D02*
X012971Y003810D01*
X013127Y003969D02*
X008817Y003969D01*
X008832Y004127D02*
X013087Y004127D01*
X013111Y004286D02*
X008832Y004286D01*
X008832Y004444D02*
X013215Y004444D01*
X013835Y004920D02*
X008187Y004920D01*
X008187Y005078D02*
X013787Y005078D01*
X013697Y005237D02*
X011796Y005237D01*
X011767Y005208D02*
X011916Y005357D01*
X011997Y005552D01*
X011997Y005762D01*
X011916Y005957D01*
X011767Y006106D01*
X011572Y006187D01*
X011362Y006187D01*
X011167Y006106D01*
X011018Y005957D01*
X010937Y005762D01*
X010937Y005552D01*
X011018Y005357D01*
X011167Y005208D01*
X011362Y005127D01*
X011572Y005127D01*
X011767Y005208D01*
X011932Y005395D02*
X013562Y005395D01*
X013497Y005554D02*
X011997Y005554D01*
X011997Y005712D02*
X013497Y005712D01*
X013542Y005871D02*
X011952Y005871D01*
X011844Y006029D02*
X013650Y006029D01*
X013993Y004761D02*
X008187Y004761D01*
X007947Y004447D02*
X007947Y005747D01*
X007997Y005797D01*
X008263Y005554D02*
X010937Y005554D01*
X010937Y005712D02*
X008352Y005712D01*
X008356Y005871D02*
X010982Y005871D01*
X011090Y006029D02*
X008274Y006029D01*
X007720Y006029D02*
X007004Y006029D01*
X007162Y005871D02*
X007638Y005871D01*
X007642Y005712D02*
X007280Y005712D01*
X007287Y005554D02*
X007707Y005554D01*
X007707Y005395D02*
X007287Y005395D01*
X007287Y005237D02*
X007707Y005237D01*
X007707Y005078D02*
X007287Y005078D01*
X007287Y004920D02*
X007707Y004920D01*
X007707Y004761D02*
X007287Y004761D01*
X007947Y004447D02*
X007997Y004397D01*
X007997Y004247D01*
X008209Y003810D02*
X008285Y003810D01*
X008709Y003810D02*
X010181Y003810D01*
X010002Y003652D02*
X006681Y003652D01*
X006587Y003810D02*
X006785Y003810D01*
X006677Y003969D02*
X006587Y003969D01*
X006587Y004127D02*
X006662Y004127D01*
X007209Y003810D02*
X007285Y003810D01*
X007709Y003810D02*
X007785Y003810D01*
X008785Y004603D02*
X014152Y004603D01*
X012813Y003652D02*
X012341Y003652D01*
X012427Y002067D02*
X013087Y002067D01*
X013156Y001908D02*
X012425Y001908D01*
X012700Y001433D02*
X013175Y001433D01*
X013086Y001274D02*
X012859Y001274D01*
X013017Y001116D02*
X013067Y001116D01*
X012656Y000799D02*
X011444Y000799D01*
X012116Y000640D02*
X012814Y000640D01*
X012497Y000957D02*
X010773Y000957D01*
X010647Y001347D02*
X010447Y001547D01*
X010447Y002347D01*
X010687Y001750D02*
X013384Y001750D01*
X013747Y001433D02*
X013747Y001433D01*
X013747Y001274D02*
X013747Y001274D01*
X014110Y001750D02*
X015707Y001750D01*
X015707Y001908D02*
X014338Y001908D01*
X014407Y002067D02*
X015737Y002067D01*
X015886Y002225D02*
X014407Y002225D01*
X014340Y002384D02*
X016092Y002384D01*
X015707Y001591D02*
X010742Y001591D01*
X014319Y001433D02*
X015707Y001433D01*
X015707Y001274D02*
X014408Y001274D01*
X014427Y001116D02*
X015707Y001116D01*
X015707Y000957D02*
X014383Y000957D01*
X015921Y000482D02*
X016188Y000482D01*
X016080Y000640D02*
X017289Y000640D01*
X017228Y000799D02*
X018116Y000799D01*
X017897Y000957D02*
X018660Y000957D01*
X018177Y001274D02*
X019668Y001274D01*
X020057Y001433D02*
X018187Y001433D01*
X018187Y001591D02*
X020447Y001591D01*
X020647Y002047D02*
X018147Y002047D01*
X017947Y001847D01*
X017947Y001347D01*
X017747Y001147D01*
X016747Y001147D01*
X016266Y000799D02*
X016187Y000799D01*
X018055Y001116D02*
X019205Y001116D01*
X018189Y001750D02*
X020836Y001750D01*
X020848Y001908D02*
X021133Y001908D01*
X021006Y002067D02*
X021431Y002067D01*
X021729Y002225D02*
X021087Y002225D01*
X021087Y002384D02*
X022026Y002384D01*
X022285Y002542D02*
X021087Y002542D01*
X021087Y002701D02*
X022520Y002701D01*
X022756Y002859D02*
X021087Y002859D01*
X021087Y003018D02*
X022991Y003018D01*
X023227Y003176D02*
X021087Y003176D01*
X021087Y003335D02*
X023443Y003335D01*
X023633Y003493D02*
X021087Y003493D01*
X021087Y003652D02*
X023823Y003652D01*
X024013Y003810D02*
X021087Y003810D01*
X021087Y003969D02*
X024203Y003969D01*
X024393Y004127D02*
X021087Y004127D01*
X021087Y004286D02*
X024567Y004286D01*
X024721Y004444D02*
X021087Y004444D01*
X021084Y004603D02*
X024876Y004603D01*
X024775Y004761D02*
X025030Y004761D01*
X024898Y004920D02*
X025185Y004920D01*
X025339Y005078D02*
X024947Y005078D01*
X024944Y005237D02*
X025494Y005237D01*
X025625Y005395D02*
X024887Y005395D01*
X027136Y008687D02*
X027358Y008687D01*
X027564Y008772D01*
X027722Y008930D01*
X027807Y009136D01*
X027807Y009358D01*
X028034Y009358D01*
X028094Y009516D02*
X027741Y009516D01*
X027722Y009564D02*
X027564Y009722D01*
X027358Y009807D01*
X027136Y009807D01*
X026930Y009722D01*
X026772Y009564D01*
X026883Y009675D02*
X022487Y009675D01*
X022487Y009833D02*
X028213Y009833D01*
X028153Y009675D02*
X027611Y009675D01*
X027722Y009564D02*
X027807Y009358D01*
X027807Y009199D02*
X027974Y009199D01*
X027914Y009041D02*
X027768Y009041D01*
X027840Y008882D02*
X027674Y008882D01*
X027761Y008724D02*
X027448Y008724D01*
X028273Y009992D02*
X022487Y009992D01*
X022487Y010150D02*
X028333Y010150D01*
X028392Y010309D02*
X022487Y010309D01*
X022487Y010467D02*
X028442Y010467D01*
X028484Y010626D02*
X022487Y010626D01*
X022487Y010784D02*
X028526Y010784D01*
X028568Y010943D02*
X022487Y010943D01*
X022487Y011101D02*
X028609Y011101D01*
X028651Y011260D02*
X022487Y011260D01*
X022415Y011418D02*
X028693Y011418D01*
X028735Y011577D02*
X022256Y011577D01*
X022098Y011735D02*
X027018Y011735D01*
X026808Y011894D02*
X021939Y011894D01*
X021778Y012052D02*
X026721Y012052D01*
X027475Y011735D02*
X028776Y011735D01*
X028777Y014905D02*
X029091Y014905D01*
X029083Y015064D02*
X028987Y015064D01*
X028561Y015064D02*
X028521Y015064D01*
X028521Y015222D02*
X028561Y015222D01*
X028561Y015381D02*
X028521Y015381D01*
X028521Y015539D02*
X028561Y015539D01*
X028561Y015698D02*
X028521Y015698D01*
X028521Y015856D02*
X028561Y015856D01*
X028940Y015856D02*
X029042Y015856D01*
X028561Y014905D02*
X028521Y014905D01*
X028735Y017917D02*
X005587Y017917D01*
X005587Y018075D02*
X028693Y018075D01*
X028651Y018234D02*
X005587Y018234D01*
X005587Y018392D02*
X028609Y018392D01*
X028568Y018551D02*
X005587Y018551D01*
X005587Y018709D02*
X028526Y018709D01*
X028484Y018868D02*
X005587Y018868D01*
X005587Y019026D02*
X028442Y019026D01*
X028392Y019185D02*
X005587Y019185D01*
X005587Y019343D02*
X028333Y019343D01*
X028273Y019502D02*
X005587Y019502D01*
X005587Y019660D02*
X028213Y019660D01*
X028153Y019819D02*
X005587Y019819D01*
X005587Y019977D02*
X028094Y019977D01*
X028034Y020136D02*
X005587Y020136D01*
X005587Y020294D02*
X027974Y020294D01*
X027914Y020453D02*
X005587Y020453D01*
X005587Y020611D02*
X027840Y020611D01*
X027286Y021721D02*
X027173Y021721D01*
X026145Y021721D02*
X022488Y021721D01*
X022691Y021879D02*
X025948Y021879D01*
X025824Y022038D02*
X022775Y022038D01*
X022807Y022196D02*
X025737Y022196D01*
X025683Y022355D02*
X022800Y022355D01*
X022735Y022513D02*
X025661Y022513D01*
X025662Y022672D02*
X022594Y022672D01*
X022247Y022227D02*
X011767Y022227D01*
X011147Y022847D01*
X011344Y022989D02*
X025743Y022989D01*
X025687Y022830D02*
X011503Y022830D01*
X011661Y022672D02*
X021900Y022672D01*
X021759Y022513D02*
X011820Y022513D01*
X011972Y023623D02*
X014084Y023623D01*
X014242Y023781D02*
X013721Y023781D01*
X013879Y023940D02*
X014307Y023940D01*
X014307Y024098D02*
X014038Y024098D01*
X014177Y024257D02*
X014307Y024257D01*
X014307Y024415D02*
X014200Y024415D01*
X014200Y024574D02*
X014307Y024574D01*
X014307Y024732D02*
X014200Y024732D01*
X014200Y024891D02*
X014307Y024891D01*
X014330Y025049D02*
X014200Y025049D01*
X014200Y025208D02*
X014469Y025208D01*
X014627Y025366D02*
X014200Y025366D01*
X014830Y024891D02*
X020709Y024891D01*
X021257Y024732D02*
X014787Y024732D01*
X014787Y024574D02*
X021257Y024574D01*
X021257Y024415D02*
X014787Y024415D01*
X014787Y024257D02*
X021257Y024257D01*
X021257Y024098D02*
X014787Y024098D01*
X014787Y023940D02*
X021315Y023940D01*
X021473Y023781D02*
X014787Y023781D01*
X014755Y023623D02*
X021661Y023623D01*
X021747Y023847D02*
X021497Y024097D01*
X021497Y025247D01*
X021737Y024732D02*
X021764Y024732D01*
X021737Y024574D02*
X021881Y024574D01*
X021737Y024415D02*
X022079Y024415D01*
X021737Y024257D02*
X023764Y024257D01*
X023621Y024098D02*
X021835Y024098D01*
X021747Y023847D02*
X024047Y023847D01*
X024357Y023464D02*
X026127Y023464D01*
X026002Y023623D02*
X024485Y023623D01*
X024537Y023781D02*
X025876Y023781D01*
X025751Y023940D02*
X024537Y023940D01*
X024473Y024098D02*
X025625Y024098D01*
X025494Y024257D02*
X024330Y024257D01*
X024286Y024415D02*
X025339Y024415D01*
X025185Y024574D02*
X024464Y024574D01*
X024530Y024732D02*
X025030Y024732D01*
X024876Y024891D02*
X024537Y024891D01*
X024493Y025049D02*
X024721Y025049D01*
X024567Y025208D02*
X024379Y025208D01*
X023736Y023464D02*
X014604Y023464D01*
X014445Y023306D02*
X025969Y023306D01*
X025834Y023147D02*
X014287Y023147D01*
X013518Y024257D02*
X011986Y024257D01*
X011801Y024415D02*
X013676Y024415D01*
X013720Y024574D02*
X004301Y024574D01*
X004440Y024732D02*
X013720Y024732D01*
X011293Y024415D02*
X004162Y024415D01*
X004022Y024257D02*
X011107Y024257D01*
X009961Y021879D02*
X007691Y021879D01*
X007488Y021721D02*
X010172Y021721D01*
X007063Y024891D02*
X004605Y024891D01*
X004776Y025049D02*
X006896Y025049D01*
X006831Y025208D02*
X004947Y025208D01*
X005119Y025366D02*
X006817Y025366D01*
X006847Y025525D02*
X005290Y025525D01*
X005461Y025683D02*
X006934Y025683D01*
X005347Y023947D02*
X004947Y023547D01*
X004947Y007147D01*
X006347Y005747D01*
X006370Y006663D02*
X010691Y006663D01*
X010533Y006822D02*
X007594Y006822D01*
X007735Y006980D02*
X010374Y006980D01*
X011053Y007773D02*
X007488Y007773D01*
X005587Y008090D02*
X011054Y008090D01*
X010955Y008248D02*
X005587Y008248D01*
X005587Y008407D02*
X010917Y008407D01*
X010922Y008565D02*
X005587Y008565D01*
X005587Y008724D02*
X010988Y008724D01*
X011133Y008882D02*
X005587Y008882D01*
X004707Y008882D02*
X001667Y008882D01*
X001736Y008724D02*
X004707Y008724D01*
X004707Y008565D02*
X001806Y008565D01*
X001875Y008407D02*
X004707Y008407D01*
X004707Y008248D02*
X001955Y008248D01*
X002044Y008090D02*
X004707Y008090D01*
X004707Y007931D02*
X002134Y007931D01*
X002224Y007773D02*
X004707Y007773D01*
X004707Y007614D02*
X002314Y007614D01*
X002403Y007456D02*
X004707Y007456D01*
X004707Y007297D02*
X002493Y007297D01*
X002583Y007139D02*
X004707Y007139D01*
X004774Y006980D02*
X002682Y006980D01*
X002794Y006822D02*
X004933Y006822D01*
X005091Y006663D02*
X002907Y006663D01*
X003020Y006505D02*
X005250Y006505D01*
X004707Y009041D02*
X001598Y009041D01*
X001529Y009199D02*
X004707Y009199D01*
X004707Y009358D02*
X001459Y009358D01*
X001390Y009516D02*
X004707Y009516D01*
X004707Y009675D02*
X001321Y009675D01*
X001269Y009833D02*
X004707Y009833D01*
X004707Y009992D02*
X001219Y009992D01*
X001168Y010150D02*
X004707Y010150D01*
X004707Y010309D02*
X001117Y010309D01*
X001067Y010467D02*
X004707Y010467D01*
X004707Y010626D02*
X001016Y010626D01*
X000966Y010784D02*
X004707Y010784D01*
X004707Y010943D02*
X000915Y010943D01*
X000865Y011101D02*
X004707Y011101D01*
X004707Y011260D02*
X000832Y011260D01*
X000799Y011418D02*
X004707Y011418D01*
X004707Y011577D02*
X000766Y011577D01*
X000733Y011735D02*
X004707Y011735D01*
X004707Y011894D02*
X000700Y011894D01*
X000667Y012052D02*
X004707Y012052D01*
X004707Y012211D02*
X000634Y012211D01*
X000600Y012369D02*
X004707Y012369D01*
X004707Y012528D02*
X000567Y012528D01*
X000550Y012686D02*
X004707Y012686D01*
X004707Y012845D02*
X000533Y012845D01*
X000517Y013003D02*
X004707Y013003D01*
X004707Y013162D02*
X000501Y013162D01*
X000484Y013320D02*
X004707Y013320D01*
X004707Y013479D02*
X000468Y013479D01*
X000452Y013637D02*
X004707Y013637D01*
X004707Y013796D02*
X000435Y013796D01*
X000419Y013954D02*
X004707Y013954D01*
X004707Y014113D02*
X000413Y014113D01*
X000413Y014271D02*
X004707Y014271D01*
X004707Y014430D02*
X000413Y014430D01*
X000413Y014588D02*
X004707Y014588D01*
X004707Y014747D02*
X000413Y014747D01*
X000413Y014905D02*
X004707Y014905D01*
X004707Y015064D02*
X000413Y015064D01*
X000413Y015222D02*
X004707Y015222D01*
X004707Y015381D02*
X000413Y015381D01*
X000419Y015539D02*
X004707Y015539D01*
X004707Y015698D02*
X000435Y015698D01*
X000452Y015856D02*
X004707Y015856D01*
X004707Y016015D02*
X000468Y016015D01*
X000484Y016173D02*
X004707Y016173D01*
X004707Y016332D02*
X000501Y016332D01*
X000517Y016490D02*
X004707Y016490D01*
X004707Y016649D02*
X000533Y016649D01*
X000550Y016807D02*
X004707Y016807D01*
X004707Y016966D02*
X000567Y016966D01*
X000600Y017124D02*
X004707Y017124D01*
X004707Y017283D02*
X000634Y017283D01*
X000667Y017441D02*
X004707Y017441D01*
X004707Y017600D02*
X000700Y017600D01*
X000733Y017758D02*
X004707Y017758D01*
X004707Y017917D02*
X000766Y017917D01*
X000799Y018075D02*
X004707Y018075D01*
X004707Y018234D02*
X000832Y018234D01*
X000865Y018392D02*
X004707Y018392D01*
X004707Y018551D02*
X000915Y018551D01*
X000966Y018709D02*
X004707Y018709D01*
X004707Y018868D02*
X001016Y018868D01*
X001067Y019026D02*
X004707Y019026D01*
X004707Y019185D02*
X001117Y019185D01*
X001168Y019343D02*
X004707Y019343D01*
X004707Y019502D02*
X001219Y019502D01*
X001269Y019660D02*
X004707Y019660D01*
X004707Y019819D02*
X001321Y019819D01*
X001390Y019977D02*
X004707Y019977D01*
X004707Y020136D02*
X001459Y020136D01*
X001529Y020294D02*
X004707Y020294D01*
X004707Y020453D02*
X001598Y020453D01*
X001667Y020611D02*
X004707Y020611D01*
X004707Y020770D02*
X001736Y020770D01*
X001806Y020928D02*
X004707Y020928D01*
X004707Y021087D02*
X001875Y021087D01*
X001955Y021245D02*
X004707Y021245D01*
X004707Y021404D02*
X002044Y021404D01*
X002134Y021562D02*
X004707Y021562D01*
X002311Y021721D02*
X002224Y021721D01*
X012487Y011735D02*
X014719Y011735D01*
X014743Y011711D02*
X014743Y011711D01*
X014655Y011507D02*
X014486Y011437D01*
X014357Y011307D01*
X014287Y011138D01*
X014287Y010355D01*
X014357Y010186D01*
X014486Y010057D01*
X014655Y009987D01*
X014838Y009987D01*
X015007Y010057D01*
X015137Y010186D01*
X015207Y010355D01*
X015207Y011138D01*
X015137Y011307D01*
X015007Y011437D01*
X014838Y011507D01*
X014655Y011507D01*
X014468Y011418D02*
X014052Y011418D01*
X014060Y011413D02*
X013999Y011457D01*
X013931Y011492D01*
X013859Y011515D01*
X013785Y011527D01*
X013767Y011527D01*
X013767Y010767D01*
X013727Y010767D01*
X013727Y011527D01*
X013709Y011527D01*
X013635Y011515D01*
X013563Y011492D01*
X013495Y011457D01*
X013434Y011413D01*
X013381Y011360D01*
X013336Y011299D01*
X013302Y011231D01*
X013279Y011159D01*
X013267Y011085D01*
X013267Y010767D01*
X013727Y010767D01*
X013727Y010727D01*
X013267Y010727D01*
X013267Y010409D01*
X013279Y010335D01*
X013302Y010263D01*
X013336Y010195D01*
X013381Y010134D01*
X013434Y010081D01*
X013495Y010036D01*
X013563Y010002D01*
X013635Y009979D01*
X013709Y009967D01*
X013727Y009967D01*
X013727Y010727D01*
X013767Y010727D01*
X013767Y010767D01*
X014227Y010767D01*
X014227Y011085D01*
X014215Y011159D01*
X014192Y011231D01*
X014157Y011299D01*
X014113Y011360D01*
X014060Y011413D01*
X014177Y011260D02*
X014337Y011260D01*
X014287Y011101D02*
X014224Y011101D01*
X014227Y010943D02*
X014287Y010943D01*
X014287Y010784D02*
X014227Y010784D01*
X014227Y010727D02*
X013767Y010727D01*
X013767Y009967D01*
X013785Y009967D01*
X013859Y009979D01*
X013931Y010002D01*
X013999Y010036D01*
X014060Y010081D01*
X014113Y010134D01*
X014157Y010195D01*
X014192Y010263D01*
X014215Y010335D01*
X014227Y010409D01*
X014227Y010727D01*
X014227Y010626D02*
X014287Y010626D01*
X014287Y010467D02*
X014227Y010467D01*
X014207Y010309D02*
X014306Y010309D01*
X014393Y010150D02*
X014125Y010150D01*
X013900Y009992D02*
X014643Y009992D01*
X014850Y009992D02*
X015643Y009992D01*
X015850Y009992D02*
X016163Y009992D01*
X016321Y009833D02*
X012487Y009833D01*
X012487Y009675D02*
X016480Y009675D01*
X016841Y009992D02*
X022007Y009992D01*
X022007Y010150D02*
X016683Y010150D01*
X016524Y010309D02*
X022007Y010309D01*
X022007Y010467D02*
X016366Y010467D01*
X016207Y010626D02*
X022007Y010626D01*
X022007Y010784D02*
X016207Y010784D01*
X016207Y010943D02*
X022007Y010943D01*
X022007Y011101D02*
X016207Y011101D01*
X016157Y011260D02*
X021895Y011260D01*
X021736Y011418D02*
X016026Y011418D01*
X015468Y011418D02*
X015026Y011418D01*
X015157Y011260D02*
X015337Y011260D01*
X015287Y011101D02*
X015207Y011101D01*
X015207Y010943D02*
X015287Y010943D01*
X015287Y010784D02*
X015207Y010784D01*
X015207Y010626D02*
X015287Y010626D01*
X015287Y010467D02*
X015207Y010467D01*
X015188Y010309D02*
X015306Y010309D01*
X015393Y010150D02*
X015101Y010150D01*
X015747Y010747D02*
X018047Y008447D01*
X017792Y009041D02*
X022007Y009041D01*
X022007Y009199D02*
X017634Y009199D01*
X017475Y009358D02*
X022007Y009358D01*
X022007Y009516D02*
X017317Y009516D01*
X017158Y009675D02*
X022007Y009675D01*
X022007Y009833D02*
X017000Y009833D01*
X013767Y009992D02*
X013727Y009992D01*
X013594Y009992D02*
X012487Y009992D01*
X012487Y010150D02*
X013369Y010150D01*
X013287Y010309D02*
X012487Y010309D01*
X012487Y010467D02*
X013267Y010467D01*
X013267Y010626D02*
X012487Y010626D01*
X012487Y010784D02*
X013267Y010784D01*
X013267Y010943D02*
X012487Y010943D01*
X012487Y011101D02*
X013270Y011101D01*
X013317Y011260D02*
X012487Y011260D01*
X012487Y011418D02*
X013442Y011418D01*
X013727Y011418D02*
X013767Y011418D01*
X013767Y011260D02*
X013727Y011260D01*
X013727Y011101D02*
X013767Y011101D01*
X013767Y010943D02*
X013727Y010943D01*
X013727Y010784D02*
X013767Y010784D01*
X013767Y010626D02*
X013727Y010626D01*
X013727Y010467D02*
X013767Y010467D01*
X013767Y010309D02*
X013727Y010309D01*
X013727Y010150D02*
X013767Y010150D01*
X012487Y011577D02*
X021578Y011577D01*
X016900Y013742D02*
X016900Y013742D01*
X016795Y013796D02*
X016635Y013796D01*
X016635Y013954D02*
X016795Y013954D01*
X016795Y014113D02*
X016635Y014113D01*
X016635Y014271D02*
X016795Y014271D01*
X016795Y014430D02*
X016635Y014430D01*
X016635Y014588D02*
X016795Y014588D01*
X016795Y015064D02*
X016635Y015064D01*
X016635Y015222D02*
X016795Y015222D01*
X016795Y015381D02*
X016635Y015381D01*
X016635Y015539D02*
X016795Y015539D01*
X016795Y015698D02*
X016635Y015698D01*
X017019Y015723D02*
X017019Y015723D01*
X011002Y005395D02*
X008187Y005395D01*
X008187Y005237D02*
X011137Y005237D01*
X019347Y004747D02*
X020647Y004747D01*
X020847Y004547D01*
X020847Y002247D01*
X020647Y002047D01*
X021133Y027585D02*
X015752Y027585D01*
X015730Y027574D02*
X015802Y027611D01*
X015867Y027658D01*
X015923Y027715D01*
X015971Y027780D01*
X016007Y027851D01*
X016032Y027928D01*
X016044Y028007D01*
X016044Y028047D01*
X015534Y028047D01*
X015534Y027537D01*
X015574Y027537D01*
X015654Y027549D01*
X015730Y027574D01*
X015534Y027585D02*
X015534Y027585D01*
X015534Y027744D02*
X015534Y027744D01*
X015534Y027902D02*
X015534Y027902D01*
X015534Y028047D02*
X015534Y028047D01*
X015534Y028061D02*
X015534Y028061D01*
X015534Y028219D02*
X015534Y028219D01*
X015534Y028378D02*
X015534Y028378D01*
X015924Y028378D02*
X019205Y028378D01*
X019668Y028219D02*
X016015Y028219D01*
X016044Y028061D02*
X020057Y028061D01*
X020447Y027902D02*
X016024Y027902D01*
X015945Y027744D02*
X020836Y027744D01*
D24*
X014247Y012547D03*
X007997Y005797D03*
M02*
